<svg id="Group_149" data-name="Group 149" xmlns="http://www.w3.org/2000/svg" xmlns:xlink="http://www.w3.org/1999/xlink" width="748.064" height="261.232" viewBox="0 0 748.064 261.232">
  <defs>
    <clipPath id="clip-path">
      <rect id="Rectangle_91" data-name="Rectangle 91" width="748.064" height="261.232" fill="none"/>
    </clipPath>
  </defs>
  <g id="Group_148" data-name="Group 148" clip-path="url(#clip-path)">
    <path id="Path_2019" data-name="Path 2019" d="M1391.679,98.515c-33.879-18.993-17.836-56.331,15.935-57.073,119.358-2.622,185.97,60.975,185.97,60.975l7.457-58.637S1360-66.008,1338.17,62.133c-3.215,18.871-.7,48.032,21.591,59.643,17.423,11.593,131.9,39.373,147.011,54.5,33.191,34.188-74.019,39.051-74.019,39.051l1.3,39.507s123.523,8.638,132.7-46.875c12.168-73.57-130.031-84.192-175.081-109.448" transform="translate(-852.977 0)" fill="#f62a20"/>
    <path id="Path_2020" data-name="Path 2020" d="M.36,460.273S-.95,385.695,1.425,355.5c0,0,78.568-40.253,84.161-38.348.446.152-9.278,54.418-9.278,54.418l-57.271,2.773-1.011,36,33.731-2.4L57.7,431.485l-38.919-3.512-.358,32.508Z" transform="translate(0 -202.291)" fill="#f62a20"/>
    <path id="Path_2021" data-name="Path 2021" d="M254.927,508.265l.5,65.928-25.942,1s7.207-71.251,6.486-70.817,18.958,3.891,18.958,3.891" transform="translate(-146.403 -321.772)" fill="#f62a20"/>
    <path id="Path_2022" data-name="Path 2022" d="M253.218,372.022,276.2,391.543l-10.1,19.451-18.7-5.048s5.583-30.813,5.82-33.924" transform="translate(-157.831 -237.337)" fill="#f62a20"/>
    <path id="Path_2023" data-name="Path 2023" d="M367.283,337.522l26.429-2.871,55.025,98.818-3.607-66.7,42.122-5.02L480.814,472.17l-23.527-2.046L397.38,396.1l-.663,78.631-29.434-5.318Z" transform="translate(-234.314 -213.495)" fill="#f62a20"/>
    <path id="Path_2024" data-name="Path 2024" d="M1271.31,383.445l34.678,16.88s-.128,77.227,25.909,73.694c20.494-2.78,10.642-71.256,10.642-71.256l29.71,6.019s-1.96,93.428-39.33,92.276c-58.983-1.819-61.61-117.614-61.61-117.614" transform="translate(-811.051 -244.624)" fill="#f62a20"/>
    <path id="Path_2025" data-name="Path 2025" d="M880.324,410.126c-3.242-81.1-105.843-75.388-105.843-75.388-.059.028-.039.155.046.363l.158,1.236c.813,14.936-.2,129.663-.2,129.663s107.9-4.49,105.843-55.874m-28-.248c-2.644,15.027-31.756,21.4-46.528,24.068l-6.877-59.3c19.78,3.943,57.267,13.283,53.405,35.234" transform="translate(-494.07 -213.495)" fill="#f62a20"/>
  </g>
</svg>
