<svg xmlns="http://www.w3.org/2000/svg" xmlns:xlink="http://www.w3.org/1999/xlink" width="1189.569" height="525.445" viewBox="0 0 1189.569 525.445">
  <defs>
    <clipPath id="clip-path">
      <rect id="Rectangle_88" data-name="Rectangle 88" width="1189.568" height="525.445" fill="#f62a20"/>
    </clipPath>
  </defs>
  <g id="Group_143" data-name="Group 143" transform="translate(0 0)">
    <g id="Group_142" data-name="Group 142" transform="translate(0 0)" clip-path="url(#clip-path)">
      <path id="Path_1967" data-name="Path 1967" d="M886.765,544.48c.014.013.027,0,.038-.041-.041.01-.056.024-.038.041" transform="translate(-208.051 -127.736)" fill="#f62a20"/>
      <path id="Path_1968" data-name="Path 1968" d="M976.043,493.763c.3-.589-99.82,2.679-99.557,3.291,0,0,5.862,29.79,5.418,31.448,1.14-.309,27.062-.266,29.612.034-.185,4.641-11.5,119.1-11.5,119.1,1.878-.01,39.77,1.479,41.642,1.638,0,0-3.326-23.452-4.6-92.789-.094-5.131-1.072-22.446-.969-27.09,2.562-.1,35.651,2.183,36.769,2.581-.34-1.689,3.183-38.217,3.183-38.217" transform="translate(-205.641 -132.889)" fill="#f62a20"/>
      <path id="Path_1969" data-name="Path 1969" d="M1002.439,548.528c.019-.016.006-.03-.035-.043.009.04.021.055.035.043" transform="translate(-235.184 -128.686)" fill="#f62a20"/>
      <path id="Path_1970" data-name="Path 1970" d="M1193.127,162.926h52.653l128.343,308.746-2.673-236.934,98.051,6.147-50.082,320.038-46.1-2.81-98.192-154.269,45.386,159.827-78.012-13.057Z" transform="translate(-279.932 -38.226)" fill="#f62a20"/>
      <path id="Path_1971" data-name="Path 1971" d="M674,185.755l38.059-4.134,64.876,91.79,13.287-139.048,76.559-10.633L823.125,329.142l-33.88-2.946-65.716-51.757,2.332,58.386-42.368-6.96Z" transform="translate(-158.133 -29.029)" fill="#f62a20"/>
      <path id="Path_1972" data-name="Path 1972" d="M231.339,477.772l89.818-60.278,12.2,49.736s-47.219,28.614-51.022,29.254a221.555,221.555,0,0,1,4.786,27.117s29.829-8.881,35.665-9.217c0,0,.275,25.916-1.026,27.909-.651,1-33.437.944-33.437.944l5.215,17.208,36.258,1.37-5.481,30.04-59.931-2.2S230.2,504.8,231.339,477.772" transform="translate(-54.27 -97.952)" fill="#f62a20"/>
      <path id="Path_1973" data-name="Path 1973" d="M947.079,130.3s39.509-4.546,92.189-6.566l4.5,81.909s-69.917,3.2-73.905,3.872l-4.7,32.226s40.342-4.785,46.46-5.137c0,0-.938,31.837-2.3,33.926-.683,1.046-45.435,7.38-45.435,7.38l-3.515,28.454,163.854-17.646-1.772,59.857L929.8,336.986s16.084-178.355,17.275-206.69" transform="translate(-218.151 -29.03)" fill="#f62a20"/>
      <path id="Path_1974" data-name="Path 1974" d="M122.715,433.874c110.877-57.453,72.821-203.855,26.546-246.237C120.2,161.019,5.318,162.957,5.318,162.957,5.243,191.336,0,552.608,0,552.608l60.014-1.91c.416-18.436-4.628-95.144-3.995-95.767s32.3.993,32.3.993l36.643,91.363,73.483,3.626ZM66.388,381.568s-8.47-117.881-8.727-143.757l40.748,2.38s4.429,40.476,2.388,79.492a392.8,392.8,0,0,1-8.19,62.9s-26.067.116-26.22-1.012" transform="translate(0 -38.226)" fill="#f62a20"/>
      <path id="Path_1975" data-name="Path 1975" d="M1069.424,548.688l-1.066,86.34-30.411,2.755s-1.883-89.016-2.814-88.455,34.291-.641,34.291-.641" transform="translate(-242.859 -128.733)" fill="#f62a20"/>
      <path id="Path_1976" data-name="Path 1976" d="M1029.967,471.4l48.078,3.532-9.469,38.806-32.223,1.384s-6.819-38.035-6.386-43.721" transform="translate(-241.646 -110.601)" fill="#f62a20"/>
      <path id="Path_1977" data-name="Path 1977" d="M631.237,253.123v110.06l-53.744-.413s28.68-106.36,27.567-105.69,26.177-3.957,26.177-3.957" transform="translate(-135.491 -59.388)" fill="#f62a20"/>
      <path id="Path_1978" data-name="Path 1978" d="M609.324,197.519l38.886-8.566L641.171,226.8H612.68s-3.722-24.486-3.356-29.285" transform="translate(-142.954 -44.332)" fill="#f62a20"/>
      <path id="Path_1979" data-name="Path 1979" d="M637.65,486.3s13.523.6,29.184.049c0,0,1.975,55.064,0,119.1,0,0,38.316.288,37.954,0s2.556,30.22,2.556,30.22c.555.93-68.1-.483-68.1-.483S625.462,493.315,625.465,486.3" transform="translate(-150.079 -125.565)" fill="#f62a20"/>
      <path id="Path_1980" data-name="Path 1980" d="M567.488,21.827,458.006,295.27,427.695,303.8,383.84,237.9l-52.292,56.725S267.177,81.235,265.283,75.552s68.324,3.789,68.324,3.789L348.28,233.164l34.4-57.546,46.064,61.3L494.42,0Z" transform="translate(-62.232 0)" fill="#f62a20"/>
      <path id="Path_1981" data-name="Path 1981" d="M712.916,496.983l47.916,2.849S747.56,608.973,781.173,604.021c26.457-3.9,9.331-96.1,9.331-96.1l40.8-8.093s-.572,143.709-48.814,142.094c-76.145-2.549-69.578-144.944-69.578-144.944" transform="translate(-167.231 -128.071)" fill="#f62a20"/>
      <path id="Path_1982" data-name="Path 1982" d="M1202.884,564.517c3.4-56.868-27.226-91.382-53.931-93.133-36.609-2.4-45.372,62.4-45.11,83.977.254,20.953,4.885,61.581,46.253,59.6,16.25-.778,50.714-19.027,52.788-50.445m-30.033-14.555c-2.335,18.941-15.387,20.5-22.755,20.67s-15.394-4.067-17.738-14.822c-3.645-16.731,7.076-29.747,17.738-30.431s26.52,8.43,22.755,24.583" transform="translate(-258.983 -110.581)" fill="#f62a20"/>
      <path id="Path_1983" data-name="Path 1983" d="M602.741,603.9c1.941-29.411-11.981-58.292-36.979-59.931-34.27-2.247-42.473,31.165-42.227,51.36.238,19.614,4.572,57.646,43.3,55.792,15.211-.729,33.966-17.811,35.909-47.221m-23.654-3.832c-.922,8.665-8.528,16.1-15.832,16.1-8.139,0-16.987-10.176-15.892-20.423,1.705-15.967,9.514-19.466,16.187-19.933,8.379-.588,17.18,8.814,15.537,24.253" transform="translate(-127.535 -140.321)" fill="#f62a20"/>
      <path id="Path_1984" data-name="Path 1984" d="M468.629,495.975,432.771,576.2l-33.08-78.305-32.948,17.713,68.736,125.942,78.16-146.24Z" transform="translate(-93.609 -126.395)" fill="#f62a20"/>
    </g>
  </g>
</svg>
