<svg xmlns="http://www.w3.org/2000/svg" xmlns:xlink="http://www.w3.org/1999/xlink" width="205.964" height="782.546" viewBox="0 0 205.964 782.546">
  <defs>
    <clipPath id="clip-path">
      <rect id="Rectangle_90" data-name="Rectangle 90" width="205.964" height="782.546" fill="none"/>
    </clipPath>
  </defs>
  <g id="Group_147" data-name="Group 147" transform="translate(0 -0.004)">
    <g id="Group_146" data-name="Group 146" transform="translate(0 0.004)" clip-path="url(#clip-path)">
      <path id="Path_2005" data-name="Path 2005" d="M83.255,104.728c-16.3,13.74-22.9-74.8-22.9-74.8L0,28.237s22.734,73.024,40.178,99.654c45.108,68.862,62.718,8.908,67.688-11.185,2.13-16.587,4.155-71.487,9.609-82.071,17.611-23.086,21.434,88.144,21.434,88.144l21.684-.715S164.307,11.035,134.865,1.709C82.94-14.738,97.575,92.656,83.255,104.728" transform="matrix(0.996, 0.087, -0.087, 0.996, 13.953, -10.884)" fill="#f62a20"/>
      <path id="Path_2006" data-name="Path 2006" d="M56.3,89.484C34.862-5.924-3.619,56.985.274,120.34L95.46,135.8l-.425-28.572c-4.1-.1-29.754,1.11-29.893.958s.221-7.745.221-7.745l59.525-19.568L140.422,0Zm-7.458,16.21s-26.19,2.031-31.939,2.093c0,0-.359-24.689,14.14-25.747,12.174-.888,18.2,19.27,17.918,22.986-.031.4-.069.661-.12.668" transform="translate(48.01 457.714) rotate(-8)" fill="#f62a20"/>
      <path id="Path_2007" data-name="Path 2007" d="M0,102.546l1.97-25.81s78.454-.685,75.837-25.607c-2.06-19.616-72.15-15.338-72.15-15.338L1.506,0S98.691,14.381,97.838,50.15C96.491,106.608,0,102.546,0,102.546" transform="matrix(0.995, -0.105, 0.105, 0.995, 57.804, 586.821)" fill="#f62a20"/>
      <path id="Path_2008" data-name="Path 2008" d="M247.509,2047.576c-26.025-2.255-51.582,13.915-53.032,42.951-1.989,39.8,27.578,49.332,45.448,49.048,17.356-.277,51.01-5.311,49.37-50.29-.645-17.668-15.761-39.453-41.786-41.708m-3.39,27.474c7.667,1.071,14.25,9.906,14.25,18.39,0,9.453-9.005,19.73-18.072,18.458-14.129-1.981-17.226-11.051-17.639-18.8-.52-9.732,7.8-19.955,21.462-18.047" transform="translate(-122.146 -1362.005)" fill="#f62a20"/>
      <path id="Path_2009" data-name="Path 2009" d="M230.862,735.748l-1.821-16.766L269.478,690.4l-61.256-5.853-4.684-33.728,90.492,19.231-1.3,14.925-22.8,28.951,25.722-1.027-3.066,18.665Z" transform="translate(-134.908 -431.377)" fill="#f62a20"/>
      <path id="Path_2010" data-name="Path 2010" d="M185.856,470.913s-2-17.405-2.893-40.613l36.084-1.981s1.41,30.8,1.706,32.558l14.2,2.071s-2.108-17.772-2.263-20.468c0,0,14.025.413,14.946,1.014.461.3,3.251,20.016,3.251,20.016l12.535,1.549-7.774-72.185,26.37.78-5.1,84.869s-78.573-7.086-91.056-7.61" transform="translate(-121.271 -260.406)" fill="#f62a20"/>
      <path id="Path_2011" data-name="Path 2011" d="M332.93,928.981h48.486l-.182,23.677s-46.856-12.635-46.561-12.145-1.743-11.532-1.743-11.532" transform="translate(-220.672 -615.747)" fill="#f62a20"/>
      <path id="Path_2012" data-name="Path 2012" d="M272.534,933.687l-3.774-17.131,16.675,3.1v12.551s-10.787,1.64-12.9,1.479" transform="translate(-178.139 -607.512)" fill="#f62a20"/>
      <path id="Path_2013" data-name="Path 2013" d="M9.615,0,130.079,48.231l3.756,13.354L104.806,80.9l24.99,36.424s-94.009,28.358-96.512,29.193,1.669-43.487,1.669-43.487l67.765-6.464L77.367,81.416l27-20.293L0,32.189Z" transform="translate(26.52 318.234) rotate(-8)" fill="#f62a20"/>
    </g>
  </g>
</svg>
