<svg id="Group_145" data-name="Group 145" xmlns="http://www.w3.org/2000/svg" xmlns:xlink="http://www.w3.org/1999/xlink" width="683.753" height="445.676" viewBox="0 0 683.753 445.676">
  <defs>
    <clipPath id="clip-path">
      <rect id="Rectangle_89" data-name="Rectangle 89" width="683.753" height="445.676" fill="none"/>
    </clipPath>
  </defs>
  <g id="Group_144" data-name="Group 144" clip-path="url(#clip-path)">
    <path id="Path_1995" data-name="Path 1995" d="M396.093,522.043c.013.011.024,0,.035-.034-.038.008-.052.019-.035.034" transform="translate(-178.285 -263.636)" fill="#f62a20"/>
    <path id="Path_1996" data-name="Path 1996" d="M474.918,456.753c.277-.437-92.294,1.985-92.051,2.438,0,0,5.42,22.075,5.009,23.3,1.054-.229,25.022-.2,27.38.026-.172,3.439-10.63,88.256-10.63,88.256,1.736-.008,36.771,1.1,38.5,1.213,0,0-3.075-17.378-4.254-68.757-.087-3.8-.992-16.632-.9-20.074,2.369-.074,32.963,1.617,34,1.912-.314-1.251,2.943-28.318,2.943-28.318" transform="translate(-172.334 -230.652)" fill="#f62a20"/>
    <path id="Path_1997" data-name="Path 1997" d="M544.949,527.252c.018-.013,0-.025-.032-.036.008.033.019.046.032.036" transform="translate(-245.275 -266.265)" fill="#f62a20"/>
    <path id="Path_1998" data-name="Path 1998" d="M961.84,492.314l25.474-32.357,38.723,74,49.622-126.151,41.034,8.991-84.374,161.057,3.262,66.047-51.53,7.731,18.686-83.227s-37.078-76.1-40.9-76.1" transform="translate(-432.939 -205.961)" fill="#f62a20"/>
    <path id="Path_1999" data-name="Path 1999" d="M836.061,446.688c58.556-27.311,38.458-96.907,14.019-117.054-15.348-12.653-76.019-11.732-76.019-11.732-.04,13.491-2.809,185.228-2.809,185.228l31.695-.908c.219-8.764-2.444-45.228-2.109-45.525s17.056.472,17.056.472L837.246,500.6l38.808,1.723Zm-29.747-24.865s-4.473-56.037-4.609-68.338l21.52,1.132a243.589,243.589,0,0,1,1.261,37.788,169.343,169.343,0,0,1-4.325,29.9s-13.767.055-13.847-.481" transform="translate(-347.153 -160.546)" fill="#f62a20"/>
    <path id="Path_2000" data-name="Path 2000" d="M709.431,88.788C752.794,68.562,733.5,23.619,715.406,8.7,704.04-.672,659.11.011,659.11.011c-.029,9.99-25.2,202.175-25.2,202.175l46.6-.673c.162-6.49-1.81-98.5-1.562-98.718s12.63.349,12.63.349L705.9,135.308l50.592,9.442ZM682.995,76.97s-3.313-41.5-3.413-50.608l15.937.838a180.354,180.354,0,0,1,.934,27.985,125.392,125.392,0,0,1-3.2,22.142s-10.2.041-10.255-.356" transform="translate(-285.331 0)" fill="#f62a20"/>
    <path id="Path_2001" data-name="Path 2001" d="M389.093,8.99l35.165,3.122s-.167,90.65,33.787,86.5c26.725-3.263,22-80.661,22-80.661L528.8,11.376s-20.693,120.332-69.425,118.98C382.46,128.221,389.093,8.99,389.093,8.99" transform="translate(-175.072 -4.54)" fill="#f62a20"/>
    <path id="Path_2002" data-name="Path 2002" d="M49.063,370.893c-22.407-25.827,80.5-48.024,110.692-49.637,83.411-4.454,149.76,26.266,166.465,26.266l6.675-51s-70.044-20.948-169.211-20.936c-33.134,0-150.3,19.4-162.518,63.663-4.438,16.08,4.181,43.145,19.326,51.871,15.6,10.083,105.291,22.4,122.551,31.045C180.692,450.074,8.337,445.722,8.337,445.722L9.5,480.082s188.059,7.512,196.278-40.767c10.892-63.983-137.032-45.732-156.718-68.422" transform="translate(0 -139.184)" fill="#f62a20"/>
    <path id="Path_2003" data-name="Path 2003" d="M659.766,527.845c2.26-30.818-13.947-61.08-43.048-62.8-39.894-2.355-49.443,32.657-49.158,53.818.277,20.553,5.323,60.4,50.4,58.461,17.708-.763,39.542-18.663,41.8-49.481m-27.536-4.015C631.157,532.91,622.3,540.7,613.8,540.7c-9.476,0-19.775-10.664-18.5-21.4,1.985-16.731,11.076-20.4,18.845-20.887,9.753-.615,20,9.236,18.087,25.414" transform="translate(-255.465 -234.81)" fill="#f62a20"/>
    <path id="Path_2004" data-name="Path 2004" d="M273.255,73.362c2.629-33.261-16.22-65.923-50.068-67.777-46.4-2.542-57.507,35.246-57.175,58.084.322,22.182,6.192,65.193,58.624,63.1,20.6-.824,45.99-20.143,48.619-53.4M241.228,69.03c-1.248,9.8-11.546,18.212-21.437,18.212-11.02,0-23-11.509-21.518-23.1,2.309-18.058,12.883-22.014,21.919-22.543,11.344-.664,23.261,9.968,21.036,27.429" transform="translate(-74.721 -2.759)" fill="#f62a20"/>
  </g>
</svg>
