<svg xmlns="http://www.w3.org/2000/svg" xmlns:xlink="http://www.w3.org/1999/xlink" width="1234.685" height="335.411" viewBox="0 0 1234.685 335.411">
  <defs>
    <clipPath id="clip-path">
      <rect id="Rectangle_82" data-name="Rectangle 82" width="1234.685" height="335.411" transform="translate(-132 -36)" fill="none"/>
    </clipPath>
  </defs>
  <g id="Group_129" data-name="Group 129" transform="translate(132 36.001)">
    <g id="Group_128" data-name="Group 128" transform="translate(0 -0.001)" clip-path="url(#clip-path)">
      <path id="Path_1796" data-name="Path 1796" d="M520.006,514.57v65.005H483.322s15.2-63,14.382-62.586,22.3-2.419,22.3-2.419" transform="translate(-321.516 -327.507)" fill="#f62a20"/>
      <path id="Path_1797" data-name="Path 1797" d="M511.206,426.958,508.06,448.61l-22.781,2.536s-3.335-27.789-3.111-30.723" transform="translate(-309.676 -271.625)" fill="#f62a20"/>
      <path id="Path_1798" data-name="Path 1798" d="M666.227,428.116a433.59,433.59,0,0,0-10.747,77.256s47.191-5.23,46.809-5.424,2.7,26.379,2.7,26.379c.585.627-71.876-.326-71.876-.326s-1.69-93.19-1.687-97.919" transform="translate(-413.214 -272.461)" fill="#f62a20"/>
      <path id="Path_1799" data-name="Path 1799" d="M987.732,486.512c-1.874-60.8-133.791-58.275-133.791-58.275-.034.021-.023.116.027.273l.091.926c.47,11.2-.118,97.194-.118,97.194s134.978-1.6,133.791-40.118m-37.036,0c0,21.529-61.77,16.091-61.77,16.091l-3.975-44.453s65.745-.52,65.745,27.657" transform="translate(-543.494 -272.55)" fill="#f62a20"/>
      <path id="Path_1800" data-name="Path 1800" d="M184.361,130.212,136.115,322.107l-19.226,5.407L89.072,285.721l-45.589,56.29S-55.84,96.258-57.041,92.653,50.094,130.212,50.094,130.212l16.424,152.5,26.34-63.79,24.7,66.169,24.609-169.716Z" transform="translate(0 -73.434)" fill="#f62a20"/>
      <path id="Path_1801" data-name="Path 1801" d="M1344.334,162.062c.01.01.019,0,.028-.029-.03.007-.041.017-.028.029" transform="translate(-855.623 -103.129)" fill="#f62a20"/>
      <path id="Path_1802" data-name="Path 1802" d="M1418.642,84.05c.271-.383-90.343,1.742-90.106,2.139,0,0,5.305,26.371,4.9,27.449,1.032-.2,24.493-.173,26.8.023-.168,3.018-10.405,70.446-10.405,70.446,1.7-.007,35.994.962,37.688,1.064,0,0-3.009-15.249-4.164-60.335-.085-3.336-.971-7.6-.877-10.615,2.318-.065,32.266,1.419,33.278,1.678-.308-1.1,2.881-31.85,2.881-31.85" transform="translate(-845.571 -53.466)" fill="#f62a20"/>
      <path id="Path_1803" data-name="Path 1803" d="M1522.172,168.285c.014-.012,0-.022-.026-.031.006.029.015.04.026.031" transform="translate(-968.798 -107.088)" fill="#f62a20"/>
      <path id="Path_1804" data-name="Path 1804" d="M1199.717,97.725l-34.834,92.423,21.644,1.408,9-28.855,11.1-.614,9.656,31.817,34.3-9.306Zm-4.082,51.682,4.935-19.437h2.23l4.935,19.29Z" transform="translate(-755.018 -62.199)" fill="#f62a20"/>
      <path id="Path_1805" data-name="Path 1805" d="M985.975,99.142l-27.59,1.989.245,45.035-31.3-1.521,1.536-42.318-21.993-3.142c-2.469,28.466-1.107,95.424-1.107,95.424l21.584.2.372-30.648,29.825,1.943-.453,27.614,23.989.895Z" transform="translate(-580.011 -63.1)" fill="#f62a20"/>
      <path id="Path_1806" data-name="Path 1806" d="M1783.083,177.943l7.212,65.005-38.635,2.9s9.372-65.894,8.528-65.484,22.9-2.419,22.9-2.419" transform="translate(-1118.737 -113.255)" fill="#f62a20"/>
      <path id="Path_1807" data-name="Path 1807" d="M1749.878,90.142l32.3,1.822-4.3,20.018-23.7.714s-4.582-19.621-4.29-22.554" transform="translate(-1113.231 -57.372)" fill="#f62a20"/>
      <path id="Path_1808" data-name="Path 1808" d="M652.873,108.778l-30.051,82.193-18.527,5.211-26.8-40.273L528.3,198.692S539.948,105.476,538.79,102s28.159,4.053,28.159,4.053l-11.194,46.956,30.527-34.893L604.935,155.3l8.248-49.248Z" transform="translate(-332.879 -64.476)" fill="#f62a20"/>
      <path id="Path_1809" data-name="Path 1809" d="M1877.644,137.329c-18.4-16.351,35.176-16.435,35.176-16.435l-5.388-30.969s-44.776,1.221-52.5,32.3c-2.1,8.47,1.982,21.161,9.163,25.757,7.394,5.311,22.863,8.89,31.046,13.442,17.849,14.7-36.809,15.316-36.809,15.316l.553,18.1s57.817,6.53,61.714-18.9c5.164-33.7-31.622-28.54-42.958-38.612" transform="translate(-1180.256 -63.887)" fill="#f62a20"/>
      <path id="Path_1810" data-name="Path 1810" d="M1796.666,440.88l23.918-2.6,40.771,57.685L1858.09,435.6l38.12-4.543-5.826,99.93-21.292-1.851-41.3-32.527,1.465,36.693-26.625-4.374Z" transform="translate(-1143.521 -274.356)" fill="#f62a20"/>
      <path id="Path_1811" data-name="Path 1811" d="M2105.525,261.525l97.844,5.913-18.1,48.5s-47.561-6.3-50.067-5.876c0,0-7.857,48.164-6.624,58.658,0,0,26.168,1.631,30.013,1.41,0,0,.4,22.445-.452,23.758-.429.657-29.872,0-29.872,0l.312,10.822H2165.6l3.961,25.459-72.605-2.109s7.818-145.881,8.566-163.689" transform="translate(-1340.014 -166.452)" fill="#f62a20"/>
      <path id="Path_1812" data-name="Path 1812" d="M1714.291,522.766l6.751,66.838-25.792,2.069s-1.6-66.841-2.387-66.42,21.429-2.487,21.429-2.487" transform="translate(-1000.042 -536.594) rotate(7)" fill="#f62a20"/>
      <path id="Path_1813" data-name="Path 1813" d="M1683.958,432.49l32.281,2.374-4.3,26.088-23.691.93s-4.579-25.57-4.288-29.392" transform="translate(-1071.778 -281.468)" fill="#f62a20"/>
      <path id="Path_1814" data-name="Path 1814" d="M1431.1,448.85l-21.716,87.31-19.05,5.358-27.561-41.409-32.862,35.649s-21.924-87.081-23.114-90.652,24.408,2.381,24.408,2.381l9.221,49.643,21.618-36.165,28.949,38.522,16.889-54.8Z" transform="translate(-831.71 -282.569)" fill="#f62a20"/>
      <path id="Path_1815" data-name="Path 1815" d="M2071.548,51.173s19.316-78.079,133.263-41.346c75.115,24.214,104.44,117.034,70.057,152.467-30.359,31.286-67.41-15.356-71.926,10.835-3.461,20.077.315,34.673.315,34.673l-40.44-7.218s-.928-32.633,4.355-50.056c10.849-35.78,38.157,23.724,63.168-13.2,24.036-35.489-12.6-90.995-48.532-98.067-25.746-5.068-44.27-4.773-64.7,29.777Z" transform="translate(-1181.965 -475.593) rotate(13)" fill="#f62a20"/>
      <path id="Path_1816" data-name="Path 1816" d="M2319.607,605.867l47.46,3.487-6.324,38.306-34.832,1.366s-6.732-37.546-6.3-43.159" transform="translate(-1249.044 -886.837) rotate(13)" fill="#f62a20"/>
    </g>
  </g>
</svg>
