<svg id="Group_102" data-name="Group 102" xmlns="http://www.w3.org/2000/svg" xmlns:xlink="http://www.w3.org/1999/xlink" width="351.455" height="650.914" viewBox="0 0 351.455 650.914">
  <defs>
    <clipPath id="clip-path">
      <rect id="Rectangle_68" data-name="Rectangle 68" width="351.455" height="650.914" fill="none"/>
    </clipPath>
    <clipPath id="clip-path-2">
      <path id="Path_1339" data-name="Path 1339" d="M73.869,397.947c.038.256.065.514.087.775A62.431,62.431,0,0,0,71.842,386.1c.616,4.283,1.512,8.337,2.027,11.842M183.463,99.078c-16.97,3.181-42.426,34.052-52.993,49.627-2.242,3.3-47.4,57.459-34.76,73.26,2.833,3.542,6.529,11.108,10.294,13.234,10.612,6,27.1,13.312,45.886,3.049,16.124-8.812,33.106-35.226,32.31-36.721-1.423-2.664-14.016,4.03-26.965,10.724-12.639,6.533-25.617,13.069-28.873,10.9-20.015-13.344,26.29-58.643,38.367-69.185,22.123-19.314,30.808-19.656,49.069,16.162,12.264,24.056-8.428,48.81-19.314,58.29-14.607,12.724-29.693,12.863-51.511,38.47-28.318-18.792-49.124,19.2-49.124,19.2-8.332,14.7-16.957,24.077-25.2,48.146A252.651,252.651,0,0,0,59.3,379.586c-2.195,14.015-1.234,9.7,2.089,5.377,1.7-2.211,4.02-4.421,6.853-4.173,1.546.135,2.722,2.4,3.6,5.315-1.149-7.993-1.318-16.787,3.808-24.308,4.512-6.623,16.388-16.738,28.756-27.7-8,20.48-13.761,45.121-15.723,75.156-.31,4.756-.411,8.7-.317,13.043a20.777,20.777,0,0,0-5.268,2.793c-33.856,18.994-46.341,53.239-13.757,95.73,20.042,26.137,29.04,20.689,40.369,13.215,5.5-3.626,5.323-12.742-.3-16.11-5.793-3.471-13.486-.44-19.977-8.671-12.543-15.9-1.249-25.076-.041-29.929.542-2.179,5.295-4.69,8.289-6.53,1.373-.846,2.344-1.717,2.4-1.6,1.776,3.555,3.868,6.824,14.313,18.868,24.981,24.681,58.91,26.638,58.91,26.638s12.857,15.139,39.342,18.881c10.3,29.095,50.119,26.237,60.627,24.943a4.089,4.089,0,0,0,3.592-3.758c.222-3.2-1.4-8.084-11.176-12.165a40.54,40.54,0,0,1-12-7.588c16.837.282,36.052.5,46.188.242a28.635,28.635,0,0,0,13.234-3.617l4.31-2.012a10.289,10.289,0,0,0,5.694-8.477,7.66,7.66,0,0,0-4.136-7.9s3.559,9.875-5.864,11.859c-22.409,4.716-61.421-4.888-70.182-9.6-15.2-8.184-25.632-7.383-42.627-24.605-1.421-1.44-14.1-12.572-14.013-14.48.122-2.591,9.13,8.78,26.336,10.886,11.857,1.451,19.007,1.612,40.382-3.862,57.589-14.748,62.674-21.442,74.443-42.137a11.4,11.4,0,0,0,1.405-5.518v-.2a12.574,12.574,0,0,0-8.429-11.841c-9.314-3.494-18.259-4.916-36.166,12.29a17.609,17.609,0,0,0-2.142,2.342l-.24.036c-4.107.669-9.466,1.906-15.278,3.088-3.182.646-8.481.1-12.256-.452-2.574-.374-4.438-.749-4.434-.745.487.779-1.644-1.005-2.251-1.94-2.221-3.433-7.69-7.168-13.612-6.545-6.672.7-9.129,2.809-10.688,5.97-4.324,8.777-11.91-10.236-16.373-17.661-6.459-10.75-19.318-30.237-21.046-43.789s7.676-21.172,13.695-34.063c12.482-26.728,29.735-35.076,52.673-83.571,12.29-25.986,12.831-61.755,5.97-82.169-23.9-71.083-57.576-79.8-70.76-79.8a22.687,22.687,0,0,0-4.065.329" transform="translate(-50.354 -98.749)" fill="none"/>
    </clipPath>
  </defs>
  <g id="Group_97" data-name="Group 97">
    <g id="Group_96" data-name="Group 96" clip-path="url(#clip-path)">
      <path id="Path_1179" data-name="Path 1179" d="M90.141,324.6s14.509-10.711,23.98,2.257,9.065,33.847.858,36.009S99.26,373.44,92.666,376.472c-3.7,1.7-16.308,18.8-3.679,32.49,3.859,4.182,9.975,6.818,15.02,8.948l1.572.665a41.472,41.472,0,0,1,4.767,2.276c4.575,2.741,4.715,10.162.242,13.111-9.22,6.083-24.339,9.891-40.651-11.381C43.419,388,38.368,341.89,90.141,324.6" transform="translate(22.608 143.742)" fill="#854ca0"/>
      <path id="Path_1180" data-name="Path 1180" d="M112.313,212.631s21.014-7.13,25.944,8.177-33.905,44.123-43.883,58.02a57.811,57.811,0,0,0-9.026,21.3,7.6,7.6,0,0,1-7.906,8.4c-7.407-.545-18.39-4.1-13.351-21.168,7.351-24.905,30.392-62.614,48.223-74.725" transform="translate(28.175 94.636)" fill="#854ca0"/>
      <path id="Path_1181" data-name="Path 1181" d="M71.471,282.4c-.139-.165-3.387-4.084-2.822-7.6l1.608.222c-.462,2.884,2.464,6.41,2.494,6.446Z" transform="translate(30.765 123.264)" fill="#fff"/>
      <path id="Path_1182" data-name="Path 1182" d="M73.492,283.051a13.823,13.823,0,0,1-1.9-8.032l1.618.148a12.568,12.568,0,0,0,1.682,7.114Z" transform="translate(32.088 123.365)" fill="#fff"/>
      <path id="Path_1183" data-name="Path 1183" d="M76.283,282.211l-1.585-.335c.009-.038.871-3.7-.75-6.126l1.379-.8c1.98,2.961,1,7.091.956,7.265" transform="translate(33.171 123.333)" fill="#fff"/>
      <path id="Path_1184" data-name="Path 1184" d="M284.2,417s2.216-1.24,3.083-1.754c1.573-.933,4.443-8.37.139-13.937-2.954-3.818-16.181-7.847-36.517-13.059-25.181-6.455-54.765-22.679-54.765-22.679l-73.075-11.515,28.205,52.8Z" transform="translate(55.203 158.818)" fill="#ee5c75"/>
      <path id="Path_1185" data-name="Path 1185" d="M160.794,393.68s14.907-8.928,35.329,1.262c0,0,3.965,12.2,20,18.894,9.776,4.081,11.4,8.972,11.179,12.167a4.092,4.092,0,0,1-3.594,3.758c-11.7,1.44-59.714,4.827-62.91-36.08" transform="translate(72.127 174.97)" fill="#854ca0"/>
      <path id="Path_1186" data-name="Path 1186" d="M171.708,99.093c-16.97,3.183-42.455,33.937-53.023,49.512-2.242,3.3-46.48,58.482-33.839,74.283,2.832,3.54,5.6,10.215,9.364,12.343,10.612,6,27.11,13.179,45.9,2.916,16.125-8.81,33.508-35.019,32.712-36.513-2.809-5.268-49.647,25.808-56.238,21.413-20.015-13.343,26.1-58.35,38.177-68.893,22.123-19.314,31-19.947,49.259,15.869,12.264,24.056-8.428,48.81-19.314,58.29-29.917,26.058-99.873,59.406-107.8,180.84-6.672,102.184,84.625,107.452,84.625,107.452s15.8,18.61,48.459,19.663c0,0,57.621,1.407,78.117.892a28.666,28.666,0,0,0,13.233-3.619l4.31-2.012a10.286,10.286,0,0,0,5.694-8.478,7.654,7.654,0,0,0-4.136-7.895s3.561,9.873-5.864,11.859c-22.408,4.718-61.419-4.889-70.18-9.6-15.206-8.184-25.632-7.385-42.629-24.607-1.42-1.437-14.1-12.569-14.012-14.478.12-2.591,9.13,8.778,26.336,10.887,11.855,1.45,19.007,1.611,40.382-3.865,57.588-14.748,62.672-21.439,74.442-42.137a12.52,12.52,0,0,0-7.023-17.555c-9.316-3.494-18.259-4.916-36.168,12.288-6.636,6.378,2.593,1.57-2.381,2.381-4.107.669-9.716,2.408-15.527,3.59-5.355,1.088-18.048-1.844-18.652-2.778-2.222-3.433-7.731-8.028-13.653-7.405-6.672.7-9.13,2.807-10.688,5.97-4.325,8.777-11.912-10.234-16.373-17.661-6.459-10.751-19.318-30.236-21.046-43.79s7.675-21.171,13.695-34.06c12.482-26.73,29.733-35.076,52.671-83.572,12.29-25.984,12.833-61.755,5.97-82.169-27.038-80.412-66.555-80.9-74.794-79.358" transform="translate(34.338 44.301)" fill="#854ca0"/>
      <path id="Path_1187" data-name="Path 1187" d="M217.21,384.433a1.792,1.792,0,0,0,1.77-1.943l-.878-9.172c.349,2.587-5.707,11.218-.892,11.115" transform="translate(96.596 167.459)" fill="#fff"/>
      <path id="Path_1188" data-name="Path 1188" d="M217.156,384.526a1.787,1.787,0,0,1-1.575-.65c-.827-1.2.213-3.776,1.217-6.271a12.987,12.987,0,0,0,1.256-4.154l-.012-.119.175-.02c0,.039.009.08.012.122l.868,9.054a1.825,1.825,0,0,1-.461,1.4,1.926,1.926,0,0,1-1.4.639h-.084m.982-10.205a23.5,23.5,0,0,1-1.176,3.351c-.943,2.335-2.009,4.983-1.236,6.1a1.656,1.656,0,0,0,1.511.574,1.745,1.745,0,0,0,1.267-.581,1.649,1.649,0,0,0,.417-1.266Z" transform="translate(96.569 167.456)" fill="#fff"/>
      <path id="Path_1189" data-name="Path 1189" d="M209.277,382.154a1.792,1.792,0,0,0,1.77-1.943l-.878-9.172c.349,2.587-5.707,11.218-.892,11.115" transform="translate(93.038 166.437)" fill="#fff"/>
      <path id="Path_1190" data-name="Path 1190" d="M209.223,382.246a1.788,1.788,0,0,1-1.575-.65c-.827-1.2.213-3.776,1.217-6.271a12.976,12.976,0,0,0,1.256-4.154l-.012-.119.175-.02c0,.039.009.08.012.122l.868,9.054a1.824,1.824,0,0,1-.461,1.4,1.928,1.928,0,0,1-1.4.64h-.084m.982-10.205a23.425,23.425,0,0,1-1.176,3.349c-.942,2.337-2.009,4.984-1.236,6.106a1.641,1.641,0,0,0,1.511.574,1.745,1.745,0,0,0,1.268-.581,1.649,1.649,0,0,0,.417-1.266Z" transform="translate(93.01 166.434)" fill="#fff"/>
      <path id="Path_1191" data-name="Path 1191" d="M198.761,374.36l-.293-4.727c-.937,2.287-8.263,7.357-1.2,6.211a1.8,1.8,0,0,0,1.489-1.485" transform="translate(87.125 165.807)" fill="#fff"/>
      <path id="Path_1192" data-name="Path 1192" d="M195.6,376.22c-.75,0-1.191-.152-1.357-.462-.382-.711.837-2.035,2.129-3.437a11.882,11.882,0,0,0,2.045-2.6l.146-.355.316,5.119v.01a1.882,1.882,0,0,1-1.562,1.557,11.136,11.136,0,0,1-1.717.168m2.832-6.133a15.653,15.653,0,0,1-1.931,2.352c-1.192,1.3-2.426,2.634-2.1,3.236.22.41,1.194.478,2.891.2a1.706,1.706,0,0,0,1.414-1.4Z" transform="translate(87.098 165.686)" fill="#fff"/>
      <path id="Path_1193" data-name="Path 1193" d="M193.618,373.386l-.713-6.265c-.946,2.31-7.223,7.731-.536,7.266a1.414,1.414,0,0,0,1.249-1" transform="translate(84.926 164.68)" fill="#fff"/>
      <path id="Path_1194" data-name="Path 1194" d="M191.64,374.61c-1.225,0-1.963-.255-2.247-.775-.55-1.011.791-2.8,1.973-4.386a12.917,12.917,0,0,0,1.485-2.253l.13-.317.752,6.623,0,.017a1.5,1.5,0,0,1-1.327,1.063c-.272.019-.526.028-.762.028m1.24-7.063a17.138,17.138,0,0,1-1.373,2.008c-1.152,1.54-2.455,3.284-1.958,4.2.3.546,1.254.765,2.841.656a1.329,1.329,0,0,0,1.166-.921Z" transform="translate(84.899 164.571)" fill="#fff"/>
      <path id="Path_1195" data-name="Path 1195" d="M236.991,387.979l-2.447-8.238c-.272,4.438-5.09,10.369.727,10.54a1.781,1.781,0,0,0,1.719-2.3" transform="translate(104.254 170.341)" fill="#fff"/>
      <path id="Path_1196" data-name="Path 1196" d="M235.349,390.523h-.054a3.059,3.059,0,0,1-2.594-1c-.785-1.141-.094-3.113.636-5.2a17.565,17.565,0,0,0,1.146-4.434l.03-.5,2.589,8.715a1.911,1.911,0,0,1-.317,1.7,1.8,1.8,0,0,1-1.436.714m-.733-10.167a20.372,20.372,0,0,1-1.114,4.026c-.716,2.044-1.391,3.973-.656,5.041a2.905,2.905,0,0,0,2.454.926,1.635,1.635,0,0,0,1.346-.646,1.735,1.735,0,0,0,.288-1.543Z" transform="translate(104.227 170.185)" fill="#fff"/>
      <path id="Path_1197" data-name="Path 1197" d="M208.062,400.482c1.015-.1,1.515-1.362,1.289-2.355l-3.372-14.793c-1.269,3.687-10.75,18.436,2.083,17.148" transform="translate(90.35 171.952)" fill="#fff"/>
      <path id="Path_1198" data-name="Path 1198" d="M206.62,400.747c-2.192,0-3.711-.585-4.528-1.748-2.1-2.984.763-8.987,2.658-12.96.519-1.085.965-2.022,1.175-2.633l.1-.291,3.439,15.093a2.381,2.381,0,0,1-.351,1.847,1.41,1.41,0,0,1-1.014.616q-.784.078-1.48.078m-.632-17.006c-.238.607-.633,1.436-1.079,2.373-1.877,3.936-4.715,9.884-2.674,12.785.95,1.352,2.919,1.889,5.846,1.6a1.245,1.245,0,0,0,.891-.545,2.205,2.205,0,0,0,.322-1.705Z" transform="translate(90.322 171.854)" fill="#fff"/>
      <path id="Path_1199" data-name="Path 1199" d="M218.444,400.187,214.7,383.765c-3.351,5.794-8.06,22.317,3.743,16.422" transform="translate(94.596 172.146)" fill="#fff"/>
      <path id="Path_1200" data-name="Path 1200" d="M214.264,401.6a3.032,3.032,0,0,1-2.315-.908c-2.832-3.012.3-12.742,2.7-16.9l.112-.193,3.808,16.708-.062.03a9.983,9.983,0,0,1-4.246,1.26m.429-17.522c-2.366,4.218-5.347,13.589-2.615,16.493,1.175,1.249,3.291,1.128,6.293-.359Z" transform="translate(94.57 172.072)" fill="#fff"/>
      <path id="Path_1201" data-name="Path 1201" d="M193.879,394.017l-.278-12.511c-1.88,3.527-8.8,14.767-1.291,14.215a1.683,1.683,0,0,0,1.569-1.7" transform="translate(84.73 171.132)" fill="#fff"/>
      <path id="Path_1202" data-name="Path 1202" d="M191.83,395.931a2.835,2.835,0,0,1-2.578-1.105c-1.622-2.535,1.832-8.787,3.688-12.145.235-.423.442-.8.61-1.111l.158-.3.285,12.846a1.766,1.766,0,0,1-1.648,1.792c-.178.013-.349.02-.514.02m1.717-13.987c-.135.249-.287.523-.452.823-1.84,3.327-5.261,9.517-3.7,11.964.5.775,1.485,1.113,2.932,1.007a1.593,1.593,0,0,0,1.486-1.614Z" transform="translate(84.704 171.028)" fill="#fff"/>
      <path id="Path_1203" data-name="Path 1203" d="M185.4,394.2l-.311-13.969c-2.438,3.61-9.95,16.194.311,13.969" transform="translate(80.809 170.563)" fill="#fff"/>
      <path id="Path_1204" data-name="Path 1204" d="M183.293,394.638a3.062,3.062,0,0,1-2.729-1.13c-2.17-3.206,3.791-12.219,4.478-13.236l.155-.229.319,14.318-.071.014a10.26,10.26,0,0,1-2.151.262m1.74-14.037c-1.141,1.725-6.316,9.866-4.324,12.808.7,1.04,2.261,1.312,4.627.81Z" transform="translate(80.783 170.477)" fill="#fff"/>
      <path id="Path_1205" data-name="Path 1205" d="M232.415,398l-1.559-11.276c-2.318,3.688-8.506,16.253.313,13.266a1.845,1.845,0,0,0,1.246-1.99" transform="translate(101.637 173.475)" fill="#fff"/>
      <path id="Path_1206" data-name="Path 1206" d="M228.9,400.613a2.221,2.221,0,0,1-1.853-.759c-2.066-2.619,2.441-10.995,3.762-13.1l.128-.2.033.239,1.559,11.276a1.933,1.933,0,0,1-1.305,2.086,7.43,7.43,0,0,1-2.324.458m1.93-13.554c-1.964,3.2-5.41,10.448-3.643,12.687.658.833,2,.916,3.981.243a1.757,1.757,0,0,0,1.188-1.895Z" transform="translate(101.609 173.397)" fill="#fff"/>
      <path id="Path_1207" data-name="Path 1207" d="M206.954,419.609c-1.877.211-5.326.256-7.512-1.789l1.256-1.343c2.342,2.193,7.115,1.14,7.163,1.13l.41,1.79a12.269,12.269,0,0,1-1.317.211" transform="translate(89.464 186.819)" fill="#fff"/>
      <path id="Path_1208" data-name="Path 1208" d="M209.947,417.574a13.219,13.219,0,0,1-8.687-2.862l1.178-1.411a11.548,11.548,0,0,0,7.382,2.441Z" transform="translate(90.279 185.395)" fill="#fff"/>
      <path id="Path_1209" data-name="Path 1209" d="M209.108,415.4c-.029-.032-2.91-3.161-5.935-2.858l-.183-1.828c3.955-.4,7.338,3.3,7.479,3.453Z" transform="translate(91.056 184.222)" fill="#fff"/>
      <path id="Path_1210" data-name="Path 1210" d="M144.058,140.208l44.244,3.161-3.159,44.394-38.109-3.5s-3.364-38.827-2.975-44.06" transform="translate(64.606 62.893)" fill="#d6e950"/>
      <path id="Path_1211" data-name="Path 1211" d="M152.775,271.812s10.324.535,22.279,0c0,0-2.277,56.778-3.666,115.735,0,0,13.659.992,13.382.729s1.013,20.958,1.013,20.958c.426.855-31.509-.351-31.509-.351s-1.488-130.615-1.5-137.071" transform="translate(68.53 121.927)" fill="#fff"/>
      <path id="Path_1212" data-name="Path 1212" d="M136.107,263.112c38.276-26.018,24.986-92.093,8.951-111.2-10.07-12-49.78-11.042-49.78-11.042,0,12.814-1.482,175.933-1.482,175.933l20.744-.905c.127-8.324-1.686-42.953-1.469-43.236s11.166.426,11.166.426l12.75,41.225,25.405,1.585Zm-20.936-18.34s-1.63-64.169-1.743-75.852l14.089,1.046s1.579,23.985.91,41.6a237.833,237.833,0,0,1-4.191,33.64s-9.012.07-9.065-.439" transform="translate(42.074 63.183)" fill="#fff"/>
      <path id="Path_1213" data-name="Path 1213" d="M129.093,375.126c19.522-7.873,8.557-79.6,6.2-90.65a15.576,15.576,0,0,0-15.423-12.7l-26.764-.223c.293,17.35,1.378,137.789,1.378,137.789s40.992.377,41.394-.256c14.009-22.053-6.788-33.962-6.788-33.962m-16.047-88.6c0-.028.01-.029.017,0h-.017c-.169,1.268,3.942,59.869,3.942,67.5l-7.317-.169s-1.97-61.55-2.817-67.147Zm8.129,112.066s-10.273.382-11-.537c0,0-.353-3.789-1.417-20.867,0,0,3.711-.522,5.279.986a24.073,24.073,0,0,1,7.066,13.632,36.046,36.046,0,0,1,.068,6.785" transform="translate(41.766 121.812)" fill="#fff"/>
      <path id="Path_1214" data-name="Path 1214" d="M142.175,140.617s-68.377,79.6-46.606,70.118l-.009.093.413-57.557,12.248-16.107Z" transform="translate(40.95 61.528)" fill="#854ca0"/>
      <path id="Path_1215" data-name="Path 1215" d="M117.07,186.448s30.146-16.885,34.8-16.589-.608,7.821-.608,7.821a54.971,54.971,0,0,1-36.385,31.564Z" transform="translate(51.531 76.192)" fill="#854ca0"/>
    </g>
  </g>
  <g id="Group_99" data-name="Group 99" transform="translate(72.941 143.045)">
    <g id="Group_98" data-name="Group 98" clip-path="url(#clip-path-2)">
      <path id="Path_1216" data-name="Path 1216" d="M119.023,443.577s-10.643-4.38-9.058-15.452c.933-6.51,5.187-13.014,11.619-4.089,2.954,4.1,9.537,1.83,10.945,6.175.662,2.041-.255,6.057-1.7,7.522-4,4.057-6.337,8.192-11.806,5.844" transform="translate(-23.686 45.208)" fill="#f0ec1e"/>
      <path id="Path_1217" data-name="Path 1217" d="M122.268,445.482a8.394,8.394,0,0,1-3.326-.758c-.439-.187-11.254-4.964-9.611-16.441.556-3.882,2.322-8.321,5.612-9.129,2.448-.606,5.038.955,7.686,4.627,1.21,1.68,3.165,2.113,5.237,2.573,2.316.513,4.941,1.1,5.838,3.86.774,2.381-.214,6.732-1.924,8.464-.636.645-1.228,1.291-1.8,1.911-2.293,2.5-4.489,4.893-7.714,4.893M115.956,420.9a2.413,2.413,0,0,0-.569.068c-1.938.477-3.63,3.523-4.211,7.582-1.462,10.2,8.083,14.292,8.49,14.46l.012.006c3.982,1.709,5.951-.436,8.93-3.684.584-.636,1.192-1.3,1.844-1.958,1.22-1.237,2.035-4.866,1.478-6.581-.539-1.667-2.05-2.08-4.469-2.616-2.212-.49-4.719-1.046-6.346-3.3-1.885-2.616-3.653-3.975-5.158-3.975" transform="translate(-23.975 44.918)" fill="#09161c"/>
      <path id="Path_1218" data-name="Path 1218" d="M72.158,426.97s-10.643-4.38-9.058-15.452c.933-6.51,5.187-13.014,11.619-4.089,2.954,4.1,9.537,1.83,10.945,6.175.662,2.041-.255,6.057-1.7,7.522-4,4.057-6.337,8.192-11.806,5.844" transform="translate(-44.709 37.759)" fill="#f0ec1e"/>
      <path id="Path_1219" data-name="Path 1219" d="M75.4,428.874a8.373,8.373,0,0,1-3.326-.758c-.439-.187-11.254-4.964-9.611-16.44.556-3.884,2.322-8.321,5.612-9.129,2.448-.606,5.038.953,7.686,4.625,1.21,1.68,3.165,2.115,5.237,2.573,2.316.514,4.941,1.1,5.838,3.86.774,2.383-.214,6.733-1.924,8.465-.636.643-1.227,1.289-1.8,1.909-2.293,2.5-4.491,4.893-7.715,4.893m-6.311-24.585a2.413,2.413,0,0,0-.569.068c-1.938.477-3.63,3.524-4.211,7.583C62.846,422.174,72.7,426.358,72.8,426.4l.013.006c3.982,1.706,5.951-.436,8.93-3.682.585-.637,1.192-1.3,1.844-1.96,1.22-1.237,2.035-4.866,1.478-6.579-.539-1.667-2.05-2.08-4.469-2.618-2.212-.49-4.719-1.046-6.346-3.3-1.885-2.616-3.653-3.975-5.158-3.975" transform="translate(-44.997 37.469)" fill="#09161c"/>
      <path id="Path_1220" data-name="Path 1220" d="M138.592,418.274s2.9-6.587-1.082-9.462-7.343-2.647-8.17.579,3.558,11.977,9.252,8.883" transform="translate(-14.968 39.435)" fill="#f0ec1e"/>
      <path id="Path_1221" data-name="Path 1221" d="M136.479,420.142a6.034,6.034,0,0,1-3.732-1.376c-3.009-2.344-4.633-6.933-4.023-9.319a4.065,4.065,0,0,1,2.558-3.032c1.887-.682,4.392,0,7.06,1.93,4.543,3.278,1.521,10.3,1.391,10.595l-.129.291-.28.152a5.939,5.939,0,0,1-2.846.759m-3.666-12.117a2.644,2.644,0,0,0-.9.143,2.291,2.291,0,0,0-1.386,1.741c-.4,1.563.863,5.439,3.362,7.386a3.868,3.868,0,0,0,4.252.6c.465-1.233,1.995-5.951-.892-8.035a8.279,8.279,0,0,0-4.44-1.831" transform="translate(-15.256 39.146)" fill="#09161c"/>
      <path id="Path_1222" data-name="Path 1222" d="M179.01,407.114s-5.9-2.558-7.806,2.476-1.286,8.941,1.527,9.5,9.6-5.7,6.28-11.974" transform="translate(3.364 39.283)" fill="#f0ec1e"/>
      <path id="Path_1223" data-name="Path 1223" d="M173.382,420.343a2.879,2.879,0,0,1-.543-.051,3.817,3.817,0,0,1-2.654-1.957c-1.092-1.97-.934-5.173.435-8.787a5.447,5.447,0,0,1,2.986-3.262c2.738-1.156,5.929.2,6.064.262l.3.13.152.288a8.847,8.847,0,0,1-1.024,9.694c-1.654,2.221-3.962,3.682-5.716,3.682m2.684-12.659a4.441,4.441,0,0,0-1.743.323,3.6,3.6,0,0,0-1.96,2.2c-1.157,3.055-1.362,5.755-.548,7.221a1.947,1.947,0,0,0,1.385,1.033c.8.162,2.82-.791,4.4-2.916a7.231,7.231,0,0,0,1.026-7.4,8.2,8.2,0,0,0-2.561-.462" transform="translate(3.076 38.995)" fill="#09161c"/>
      <path id="Path_1224" data-name="Path 1224" d="M70.206,338.327s-2.994-11.494,8.983-15.032c7.04-2.079,9.707,2.939,11.755,7.625,1.963,4.492,3.307,7.895,0,11.1-1.554,1.508-4.459,4.9-6.891,4.265-6.736-1.769-12.4-2.008-13.847-7.96" transform="translate(-41.598 1.759)" fill="#f0ec1e"/>
      <path id="Path_1225" data-name="Path 1225" d="M86.111,347.687a8.033,8.033,0,0,1-2.014-.226c-1.073-.281-2.119-.524-3.126-.758-5.389-1.25-10.041-2.329-11.389-7.883-.122-.5-2.868-12.456,9.623-16.146,7.546-2.231,11.379,3.934,13.543,8.883,2.137,4.887,2.736,8.066-.784,11.478-1.383,1.344-3.151,4.651-5.854,4.651m-3.433-23.652a10.353,10.353,0,0,0-2.943.427c-10.945,3.233-8.455,13.472-8.344,13.906l0,.013c1.076,4.437,4.819,5.3,10,6.507,1.024.238,2.087.484,3.178.771,2.124.555,4.774-2.68,6.1-3.962,2.983-2.891,2.211-5.192.374-9.393-1.6-3.656-3.026-8.27-8.363-8.27" transform="translate(-41.88 1.487)" fill="#09161c"/>
      <path id="Path_1226" data-name="Path 1226" d="M55.55,387.357s-1.821-4.01,5.463-5.244c4.282-.726,8.248,1.108,9.494,2.742,1.194,1.567.685,3.516-1.327,4.634a11.46,11.46,0,0,1-5.209.643c-4.1-.616-7.543-.7-8.421-2.775" transform="translate(-48.114 28.287)" fill="#f0ec1e"/>
      <path id="Path_1227" data-name="Path 1227" d="M65.343,391.42a8.436,8.436,0,0,1-1.223-.077c-.653-.1-1.289-.184-1.9-.265-3.513-.466-6.288-.836-7.236-3.059a3.919,3.919,0,0,1,.172-3.277c.869-1.637,2.884-2.733,5.987-3.259,4.386-.745,8.815,1.027,10.392,3.1a3.747,3.747,0,0,1,.752,3.067,4.515,4.515,0,0,1-2.366,2.946,11.473,11.473,0,0,1-4.579.827M56.7,387.283c.529,1.25,2.957,1.575,5.768,1.948.621.083,1.269.169,1.934.268a10.783,10.783,0,0,0,4.617-.536,2.694,2.694,0,0,0,1.447-1.7,1.89,1.89,0,0,0-.408-1.554c-1.062-1.391-4.734-3.043-8.6-2.389-3.091.523-4.228,1.524-4.638,2.27a2.038,2.038,0,0,0-.125,1.68l-.855.375Z" transform="translate(-48.402 27.999)" fill="#09161c"/>
      <path id="Path_1228" data-name="Path 1228" d="M116.241,394.476s-2.887-11.083,8.66-14.493c6.788-2,13.075,3.064,15.051,7.58,1.893,4.33,1.085,9.714-2.1,12.807-1.5,1.453-5.912,2.395-8.257,1.779-6.5-1.705-11.958-1.937-13.35-7.673" transform="translate(-20.943 27.202)" fill="#f0ec1e"/>
      <path id="Path_1229" data-name="Path 1229" d="M131.643,403.564a7.959,7.959,0,0,1-2.006-.227c-1.034-.271-2.042-.506-3.013-.73-5.2-1.208-9.7-2.251-11.006-7.624-.119-.49-2.768-12.042,9.3-15.607,7.292-2.154,14.079,3.319,16.169,8.1,2.064,4.724,1.1,10.549-2.308,13.851-1.359,1.318-4.527,2.237-7.137,2.237m-3.366-22.811a10.006,10.006,0,0,0-2.829.41c-10.521,3.107-8.128,12.949-8.022,13.366l0,.014c1.033,4.256,4.633,5.09,9.616,6.248.986.229,2.012.466,3.065.743,2.042.533,6.106-.317,7.372-1.546,2.865-2.78,3.662-7.728,1.9-11.765-1.537-3.516-5.972-7.47-11.1-7.47" transform="translate(-21.225 26.915)" fill="#09161c"/>
      <path id="Path_1230" data-name="Path 1230" d="M64.26,368.51s1.388-11.916,13.509-9.158c7.127,1.621,11.164,9.636,11.351,14.9.177,5.051-2.574,9.7-6.718,10.96-1.947.592-6.448-.8-8.425-2.593-5.479-4.958-10.531-8-9.717-14.113" transform="translate(-44.155 17.964)" fill="#f0ec1e"/>
      <path id="Path_1231" data-name="Path 1231" d="M81.584,386.573a13.671,13.671,0,0,1-7.944-2.97c-.875-.789-1.737-1.531-2.565-2.244-4.4-3.782-8.2-7.047-7.451-12.676.039-.329.739-5.638,4.863-8.555,2.571-1.818,5.859-2.287,9.778-1.4,7.921,1.8,11.888,10.483,12.075,15.782.2,5.526-2.907,10.524-7.379,11.885a4.805,4.805,0,0,1-1.376.174m-6.956-26.412a8.568,8.568,0,0,0-5.054,1.48c-3.487,2.458-4.1,7.22-4.1,7.267v.013c-.617,4.633,2.5,7.312,6.818,11.024.84.723,1.715,1.475,2.6,2.277,1.87,1.692,6.02,2.851,7.528,2.392,3.675-1.118,6.223-5.339,6.058-10.036-.172-4.906-3.962-12.513-10.625-14.029a14.609,14.609,0,0,0-3.223-.388" transform="translate(-44.444 17.675)" fill="#09161c"/>
      <path id="Path_1232" data-name="Path 1232" d="M148.98,376.057s1.84,6.519,6.989,5.649,7.909-4.346,6.437-6.519-10.851-4.128-13.427.869" transform="translate(-6.113 24.235)" fill="#f0ec1e"/>
      <path id="Path_1233" data-name="Path 1233" d="M155.362,383.007c-4.052,0-6.311-4.073-6.971-6.408l-.1-.352.169-.327c1.107-2.15,3.429-3.436,6.539-3.621,3.481-.2,7.372,1.008,8.489,2.657a3.38,3.38,0,0,1,.227,3.32c-.955,2.234-3.814,4.055-7.283,4.641a6.441,6.441,0,0,1-1.07.091m-5.06-6.556c.44,1.253,2.145,5.254,5.822,4.627,3.251-.549,5.295-2.171,5.878-3.536a1.541,1.541,0,0,0-.058-1.543c-.59-.871-3.723-2.028-6.834-1.84-1.618.1-3.721.579-4.808,2.292" transform="translate(-6.422 23.947)" fill="#09161c"/>
      <path id="Path_1234" data-name="Path 1234" d="M59.939,325.2c-4.6,0-7.154-5.331-7.9-8.389l-.075-.307.129-.288c1.263-2.857,3.965-4.54,7.6-4.74,3.933-.225,8.28,1.379,9.506,3.484a4.8,4.8,0,0,1,.054,4.483c-1.239,2.738-4.338,4.9-8.089,5.633a6.359,6.359,0,0,1-1.233.123m-6-8.522c.423,1.44,2.448,7.438,6.873,6.569,3.12-.613,5.771-2.409,6.75-4.572a3,3,0,0,0,.032-2.778c-.671-1.155-4.126-2.776-7.79-2.56a6.59,6.59,0,0,0-5.865,3.34" transform="translate(-49.63 -3.337)" fill="#09161c"/>
      <path id="Path_1235" data-name="Path 1235" d="M41.939,357.756s-6.591-8.148-1.783-15.768c2.826-4.482,8.571-2.8,11.7.194a15.62,15.62,0,0,1,4.628,11.654c-.168,1.84-2.17,4.449-3.737,4.893-4.34,1.236-7.449,3.288-10.8-.973" transform="translate(-55.716 9.128)" fill="#f0ec1e"/>
      <path id="Path_1236" data-name="Path 1236" d="M46.757,361.543c-1.772,0-3.513-.7-5.26-2.917a19.376,19.376,0,0,1-2.846-5.3,12.948,12.948,0,0,1,1-11.547,6.508,6.508,0,0,1,4.824-3.129,10.828,10.828,0,0,1,8.3,3.148,16.413,16.413,0,0,1,4.912,12.41c-.2,2.222-2.47,5.154-4.411,5.707-.685.194-1.338.41-1.966.617a14.99,14.99,0,0,1-4.562,1.011M45.37,340.46a5.264,5.264,0,0,0-.665.041,4.635,4.635,0,0,0-3.474,2.271c-4.4,6.976,1.659,14.61,1.719,14.686l.007.01c2.413,3.062,4.433,2.4,7.776,1.294.652-.216,1.33-.439,2.041-.64a5.965,5.965,0,0,0,3.064-4.084A14.638,14.638,0,0,0,51.5,343.144a9.419,9.419,0,0,0-6.126-2.684" transform="translate(-56.003 8.84)" fill="#09161c"/>
      <path id="Path_1237" data-name="Path 1237" d="M129.666,348.686s-8.355-6.083-1.58-17.641c3.985-6.8,11.541-7.885,15.546-6.027,3.84,1.78,6.239,6.458,5.568,11.266-.316,2.26-6.339,2.993-8.445,4.356-5.835,3.778-6.84,11.274-11.089,8.047" transform="translate(-16.674 2.387)" fill="#f0ec1e"/>
      <path id="Path_1238" data-name="Path 1238" d="M131.869,350.694a4.112,4.112,0,0,1-2.483-.978c-.417-.317-8.8-6.946-1.819-18.855a14.44,14.44,0,0,1,8.295-6.678,12.182,12.182,0,0,1,8.447.277c4.249,1.97,6.814,7.117,6.1,12.24-.282,2.025-3.052,2.919-5.732,3.785a15.925,15.925,0,0,0-3.129,1.224,19.635,19.635,0,0,0-5,5.226c-1.373,1.869-2.56,3.482-4.243,3.727a3.113,3.113,0,0,1-.433.03M139.9,325.43a12.5,12.5,0,0,0-10.722,6.375c-6.246,10.654,1.014,16.188,1.327,16.418l.013.01a2.121,2.121,0,0,0,1.52.585c.911-.132,1.883-1.454,3.009-2.986a21.436,21.436,0,0,1,5.49-5.687,16.444,16.444,0,0,1,3.571-1.433c1.621-.524,4.337-1.4,4.457-2.27.6-4.33-1.514-8.658-5.037-10.292a8.719,8.719,0,0,0-3.627-.721" transform="translate(-16.959 2.098)" fill="#09161c"/>
      <path id="Path_1239" data-name="Path 1239" d="M57.753,416.822s4.055-2.729,2.232-4.8-3.2-2.726-4.867-.879-2.392,7.01,2.635,5.68" transform="translate(-48.775 40.895)" fill="#f0ec1e"/>
      <path id="Path_1240" data-name="Path 1240" d="M56.573,418.256a3.1,3.1,0,0,1-2.833-1.425c-1.06-1.735-.338-4.569.973-6.025a3.5,3.5,0,0,1,2.636-1.392c1.433.009,2.635,1.157,3.624,2.282a2.676,2.676,0,0,1,.679,2.161c-.268,2.072-2.8,3.833-3.091,4.027l-.13.088-.152.039a6.68,6.68,0,0,1-1.706.245m.762-6.978a1.88,1.88,0,0,0-1.236.775c-.813.9-1.337,2.874-.769,3.805.411.675,1.457.6,2.318.39.826-.588,2.042-1.743,2.157-2.632a.829.829,0,0,0-.232-.691c-.973-1.105-1.7-1.644-2.234-1.647Z" transform="translate(-49.064 40.606)" fill="#09161c"/>
      <path id="Path_1241" data-name="Path 1241" d="M98.722,400.141s4.34,2.578,4.808-.481.154-4.853-2.16-5.492-6.52,1.593-2.648,5.972" transform="translate(-29.363 33.719)" fill="#f0ec1e"/>
      <path id="Path_1242" data-name="Path 1242" d="M102.1,402.376a7.982,7.982,0,0,1-3.566-1.147l-.222-.185c-2.474-2.8-1.876-4.763-1.3-5.689a4.647,4.647,0,0,1,4.892-1.8c3.236.894,3.274,3.668,2.833,6.532a2.5,2.5,0,0,1-1.386,2.029,2.9,2.9,0,0,1-1.252.259m-2.49-2.68c.876.49,2.329,1.03,2.946.736.072-.036.262-.126.34-.627.5-3.278-.106-4.069-1.488-4.45a2.784,2.784,0,0,0-2.815.988c-.671,1.076.3,2.521,1.015,3.353" transform="translate(-29.652 33.432)" fill="#09161c"/>
      <path id="Path_1243" data-name="Path 1243" d="M68.25,353.545s5.88,2.229,6.75-1.887-.39-7.354-3.077-7.872-7.835,4.511-3.674,9.759" transform="translate(-43.029 11.151)" fill="#f0ec1e"/>
      <path id="Path_1244" data-name="Path 1244" d="M71.761,355.372a10.94,10.94,0,0,1-3.549-.668l-.24-.091-.159-.2a6.856,6.856,0,0,1-.776-8.141c1.282-2.113,3.587-3.448,5.355-3.112a4.561,4.561,0,0,1,2.977,2.019c1.128,1.7,1.425,4.169.836,6.96a3.8,3.8,0,0,1-1.893,2.66,5.307,5.307,0,0,1-2.549.574m-2.649-2.326c.972.319,3.081.788,4.308.116a1.951,1.951,0,0,0,.96-1.408,7.506,7.506,0,0,0-.565-5.542,2.7,2.7,0,0,0-1.774-1.221c-.884-.172-2.467.692-3.41,2.248a4.928,4.928,0,0,0,.481,5.807" transform="translate(-43.319 10.863)" fill="#09161c"/>
      <path id="Path_1245" data-name="Path 1245" d="M84.895,360.475s3.477,1.318,3.991-1.115-.229-4.35-1.818-4.654-4.634,2.667-2.173,5.77" transform="translate(-35.275 16.056)" fill="#f0ec1e"/>
      <path id="Path_1246" data-name="Path 1246" d="M86.97,361.556a6.456,6.456,0,0,1-2.1-.4l-.143-.054-.094-.119a4.054,4.054,0,0,1-.458-4.814,3.437,3.437,0,0,1,3.167-1.841,2.7,2.7,0,0,1,1.76,1.2,5.444,5.444,0,0,1,.494,4.115,2.252,2.252,0,0,1-1.12,1.573,3.146,3.146,0,0,1-1.508.339M85.4,360.18a3.773,3.773,0,0,0,2.548.068,1.15,1.15,0,0,0,.566-.833,4.445,4.445,0,0,0-.333-3.277,1.592,1.592,0,0,0-1.05-.721,2.423,2.423,0,0,0-2.016,1.328,2.917,2.917,0,0,0,.285,3.435" transform="translate(-35.447 15.885)" fill="#09161c"/>
      <path id="Path_1247" data-name="Path 1247" d="M198.957,348.018s-11.326-6.859-8.561-16.2c1.625-5.492,9.3-5.244,14.321-2.913,4.811,2.235,9.2,6.852,10.356,11.089.542,1.99-.839,5.283-2.567,6.172-4.785,2.463-7.737,5.463-13.548,1.853" transform="translate(12.27 3.79)" fill="#f0ec1e"/>
      <path id="Path_1248" data-name="Path 1248" d="M214.552,346.192a4.528,4.528,0,0,1-1.328,1.089c-.758.391-1.469.794-2.151,1.182-3.739,2.122-6.966,3.955-12.313.637-.556-.339-11.893-7.375-8.967-17.26a6.664,6.664,0,0,1,3.776-4.275c3.555-1.605,8.5-.765,11.83.781,5.177,2.4,9.645,7.211,10.863,11.69a7.486,7.486,0,0,1-1.711,6.155m-22-15.626a4.816,4.816,0,0,0-.969,1.8c-2.532,8.552,8.042,15.074,8.15,15.138l.009.006c4.408,2.736,6.8,1.38,10.414-.672.7-.4,1.437-.816,2.218-1.218,1.343-.69,2.515-3.549,2.093-5.1-1.068-3.923-5.209-8.334-9.849-10.489-3.479-1.617-7.706-1.934-10.279-.772a5.081,5.081,0,0,0-1.786,1.3" transform="translate(11.978 3.503)" fill="#09161c"/>
      <path id="Path_1249" data-name="Path 1249" d="M225.671,347.371s7.16,3.119,7.815-1.149-1.13-7.869-4.356-8.76-8.861,3.8-3.459,9.908" transform="translate(27.281 8.282)" fill="#f0ec1e"/>
      <path id="Path_1250" data-name="Path 1250" d="M230.653,349.69a14.439,14.439,0,0,1-5.066-1.176l-.188-.083-.138-.155c-3.716-4.2-2.354-7.479-1.6-8.693a5.8,5.8,0,0,1,6-2.731c3.69,1.018,5.758,5.047,5.028,9.8a3.31,3.31,0,0,1-1.672,2.515,4.889,4.889,0,0,1-2.37.524m-4.131-2.806c1.582.649,4.338,1.346,5.6.649a1.438,1.438,0,0,0,.73-1.165c.581-3.787-.934-6.96-3.682-7.719a3.916,3.916,0,0,0-3.924,1.921c-1.124,1.8-.671,4.037,1.275,6.314" transform="translate(26.993 7.994)" fill="#09161c"/>
      <path id="Path_1251" data-name="Path 1251" d="M229.941,316.78s-5.848,9.982-1.253,13.157,10.359.978,11.7-3.067-3.146-14.415-10.447-10.091" transform="translate(28.852 -1.411)" fill="#f0ec1e"/>
      <path id="Path_1252" data-name="Path 1252" d="M233.728,332.676a9.271,9.271,0,0,1-5.284-1.685c-5.247-3.624.723-13.957.978-14.4l.122-.207.209-.123a6.649,6.649,0,0,1,8,.361c3.288,2.651,4.746,8,3.807,10.827a7.764,7.764,0,0,1-4.995,4.76,8.935,8.935,0,0,1-2.836.464M230.91,317.75c-1.546,2.732-4.5,9.568-1.405,11.709a7.258,7.258,0,0,0,6.469.985,5.89,5.89,0,0,0,3.816-3.578c.732-2.2-.605-6.691-3.207-8.788a4.722,4.722,0,0,0-5.673-.327" transform="translate(28.567 -1.698)" fill="#09161c"/>
      <path id="Path_1253" data-name="Path 1253" d="M214.585,280.525s-2.994-11.5,8.983-15.033c7.04-2.079,13.562,3.178,15.611,7.863,1.963,4.492,1.126,10.076-2.182,13.285-1.554,1.506-6.133,2.483-8.565,1.844-6.736-1.769-12.4-2.008-13.847-7.958" transform="translate(23.166 -24.163)" fill="#f0ec1e"/>
      <path id="Path_1254" data-name="Path 1254" d="M230.491,289.9a8.033,8.033,0,0,1-2.014-.226c-1.073-.281-2.119-.524-3.126-.758-5.389-1.25-10.041-2.329-11.389-7.883-.123-.5-2.868-12.456,9.623-16.146,7.544-2.231,14.567,3.435,16.73,8.383,2.138,4.887,1.134,10.914-2.386,14.328-1.385,1.343-4.735,2.3-7.438,2.3m-3.433-23.652a10.352,10.352,0,0,0-2.943.427c-10.945,3.233-8.455,13.472-8.344,13.906l0,.013c1.076,4.437,4.819,5.3,10,6.507,1.024.238,2.087.484,3.178.771,2.124.555,6.359-.33,7.68-1.612,2.983-2.893,3.813-8.041,1.976-12.243-1.6-3.655-6.213-7.769-11.549-7.769" transform="translate(22.884 -24.45)" fill="#09161c"/>
      <path id="Path_1255" data-name="Path 1255" d="M171.917,332.2s-1.821-4.008,5.463-5.242c4.282-.726,8.248,1.108,9.494,2.742,1.194,1.567.685,3.516-1.327,4.633a11.42,11.42,0,0,1-5.209.643c-4.1-.614-7.543-.7-8.421-2.775" transform="translate(4.085 3.544)" fill="#f0ec1e"/>
      <path id="Path_1256" data-name="Path 1256" d="M181.709,336.26a8.428,8.428,0,0,1-1.223-.077c-.653-.1-1.289-.184-1.9-.265-3.513-.466-6.288-.836-7.236-3.059a3.919,3.919,0,0,1,.172-3.277c.869-1.637,2.884-2.734,5.987-3.259,4.386-.745,8.815,1.027,10.392,3.1a3.747,3.747,0,0,1,.752,3.067,4.516,4.516,0,0,1-2.366,2.946,11.473,11.473,0,0,1-4.579.827m-8.647-4.137c.529,1.25,2.957,1.575,5.768,1.948.621.083,1.269.169,1.934.268a10.784,10.784,0,0,0,4.617-.536,2.694,2.694,0,0,0,1.447-1.7,1.89,1.89,0,0,0-.408-1.554c-1.062-1.391-4.734-3.043-8.6-2.389-3.091.524-4.228,1.524-4.638,2.27a2.038,2.038,0,0,0-.125,1.68l-.855.375Z" transform="translate(3.797 3.256)" fill="#09161c"/>
      <path id="Path_1257" data-name="Path 1257" d="M195.666,262.727s2.116,8.733,8.044,7.569,9.1-5.822,7.409-8.733-12.49-5.531-15.453,1.165" transform="translate(14.829 -27.079)" fill="#f0ec1e"/>
      <path id="Path_1258" data-name="Path 1258" d="M202.96,271.624c-4.6,0-7.155-5.331-7.9-8.389l-.075-.307.129-.288c1.263-2.857,3.965-4.54,7.605-4.74,3.933-.225,8.28,1.379,9.505,3.484a4.8,4.8,0,0,1,.054,4.483c-1.239,2.738-4.338,4.895-8.089,5.633a6.475,6.475,0,0,1-1.233.123m-6-8.523c.423,1.441,2.448,7.44,6.873,6.571,3.12-.613,5.771-2.409,6.75-4.572a3,3,0,0,0,.032-2.778c-.671-1.156-4.125-2.775-7.79-2.561a6.593,6.593,0,0,0-5.865,3.34" transform="translate(14.525 -27.368)" fill="#09161c"/>
      <path id="Path_1259" data-name="Path 1259" d="M143.1,310.3s-2.219-13.055,6.656-17.071c5.219-2.361,10.052,3.608,11.57,8.929,1.456,5.1.836,11.442-1.615,15.085-1.152,1.712-4.546,2.82-6.349,2.095-4.992-2.008-9.191-2.28-10.262-9.038" transform="translate(-8.862 -11.748)" fill="#f0ec1e"/>
      <path id="Path_1260" data-name="Path 1260" d="M155,320.788a4.547,4.547,0,0,1-1.693-.294c-.791-.317-1.56-.591-2.3-.855-4.052-1.44-7.549-2.683-8.535-8.9-.107-.642-2.2-13.819,7.194-18.069a6.666,6.666,0,0,1,5.7.061c3.539,1.64,6.14,5.933,7.147,9.461,1.566,5.489.85,12.013-1.74,15.863A7.491,7.491,0,0,1,155,320.788m-2.568-26.865a4.806,4.806,0,0,0-2,.448c-8.126,3.676-6.143,15.942-6.122,16.065v.01c.811,5.125,3.4,6.045,7.318,7.438.763.271,1.557.553,2.371.881,1.4.566,4.33-.417,5.226-1.75,2.268-3.372,2.9-9.391,1.493-14.31-1.053-3.69-3.577-7.1-6.138-8.28a5.083,5.083,0,0,0-2.153-.5" transform="translate(-9.154 -12.035)" fill="#09161c"/>
      <path id="Path_1261" data-name="Path 1261" d="M184.96,304.184s-6.591-8.148-1.783-15.769c2.826-4.482,8.571-2.8,11.7.194a15.614,15.614,0,0,1,4.628,11.654c-.168,1.84-2.17,4.449-3.737,4.893-4.34,1.236-7.449,3.288-10.8-.972" transform="translate(8.439 -14.903)" fill="#f0ec1e"/>
      <path id="Path_1262" data-name="Path 1262" d="M189.778,307.971c-1.772,0-3.513-.7-5.26-2.917a19.375,19.375,0,0,1-2.846-5.3,12.948,12.948,0,0,1,1-11.547,6.508,6.508,0,0,1,4.824-3.129,10.829,10.829,0,0,1,8.3,3.148,16.413,16.413,0,0,1,4.912,12.41c-.2,2.222-2.47,5.154-4.411,5.707-.685.194-1.338.41-1.966.617a14.988,14.988,0,0,1-4.562,1.011m-1.388-21.082a5.276,5.276,0,0,0-.665.041,4.635,4.635,0,0,0-3.474,2.271c-4.4,6.976,1.659,14.61,1.719,14.686l.007.01c2.413,3.062,4.433,2.4,7.776,1.294.652-.216,1.33-.439,2.041-.64a5.964,5.964,0,0,0,3.064-4.083,14.638,14.638,0,0,0-4.343-10.893,9.419,9.419,0,0,0-6.126-2.684" transform="translate(8.152 -15.191)" fill="#09161c"/>
      <path id="Path_1263" data-name="Path 1263" d="M178.886,315.373s7.16,3.119,7.815-1.149-1.13-7.869-4.356-8.76-8.861,3.8-3.459,9.908" transform="translate(6.295 -6.071)" fill="#f0ec1e"/>
      <path id="Path_1264" data-name="Path 1264" d="M183.868,317.693a14.429,14.429,0,0,1-5.066-1.178l-.188-.081-.138-.155c-3.716-4.2-2.354-7.479-1.6-8.693a5.8,5.8,0,0,1,6-2.731c3.69,1.017,5.758,5.047,5.028,9.8a3.313,3.313,0,0,1-1.672,2.515,4.894,4.894,0,0,1-2.37.524m-4.131-2.807c1.582.65,4.338,1.346,5.6.65a1.438,1.438,0,0,0,.73-1.165c.581-3.787-.934-6.96-3.682-7.721a3.92,3.92,0,0,0-3.924,1.922c-1.124,1.8-.671,4.037,1.275,6.313" transform="translate(6.007 -6.358)" fill="#09161c"/>
      <path id="Path_1265" data-name="Path 1265" d="M200.774,363.25s4.055-2.729,2.232-4.8-3.2-2.726-4.867-.879-2.392,7.01,2.635,5.68" transform="translate(15.38 16.864)" fill="#f0ec1e"/>
      <path id="Path_1266" data-name="Path 1266" d="M199.594,364.684a3.1,3.1,0,0,1-2.833-1.425c-1.06-1.735-.338-4.569.973-6.025a3.5,3.5,0,0,1,2.636-1.392c1.433.009,2.635,1.157,3.624,2.281a2.676,2.676,0,0,1,.679,2.161c-.268,2.071-2.8,3.833-3.091,4.027l-.13.088-.152.039a6.68,6.68,0,0,1-1.706.245m.762-6.978a1.88,1.88,0,0,0-1.236.775c-.813.9-1.337,2.874-.769,3.805.411.675,1.457.6,2.318.39.826-.588,2.042-1.743,2.157-2.632a.824.824,0,0,0-.232-.691c-.973-1.105-1.7-1.644-2.234-1.647Z" transform="translate(15.091 16.575)" fill="#09161c"/>
      <path id="Path_1267" data-name="Path 1267" d="M183.505,278.666s5.88,2.229,6.75-1.888-.39-7.354-3.077-7.872-7.835,4.511-3.674,9.759" transform="translate(8.671 -22.437)" fill="#f0ec1e"/>
      <path id="Path_1268" data-name="Path 1268" d="M187.014,280.494a10.9,10.9,0,0,1-3.549-.668l-.24-.091-.159-.2a6.858,6.858,0,0,1-.776-8.141c1.281-2.113,3.578-3.459,5.355-3.113a4.571,4.571,0,0,1,2.977,2.019c1.128,1.7,1.425,4.169.836,6.962a3.8,3.8,0,0,1-1.893,2.658,5.3,5.3,0,0,1-2.549.574m-2.649-2.326c.973.319,3.084.788,4.308.116a1.945,1.945,0,0,0,.96-1.408,7.509,7.509,0,0,0-.565-5.541,2.7,2.7,0,0,0-1.775-1.221c-.892-.172-2.467.694-3.41,2.248a4.928,4.928,0,0,0,.481,5.806" transform="translate(8.381 -22.726)" fill="#09161c"/>
      <path id="Path_1269" data-name="Path 1269" d="M203.192,292.586s5.88,2.229,6.75-1.888-.39-7.354-3.077-7.872-7.835,4.511-3.674,9.759" transform="translate(17.502 -16.193)" fill="#f0ec1e"/>
      <path id="Path_1270" data-name="Path 1270" d="M206.7,294.413a10.939,10.939,0,0,1-3.549-.668l-.24-.091-.159-.2a6.856,6.856,0,0,1-.776-8.141c1.282-2.113,3.587-3.448,5.355-3.112a4.561,4.561,0,0,1,2.977,2.019c1.128,1.7,1.425,4.169.836,6.96a3.8,3.8,0,0,1-1.893,2.66,5.306,5.306,0,0,1-2.549.574m-2.649-2.326c.972.319,3.081.788,4.308.116a1.951,1.951,0,0,0,.96-1.408,7.513,7.513,0,0,0-.565-5.542,2.7,2.7,0,0,0-1.775-1.221c-.884-.172-2.467.692-3.41,2.248a4.928,4.928,0,0,0,.481,5.807" transform="translate(17.211 -16.481)" fill="#09161c"/>
      <path id="Path_1271" data-name="Path 1271" d="M165.085,285.936s-5.848,9.982-1.253,13.157,10.359.978,11.7-3.067-3.146-14.415-10.447-10.091" transform="translate(-0.241 -15.246)" fill="#f0ec1e"/>
      <path id="Path_1272" data-name="Path 1272" d="M168.871,301.832a9.271,9.271,0,0,1-5.284-1.685c-5.247-3.624.723-13.957.978-14.4l.122-.207.209-.123a6.649,6.649,0,0,1,8,.361c3.288,2.651,4.746,8,3.807,10.827a7.764,7.764,0,0,1-4.995,4.76,8.935,8.935,0,0,1-2.836.464m-2.819-14.926c-1.546,2.732-4.5,9.568-1.405,11.709a7.258,7.258,0,0,0,6.469.985,5.89,5.89,0,0,0,3.816-3.578c.732-2.2-.605-6.691-3.207-8.789a4.722,4.722,0,0,0-5.673-.327" transform="translate(-0.526 -15.534)" fill="#09161c"/>
      <path id="Path_1273" data-name="Path 1273" d="M221.652,166.679s5.79,2.8,7.9-2.153,1.651-8.881-1.137-9.553-9.827,5.3-6.765,11.706" transform="translate(26.146 -73.552)" fill="#f0ec1e"/>
      <path id="Path_1274" data-name="Path 1274" d="M228.383,154.281a2.73,2.73,0,0,1,.54.074,3.811,3.811,0,0,1,2.571,2.064c1.01,2.012.721,5.206-.8,8.761a5.436,5.436,0,0,1-3.116,3.136c-2.781,1.043-5.916-.445-6.048-.51l-.3-.142-.141-.3a8.85,8.85,0,0,1,1.421-9.642c1.743-2.153,4.108-3.519,5.862-3.446m-3.2,12.539a4.44,4.44,0,0,0,1.754-.252,3.6,3.6,0,0,0,2.048-2.119c1.281-3,1.595-5.694.842-7.192a1.942,1.942,0,0,0-1.338-1.089c-.792-.2-2.852.675-4.52,2.733a7.233,7.233,0,0,0-1.328,7.353,8.213,8.213,0,0,0,2.542.566" transform="translate(25.858 -73.84)" fill="#09161c"/>
      <path id="Path_1275" data-name="Path 1275" d="M111.843,125.014s.181,12.052-10.422,11.41c-6.235-.377-9.075-9.934-10.056-14.173-.94-4.063.643-8.184,3.923-9.749,1.54-.734,5.535-.2,7.476.994,5.371,3.294,8.806,6.464,9.08,11.518" transform="translate(-32.078 -92.73)" fill="#f0ec1e"/>
      <path id="Path_1276" data-name="Path 1276" d="M96.225,111.633a12.482,12.482,0,0,1,7.312,1.359c5.5,3.372,9.224,6.747,9.523,12.262v.036c0,.253.051,6.255-3.694,9.831a9.838,9.838,0,0,1-7.717,2.523c-6.587-.4-9.661-9.5-10.908-14.894-1.049-4.533.814-9.074,4.43-10.8a4.134,4.134,0,0,1,1.052-.319m14.972,13.7c-.264-4.708-3.5-7.6-8.635-10.751-1.776-1.089-5.439-1.5-6.588-.947-2.832,1.35-4.269,5.008-3.414,8.7.91,3.933,3.627,13.115,9.2,13.453a8.044,8.044,0,0,0,6.316-2.009c3.078-2.941,3.117-8.119,3.117-8.441" transform="translate(-32.366 -93.019)" fill="#09161c"/>
      <path id="Path_1277" data-name="Path 1277" d="M134.807,119.345s4.467,12.465-3.569,17.972c-4.725,3.238-11.7,3.44-10.454-8.035.572-5.27-5.321-9.853-3.545-13.869.834-1.887,3.982-3.572,5.884-3.172,5.267,1.1,9.449.637,11.684,7.1" transform="translate(-20.502 -92.723)" fill="#f0ec1e"/>
      <path id="Path_1278" data-name="Path 1278" d="M121.884,111.625a4.541,4.541,0,0,1,1.718-.007c.833.175,1.638.31,2.413.439,4.24.71,7.9,1.323,9.96,7.267.216.607,4.585,13.223-3.923,19.052-2.5,1.714-6.154,2.954-8.913,1.3-1.759-1.052-3.705-3.676-3-10.205.246-2.254-.889-4.466-1.986-6.605-1.272-2.481-2.587-5.047-1.485-7.54a7.5,7.5,0,0,1,5.211-3.7m5.318,26.858a9.971,9.971,0,0,0,3.8-1.646c7.341-5.031,3.261-16.772,3.217-16.889v-.01c-1.7-4.9-4.407-5.357-8.507-6.042-.8-.135-1.63-.274-2.489-.453-1.476-.313-4.191,1.169-4.841,2.638-.743,1.679.268,3.65,1.438,5.935s2.487,4.848,2.182,7.657c-.478,4.391.248,7.3,2.1,8.4a4.5,4.5,0,0,0,3.1.406" transform="translate(-20.79 -93.012)" fill="#09161c"/>
      <path id="Path_1279" data-name="Path 1279" d="M169.481,124.763s4.475,9.317-6.97,16.282c-6.73,4.1-13.9,1.473-16.546-2.061-2.538-3.388-2.432-8.644.437-12.559,1.349-1.841,7,.369,9.5.168,6.927-.562,11.367-6.685,13.577-1.83" transform="translate(-8.279 -87.914)" fill="#f0ec1e"/>
      <path id="Path_1280" data-name="Path 1280" d="M147.764,125.13a15.625,15.625,0,0,1,5.012.414,15.939,15.939,0,0,0,3.338.407,19.6,19.6,0,0,0,6.881-2.231c2.093-1,3.9-1.854,5.5-1.272a3.851,3.851,0,0,1,2.118,2.216c.217.479,4.456,10.289-7.336,17.464a14.432,14.432,0,0,1-10.467,1.95,12.186,12.186,0,0,1-7.307-4.249c-2.807-3.749-2.625-9.5.432-13.669a2.745,2.745,0,0,1,1.828-1.031m9.82,2.507c-.43.077-.871.135-1.321.171a16.437,16.437,0,0,1-3.823-.43c-1.676-.307-4.48-.818-5-.116-2.584,3.527-2.771,8.342-.443,11.451,2.4,3.209,9.061,5.626,15.314,1.824,10.55-6.42,6.779-14.733,6.614-15.084l-.007-.014a2.145,2.145,0,0,0-1.062-1.239c-.866-.313-2.347.388-4.063,1.2a24.218,24.218,0,0,1-6.209,2.234" transform="translate(-8.565 -88.203)" fill="#09161c"/>
      <path id="Path_1281" data-name="Path 1281" d="M159.448,93.582s9.637,3.159,6.408,16.4c-1.9,7.785-8.78,11.242-13.105,10.743-4.147-.479-4.7-1.42-5.4-6.24-.329-2.267-.072-8.153,1.551-10.133,4.5-5.484,5.61-12.5,10.547-10.769" transform="translate(-6.9 -101.187)" fill="#f0ec1e"/>
      <path id="Path_1282" data-name="Path 1282" d="M157.547,92.726a4.873,4.873,0,0,1,2.5.267c.5.177,10.33,3.866,7.005,17.5a15.279,15.279,0,0,1-6.007,9.017,12.255,12.255,0,0,1-8.111,2.431c-4.663-.539-5.473-1.9-6.216-7.034-.3-2.041-.206-8.47,1.751-10.857a37.343,37.343,0,0,0,3.481-5.368c1.6-2.817,3.127-5.516,5.6-5.955M155.329,120a13.005,13.005,0,0,0,9.908-9.947c2.974-12.2-5.438-15.174-5.8-15.294l-.016,0c-2.484-.875-3.652.958-5.857,4.848a38.928,38.928,0,0,1-3.662,5.631c-1.331,1.625-1.676,7.15-1.349,9.408.665,4.582,1.05,5.04,4.586,5.448a7.57,7.57,0,0,0,2.184-.09" transform="translate(-7.186 -101.479)" fill="#09161c"/>
      <path id="Path_1283" data-name="Path 1283" d="M190.44,129.652s9.743-1.22,11.055,12.76c.772,8.219-4.356,14.512-8.435,15.931-3.91,1.36-4.714.71-6.891-3.561-1.024-2.006-.49-8.225.348-10.816,2.318-7.172-1.107-13.8,3.923-14.315" transform="translate(10.317 -84.899)" fill="#f0ec1e"/>
      <path id="Path_1284" data-name="Path 1284" d="M190.177,129.076c.143-.025.293-.046.448-.062a10.065,10.065,0,0,1,7.02,2.211c2.868,2.3,4.573,6.135,5.067,11.39.852,9.084-4.9,15.453-9.058,16.9-4.447,1.549-5.707.535-8.029-4.017-1.212-2.381-.526-8.991.293-11.526a24.374,24.374,0,0,0,.889-7.785c0-3.343,0-6.508,3.371-7.108m.978,29.226a13.147,13.147,0,0,0,1.886-.552c3.743-1.3,8.541-7.223,7.814-14.962-.445-4.734-1.916-8.135-4.376-10.11a8.2,8.2,0,0,0-5.635-1.814l-.022,0c-1.967.2-2.154,1.463-2.151,5.315a26.25,26.25,0,0,1-.981,8.36c-.85,2.633-1.215,8.513-.4,10.107,1.586,3.113,2.176,3.953,3.868,3.653" transform="translate(10.03 -85.188)" fill="#09161c"/>
      <path id="Path_1285" data-name="Path 1285" d="M115.8,145.46s-6.252-.923-6.571,3.908,1.394,8.111,4.182,7.97,7.312-7.127,2.389-11.878" transform="translate(-23.96 -77.828)" fill="#f0ec1e"/>
      <path id="Path_1286" data-name="Path 1286" d="M113.154,144.9a10.5,10.5,0,0,1,3.074-.07l.3.043.216.207a7.836,7.836,0,0,1,1.9,8.728c-.982,2.619-3.107,4.657-4.889,4.753A4.033,4.033,0,0,1,110.6,157.3c-1.5-1.524-2.232-4.334-2.008-7.709a4.683,4.683,0,0,1,1.715-3.5,6.246,6.246,0,0,1,2.846-1.2m2.512,1.744c-.774-.062-2.906-.126-4.191.914a2.86,2.86,0,0,0-1.024,2.163c-.185,2.8.366,5.151,1.478,6.281a2.167,2.167,0,0,0,1.728.7c.939-.052,2.476-1.515,3.238-3.546a6.008,6.008,0,0,0-1.228-6.51" transform="translate(-24.248 -78.116)" fill="#09161c"/>
      <path id="Path_1287" data-name="Path 1287" d="M138.158,101.558s-6.252-.923-6.571,3.908,1.394,8.111,4.182,7.97,7.312-7.127,2.389-11.878" transform="translate(-13.932 -97.521)" fill="#f0ec1e"/>
      <path id="Path_1288" data-name="Path 1288" d="M135.508,100.994a10.5,10.5,0,0,1,3.074-.07l.3.043.216.207a7.836,7.836,0,0,1,1.9,8.728c-.982,2.619-3.1,4.66-4.889,4.753a4.033,4.033,0,0,1-3.151-1.253c-1.5-1.524-2.232-4.334-2.008-7.709a4.683,4.683,0,0,1,1.715-3.5,6.246,6.246,0,0,1,2.846-1.2m2.512,1.744c-.774-.064-2.907-.126-4.191.914a2.863,2.863,0,0,0-1.024,2.163c-.185,2.8.367,5.151,1.478,6.281a2.167,2.167,0,0,0,1.728.7c.921-.041,2.476-1.515,3.238-3.546a6.008,6.008,0,0,0-1.228-6.51" transform="translate(-14.22 -97.809)" fill="#09161c"/>
      <path id="Path_1289" data-name="Path 1289" d="M92.313,109.081s-7.5-7.35-13.67-.816S70.933,121.1,74.934,123.6s18.508-3.028,17.379-14.518" transform="translate(-40.32 -95.695)" fill="#f0ec1e"/>
      <path id="Path_1290" data-name="Path 1290" d="M83.282,105.044a8.385,8.385,0,0,1,1.3-.126c4.662-.09,8.51,3.629,8.673,3.787l.242.238.033.338c.524,5.341-2.132,10.241-7.292,13.443-4.188,2.6-9.135,3.437-11.509,1.956a5.467,5.467,0,0,1-2.593-4.072c-.448-3.475,1.782-8.1,6.117-12.691a9.066,9.066,0,0,1,5.029-2.871m8.421,4.77c-.855-.747-3.818-3.1-7.094-3.032a6.974,6.974,0,0,0-5,2.413c-3.892,4.12-5.994,8.3-5.625,11.173a3.618,3.618,0,0,0,1.732,2.729c1.535.96,5.735.4,9.537-1.958,2.106-1.308,6.887-5,6.449-11.325" transform="translate(-40.609 -95.983)" fill="#09161c"/>
      <path id="Path_1291" data-name="Path 1291" d="M96.52,150.288s10.454,4.814,8.416,15.811c-1.2,6.465-5.716,12.789-11.777,3.61-2.783-4.217-9.453-2.219-10.683-6.62-.578-2.067.5-6.042,2.009-7.446,4.165-3.891,6.666-7.925,12.035-5.355" transform="translate(-36.016 -75.993)" fill="#f0ec1e"/>
      <path id="Path_1292" data-name="Path 1292" d="M93.919,148.843a8.392,8.392,0,0,1,3.293.892c.43.206,11.042,5.422,8.929,16.822-.714,3.856-2.661,8.218-5.981,8.89-2.47.506-4.995-1.159-7.489-4.937-1.141-1.728-3.077-2.242-5.126-2.786-2.295-.607-4.893-1.3-5.675-4.1-.675-2.412.491-6.717,2.27-8.379.661-.617,1.279-1.239,1.874-1.835,2.393-2.4,4.686-4.7,7.906-4.572m5.3,24.823a2.412,2.412,0,0,0,.571-.045c1.957-.4,3.772-3.371,4.52-7.4,1.879-10.134-7.491-14.61-7.89-14.8l-.012,0c-3.908-1.873-5.964.191-9.074,3.314-.61.611-1.244,1.249-1.922,1.882-1.269,1.185-2.234,4.777-1.747,6.514.471,1.688,1.963,2.161,4.357,2.8,2.19.579,4.673,1.239,6.206,3.559,1.776,2.691,3.488,4.12,4.992,4.182" transform="translate(-36.305 -76.281)" fill="#09161c"/>
      <path id="Path_1293" data-name="Path 1293" d="M125,164.777s10.454,4.814,8.416,15.811c-1.2,6.465-5.716,12.789-11.777,3.61-2.783-4.217-9.453-2.219-10.683-6.62-.578-2.067.5-6.042,2.009-7.446,4.165-3.891,6.666-7.925,12.035-5.355" transform="translate(-23.24 -69.494)" fill="#f0ec1e"/>
      <path id="Path_1294" data-name="Path 1294" d="M122.4,163.332a8.373,8.373,0,0,1,3.293.892c.43.206,11.042,5.422,8.929,16.821-.714,3.858-2.661,8.218-5.981,8.891-2.47.5-4.995-1.159-7.489-4.938-1.141-1.728-3.077-2.241-5.126-2.784-2.295-.608-4.893-1.3-5.676-4.1-.675-2.412.491-6.718,2.27-8.38.661-.616,1.278-1.238,1.873-1.834,2.393-2.4,4.688-4.7,7.908-4.572m5.3,24.823a2.413,2.413,0,0,0,.571-.045c1.957-.4,3.772-3.372,4.52-7.4,1.885-10.166-7.79-14.749-7.889-14.794l-.013-.006c-3.908-1.87-5.964.191-9.074,3.313-.61.613-1.244,1.249-1.922,1.882-1.269,1.186-2.234,4.777-1.747,6.514.471,1.688,1.963,2.163,4.357,2.8,2.19.579,4.673,1.239,6.206,3.559,1.776,2.691,3.488,4.121,4.992,4.183" transform="translate(-23.528 -69.782)" fill="#09161c"/>
      <path id="Path_1295" data-name="Path 1295" d="M72.11,170.844s-3.168,6.464.694,9.5,7.228,2.945,8.186-.243-3.064-12.113-8.88-9.256" transform="translate(-41.143 -66.659)" fill="#f0ec1e"/>
      <path id="Path_1296" data-name="Path 1296" d="M74.865,169.652a6.029,6.029,0,0,1,3.672,1.528c2.91,2.465,4.344,7.118,3.636,9.474a4.062,4.062,0,0,1-2.678,2.926c-1.915.605-4.389-.181-6.975-2.216-4.405-3.464-1.1-10.351-.956-10.644l.141-.285.285-.139a5.931,5.931,0,0,1,2.875-.643m3.167,12.256a2.639,2.639,0,0,0,.9-.106,2.291,2.291,0,0,0,1.456-1.685c.464-1.544-.639-5.47-3.056-7.515a3.863,3.863,0,0,0-4.224-.771c-.516,1.212-2.237,5.862.563,8.067a8.278,8.278,0,0,0,4.36,2.009" transform="translate(-41.434 -66.946)" fill="#09161c"/>
      <path id="Path_1297" data-name="Path 1297" d="M128.31,264.27s1.9,8.742-7.223,11.034c-5.361,1.347-10.105-2.81-11.5-6.4a9.169,9.169,0,0,1,2.051-9.927c1.217-1.086,4.692-1.679,6.5-1.124,5.015,1.538,9.271,1.895,10.173,6.416" transform="translate(-24.072 -27.474)" fill="#f0ec1e"/>
      <path id="Path_1298" data-name="Path 1298" d="M117.051,257.168a6.072,6.072,0,0,1,1.508.232c.8.245,1.579.461,2.328.666,4.017,1.108,7.485,2.064,8.326,6.282.077.38,1.773,9.461-7.74,11.851-5.745,1.446-10.853-3.033-12.327-6.823a9.914,9.914,0,0,1,2.237-10.706c1.084-.968,3.634-1.586,5.668-1.5m1.853,17.9a7.793,7.793,0,0,0,2.228-.23c8.335-2.1,6.778-9.875,6.707-10.205v-.01c-.674-3.371-3.462-4.14-7.323-5.2-.763-.21-1.556-.429-2.368-.678-1.58-.484-4.795.052-5.828.976a8.466,8.466,0,0,0-1.864,9.149c1.089,2.8,4.434,6.038,8.45,6.2" transform="translate(-24.287 -27.69)" fill="#09161c"/>
      <path id="Path_1299" data-name="Path 1299" d="M156.888,205.659s1.654,4.081-5.673,5.015c-4.308.549-8.2-1.446-9.374-3.129-1.128-1.615-.54-3.54,1.515-4.576a11.456,11.456,0,0,1,5.231-.429c4.068.784,7.508,1.01,8.3,3.119" transform="translate(-9.569 -52.247)" fill="#f0ec1e"/>
      <path id="Path_1300" data-name="Path 1300" d="M147.834,201.786a8.246,8.246,0,0,1,1.22.126c.648.126,1.279.236,1.887.342,3.49.611,6.248,1.094,7.1,3.355a3.918,3.918,0,0,1-.307,3.267c-.936,1.6-2.994,2.613-6.116,3.012-4.412.564-8.764-1.388-10.256-3.52a3.755,3.755,0,0,1-.626-3.1,4.513,4.513,0,0,1,2.486-2.846,11.44,11.44,0,0,1,4.608-.639m8.47,4.488c-.477-1.272-2.89-1.693-5.684-2.183-.617-.109-1.26-.222-1.921-.348a10.808,10.808,0,0,0-4.634.346,2.7,2.7,0,0,0-1.517,1.638,1.893,1.893,0,0,0,.346,1.57c1,1.433,4.6,3.236,8.492,2.739,3.11-.4,4.289-1.35,4.728-2.077a2.04,2.04,0,0,0,.194-1.675l.868-.339Z" transform="translate(-9.857 -52.534)" fill="#09161c"/>
      <path id="Path_1301" data-name="Path 1301" d="M98.694,193s2.429,11.192-9.246,14.125c-6.865,1.725-12.939-3.6-14.728-8.19-1.714-4.4-.687-9.752,2.626-12.71,1.557-1.391,6.006-2.15,8.323-1.438,6.419,1.97,11.868,2.425,13.024,8.213" transform="translate(-39.791 -60.276)" fill="#f0ec1e"/>
      <path id="Path_1302" data-name="Path 1302" d="M84.234,183.88a7.956,7.956,0,0,1,1.995.309c1.023.314,2.021.59,2.98.853,5.153,1.421,9.6,2.648,10.685,8.07.1.493,2.273,12.145-9.933,15.211-7.375,1.854-13.931-3.894-15.823-8.757-1.87-4.8-.662-10.585,2.873-13.744,1.412-1.262,4.615-2.05,7.224-1.943m2.428,22.929a10,10,0,0,0,2.844-.294c10.638-2.673,8.652-12.6,8.563-13.026l0-.014c-.858-4.3-4.421-5.277-9.352-6.636-.975-.269-1.99-.549-3.03-.869-2.019-.616-6.114.067-7.43,1.243-2.977,2.658-3.976,7.57-2.379,11.677,1.392,3.575,5.661,7.709,10.788,7.919" transform="translate(-40.077 -60.566)" fill="#09161c"/>
      <path id="Path_1303" data-name="Path 1303" d="M95.4,218.764s8.1,6.42.855,17.691c-4.259,6.627-11.852,7.4-15.779,5.384-3.763-1.937-3.989-3.017-3.123-7.795.408-2.245,4.478-6.42,6.639-7.7,5.984-3.535,7.3-10.985,11.409-7.585" transform="translate(-38.43 -45.303)" fill="#f0ec1e"/>
      <path id="Path_1304" data-name="Path 1304" d="M93.841,217.255a4.113,4.113,0,0,1,2.438,1.081c.406.335,8.51,7.3,1.046,18.913a14.431,14.431,0,0,1-8.561,6.332,12.18,12.18,0,0,1-8.429-.623c-4.2-2.161-4.533-3.724-3.613-8.79.488-2.684,4.948-7.07,7.081-8.332a19.6,19.6,0,0,0,5.212-5.015c1.447-1.812,2.7-3.375,4.391-3.55a3.124,3.124,0,0,1,.436-.014M84.784,242.17a12.5,12.5,0,0,0,10.973-5.93c6.713-10.441-.346-16.215-.649-16.456l-.017-.013a2.114,2.114,0,0,0-1.493-.647c-.917.094-1.941,1.376-3.127,2.859a21.4,21.4,0,0,1-5.719,5.458c-2.173,1.283-5.874,5.293-6.194,7.059-.829,4.562-.608,5.134,2.631,6.8a8.739,8.739,0,0,0,3.6.871" transform="translate(-38.715 -45.592)" fill="#09161c"/>
      <path id="Path_1305" data-name="Path 1305" d="M214.35,178.682s-1.874,11.848-13.873,8.6c-7.055-1.912-10.761-10.086-10.73-15.358.029-5.054,2.97-9.585,7.16-10.676,1.97-.513,6.41,1.066,8.312,2.936,5.27,5.18,10.2,8.425,9.13,14.5" transform="translate(12.174 -70.759)" fill="#f0ec1e"/>
      <path id="Path_1306" data-name="Path 1306" d="M198.345,160.512a13.674,13.674,0,0,1,7.816,3.294c.84.824,1.672,1.6,2.471,2.347,4.24,3.959,7.9,7.378,6.926,12.972-.054.327-.971,5.6-5.211,8.348-2.642,1.709-5.946,2.045-9.827.994-7.841-2.125-11.448-10.96-11.418-16.263.03-5.528,3.336-10.395,7.858-11.573a4.842,4.842,0,0,1,1.383-.119m5.868,26.677a8.556,8.556,0,0,0,5.109-1.273c3.585-2.312,4.389-7.046,4.4-7.092v-.014c.805-4.6-2.2-7.408-6.361-11.293-.81-.756-1.653-1.544-2.5-2.381-1.8-1.769-5.9-3.1-7.424-2.7-3.719.968-6.437,5.08-6.464,9.779-.029,4.911,3.446,12.663,10.042,14.452a14.591,14.591,0,0,0,3.2.521" transform="translate(11.885 -71.046)" fill="#09161c"/>
      <path id="Path_1307" data-name="Path 1307" d="M86.62,279.268s-1.57-6.59-6.752-5.932-8.082,4.018-6.7,6.249,10.673,4.572,13.451-.317" transform="translate(-40.274 -20.455)" fill="#f0ec1e"/>
      <path id="Path_1308" data-name="Path 1308" d="M85.324,278.833c-.388-1.269-1.922-5.337-5.628-4.861-3.271.416-5.379,1.953-6.017,3.293a1.536,1.536,0,0,0-.006,1.543c.553.894,3.632,2.179,6.755,2.118,1.619-.029,3.74-.426,4.9-2.092" transform="translate(-39.985 -20.166)" fill="#09161c"/>
      <path id="Path_1309" data-name="Path 1309" d="M89.921,302.371s-1.57-6.59-6.752-5.932-8.082,4.018-6.7,6.249,10.673,4.572,13.451-.317" transform="translate(-38.793 -10.092)" fill="#f0ec1e"/>
      <path id="Path_1310" data-name="Path 1310" d="M84.415,295.755c4.047.167,6.139,4.33,6.7,6.69l.085.356-.183.32c-1.194,2.1-3.566,3.291-6.681,3.349-3.487.057-7.325-1.308-8.373-3a3.374,3.374,0,0,1-.093-3.326c1.046-2.193,3.978-3.9,7.467-4.34a6.493,6.493,0,0,1,1.075-.048m4.786,6.759c-.388-1.269-1.928-5.338-5.626-4.861-3.271.416-5.38,1.953-6.019,3.293a1.536,1.536,0,0,0-.006,1.543c.553.894,3.637,2.179,6.753,2.118,1.621-.029,3.742-.426,4.9-2.092" transform="translate(-39.082 -10.38)" fill="#09161c"/>
      <path id="Path_1311" data-name="Path 1311" d="M156.136,274.992s-1.757-8.813-7.727-7.892-9.333,5.444-7.761,8.422,12.252,6.038,15.488-.53" transform="translate(-10.023 -23.262)" fill="#f0ec1e"/>
      <path id="Path_1312" data-name="Path 1312" d="M149.794,266.395c4.6.188,6.93,5.618,7.546,8.7l.061.311-.139.282c-1.38,2.8-4.147,4.373-7.793,4.424-3.939.062-8.218-1.717-9.353-3.871a4.792,4.792,0,0,1,.129-4.482c1.35-2.684,4.535-4.714,8.313-5.3a6.371,6.371,0,0,1,1.237-.071m5.645,8.76c-.364-1.456-2.141-7.533-6.6-6.845-3.143.484-5.864,2.169-6.931,4.291a3,3,0,0,0-.148,2.774c.623,1.181,4.01,2.942,7.68,2.877a6.591,6.591,0,0,0,6-3.1" transform="translate(-10.312 -23.551)" fill="#09161c"/>
      <path id="Path_1313" data-name="Path 1313" d="M206.939,228.7s1.682,13.134-7.351,16.785c-5.31,2.145-9.9-4.018-11.193-9.4-1.246-5.157-.365-11.468,2.232-15.007,1.221-1.663,4.657-2.632,6.429-1.832,4.906,2.211,9.091,2.655,9.884,9.45" transform="translate(11.317 -44.823)" fill="#f0ec1e"/>
      <path id="Path_1314" data-name="Path 1314" d="M196.051,218.327a4.572,4.572,0,0,1,1.68.362c.776.351,1.534.656,2.263.949,3.989,1.605,7.433,2.991,8.163,9.24.081.646,1.63,13.9-7.928,17.761a6.667,6.667,0,0,1-5.7-.3c-3.469-1.783-5.891-6.18-6.753-9.746-1.34-5.548-.358-12.036,2.389-15.778a7.493,7.493,0,0,1,5.883-2.493m1.465,26.948a4.805,4.805,0,0,0,2.015-.365c8.271-3.34,6.792-15.676,6.776-15.8V229.1c-.6-5.153-3.149-6.178-7.007-7.731-.752-.3-1.533-.617-2.334-.978-1.376-.623-4.344.239-5.293,1.534-2.406,3.277-3.281,9.264-2.08,14.237.9,3.73,3.284,7.236,5.794,8.526a5.071,5.071,0,0,0,2.129.588" transform="translate(11.025 -45.112)" fill="#09161c"/>
      <path id="Path_1315" data-name="Path 1315" d="M82.306,244.8s8.1,6.42.855,17.691c-4.259,6.627-11.852,7.4-15.779,5.384-3.763-1.937-5.968-6.707-5.1-11.484.408-2.245,6.456-2.731,8.618-4.007,5.984-3.535,7.3-10.985,11.409-7.585" transform="translate(-45.089 -33.626)" fill="#f0ec1e"/>
      <path id="Path_1316" data-name="Path 1316" d="M80.746,243.286a4.124,4.124,0,0,1,2.442,1.081h0c.4.335,8.509,7.3,1.044,18.913a14.442,14.442,0,0,1-8.56,6.333,12.2,12.2,0,0,1-8.429-.623c-4.165-2.142-6.516-7.391-5.591-12.481.364-2.011,3.168-2.791,5.881-3.546a16,16,0,0,0,3.177-1.1,19.622,19.622,0,0,0,5.212-5.016c1.449-1.812,2.7-3.375,4.392-3.55a3.1,3.1,0,0,1,.433-.014M71.689,268.2a12.5,12.5,0,0,0,10.974-5.93c6.678-10.389-.349-16.215-.652-16.459L82,245.8a2.122,2.122,0,0,0-1.495-.648c-.915.094-1.941,1.376-3.127,2.859a21.42,21.42,0,0,1-5.719,5.458,16.5,16.5,0,0,1-3.626,1.285c-1.643.458-4.391,1.223-4.547,2.085-.782,4.3,1.157,8.713,4.611,10.489a8.719,8.719,0,0,0,3.594.871" transform="translate(-45.376 -33.915)" fill="#09161c"/>
      <path id="Path_1317" data-name="Path 1317" d="M185.632,206.747s-7.027-3.41-7.856.827.807,7.909,3.994,8.93,9.009-3.432,3.862-9.758" transform="translate(6.708 -50.886)" fill="#f0ec1e"/>
      <path id="Path_1318" data-name="Path 1318" d="M181.312,204.813a14.377,14.377,0,0,1,5.013,1.383l.187.09.129.161c3.54,4.35,2.045,7.569,1.24,8.751a5.806,5.806,0,0,1-6.109,2.481c-3.645-1.169-5.547-5.279-4.622-10a3.314,3.314,0,0,1,1.773-2.444,4.9,4.9,0,0,1,2.389-.426m4.014,2.972c-1.553-.713-4.279-1.522-5.571-.878a1.434,1.434,0,0,0-.775,1.133c-.736,3.76.648,6.994,3.362,7.864a3.913,3.913,0,0,0,4-1.757c1.2-1.754.836-4.008-1.014-6.362" transform="translate(6.42 -51.175)" fill="#09161c"/>
      <path id="Path_1319" data-name="Path 1319" d="M170.391,187.465s-7.027-3.41-7.856.827.807,7.909,3.994,8.93,9.009-3.432,3.862-9.758" transform="translate(-0.128 -59.536)" fill="#f0ec1e"/>
      <path id="Path_1320" data-name="Path 1320" d="M166.073,185.532a14.387,14.387,0,0,1,5.014,1.382l.187.09.129.161c3.54,4.35,2.045,7.569,1.24,8.751a5.807,5.807,0,0,1-6.109,2.483c-3.645-1.169-5.547-5.28-4.624-10a3.308,3.308,0,0,1,1.775-2.444,4.894,4.894,0,0,1,2.389-.424m4.014,2.971c-1.553-.713-4.281-1.525-5.571-.878a1.431,1.431,0,0,0-.776,1.133c-.734,3.76.648,7,3.362,7.864a3.911,3.911,0,0,0,4-1.757c1.2-1.754.836-4.008-1.014-6.362" transform="translate(-0.417 -59.824)" fill="#09161c"/>
      <path id="Path_1321" data-name="Path 1321" d="M151.691,173.961s-4.163,2.561-2.428,4.7,3.09,2.855,4.828,1.079,2.676-6.907-2.4-5.784" transform="translate(-6.176 -65.082)" fill="#f0ec1e"/>
      <path id="Path_1322" data-name="Path 1322" d="M153.493,173.164a3.1,3.1,0,0,1,2.773,1.541c.988,1.777.149,4.579-1.22,5.978a3.5,3.5,0,0,1-2.691,1.283c-1.431-.067-2.586-1.265-3.527-2.428a2.679,2.679,0,0,1-.591-2.187c.353-2.058,2.959-3.714,3.255-3.9l.133-.083.154-.033a6.717,6.717,0,0,1,1.715-.175m-1.047,6.942a1.886,1.886,0,0,0,1.268-.724c.847-.868,1.453-2.816.923-3.771-.382-.691-1.431-.655-2.3-.484-.849.555-2.113,1.657-2.263,2.541a.823.823,0,0,0,.2.7c.927,1.146,1.635,1.714,2.164,1.738Z" transform="translate(-6.465 -65.37)" fill="#09161c"/>
      <path id="Path_1323" data-name="Path 1323" d="M134.778,223.037s-4.23-2.754-4.824.284-.352,4.843,1.934,5.574,6.579-1.323,2.89-5.858" transform="translate(-14.771 -43.51)" fill="#f0ec1e"/>
      <path id="Path_1324" data-name="Path 1324" d="M132.06,221.253a7.956,7.956,0,0,1,3.514,1.292l.214.193c2.358,2.9,1.679,4.838,1.065,5.739a4.643,4.643,0,0,1-4.961,1.595c-3.2-1.024-3.12-3.8-2.563-6.642a2.5,2.5,0,0,1,1.467-1.97,2.921,2.921,0,0,1,1.263-.207m2.377,2.778c-.856-.526-2.286-1.123-2.915-.855-.072.032-.267.113-.365.611-.637,3.255-.061,4.072,1.3,4.509a2.787,2.787,0,0,0,2.852-.874c.716-1.047-.2-2.529-.876-3.393" transform="translate(-15.061 -43.799)" fill="#09161c"/>
      <path id="Path_1325" data-name="Path 1325" d="M166.072,260.27s-5.784-2.47-6.821,1.609.087,7.365,2.749,7.99,8.015-4.185,4.072-9.6" transform="translate(-1.678 -26.628)" fill="#f0ec1e"/>
      <path id="Path_1326" data-name="Path 1326" d="M163.208,258.89a10.979,10.979,0,0,1,3.519.813l.236.1.151.207a6.857,6.857,0,0,1,.442,8.166c-1.366,2.06-3.717,3.31-5.478,2.891a4.558,4.558,0,0,1-2.891-2.141c-1.057-1.743-1.253-4.224-.549-6.988a3.8,3.8,0,0,1,2-2.58,5.317,5.317,0,0,1,2.573-.469m2.551,2.434c-.959-.358-3.049-.913-4.3-.293a1.946,1.946,0,0,0-1.017,1.367,7.513,7.513,0,0,0,.336,5.561,2.694,2.694,0,0,0,1.724,1.292c.884.21,2.493-.591,3.5-2.106a4.933,4.933,0,0,0-.243-5.822" transform="translate(-1.968 -26.917)" fill="#09161c"/>
      <path id="Path_1327" data-name="Path 1327" d="M146.972,245.555s-5.784-2.47-6.821,1.609.087,7.365,2.749,7.99,8.015-4.185,4.072-9.6" transform="translate(-10.246 -33.228)" fill="#f0ec1e"/>
      <path id="Path_1328" data-name="Path 1328" d="M144.109,244.175a10.979,10.979,0,0,1,3.519.813l.236.1.151.207a6.855,6.855,0,0,1,.442,8.166c-1.367,2.061-3.726,3.3-5.479,2.891a4.558,4.558,0,0,1-2.891-2.141c-1.057-1.743-1.253-4.224-.549-6.988a3.8,3.8,0,0,1,2-2.58,5.319,5.319,0,0,1,2.573-.469m2.551,2.434c-.958-.358-3.046-.914-4.3-.293a1.946,1.946,0,0,0-1.017,1.367,7.513,7.513,0,0,0,.336,5.561,2.7,2.7,0,0,0,1.724,1.292c.875.21,2.493-.591,3.5-2.1a4.932,4.932,0,0,0-.243-5.823" transform="translate(-10.535 -33.518)" fill="#09161c"/>
      <path id="Path_1329" data-name="Path 1329" d="M116.77,240.5s-5.784-2.47-6.821,1.609.087,7.365,2.749,7.99,8.015-4.185,4.072-9.6" transform="translate(-23.793 -35.494)" fill="#f0ec1e"/>
      <path id="Path_1330" data-name="Path 1330" d="M113.907,239.124a10.979,10.979,0,0,1,3.519.813l.236.1.151.207a6.852,6.852,0,0,1,.44,8.166c-1.367,2.061-3.727,3.3-5.478,2.891a4.56,4.56,0,0,1-2.891-2.142c-1.057-1.743-1.252-4.223-.549-6.986a3.809,3.809,0,0,1,2-2.58,5.32,5.32,0,0,1,2.573-.469m2.551,2.434c-.959-.358-3.048-.915-4.3-.293a1.952,1.952,0,0,0-1.017,1.367,7.505,7.505,0,0,0,.336,5.561,2.685,2.685,0,0,0,1.722,1.292c.873.212,2.493-.591,3.5-2.106a4.929,4.929,0,0,0-.242-5.822" transform="translate(-24.084 -35.784)" fill="#09161c"/>
      <path id="Path_1331" data-name="Path 1331" d="M186.3,255.426s6.252-9.733,1.792-13.1-10.31-1.4-11.817,2.584,2.554,14.531,10.026,10.511" transform="translate(5.992 -35.112)" fill="#f0ec1e"/>
      <path id="Path_1332" data-name="Path 1332" d="M183.731,239.977a9.278,9.278,0,0,1,5.211,1.9c5.095,3.837-1.294,13.916-1.567,14.344l-.13.2-.211.114a6.651,6.651,0,0,1-7.98-.688c-3.175-2.784-4.414-8.184-3.359-10.974a7.769,7.769,0,0,1,5.184-4.551,8.926,8.926,0,0,1,2.854-.346m2.2,15.029c1.656-2.667,4.89-9.375,1.885-11.642a7.259,7.259,0,0,0-6.424-1.249,5.891,5.891,0,0,0-3.959,3.419c-.82,2.171.33,6.71,2.844,8.912a4.723,4.723,0,0,0,5.655.561" transform="translate(5.704 -35.401)" fill="#09161c"/>
      <path id="Path_1333" data-name="Path 1333" d="M60.867,134.988s4.069-10.83-1-13.181-10.373.8-11.011,5.008,5.547,13.672,12.009,8.173" transform="translate(-51.045 -88.766)" fill="#f0ec1e"/>
      <path id="Path_1334" data-name="Path 1334" d="M55.057,120.489a9.27,9.27,0,0,1,5.492.762c5.786,2.684,1.657,13.879,1.479,14.354l-.085.226-.183.155a6.647,6.647,0,0,1-7.947,1c-3.69-2.054-6.033-7.075-5.589-10.024a7.765,7.765,0,0,1,4.115-5.536,8.923,8.923,0,0,1,2.718-.939m5.309,14.231c1.06-2.954,2.813-10.194-.6-11.778a7.263,7.263,0,0,0-6.543.127,5.894,5.894,0,0,0-3.154,4.175c-.346,2.295,1.732,6.49,4.651,8.115a4.719,4.719,0,0,0,5.647-.639" transform="translate(-51.334 -89.055)" fill="#09161c"/>
      <path id="Path_1335" data-name="Path 1335" d="M142.578,140.289s-5.784-2.47-6.821,1.609.087,7.365,2.749,7.99,8.015-4.185,4.072-9.6" transform="translate(-12.217 -80.448)" fill="#f0ec1e"/>
      <path id="Path_1336" data-name="Path 1336" d="M139.715,138.909a10.979,10.979,0,0,1,3.519.813l.236.1.151.207a6.857,6.857,0,0,1,.442,8.166c-1.366,2.06-3.713,3.306-5.478,2.891a4.558,4.558,0,0,1-2.891-2.141c-1.057-1.743-1.253-4.224-.549-6.988a3.806,3.806,0,0,1,2-2.581,5.332,5.332,0,0,1,2.573-.468m2.551,2.434c-.959-.358-3.048-.913-4.3-.293a1.946,1.946,0,0,0-1.017,1.367,7.513,7.513,0,0,0,.336,5.561,2.694,2.694,0,0,0,1.724,1.292c.884.211,2.493-.591,3.5-2.106a4.933,4.933,0,0,0-.243-5.822" transform="translate(-12.506 -80.737)" fill="#09161c"/>
      <path id="Path_1337" data-name="Path 1337" d="M211.3,196.368s-7.385-2.419-9.711,4.16-.684,12.21,2.3,12.02,10.622-9.7,7.407-16.181" transform="translate(16.993 -55.155)" fill="#f0ec1e"/>
      <path id="Path_1338" data-name="Path 1338" d="M209.061,195.285a10.678,10.678,0,0,1,2.82.494l.369.12.175.351c1.508,3.039,1.018,7.13-1.344,11.225-1.747,3.026-4.657,6.162-6.84,6.3a3.375,3.375,0,0,1-2.938-1.47c-1.822-2.412-1.945-7.15-.3-11.791,1.524-4.31,5.124-5.348,8.061-5.228m1.861,2.16c-1.433-.359-6.43-1.215-8.164,3.69-1.656,4.682-1.144,8.489.033,10.046a1.546,1.546,0,0,0,1.334.734c.971-.062,3.474-2.135,5.341-5.371.934-1.62,2.89-5.664,1.456-9.1" transform="translate(16.705 -55.45)" fill="#09161c"/>
    </g>
  </g>
  <g id="Group_101" data-name="Group 101">
    <g id="Group_100" data-name="Group 100" clip-path="url(#clip-path)">
      <path id="Path_1340" data-name="Path 1340" d="M146.331,186.486s9.866-1.133,38.875-2.645l2.515,18.788s-20.27.385-22.466.873c0,0,.362,24.382,1.467,36.391,0,0,10.956.343,14.325.083,0,0,.84,17.767.093,19.27-.375.753-14.2,1.531-14.2,1.531l.3,12.385,18.569.8-3.119,22.66-34.6-1.586s-2.368-88.164-1.754-108.547" transform="translate(65.594 82.466)" fill="#fff"/>
      <path id="Path_1341" data-name="Path 1341" d="M156.857,288.34l1.275-16.477-30.52.918s4.347,99.614,5.593,135.756c0,0,22.215.944,25.8,1.286,0,0,.327-1.091-.617-19.443,0,0-2.557-.183-8.179-.742l-.452-15.025,5.906-.678c.327-2.5.281-18.957-.3-18.957-2.657,0-7.081.4-7.081.4-.393.466-1.144-66.641-1.144-66.641Z" transform="translate(57.243 121.95)" fill="#fff"/>
      <path id="Path_1342" data-name="Path 1342" d="M88.211,376.74l124.127-2.163,2.193,42.411S89.6,410.732,90.284,412.078s-2.073-35.338-2.073-35.338" transform="translate(39.569 168.024)" fill="#d6e950"/>
      <path id="Path_1343" data-name="Path 1343" d="M108.9,384.47h6.742c2.226,0,4.311,1.685,4.311,3.539v5.547c0,1.853-2.085,3.556-4.311,3.556H108.9Zm6.169,3.539h-1.859v5.547h1.859a.534.534,0,0,0,.572-.522v-4.553c0-.254-.307-.472-.572-.472" transform="translate(48.847 172.462)" fill="#09161c"/>
      <path id="Path_1344" data-name="Path 1344" d="M120.7,385.052h4.309l3.9,11.8H124.6l-.49-1.483h-2.493l-.49,1.483H116.82Zm2.635,7.973-.469-1.434-.471,1.434Z" transform="translate(52.402 172.723)" fill="#09161c"/>
      <path id="Path_1345" data-name="Path 1345" d="M125.733,385.051h6.742c2.226,0,4.311,1.585,4.311,3.3v.944a2.643,2.643,0,0,1-.653,1.651,2.609,2.609,0,0,1,.653,1.653v.943c0,1.719-2.085,3.3-4.311,3.3h-6.742Zm6.19,4.249a.535.535,0,0,0,.552-.49c0-.252-.307-.455-.572-.455h-1.86v.944Zm-.02,4.247a.529.529,0,0,0,.572-.488c0-.253-.287-.439-.552-.455h-1.88v.943Z" transform="translate(56.4 172.723)" fill="#09161c"/>
      <path id="Path_1346" data-name="Path 1346" d="M145.543,385.051v8.478c0,1.737-2.084,3.322-4.311,3.322H138.8c-2.228,0-4.311-1.585-4.311-3.322v-8.478H138.8v7.99a.519.519,0,0,0,.572.488h1.286a.519.519,0,0,0,.572-.488v-7.99Z" transform="translate(60.328 172.723)" fill="#09161c"/>
      <path id="Path_1347" data-name="Path 1347" d="M143.247,385.051h4.311v4.231h1.286l1.391-4.231h4.31l-1.94,5.883,1.94,5.9h-4.31l-1.391-4.231h-1.286v4.249h-4.311Z" transform="translate(64.256 172.723)" fill="#09161c"/>
      <rect id="Rectangle_69" data-name="Rectangle 69" width="4.311" height="11.8" transform="translate(220.047 557.774)" fill="#09161c"/>
      <path id="Path_1348" data-name="Path 1348" d="M99.423,400.306c-2,4.369-11.158,7.659-14.719,8.31s2.257-21.558,2.257-21.558,8.522,2.607,10.979,4.612c.556.455,4.244,2.591,1.483,8.635" transform="translate(37.478 173.623)" fill="#854ca0"/>
      <path id="Path_1349" data-name="Path 1349" d="M95.372,399.3c-1.89,0-5.322-.343-7.265-2.618l1.4-1.2c2.082,2.442,6.943,1.93,6.992,1.925l.207,1.825a12.375,12.375,0,0,1-1.333.062" transform="translate(39.522 177.404)" fill="#fff"/>
      <path id="Path_1350" data-name="Path 1350" d="M98.577,397.618a13.246,13.246,0,0,1-8.313-3.82l1.328-1.27a11.554,11.554,0,0,0,7.063,3.255Z" transform="translate(40.49 176.077)" fill="#fff"/>
      <path id="Path_1351" data-name="Path 1351" d="M97.946,395.4c-.025-.035-2.538-3.466-5.577-3.5l.023-1.838c3.973.051,6.923,4.1,7.046,4.27Z" transform="translate(41.434 174.967)" fill="#fff"/>
      <path id="Path_1352" data-name="Path 1352" d="M177.8,346.215l12.487,5.81-.981-10.441s-7.079-.175-11.506,4.631" transform="translate(79.756 153.224)"/>
      <path id="Path_1353" data-name="Path 1353" d="M173.449,350.693l-1.084-2.206c.743-.365,18.278-8.9,27.306-7.154l-.466,2.413c-3.351-.647-8.836.333-15.869,2.835a106.019,106.019,0,0,0-9.886,4.112" transform="translate(77.318 153.007)"/>
    </g>
  </g>
</svg>
