<svg id="Group_109" data-name="Group 109" xmlns="http://www.w3.org/2000/svg" xmlns:xlink="http://www.w3.org/1999/xlink" width="299.359" height="619.35" viewBox="0 0 299.359 619.35">
  <defs>
    <clipPath id="clip-path">
      <rect id="Rectangle_71" data-name="Rectangle 71" width="299.359" height="619.35" fill="none"/>
    </clipPath>
    <clipPath id="clip-path-2">
      <path id="Path_1523" data-name="Path 1523" d="M135.255,124.033c-55.2,32.55-66.136,84.152-63.19,112.126,2.291,21.77,10.826,27.88,27.418,30.307,15.151,2.217,33.248,1.678,48.5,1.141,15.879-.56,28.671-1.121,31.84,1.427,2.29,1.842-73.529,23.709-101.379,35.463-28.89,12.191-49.985,31.359-53.7,66.8-1.577,15.047,11.529,48.184,50.9,62.155s83.418-20.392,86.816-33.349c4.38-16.7-1.9-47.629,12.7-58.423s47.579,3.445,47.628,28.576c.053,27.727-42.955,61.2-58.414,72.333a84.8,84.8,0,0,1-10.093,6.239c-32.029,16.839-116.514,50.4-95.44,86.3,11.369,19.359,51.053,40.712,88.362,32.2,12.569-2.866,42.376-21.742,54-35.674,5.2-6.232,11.782-23.235,7.2-36.327-5.473-15.636-12.764-29.782-8.715-42.287,3.1-9.58,11.233-14.647,16.323-15.289a11.806,11.806,0,0,1,7.245,1.684c1.8,1,2.973,2,3.288,1.707.637-.59-2.44-5.846-7.366-7.338a11.111,11.111,0,0,0-3.166-.3,22.374,22.374,0,0,0-15.224,7.147,33.9,33.9,0,0,0-7.8,11.858c-11.269,30.939,5.923,42.923-4.949,63.647-.459.876-.625,1.675-.98,2.469-.078.177-.112.282-.2.446a.9.9,0,0,1-.063.143c-13.937,20.527-54.829,23.327-69.483,28.836-18.7,7.027-52.453-16.062-36.454-42.169,2.923-4.766,9.856-9.177,15.44-11.944,48.463-24,90.449-41.922,125.214-77.323,8.711-8.869,15.629-16.423,20.187-23.8,15.187-24.594,4.675-57-21.835-68.514-26.216-11.391-71.85-23.793-74.556,26.272-1.206,22.31-8.479,36.8-16.362,46.122-17.6,20.827-48.473,13.455-54.578,6.914-46.954-50.317,1.885-63.238,32.574-81.081,42.219-24.546,110.425-32.471,102.8-55.331s-109.938-3.12-113.112-36.144,37.451-78.983,46.145-80.836c26.069-5.558,25.855,10.473,44.182,42.874,2.5,4.416-2.585,17.615-1.489,24.82,1.5,9.846,5.167,23.431,7.046,25.167,12.456,11.515,9.1-33.855,35.149-36.519,4.285-.439-10.4-17.9-21.336-19.59-3.824-.589-5.461-2.88-11.352-15.644-4.557-9.873-18.341-35.135-27.654-40.746-10.939-6.589-18.924-8.246-24.193-8.246-5.336,0-7.882,1.7-7.882,1.7" transform="translate(-24.615 -122.332)" fill="none"/>
    </clipPath>
  </defs>
  <g id="Group_104" data-name="Group 104">
    <g id="Group_103" data-name="Group 103" clip-path="url(#clip-path)">
      <path id="Path_1354" data-name="Path 1354" d="M181.888,173.554s-5-4.563-9.929-.51c-.874.72,1.139,3.817,1.507,4.971.431,1.36,5.383,5.592,7.748,3.882,2.8-2.027,1.674-7.419.674-8.342" transform="translate(60.128 59.996)" fill="#f62a20"/>
      <path id="Path_1355" data-name="Path 1355" d="M201.2,531.657c5.2-6.233,11.782-23.237,7.2-36.327-5.473-15.637-12.764-29.782-8.715-42.288,3.1-9.58,11.233-14.649,16.321-15.289,5.737-.722,9.9,3.983,10.534,3.391s-2.44-5.846-7.366-7.339c-2.888-.875-16.83-1.252-25.806,17.923-10.555,22.548,4.231,43.6-6.568,67.492-8.147,18.023-75.709,34.732-89.736,27.781-23.233-11.51-31.892-40.861-7.138-51.018,38.292-15.708,99.165-44.83,131.588-79.367,8.51-9.063,15.63-16.423,20.187-23.8,15.187-24.594,4.675-56.995-21.835-68.514-26.218-11.391-71.849-23.793-74.556,26.272-3.81,70.489-62.008,62.607-70.94,53.035-46.954-50.316,1.885-63.236,32.574-81.079,42.219-24.546,110.424-32.47,102.8-55.331s-109.938-3.12-113.112-36.142,37.441-79.028,46.145-80.838c25.2-5.236,24.837,8.165,43.164,40.565,2.5,4.416-2.387,18.051-1.289,25.256,1.5,9.845,4.967,22.995,6.845,24.731,12.457,11.516,16.024-34.075,42.073-36.738,4.285-.439-12.636-20.311-23.569-22-3.824-.589-9.132,2.054-15.024-10.71-4.557-9.872-18.341-35.135-27.654-40.745-22.02-13.265-32.073-6.547-32.073-6.547-55.2,32.551-64.442,80.766-64.563,108.894a33.743,33.743,0,0,0,28.791,33.539c30.923,4.523,74.125-2.426,80.335,2.568,2.291,1.842-73.527,23.711-101.378,35.463-28.89,12.191-49.985,31.359-53.7,66.8-1.577,15.048,11.529,48.185,50.9,62.155s83.418-20.391,86.816-33.349c4.38-16.7-1.9-47.628,12.7-58.423s47.579,3.447,47.628,28.576c.054,27.727-42.955,61.2-58.414,72.335a84.686,84.686,0,0,1-10.093,6.237c-32.029,16.839-116.96,51.118-95.115,86.755,11.732,19.14,50.728,40.255,88.038,31.746,12.568-2.868,42.374-21.743,54-35.674" transform="translate(8.618 42.829)" fill="#f62a20"/>
      <path id="Path_1356" data-name="Path 1356" d="M152.146,201.118c.667-6.958,1.889-13.1,3.305-15.806,3.433-6.559,12.86-.3,34.379-2.657a1.584,1.584,0,0,1,.917,1.231c.763,5.02-2.112,8.735-7,9.8-9.148,2-15.32,7.423-13.105,20.936,2.035,12.421-13.039,12.227-16.308,8.9-4.231-4.3-3.143-12.391-2.183-22.412" transform="translate(52.96 63.793)" fill="#f79410"/>
      <path id="Path_1357" data-name="Path 1357" d="M173.13,180.345a7.508,7.508,0,0,0-3.435-5.3c-5.1-3.2-13.786-.9-13.872-.882l-.684-2.526c.4-.109,9.884-2.617,15.949,1.189a10.126,10.126,0,0,1,4.616,7.031Z" transform="translate(54.315 59.774)"/>
      <path id="Path_1358" data-name="Path 1358" d="M162.691,182.531s2.114,9.784,7.142,13.444c0,0-1.142-11.311.068-12.852.205-.261-7.21-.593-7.21-.593" transform="translate(56.959 63.905)" fill="#fff"/>
      <path id="Path_1359" data-name="Path 1359" d="M179.666,182.632s-1.288,11.025-5.217,15.189c0,0-.6-14.889.039-14.889,2.122,0,5.178-.3,5.178-.3" transform="translate(60.987 63.941)" fill="#fff"/>
      <path id="Path_1360" data-name="Path 1360" d="M164.342,214.412s1.5-1.013.643-6.589c0,0-4.169,8.149-3.625,8.033a10.33,10.33,0,0,0,2.982-1.445" transform="translate(56.476 72.76)" fill="#fff"/>
      <path id="Path_1361" data-name="Path 1361" d="M152.868,214.02s.659-7.064,4.022-7.759c0,0-.138,10.047-1.337,9.865a3.524,3.524,0,0,1-2.685-2.106" transform="translate(53.52 72.213)" fill="#fff"/>
      <path id="Path_1362" data-name="Path 1362" d="M51.766,395.984l115.689-2.016L169.5,433.5s-116.44-5.831-115.8-4.577-1.932-32.936-1.932-32.936" transform="translate(18.124 137.931)" fill="#f79410"/>
      <path id="Path_1363" data-name="Path 1363" d="M107.611,159.6l41.236,2.946L145.9,203.922l-35.519-3.258s-3.135-36.188-2.773-41.065" transform="translate(37.665 55.877)" fill="#f79410"/>
      <path id="Path_1364" data-name="Path 1364" d="M109.88,205.7s9.2-1.056,36.233-2.465l2.344,17.511s-18.892.359-20.939.814c0,0,.338,22.725,1.368,33.917,0,0,10.211.32,13.351.077,0,0,.783,16.559.085,17.96-.348.7-13.232,1.427-13.232,1.427l.278,11.543,17.307.743-2.907,21.118-32.253-1.477s-2.207-82.172-1.635-101.169" transform="translate(38.436 71.153)" fill="#fff"/>
      <path id="Path_1365" data-name="Path 1365" d="M118.424,306.612l1.188-15.359-28.445.857s4.052,92.843,5.213,126.528c0,0,20.705.88,24.049,1.2,0,0,.305-1.018-.577-18.121,0,0-2.382-.17-7.621-.691l-.421-14,5.5-.632c.305-2.332.262-17.669-.281-17.669-2.476,0-6.6.377-6.6.377-.366.435-1.067-62.112-1.067-62.112Z" transform="translate(31.918 101.969)" fill="#fff"/>
      <path id="Path_1366" data-name="Path 1366" d="M116.33,291.2s9.622.5,20.765,0c0,0-2.122,52.919-3.417,107.868,0,0,12.73.925,12.472.679s.944,19.533.944,19.533c.4.8-29.368-.327-29.368-.327s-1.387-121.736-1.4-127.754" transform="translate(40.728 101.952)" fill="#fff"/>
      <path id="Path_1367" data-name="Path 1367" d="M96.785,274.192c35.674-24.249,23.288-85.833,8.342-103.638-9.386-11.182-46.4-10.292-46.4-10.292,0,11.943-1.381,163.974-1.381,163.974l19.334-.844c.119-7.758-1.572-40.033-1.369-40.3s10.407.4,10.407.4L97.6,321.916l23.678,1.477ZM77.272,257.1s-1.519-59.807-1.624-70.7l13.131.975s1.472,22.355.848,38.776a221.667,221.667,0,0,1-3.906,31.354s-8.4.065-8.449-.409" transform="translate(20.079 56.103)" fill="#fff"/>
      <path id="Path_1368" data-name="Path 1368" d="M90.2,387.476c18.2-7.338,7.975-74.194,5.781-84.488a14.517,14.517,0,0,0-14.375-11.835l-24.945-.208c.273,16.17,1.284,128.423,1.284,128.423s38.205.351,38.581-.239c13.057-20.554-6.327-31.653-6.327-31.653M75.245,304.9c0-.026.009-.027.016,0h-.016c-.158,1.181,3.674,55.8,3.674,62.914l-6.819-.158s-1.836-57.366-2.626-62.583Zm7.577,104.448s-9.575.356-10.249-.5c0,0-.329-3.532-1.32-19.448,0,0,3.459-.486,4.92.919a22.437,22.437,0,0,1,6.586,12.706,33.6,33.6,0,0,1,.063,6.324" transform="translate(19.838 101.862)" fill="#fff"/>
      <path id="Path_1369" data-name="Path 1369" d="M102.457,166.354S86.52,192.7,84.189,208.018,79.7,251.285,79.7,251.285a21.642,21.642,0,0,1-16.336-12.4c-2.761-5.685-11.43-36.643,10.567-78.622,0,0,28.178-7.043,28.524,6.089" transform="translate(20.779 55.449)" fill="#f62a20"/>
      <path id="Path_1370" data-name="Path 1370" d="M110.835,218.17s17.146,1.6,18.266,1.717c2.3.247,2.248,13.737,2.248,13.737s-22.027.011-24.167.844,3.653-16.3,3.653-16.3" transform="translate(37.359 76.383)" fill="#f62a20"/>
      <path id="Path_1371" data-name="Path 1371" d="M92.227,337.71s16.52-7.716,21.24-18.88,1.011,37.086,1.011,37.086S92,366.466,90.2,366.029s2.022-28.32,2.022-28.32" transform="translate(31.413 111.037)" fill="#f62a20"/>
      <path id="Path_1372" data-name="Path 1372" d="M69.709,395.381s-16.72,13.4-18.5,19.138.832,20.79.832,20.79l15.055-6.545s-7.528-15.71,27.164-34.038" transform="translate(17.709 138.196)" fill="#f62a20"/>
      <path id="Path_1373" data-name="Path 1373" d="M154.337,185.063c-.323-.937,1.665-4.844,4.747-3.315,5.078,2.519,8.977,27.475,10.459,30.026.609,1.048,1,10.678,8.51,10.594,5.156-.057,6.358-3.42,6.379-3.871.289-6.216-3.066-3.776-3.066-3.776s2.588-4.978,4.273,1.087c0,0,2.908-7.154,7.463-4.647,1.4.771,1.374,2.043-.535,1.239-2.13-.9-5.33,3.759-7.27,8.024-1.611,3.54-12.834,10.369-19.128-7.3-7.145-20.057-11.583-27.336-11.832-28.061" transform="translate(54.022 63.508)" fill="#f62a20"/>
    </g>
  </g>
  <g id="Group_106" data-name="Group 106" transform="translate(33.233 165.161)">
    <g id="Group_105" data-name="Group 105" clip-path="url(#clip-path-2)">
      <path id="Path_1374" data-name="Path 1374" d="M125.642,151.385s-4.342-4.2,2.526-13.536c4.038-5.487,7.066-7.369,11.638-5.566,4.381,1.728,7.328,5.81,6.864,9.819-.217,1.885-3.085,5.21-5.352,6.233-6.275,2.835-10.755,6.021-15.676,3.05" transform="translate(10.281 -119.08)" fill="#f0ec1e"/>
      <path id="Path_1375" data-name="Path 1375" d="M147.4,143.668a12.751,12.751,0,0,1-5.495,5.684c-1,.452-1.956.914-2.874,1.358-4.87,2.349-9.075,4.381-13.608,1.643l-.155-.119c-.2-.194-4.8-4.847,2.429-14.676,3.822-5.193,7.273-7.985,12.657-5.861,4.794,1.89,7.91,6.4,7.409,10.729a4.429,4.429,0,0,1-.363,1.241m-20.977,7.26c3.689,2.159,7.119.5,11.851-1.782.932-.451,1.9-.918,2.916-1.377,2.141-.968,4.681-4.08,4.846-5.542.413-3.558-2.245-7.305-6.32-8.912-3.9-1.539-6.584-.208-10.62,5.275-5.9,8.013-3.147,11.789-2.673,12.339" transform="translate(10.054 -119.304)" fill="#09161c"/>
      <path id="Path_1376" data-name="Path 1376" d="M108.782,130.645S96.8,127.681,96.673,118.6c-.076-5.337,3.367-10.858,11.631-3.969,3.8,3.163,10.393.953,12.594,4.4,1.034,1.621.717,4.933-.574,6.2-3.574,3.518-5.371,7.006-11.542,5.4" transform="translate(0.612 -126.154)" fill="#f0ec1e"/>
      <path id="Path_1377" data-name="Path 1377" d="M122.041,124.746a4.244,4.244,0,0,1-.882,1.337c-.566.558-1.085,1.112-1.585,1.647-2.739,2.926-5.1,5.452-10.781,3.981-.582-.144-12.628-3.262-12.764-12.873-.041-2.824.882-6.3,3.589-7.589,1.723-.822,4.765-.98,9.467,2.939,1.623,1.353,3.925,1.613,6.151,1.867,2.583.292,5.252.6,6.62,2.737a6.99,6.99,0,0,1,.185,5.954M98.45,115.017a9.275,9.275,0,0,0-.682,3.8c.117,8.3,11.335,11.183,11.449,11.211l.009,0c4.681,1.214,6.431-.655,9.079-3.486.516-.551,1.052-1.123,1.635-1.7,1-.986,1.256-3.856.451-5.118-.921-1.443-2.973-1.675-5.35-1.945s-5.045-.571-7.068-2.257c-3.162-2.637-5.792-3.572-7.608-2.707a4.2,4.2,0,0,0-1.916,2.2" transform="translate(0.387 -126.378)" fill="#09161c"/>
      <path id="Path_1378" data-name="Path 1378" d="M84.193,155.351s-9.54-1.334-9.042-13.812c.293-7.336,6.027-11.547,10.135-11.778,3.94-.221,7.964,2.571,9.524,6.818.733,2-3.9,5.242-5.032,7.289-3.139,5.666-.675,12.272-5.585,11.483" transform="translate(-6.929 -119.735)" fill="#f0ec1e"/>
      <path id="Path_1379" data-name="Path 1379" d="M95.707,138.458a14.553,14.553,0,0,1-2.908,3.675,14.841,14.841,0,0,0-2.036,2.382,18.2,18.2,0,0,0-1.819,6.491c-.308,2.139-.574,3.986-1.852,4.927a3.586,3.586,0,0,1-2.812.5c-.485-.078-10.286-1.85-9.772-14.7A13.448,13.448,0,0,1,78.4,132.6a11.35,11.35,0,0,1,7.066-3.479c4.358-.246,8.726,2.862,10.388,7.386a2.563,2.563,0,0,1-.143,1.952m-7.012,6.328q.243-.561.548-1.113a15.289,15.289,0,0,1,2.306-2.746c1.1-1.144,2.949-3.055,2.671-3.822-1.4-3.825-5.047-6.455-8.66-6.252-3.73.211-9.042,4.131-9.317,10.947-.458,11.5,7.94,12.864,8.3,12.916h.015a1.993,1.993,0,0,0,1.508-.185c.69-.51.909-2.021,1.161-3.775a22.62,22.62,0,0,1,1.47-5.972" transform="translate(-7.154 -119.96)" fill="#09161c"/>
      <path id="Path_1380" data-name="Path 1380" d="M80.755,186.1s-10.937-1.721-9.5-13.27c.844-6.791,7.763-10.407,12.529-10.413,4.569-.005,9.03,2.788,10.54,6.809.709,1.889-.162,6.165-1.612,8-4.019,5.1-6.333,9.852-11.955,8.87" transform="translate(-8.333 -108.3)" fill="#f0ec1e"/>
      <path id="Path_1381" data-name="Path 1381" d="M94.558,176.354a7.476,7.476,0,0,1-.941,1.635c-.64.813-1.237,1.616-1.81,2.388-3.076,4.139-5.73,7.715-10.976,6.8-.47-.082-11.712-2.186-10.214-14.233.9-7.281,8.357-11.168,13.39-11.175,4.972-.007,9.746,3.094,11.353,7.372.632,1.684.205,4.9-.8,7.214m-21.487-5.872a9.646,9.646,0,0,0-.73,2.676c-1.312,10.555,8.364,12.239,8.776,12.3l.013,0c4.189.73,6.325-2.145,9.282-6.124.583-.786,1.189-1.6,1.842-2.427,1.268-1.611,2.083-5.558,1.48-7.162-1.361-3.625-5.45-6.251-9.725-6.246-3.718.005-8.951,2.415-10.937,6.976" transform="translate(-8.558 -108.525)" fill="#09161c"/>
      <path id="Path_1382" data-name="Path 1382" d="M102.305,213.111s-7.531,6.233-16.674-3.3C80.257,204.2,80.974,196.778,83.6,193.5c2.522-3.14,7.395-4.134,11.688-2.2,2.018.911,5.214,4.674,6,7.033,2.163,6.533,4.972,11.639,1.018,14.771" transform="translate(-4.666 -98.531)" fill="#f0ec1e"/>
      <path id="Path_1383" data-name="Path 1383" d="M104.9,211.717a5.948,5.948,0,0,1-1.825,2.3h0c-.394.312-8.44,6.421-17.839-3.382a14.873,14.873,0,0,1-4.257-9.58,11.808,11.808,0,0,1,2.179-7.872c2.8-3.482,8.147-4.509,12.722-2.441,2.221,1,5.6,4.955,6.463,7.551.344,1.042.706,2.047,1.054,3.013,1.441,4.008,2.731,7.6,1.5,10.412M83.54,195.9a12.68,12.68,0,0,0,2.945,13.529c8.442,8.807,15.21,3.464,15.494,3.232l.012-.009c2.7-2.134,1.723-5.318-.234-10.76-.352-.98-.72-2-1.069-3.057-.7-2.118-3.749-5.71-5.53-6.514-3.863-1.746-8.344-.926-10.651,1.947a7.18,7.18,0,0,0-.967,1.632" transform="translate(-4.891 -98.754)" fill="#09161c"/>
      <path id="Path_1384" data-name="Path 1384" d="M115.819,166.312s-7.424,5.851-16.035-3.486c-5.064-5.49-4.2-12.615-1.578-15.715,2.511-2.972,3.528-2.918,7.631-.972,1.929.914,6.366,4.149,7.066,6.431,1.936,6.32,6.811,10.806,2.916,13.743" transform="translate(0.414 -114.478)" fill="#f0ec1e"/>
      <path id="Path_1385" data-name="Path 1385" d="M118.062,165.43a4.541,4.541,0,0,1-1.495,1.8c-.394.3-8.33,6.026-17.2-3.59a14.239,14.239,0,0,1-3.9-9.316,11.413,11.413,0,0,1,2.3-7.548c2.824-3.342,4.3-3.266,8.666-1.2,1.738.822,6.68,4.21,7.524,6.96a34.74,34.74,0,0,0,2.372,5.472c1.362,2.695,2.668,5.274,1.732,7.42M98.038,149.638a12.121,12.121,0,0,0,2.61,12.822c7.933,8.6,14.582,3.607,14.861,3.391l.014-.009c1.96-1.477,1.141-3.328-.743-7.048a36.264,36.264,0,0,1-2.483-5.747c-.574-1.871-4.685-4.989-6.606-5.9-3.9-1.848-4.454-1.785-6.6.749a7.061,7.061,0,0,0-1.057,1.742" transform="translate(0.189 -114.702)" fill="#09161c"/>
      <path id="Path_1386" data-name="Path 1386" d="M57.761,201.268s-4.08,8.191-15.609,2c-6.779-3.641-9.017-10.868-8.014-14.766.961-3.737,1.881-4.026,6.318-3.513,2.086.242,6.638,3.864,8.217,5.85,4.372,5.5,11.284,6.263,9.088,10.431" transform="translate(-21.361 -100.464)" fill="#f0ec1e"/>
      <path id="Path_1387" data-name="Path 1387" d="M58.939,201.51c-.054.124-.113.25-.182.379A9.382,9.382,0,0,1,53.42,206.2c-3.266,1.04-7.12.385-11.454-1.943-7.49-4.025-9.467-11.777-8.444-15.749,1.092-4.25,2.529-4.705,7.26-4.16,2.475.288,7.251,4.23,8.8,6.174a22.748,22.748,0,0,0,5.584,4.706c2.6,1.721,5.055,3.354,3.778,6.283M35.75,187.191a12.184,12.184,0,0,0-.545,1.748c-.921,3.576,1.2,10.357,7.584,13.785,3.9,2.1,7.3,2.71,10.106,1.819a7.631,7.631,0,0,0,4.314-3.439l.011-.018c.856-1.632-.026-2.427-3.016-4.412a24.441,24.441,0,0,1-5.984-5.074c-1.605-2.018-5.981-5.336-7.636-5.527-3.235-.374-4.192-.35-4.832,1.118" transform="translate(-21.585 -100.685)" fill="#09161c"/>
      <path id="Path_1388" data-name="Path 1388" d="M109.163,182.779s3.941-4.377.356-7.116-7.014-3.1-8.344-.867,1.759,9.354,7.987,7.983" transform="translate(2.083 -104.476)" fill="#f0ec1e"/>
      <path id="Path_1389" data-name="Path 1389" d="M111.564,181.161a9.834,9.834,0,0,1-1.532,2.423l-.186.207-.273.061a7.3,7.3,0,0,1-7.754-3.027c-1.527-2.116-2.021-4.812-1.168-6.248a3.761,3.761,0,0,1,2.6-1.8c1.958-.378,4.516.5,7.021,2.419a4.374,4.374,0,0,1,1.829,3.136,5.832,5.832,0,0,1-.535,2.828m-2.65,1.05a5.975,5.975,0,0,0,1.454-3.724,2.676,2.676,0,0,0-1.153-1.912c-2.081-1.59-4.187-2.372-5.637-2.093a2.014,2.014,0,0,0-1.432.98c-.448.737-.1,2.7,1.081,4.343a5.6,5.6,0,0,0,5.687,2.4" transform="translate(1.86 -104.701)" fill="#09161c"/>
      <path id="Path_1390" data-name="Path 1390" d="M68.1,204.8s3.8-4.548-.155-7.725-7.566-3.76-8.791-1.4,2.534,10.274,8.946,9.123" transform="translate(-12.604 -97.158)" fill="#f0ec1e"/>
      <path id="Path_1391" data-name="Path 1391" d="M70.219,203.535a9.286,9.286,0,0,1-1.229,2.052l-.2.242-.312.055a8.264,8.264,0,0,1-8.223-3.63c-1.75-2.375-2.436-5.2-1.647-6.746a3.427,3.427,0,0,1,2.41-1.82c2.036-.429,4.84.643,7.7,2.941a5.271,5.271,0,0,1,2.1,3.657,6.6,6.6,0,0,1-.59,3.25m-2.378.69a6.092,6.092,0,0,0,1.238-3.776,3.567,3.567,0,0,0-1.455-2.467c-2.413-1.941-4.75-2.911-6.251-2.594a1.692,1.692,0,0,0-1.225.918c-.356.67-.028,2.838,1.5,4.916a6.683,6.683,0,0,0,6.19,3" transform="translate(-12.829 -97.383)" fill="#09161c"/>
      <path id="Path_1392" data-name="Path 1392" d="M116.986,142.44s3.941-4.377.356-7.116-7.014-3.1-8.344-.867,1.759,9.354,7.987,7.983" transform="translate(4.821 -118.599)" fill="#f0ec1e"/>
      <path id="Path_1393" data-name="Path 1393" d="M119.387,140.823a9.834,9.834,0,0,1-1.532,2.423l-.186.207-.273.061a7.3,7.3,0,0,1-7.754-3.027c-1.527-2.114-2.018-4.813-1.168-6.248a3.765,3.765,0,0,1,2.6-1.8c1.958-.378,4.516.5,7.021,2.419a4.365,4.365,0,0,1,1.828,3.135,5.819,5.819,0,0,1-.533,2.83m-2.65,1.05a5.975,5.975,0,0,0,1.453-3.725,2.665,2.665,0,0,0-1.152-1.91c-2.081-1.59-4.187-2.372-5.637-2.093a2.014,2.014,0,0,0-1.432.98c-.446.737-.1,2.7,1.081,4.343a5.6,5.6,0,0,0,5.687,2.4" transform="translate(4.599 -118.823)" fill="#09161c"/>
      <path id="Path_1394" data-name="Path 1394" d="M27.135,173.9S17,169.441,21.335,158.64c2.549-6.35,10.162-8.08,14.772-6.871,4.419,1.161,8.02,5,8.453,9.274.2,2.008-1.729,5.919-3.6,7.328-5.187,3.9-8.638,7.908-13.822,5.525" transform="translate(-26.141 -112.152)" fill="#f0ec1e"/>
      <path id="Path_1395" data-name="Path 1395" d="M43.034,167.947a7.5,7.5,0,0,1-1.329,1.342c-.826.622-1.609,1.247-2.36,1.848-4.03,3.217-7.509,5.994-12.348,3.771-.435-.2-10.764-5.1-6.243-16.369,2.73-6.806,10.93-8.665,15.8-7.386,4.809,1.261,8.635,5.479,9.1,10.025.182,1.789-1.054,4.793-2.617,6.769m-19.278-11.16a9.69,9.69,0,0,0-1.389,2.4c-3.961,9.872,4.964,13.968,5.345,14.138l.012.005c3.865,1.777,6.664-.458,10.536-3.551.766-.612,1.561-1.246,2.4-1.878,1.634-1.233,3.435-4.841,3.261-6.548-.39-3.852-3.675-7.435-7.809-8.521-3.6-.944-9.271.053-12.356,3.954" transform="translate(-26.367 -112.374)" fill="#09161c"/>
      <path id="Path_1396" data-name="Path 1396" d="M63.21,157.11S53.933,159.7,49.4,148.068c-2.666-6.841.9-12.993,4.578-14.85,3.521-1.778,4.461-1.357,7.589,1.913,1.47,1.536,2.391,6.891,2.17,9.22-.609,6.449,4.291,11.518-.525,12.758" transform="translate(-16.263 -118.884)" fill="#f0ec1e"/>
      <path id="Path_1397" data-name="Path 1397" d="M65.8,156.925a3.828,3.828,0,0,1-2.149,1.25c-.474.122-10.166,2.421-14.838-9.567a13.454,13.454,0,0,1-.089-9.925,11.352,11.352,0,0,1,5.084-6.016c3.932-1.987,5.291-1.38,8.608,2.087,1.758,1.837,2.625,7.6,2.409,9.9a18.274,18.274,0,0,0,.929,6.678c.574,2.083,1.068,3.883.274,5.255a2.865,2.865,0,0,1-.228.335M51.97,136.453a11.646,11.646,0,0,0-1.535,11.525c4.2,10.778,12.42,8.618,12.768,8.519l.018,0a1.975,1.975,0,0,0,1.307-.774c.431-.743.024-2.216-.446-3.923a19.985,19.985,0,0,1-.984-7.3c.221-2.342-.776-7.33-1.933-8.538-2.986-3.123-3.54-3.269-6.57-1.738a8.122,8.122,0,0,0-2.625,2.234" transform="translate(-16.49 -119.108)" fill="#09161c"/>
      <path id="Path_1398" data-name="Path 1398" d="M23.168,137.031s3.918,10.045,8.9,8.521,6.7-7.008,4.52-10.327-12.359-6.031-13.417,1.806" transform="translate(-25.122 -118.969)" fill="#f0ec1e"/>
      <path id="Path_1399" data-name="Path 1399" d="M36.834,143.717a8.634,8.634,0,0,1-4.284,2.891c-5.684,1.739-9.788-8.595-9.961-9.036l-.081-.209.03-.223a6.2,6.2,0,0,1,4.889-5.641c3.838-.872,8.589,1.152,10.116,3.474a7.236,7.236,0,0,1,.593,6.4,8.3,8.3,0,0,1-1.3,2.342m-12.541-6.566c1.1,2.708,4.393,8.822,7.75,7.8a6.77,6.77,0,0,0,4.459-4.162,5.5,5.5,0,0,0-.412-4.858c-1.188-1.808-5.241-3.424-8.279-2.734a4.4,4.4,0,0,0-3.518,3.959" transform="translate(-25.353 -119.195)" fill="#09161c"/>
      <path id="Path_1400" data-name="Path 1400" d="M27.539,210.422s-9.768.109-12.561-7.81c-1.643-4.657,2.908-7.885,6.9-8.44a14.556,14.556,0,0,1,11.2,3.352c1.249,1.185,2,4.157,1.419,5.561-1.607,3.887-1.9,7.345-6.956,7.336" transform="translate(-28.11 -97.221)" fill="#f0ec1e"/>
      <path id="Path_1401" data-name="Path 1401" d="M32.94,209.357c-1.025,1.295-2.545,2.163-5.174,2.16a18.072,18.072,0,0,1-5.521-.983,12.073,12.073,0,0,1-7.863-7.408,6.069,6.069,0,0,1,.5-5.334,10.088,10.088,0,0,1,7.1-4.254A15.3,15.3,0,0,1,33.9,197.12c1.507,1.432,2.341,4.785,1.623,6.524-.254.613-.474,1.215-.685,1.794a14.036,14.036,0,0,1-1.9,3.919M16.723,198.186a5.161,5.161,0,0,0-.355.509,4.324,4.324,0,0,0-.346,3.853c2.557,7.25,11.639,7.231,11.731,7.231h.011c3.634.007,4.314-1.856,5.441-4.937.219-.6.448-1.226.712-1.863a5.563,5.563,0,0,0-1.215-4.6,13.642,13.642,0,0,0-10.475-3.12,8.779,8.779,0,0,0-5.5,2.927" transform="translate(-28.335 -97.447)" fill="#09161c"/>
      <path id="Path_1402" data-name="Path 1402" d="M30.442,188.248s5.029-3.011,2.521-6.027-5.6-3.967-7.532-2.3-1.231,8.336,5.012,8.326" transform="translate(-24.663 -102.455)" fill="#f0ec1e"/>
      <path id="Path_1403" data-name="Path 1403" d="M33.653,187.009a10.251,10.251,0,0,1-2.54,2.21l-.205.123h-.24a6.389,6.389,0,0,1-6.4-4.138c-.806-2.16-.448-4.616.82-5.715a4.25,4.25,0,0,1,3.2-1.009,8.571,8.571,0,0,1,5.572,3.412,3.54,3.54,0,0,1,.851,2.922,4.943,4.943,0,0,1-1.054,2.2m-3.232.593c.794-.527,2.357-1.8,2.575-3.084A1.816,1.816,0,0,0,32.52,183a7,7,0,0,0-4.378-2.791,2.51,2.51,0,0,0-1.919.593c-.636.545-.918,2.2-.327,3.792a4.594,4.594,0,0,0,4.524,3" transform="translate(-24.887 -102.68)" fill="#09161c"/>
      <path id="Path_1404" data-name="Path 1404" d="M55.675,172.172s5.029-3.011,2.521-6.027-5.6-3.967-7.532-2.3-1.231,8.336,5.012,8.326" transform="translate(-15.828 -108.083)" fill="#f0ec1e"/>
      <path id="Path_1405" data-name="Path 1405" d="M58.885,170.934a10.267,10.267,0,0,1-2.54,2.209l-.205.123H55.9a6.388,6.388,0,0,1-6.4-4.139c-.8-2.159-.447-4.616.82-5.714a4.245,4.245,0,0,1,3.2-1.009,8.568,8.568,0,0,1,5.571,3.412,3.548,3.548,0,0,1,.851,2.922,4.955,4.955,0,0,1-1.054,2.2m-3.232.591c.8-.528,2.359-1.8,2.575-3.084a1.814,1.814,0,0,0-.475-1.515,7,7,0,0,0-4.377-2.792,2.513,2.513,0,0,0-1.918.593c-.639.543-.919,2.2-.328,3.792a4.594,4.594,0,0,0,4.524,3.005" transform="translate(-16.053 -108.308)" fill="#09161c"/>
      <path id="Path_1406" data-name="Path 1406" d="M19.338,286.123s8.369-.321,8.4-5.951-3.639-9.39-6.61-8.381-7.358,10.389-1.789,14.333" transform="translate(-27.4 -70.063)" fill="#f0ec1e"/>
      <path id="Path_1407" data-name="Path 1407" d="M28.716,281.551c-.849,4.2-6.189,5.553-9.12,5.665l-.294.012-.24-.171c-2.376-1.681-3.416-4.459-2.927-7.821.522-3.634,2.789-7.311,4.937-8.041a4.477,4.477,0,0,1,4.107.778c2.272,1.638,3.671,4.867,3.653,8.43a6,6,0,0,1-.116,1.149m-8.892,3.909c1.393-.121,7.247-.864,7.269-5.067.018-2.964-1.134-5.716-2.93-7.01a2.787,2.787,0,0,0-2.533-.543c-1.177.4-3.3,3.256-3.776,6.645a6.144,6.144,0,0,0,1.97,5.974" transform="translate(-27.626 -70.288)" fill="#09161c"/>
      <path id="Path_1408" data-name="Path 1408" d="M32.242,299.49s3.123-4.96-.478-6.514-6.791-1-7.759,1.357,2.675,7.99,8.237,5.157" transform="translate(-24.883 -62.896)" fill="#f0ec1e"/>
      <path id="Path_1409" data-name="Path 1409" d="M34.469,297.06a10.22,10.22,0,0,1-1.266,3.119l-.127.2-.213.108a6.39,6.39,0,0,1-7.579-.794c-1.7-1.559-2.5-3.906-1.856-5.467a4.25,4.25,0,0,1,2.4-2.346,8.574,8.574,0,0,1,6.513.521,3.545,3.545,0,0,1,2.081,2.22,4.967,4.967,0,0,1,.054,2.437m-2.615,1.99c.47-.83,1.288-2.672.9-3.915A1.808,1.808,0,0,0,31.644,294a7,7,0,0,0-5.167-.508,2.511,2.511,0,0,0-1.442,1.4c-.323.783.178,2.382,1.424,3.531a4.6,4.6,0,0,0,5.394.632" transform="translate(-25.109 -63.122)" fill="#09161c"/>
      <path id="Path_1410" data-name="Path 1410" d="M49.784,282.95s3.123-4.96-.478-6.514-6.791-1-7.759,1.357,2.675,7.99,8.237,5.157" transform="translate(-18.742 -68.686)" fill="#f0ec1e"/>
      <path id="Path_1411" data-name="Path 1411" d="M52.01,280.519a10.22,10.22,0,0,1-1.266,3.119l-.127.2-.213.108a6.39,6.39,0,0,1-7.581-.794c-1.694-1.561-2.488-3.913-1.855-5.467a4.25,4.25,0,0,1,2.4-2.346,8.574,8.574,0,0,1,6.513.521,3.545,3.545,0,0,1,2.081,2.22,4.967,4.967,0,0,1,.054,2.437m-2.615,1.99c.47-.829,1.289-2.669.9-3.915a1.814,1.814,0,0,0-1.11-1.135,7,7,0,0,0-5.167-.508,2.512,2.512,0,0,0-1.442,1.4c-.321.775.177,2.382,1.423,3.531a4.6,4.6,0,0,0,5.4.632" transform="translate(-18.966 -68.913)" fill="#09161c"/>
      <path id="Path_1412" data-name="Path 1412" d="M38.379,201.56s10.709.612,12.691,10.845c1.165,6.017-.6,13.043-8.984,7.147-3.852-2.708-8.957,1.3-11.523-2.1-1.207-1.6-1.624-5.414-.8-7.145,2.287-4.8,3.081-9.147,8.614-8.75" transform="translate(-22.963 -94.603)" fill="#f0ec1e"/>
      <path id="Path_1413" data-name="Path 1413" d="M35.507,201.266a7.843,7.843,0,0,1,3.161-.348c.444.031,11.427.938,13.482,11.547.694,3.589.493,8.034-2.157,9.75-1.97,1.281-4.728.7-8.18-1.728-1.578-1.111-3.432-.9-5.4-.668-2.2.255-4.686.544-6.32-1.617-1.408-1.862-1.864-6-.888-8.043.363-.76.689-1.511,1-2.23,1.257-2.9,2.461-5.68,5.3-6.663m13.061,19.725a2.3,2.3,0,0,0,.481-.234c1.561-1.011,2.121-4.211,1.395-7.962-1.825-9.432-11.479-10.119-11.889-10.145h-.012c-4.027-.292-5.107,2.2-6.74,5.969-.32.738-.653,1.507-1.026,2.287a8.01,8.01,0,0,0,.706,6.247c.983,1.3,2.44,1.206,4.733.94,2.1-.243,4.476-.518,6.6.971,2.457,1.729,4.43,2.386,5.756,1.927" transform="translate(-23.189 -94.828)" fill="#09161c"/>
      <path id="Path_1414" data-name="Path 1414" d="M70.187,204.624s10.709.61,12.691,10.844c1.165,6.017-.6,13.045-8.984,7.147-3.852-2.708-8.957,1.3-11.523-2.1-1.207-1.6-1.624-5.414-.8-7.145,2.287-4.794,3.081-9.147,8.614-8.749" transform="translate(-11.826 -93.53)" fill="#f0ec1e"/>
      <path id="Path_1415" data-name="Path 1415" d="M67.315,204.33a7.839,7.839,0,0,1,3.161-.348c.444.031,11.427.938,13.482,11.546.694,3.59.493,8.036-2.157,9.752-1.971,1.28-4.728.7-8.18-1.729-1.578-1.11-3.433-.9-5.4-.667-2.2.254-4.686.543-6.32-1.619-1.408-1.862-1.864-5.994-.888-8.041.363-.761.687-1.511,1-2.23,1.257-2.9,2.463-5.68,5.3-6.663m13.061,19.725a2.3,2.3,0,0,0,.481-.234c1.561-1.011,2.121-4.211,1.395-7.963-1.832-9.46-11.786-10.137-11.888-10.142H70.35c-4.027-.289-5.107,2.2-6.741,5.967-.32.74-.653,1.508-1.026,2.288a8.007,8.007,0,0,0,.706,6.246c.984,1.3,2.441,1.207,4.735.941,2.1-.244,4.476-.52,6.6.971,2.457,1.729,4.43,2.386,5.756,1.927" transform="translate(-12.053 -93.755)" fill="#09161c"/>
      <path id="Path_1416" data-name="Path 1416" d="M157.9,165.815s5.977.454,6.12-4.562-1.6-8.267-4.243-7.9-6.718,7.945-1.877,12.46" transform="translate(21.259 -111.48)" fill="#f0ec1e"/>
      <path id="Path_1417" data-name="Path 1417" d="M159.388,152.841a2.563,2.563,0,0,1,.494-.121,3.552,3.552,0,0,1,2.932.914c1.563,1.4,2.4,4.27,2.3,7.871a5.065,5.065,0,0,1-1.634,3.783c-2.058,1.854-5.283,1.631-5.421,1.62l-.3-.023-.223-.208a8.243,8.243,0,0,1-2.055-8.849c.778-2.461,2.364-4.453,3.91-4.987m1.5,11.967a4.122,4.122,0,0,0,1.435-.817,3.347,3.347,0,0,0,1.054-2.537c.088-3.043-.556-5.484-1.72-6.526a1.818,1.818,0,0,0-1.535-.487c-.752.1-2.243,1.558-2.986,3.911a6.738,6.738,0,0,0,1.356,6.83,7.583,7.583,0,0,0,2.4-.374" transform="translate(21.032 -111.706)" fill="#09161c"/>
      <path id="Path_1418" data-name="Path 1418" d="M196.729,184.616s-3.609-5.18-7.879-2.843-5.639,6.242-3.68,7.706,10.817.324,11.56-4.863" transform="translate(31.289 -101.733)" fill="#f0ec1e"/>
      <path id="Path_1419" data-name="Path 1419" d="M189.573,180.827c3.567-1.237,6.8,1.661,8.094,3.516l.194.281-.049.34c-.319,2.23-1.971,4.072-4.652,5.183-3.005,1.238-6.8,1.362-8.287.251a3.147,3.147,0,0,1-1.214-2.854c.159-2.259,2.121-4.735,5-6.309a5.9,5.9,0,0,1,.915-.408m6.456,4.23c-.77-.969-3.491-3.973-6.539-2.3-2.695,1.476-4,3.528-4.1,4.908a1.435,1.435,0,0,0,.521,1.341c.786.587,3.9.649,6.58-.466,1.395-.578,3.1-1.644,3.535-3.485" transform="translate(31.064 -101.957)" fill="#09161c"/>
      <path id="Path_1420" data-name="Path 1420" d="M102.818,284.8s9.192,6.459,2.9,14.107c-3.7,4.5-12.461,1.41-16.2-.17-3.579-1.515-5.823-4.964-5.207-8.294.289-1.565,2.881-4.284,4.841-5.1,5.425-2.251,9.7-3.107,13.658-.547" transform="translate(-3.748 -65.999)" fill="#f0ec1e"/>
      <path id="Path_1421" data-name="Path 1421" d="M84.025,289.545a11.634,11.634,0,0,1,5.028-4.771c5.553-2.3,10.138-3.267,14.461-.474l.028.019c.194.135,4.747,3.385,5.4,8.167a9.171,9.171,0,0,1-2.319,7.2c-3.906,4.75-12.457,2.087-17.206.077-3.995-1.689-6.4-5.58-5.723-9.251a3.8,3.8,0,0,1,.335-.969m18.53-3.8c-3.7-2.378-7.652-1.522-12.837.631-1.794.743-4.107,3.283-4.32,4.451-.531,2.876,1.442,5.961,4.692,7.334,3.464,1.468,11.88,4.443,15.186.42a7.493,7.493,0,0,0,1.941-5.864c-.535-3.933-4.419-6.8-4.662-6.972" transform="translate(-3.972 -66.225)" fill="#09161c"/>
      <path id="Path_1422" data-name="Path 1422" d="M112.231,262.935s11.849,3.452,11.606,12.529c-.143,5.337-3.81,10.71-11.784,3.489-3.663-3.316-10.346-1.378-12.4-4.916-.967-1.662-.514-4.959.828-6.175,3.715-3.368,5.653-6.779,11.754-4.927" transform="translate(1.474 -73.289)" fill="#f0ec1e"/>
      <path id="Path_1423" data-name="Path 1423" d="M99.183,268.745a4.259,4.259,0,0,1,.936-1.3c.589-.533,1.13-1.067,1.653-1.581,2.855-2.81,5.322-5.237,10.933-3.536.575.169,12.484,3.778,12.227,13.386-.076,2.823-1.139,6.258-3.9,7.435-1.756.752-4.8.784-9.339-3.325-1.566-1.418-3.856-1.773-6.07-2.117-2.569-.4-5.224-.81-6.5-3.007a6.985,6.985,0,0,1,.059-5.955m23.173,10.687a9.27,9.27,0,0,0,.837-3.765c.223-8.294-10.868-11.639-10.98-11.672l-.008,0c-4.627-1.405-6.452.392-9.214,3.111-.539.529-1.1,1.08-1.7,1.628-1.044.944-1.412,3.8-.66,5.1.861,1.48,2.9,1.8,5.265,2.163s5.018.778,6.971,2.545c3.051,2.764,5.639,3.806,7.489,3.016a4.187,4.187,0,0,0,2-2.12" transform="translate(1.247 -73.516)" fill="#09161c"/>
      <path id="Path_1424" data-name="Path 1424" d="M165.63,314.747s10.709-.63,13.86,9.306c1.852,5.842.913,13.024-8.1,8.136-4.138-2.244-8.747,2.325-11.689-.752-1.383-1.447-2.237-5.19-1.616-7,1.717-5.026,2-9.443,7.544-9.686" transform="translate(22.041 -54.969)" fill="#f0ec1e"/>
      <path id="Path_1425" data-name="Path 1425" d="M159.622,318.131a6.547,6.547,0,0,1,6.194-4.029c.443-.019,11.46-.389,14.727,9.912,1.1,3.485,1.418,7.922-1.017,9.935-1.815,1.5-4.616,1.239-8.325-.772-1.7-.921-3.514-.493-5.438-.039-2.152.508-4.593,1.081-6.464-.878-1.613-1.688-2.545-5.741-1.812-7.886.273-.8.509-1.58.736-2.332a26.749,26.749,0,0,1,1.4-3.913m19.5,13.55c.753-1.551.69-4.216-.236-7.141-2.9-9.158-12.572-8.724-12.983-8.7h-.012c-4.034.178-4.817,2.773-6.005,6.707-.234.771-.475,1.573-.755,2.391a8.013,8.013,0,0,0,1.423,6.124c1.129,1.18,2.562.915,4.81.386,2.056-.485,4.386-1.033,6.664.2,2.982,1.617,5.193,1.95,6.39.96a2.731,2.731,0,0,0,.7-.929" transform="translate(21.815 -55.194)" fill="#09161c"/>
      <path id="Path_1426" data-name="Path 1426" d="M197.579,314.115s10.709-.631,13.86,9.306c1.852,5.842.913,13.024-8.1,8.136-4.138-2.244-8.747,2.325-11.689-.752-1.382-1.447-2.237-5.19-1.616-7,1.717-5.026,2-9.443,7.544-9.686" transform="translate(33.227 -55.19)" fill="#f0ec1e"/>
      <path id="Path_1427" data-name="Path 1427" d="M191.571,317.5a6.547,6.547,0,0,1,6.194-4.029c.444-.019,11.46-.389,14.727,9.912,1.1,3.485,1.42,7.924-1.017,9.935-1.815,1.5-4.616,1.239-8.325-.774-1.7-.921-3.514-.491-5.438-.038-2.152.506-4.593,1.081-6.464-.878-1.613-1.688-2.544-5.742-1.812-7.886.271-.8.508-1.578.734-2.33a26.774,26.774,0,0,1,1.4-3.914m19.5,13.55c.753-1.551.69-4.216-.236-7.141-2.9-9.158-12.572-8.724-12.983-8.7h-.012c-4.034.177-4.819,2.777-6.007,6.709-.232.771-.474,1.573-.753,2.39a8.014,8.014,0,0,0,1.423,6.124c1.129,1.18,2.564.915,4.81.385,2.056-.483,4.387-1.033,6.665.2,2.981,1.617,5.191,1.95,6.389.96a2.731,2.731,0,0,0,.7-.929" transform="translate(33.001 -55.415)" fill="#09161c"/>
      <path id="Path_1428" data-name="Path 1428" d="M51.1,298.369s9.478,1.724,8.468,14.171c-.593,7.318-6.5,11.29-10.61,11.353-3.944.059-7.851-2.895-9.235-7.2-.651-2.024,4.11-5.078,5.326-7.076,3.369-5.533,1.177-12.233,6.051-11.244" transform="translate(-19.347 -60.735)" fill="#f0ec1e"/>
      <path id="Path_1429" data-name="Path 1429" d="M39.347,315.235a14.554,14.554,0,0,1,3.054-3.552,14.983,14.983,0,0,0,2.133-2.3,18.228,18.228,0,0,0,2.083-6.412c.4-2.124.737-3.958,2.052-4.847a3.593,3.593,0,0,1,2.831-.385c.481.1,10.2,2.27,9.162,15.093A13.458,13.458,0,0,1,56.4,321.8a11.363,11.363,0,0,1-7.2,3.188c-4.364.066-8.6-3.217-10.076-7.808a2.554,2.554,0,0,1,.224-1.944m7.265-6.035c-.178.366-.375.73-.594,1.09a15.281,15.281,0,0,1-2.417,2.649c-1.149,1.1-3.07,2.932-2.824,3.71,1.246,3.879,4.778,6.656,8.4,6.6,3.736-.057,9.2-3.757,9.757-10.554.93-11.475-7.405-13.18-7.76-13.247l-.015,0a2,2,0,0,0-1.515.124c-.71.482-.991,1.983-1.315,3.724a22.6,22.6,0,0,1-1.713,5.907" transform="translate(-19.572 -60.96)" fill="#09161c"/>
      <path id="Path_1430" data-name="Path 1430" d="M142.165,209.722s10.858,2.168,8.95,13.648c-1.122,6.751-8.184,10.08-12.946,9.891-4.565-.181-8.908-3.157-10.251-7.234-.632-1.917.414-6.154,1.939-7.933,4.224-4.929,6.733-9.583,12.309-8.372" transform="translate(11.486 -91.804)" fill="#f0ec1e"/>
      <path id="Path_1431" data-name="Path 1431" d="M128.412,219.35a7.5,7.5,0,0,1,1.009-1.594c.672-.786,1.3-1.563,1.906-2.313,3.243-4.01,6.042-7.473,11.246-6.343.466.1,11.612,2.664,9.621,14.639-1.2,7.238-8.808,10.816-13.836,10.616-4.97-.2-9.613-3.491-11.043-7.831-.562-1.708,0-4.908,1.1-7.174m21.229,6.748a9.692,9.692,0,0,0,.84-2.644c1.744-10.493-7.855-12.571-8.264-12.655l-.013,0c-4.156-.9-6.408,1.883-9.525,5.738-.616.761-1.254,1.551-1.939,2.351-1.333,1.557-2.31,5.467-1.773,7.095,1.211,3.678,5.188,6.47,9.46,6.64,3.715.147,9.042-2.047,11.214-6.522" transform="translate(11.263 -92.03)" fill="#09161c"/>
      <path id="Path_1432" data-name="Path 1432" d="M121.438,182.138s7.779-5.919,16.524,3.983c5.141,5.822,4.121,13.212,1.358,16.377-2.649,3.035-7.558,3.828-11.769,1.713-1.978-.994-5.018-4.883-5.7-7.273-1.893-6.614-4.49-11.832-.412-14.8" transform="translate(8.526 -102.008)" fill="#f0ec1e"/>
      <path id="Path_1433" data-name="Path 1433" d="M119.232,183.877a5.955,5.955,0,0,1,1.921-2.224c.405-.294,8.695-6.069,17.685,4.111a14.88,14.88,0,0,1,3.861,9.748,11.815,11.815,0,0,1-2.5,7.775c-2.938,3.364-8.326,4.17-12.811,1.918-2.178-1.095-5.4-5.182-6.148-7.812-.3-1.054-.621-2.074-.929-3.054-1.276-4.064-2.418-7.7-1.079-10.463m20.692,16.677a12.686,12.686,0,0,0-2.388-13.639c-8.074-9.144-15.055-4.085-15.348-3.865l-.012.009c-2.781,2.022-1.939,5.244-.207,10.76.312,1,.636,2.028.941,3.1.614,2.145,3.513,5.858,5.259,6.734,3.788,1.9,8.3,1.269,10.721-1.507a7.179,7.179,0,0,0,1.034-1.592" transform="translate(8.3 -102.227)" fill="#09161c"/>
      <path id="Path_1434" data-name="Path 1434" d="M105.432,225.326s7.658-4.129,15.879,3.085c4.835,4.241,3.676,9.518.933,11.746-2.631,2.135-3.644,2.063-7.665.49-1.89-.738-6.19-3.282-6.8-5-1.675-4.763-6.362-8.252-2.351-10.319" transform="translate(3.126 -86.685)" fill="#f0ec1e"/>
      <path id="Path_1435" data-name="Path 1435" d="M103.594,226.25a3.973,3.973,0,0,1,1.567-1.293c.406-.209,8.569-4.23,17.036,3.2,2.949,2.585,3.539,5.263,3.514,7.053a7.313,7.313,0,0,1-2.6,5.549c-2.959,2.4-4.431,2.3-8.708.626-1.7-.667-6.5-3.339-7.233-5.411a22.377,22.377,0,0,0-2.145-4.146c-1.252-2.047-2.449-4.006-1.427-5.576m19.361,12.367c1.566-2.4,1.658-6.343-2.082-9.625-7.574-6.644-14.422-3.131-14.709-2.978l-.014.007c-2.018,1.04-1.276,2.444.452,5.269a23.3,23.3,0,0,1,2.245,4.354c.5,1.41,4.477,3.856,6.359,4.593,3.821,1.495,4.377,1.465,6.621-.355a5.484,5.484,0,0,0,1.127-1.265" transform="translate(2.901 -86.848)" fill="#09161c"/>
      <path id="Path_1436" data-name="Path 1436" d="M165.9,194.776s4.412-8.017,15.677-1.357c6.624,3.917,8.564,11.229,7.4,15.083-1.114,3.694-2.043,3.945-6.456,3.25-2.075-.327-6.474-4.133-7.97-6.182-4.142-5.674-11.018-6.719-8.653-10.794" transform="translate(24.682 -98.37)" fill="#f0ec1e"/>
      <path id="Path_1437" data-name="Path 1437" d="M165.181,194.944c.059-.123.124-.246.2-.373a9.386,9.386,0,0,1,5.511-4.085c3.305-.9,7.13-.092,11.364,2.411,7.32,4.328,8.977,12.155,7.791,16.081-1.266,4.2-2.72,4.6-7.426,3.859-2.46-.387-7.07-4.523-8.534-6.529a22.727,22.727,0,0,0-5.387-4.931c-2.523-1.828-4.913-3.559-3.517-6.433M187.764,210.2a12.259,12.259,0,0,0,.617-1.724c1.067-3.536-.776-10.4-7.012-14.084-3.814-2.256-7.187-3.007-10.022-2.232a7.632,7.632,0,0,0-4.451,3.259l-.011.018c-.923,1.6-.076,2.426,2.833,4.531a24.483,24.483,0,0,1,5.77,5.315c1.522,2.083,5.757,5.577,7.4,5.835,3.217.508,4.175.522,4.874-.918" transform="translate(24.453 -98.596)" fill="#09161c"/>
      <path id="Path_1438" data-name="Path 1438" d="M110.234,208.148s-4.118,4.211-.648,7.1,6.882,3.387,8.3,1.207-1.374-9.417-7.654-8.3" transform="translate(4.647 -92.328)" fill="#f0ec1e"/>
      <path id="Path_1439" data-name="Path 1439" d="M108.208,210.123a9.877,9.877,0,0,1,1.63-2.357l.2-.2.274-.049a7.307,7.307,0,0,1,7.624,3.343c1.438,2.175,1.821,4.89.91,6.29a3.763,3.763,0,0,1-2.669,1.692c-1.971.3-4.492-.689-6.917-2.7a4.381,4.381,0,0,1-1.7-3.209,5.819,5.819,0,0,1,.651-2.806m2.691-.94a5.977,5.977,0,0,0-1.605,3.661,2.67,2.67,0,0,0,1.073,1.956c2.013,1.674,4.087,2.542,5.546,2.324a2.023,2.023,0,0,0,1.472-.922c.478-.717.212-2.7-.9-4.384a5.6,5.6,0,0,0-5.584-2.635" transform="translate(4.421 -92.553)" fill="#09161c"/>
      <path id="Path_1440" data-name="Path 1440" d="M74.9,273.7s-4.118,4.212-.648,7.1,6.881,3.387,8.3,1.207-1.374-9.418-7.654-8.3" transform="translate(-7.725 -69.379)" fill="#f0ec1e"/>
      <path id="Path_1441" data-name="Path 1441" d="M72.871,275.672a9.867,9.867,0,0,1,1.63-2.359l.2-.2.274-.049a7.306,7.306,0,0,1,7.624,3.343c1.438,2.175,1.813,4.894.91,6.29a3.763,3.763,0,0,1-2.669,1.692c-1.971.3-4.492-.689-6.917-2.7a4.372,4.372,0,0,1-1.7-3.208,5.815,5.815,0,0,1,.649-2.805m2.691-.941a5.98,5.98,0,0,0-1.6,3.661,2.664,2.664,0,0,0,1.072,1.956c2.013,1.674,4.087,2.542,5.546,2.324a2.022,2.022,0,0,0,1.472-.922c.475-.737.213-2.7-.9-4.384a5.6,5.6,0,0,0-5.584-2.635" transform="translate(-7.95 -69.604)" fill="#09161c"/>
      <path id="Path_1442" data-name="Path 1442" d="M100.764,248.131s-4.118,4.211-.648,7.1,6.882,3.387,8.3,1.207-1.374-9.417-7.654-8.3" transform="translate(1.331 -78.33)" fill="#f0ec1e"/>
      <path id="Path_1443" data-name="Path 1443" d="M98.737,250.107a9.868,9.868,0,0,1,1.63-2.359l.2-.2.274-.049a7.306,7.306,0,0,1,7.624,3.343c1.438,2.175,1.819,4.891.91,6.29a3.763,3.763,0,0,1-2.669,1.692c-1.971.3-4.492-.689-6.917-2.7a4.373,4.373,0,0,1-1.7-3.208,5.815,5.815,0,0,1,.649-2.806m2.691-.941a5.985,5.985,0,0,0-1.605,3.661,2.67,2.67,0,0,0,1.073,1.956c2.013,1.674,4.087,2.542,5.546,2.324a2.022,2.022,0,0,0,1.472-.922c.475-.717.213-2.7-.9-4.384a5.6,5.6,0,0,0-5.584-2.635" transform="translate(1.106 -78.555)" fill="#09161c"/>
      <path id="Path_1444" data-name="Path 1444" d="M67.313,426.053s-4.118,4.211-.648,7.1,6.881,3.387,8.3,1.207-1.374-9.417-7.654-8.3" transform="translate(-10.38 -16.038)" fill="#f0ec1e"/>
      <path id="Path_1445" data-name="Path 1445" d="M65.287,428.029a9.867,9.867,0,0,1,1.63-2.359l.2-.2.274-.049a7.306,7.306,0,0,1,7.624,3.343c1.438,2.175,1.819,4.891.91,6.29a3.763,3.763,0,0,1-2.669,1.692c-1.971.3-4.492-.689-6.917-2.7a4.372,4.372,0,0,1-1.7-3.208,5.815,5.815,0,0,1,.649-2.806m2.691-.941a5.985,5.985,0,0,0-1.605,3.661,2.67,2.67,0,0,0,1.073,1.956c2.013,1.674,4.087,2.542,5.546,2.324a2.022,2.022,0,0,0,1.472-.922c.475-.717.213-2.7-.9-4.384a5.6,5.6,0,0,0-5.584-2.635" transform="translate(-10.605 -16.263)" fill="#09161c"/>
      <path id="Path_1446" data-name="Path 1446" d="M99.81,332.559s-3.98,4.388-.162,7.725,7.405,4.066,8.726,1.756-2.11-10.369-8.564-9.482" transform="translate(1.075 -48.754)" fill="#f0ec1e"/>
      <path id="Path_1447" data-name="Path 1447" d="M98.081,334.2a9.289,9.289,0,0,1,1.311-2l.213-.234.313-.043a8.268,8.268,0,0,1,8.068,3.967c1.651,2.445,2.226,5.318,1.366,6.809a3.425,3.425,0,0,1-2.479,1.719c-2.052.346-4.812-.841-7.573-3.252a5.282,5.282,0,0,1-1.944-3.742,6.593,6.593,0,0,1,.724-3.223m2.4-.591a6.086,6.086,0,0,0-1.392,3.722,3.564,3.564,0,0,0,1.353,2.526c2.332,2.037,4.627,3.1,6.14,2.846a1.688,1.688,0,0,0,1.26-.867c.389-.689.146-2.834-1.3-4.974a6.686,6.686,0,0,0-6.062-3.254" transform="translate(0.849 -48.979)" fill="#09161c"/>
      <path id="Path_1448" data-name="Path 1448" d="M167.837,350.434s8.5-4.531,15.434,5.854c4.077,6.106,1.916,12.885-1.272,15.488-3.055,2.495-7.953,2.6-11.712.084-1.767-1.184.07-6.532-.216-8.854-.794-6.429-6.67-10.324-2.234-12.572" transform="translate(24.953 -42.816)" fill="#f0ec1e"/>
      <path id="Path_1449" data-name="Path 1449" d="M165.839,351.561a3.842,3.842,0,0,1,1.832-1.684c.437-.221,9.406-4.551,16.55,6.147a13.457,13.457,0,0,1,2.224,9.672,11.355,11.355,0,0,1-3.67,6.971c-3.381,2.76-8.741,2.816-12.745.132-1.582-1.06-1.207-3.748-.842-6.347a14.831,14.831,0,0,0,.247-3.123,18.283,18.283,0,0,0-2.346-6.32c-1.009-1.912-1.879-3.562-1.4-5.074a3.106,3.106,0,0,1,.15-.375m17.919,17.013a11.65,11.65,0,0,0-.983-11.585c-6.422-9.62-13.984-5.739-14.3-5.569l-.016.008a1.988,1.988,0,0,0-1.11,1.037c-.261.817.454,2.17,1.28,3.736a19.963,19.963,0,0,1,2.534,6.918,15.43,15.43,0,0,1-.251,3.575c-.22,1.576-.59,4.208.088,4.663,3.385,2.268,7.877,2.253,10.679-.036a8.128,8.128,0,0,0,2.082-2.746" transform="translate(24.728 -43.035)" fill="#09161c"/>
      <path id="Path_1450" data-name="Path 1450" d="M103.563,318.652s-3.98,4.388-.162,7.725,7.405,4.067,8.726,1.757-2.11-10.369-8.564-9.482" transform="translate(2.389 -53.623)" fill="#f0ec1e"/>
      <path id="Path_1451" data-name="Path 1451" d="M101.833,320.292a9.306,9.306,0,0,1,1.311-2l.213-.234.313-.043a8.265,8.265,0,0,1,8.067,3.965c1.653,2.445,2.243,5.29,1.369,6.81a3.426,3.426,0,0,1-2.48,1.719c-2.052.346-4.812-.841-7.573-3.252a5.28,5.28,0,0,1-1.943-3.741,6.587,6.587,0,0,1,.722-3.224m2.4-.591a6.075,6.075,0,0,0-1.392,3.722,3.559,3.559,0,0,0,1.353,2.526c2.33,2.037,4.625,3.1,6.139,2.846a1.684,1.684,0,0,0,1.26-.867c.385-.67.146-2.835-1.3-4.974a6.682,6.682,0,0,0-6.061-3.254" transform="translate(2.163 -53.848)" fill="#09161c"/>
      <path id="Path_1452" data-name="Path 1452" d="M61.221,284.725s-5.839.766-4.9,5.178,3.317,6.917,5.781,6.08,4.739-8.252-.886-11.257" transform="translate(-13.549 -65.477)" fill="#f0ec1e"/>
      <path id="Path_1453" data-name="Path 1453" d="M55.994,287.349a4.362,4.362,0,0,1,.356-.6c1.536-2.175,4.844-2.631,4.983-2.649l.277-.036.246.131a7.3,7.3,0,0,1,3.929,7.339c-.215,2.6-1.577,4.967-3.174,5.507a3.758,3.758,0,0,1-3.143-.32c-1.732-.983-3.105-3.316-3.765-6.4a4.5,4.5,0,0,1,.292-2.969m5.3-1.482a5.965,5.965,0,0,0-3.525,1.885,2.664,2.664,0,0,0-.366,2.2c.549,2.563,1.643,4.526,2.926,5.253a2.011,2.011,0,0,0,1.727.185c.813-.274,1.833-1.987,2-4a5.6,5.6,0,0,0-2.761-5.522" transform="translate(-13.775 -65.71)" fill="#09161c"/>
      <path id="Path_1454" data-name="Path 1454" d="M81.173,320.57s-5.842.99-4.9,5.973,3.309,7.774,5.774,6.775,4.75-9.456-.872-12.748" transform="translate(-6.566 -52.928)" fill="#f0ec1e"/>
      <path id="Path_1455" data-name="Path 1455" d="M76.023,323.48a5,5,0,0,1,.4-.683,8.09,8.09,0,0,1,4.827-2.849l.311-.053.273.159a8.269,8.269,0,0,1,3.894,8.1c-.215,2.942-1.531,5.549-3.134,6.2a3.426,3.426,0,0,1-3.012-.181c-1.825-1-3.262-3.634-3.941-7.237a5.446,5.446,0,0,1,.381-3.459m5.217-1.751a6.083,6.083,0,0,0-3.394,2.067,3.575,3.575,0,0,0-.5,2.82c.574,3.043,1.72,5.3,3.067,6.034a1.692,1.692,0,0,0,1.527.1c.721-.29,1.866-2.139,2.052-4.712a6.685,6.685,0,0,0-2.756-6.305" transform="translate(-6.792 -53.164)" fill="#09161c"/>
      <path id="Path_1456" data-name="Path 1456" d="M78.322,292.254s-9.649,1.635-8.1,9.867,5.467,12.841,9.538,11.19,7.847-15.621-1.441-21.056" transform="translate(-8.706 -62.841)" fill="#f0ec1e"/>
      <path id="Path_1457" data-name="Path 1457" d="M70.182,297.152A7.855,7.855,0,0,1,70.8,296.1c2.483-3.566,7.4-4.434,7.6-4.47l.311-.053.274.161c4.316,2.527,6.559,7.214,6.15,12.858-.332,4.58-2.406,8.773-4.823,9.753a5.1,5.1,0,0,1-4.492-.273c-2.866-1.565-5.136-5.778-6.227-11.561a8.465,8.465,0,0,1,.587-5.367m8.207-3.741c-1.031.236-4.428,1.184-6.17,3.693A6.5,6.5,0,0,0,71.3,302.2c.979,5.191,2.98,9.063,5.352,10.358a3.37,3.37,0,0,0,3.005.188c1.566-.633,3.441-4.108,3.744-8.268.166-2.3,0-7.929-5.014-11.063" transform="translate(-8.932 -63.077)" fill="#09161c"/>
      <path id="Path_1458" data-name="Path 1458" d="M195.449,223.939s9.945,4.867,5.17,15.48c-2.807,6.242-10.485,7.658-15.04,6.259-4.369-1.341-7.808-5.325-8.067-9.611-.12-2.014,1.971-5.843,3.9-7.174,5.342-3.687,8.954-7.547,14.037-4.954" transform="translate(28.913 -87.055)" fill="#f0ec1e"/>
      <path id="Path_1459" data-name="Path 1459" d="M179.76,229.69a7.472,7.472,0,0,1,1.383-1.285c.851-.589,1.658-1.18,2.434-1.75,4.158-3.05,7.748-5.683,12.491-3.262.427.216,10.547,5.54,5.566,16.61-3.005,6.688-11.276,8.21-16.088,6.733-4.754-1.458-8.4-5.828-8.678-10.389-.108-1.8,1.25-4.747,2.892-6.657m18.8,11.942a9.689,9.689,0,0,0,1.486-2.341c4.364-9.7-4.387-14.16-4.762-14.345l-.011-.005c-3.79-1.935-6.678.184-10.674,3.116-.79.579-1.609,1.18-2.475,1.778-1.684,1.164-3.63,4.7-3.527,6.408.232,3.865,3.367,7.579,7.453,8.834,3.556,1.091,9.267.328,12.509-3.444" transform="translate(28.688 -87.281)" fill="#09161c"/>
      <path id="Path_1460" data-name="Path 1460" d="M156.656,239.773s9.374-2.211,13.428,9.6c2.383,6.944-1.437,12.946-5.183,14.649-3.591,1.634-4.512,1.173-7.5-2.222-1.407-1.594-2.106-6.983-1.792-9.3.875-6.418-3.814-11.684,1.05-12.726" transform="translate(20.827 -81.273)" fill="#f0ec1e"/>
      <path id="Path_1461" data-name="Path 1461" d="M154.5,240.3a3.845,3.845,0,0,1,2.2-1.16c.481-.1,10.257-2,14.435,10.166a13.451,13.451,0,0,1-.32,9.921,11.354,11.354,0,0,1-5.328,5.8c-4.01,1.824-5.342,1.161-8.514-2.44-1.682-1.908-2.313-7.7-2-9.992a18.318,18.318,0,0,0-.656-6.71c-.487-2.1-.909-3.923-.057-5.261a2.9,2.9,0,0,1,.239-.327m12.984,21.023a11.643,11.643,0,0,0,2-11.452c-3.755-10.941-12.055-9.12-12.407-9.036l-.018,0a1.973,1.973,0,0,0-1.338.72c-.46.724-.115,2.213.285,3.938a20.04,20.04,0,0,1,.686,7.335c-.32,2.332.473,7.355,1.578,8.61,2.857,3.243,3.4,3.412,6.494,2.006a8.114,8.114,0,0,0,2.715-2.125" transform="translate(20.603 -81.494)" fill="#09161c"/>
      <path id="Path_1462" data-name="Path 1462" d="M177,274.842s-5.726-2.66-8.24,1.508-1.732,8.232.7,8.511,9.511-5.163,7.543-10.019" transform="translate(25.311 -69.23)" fill="#f0ec1e"/>
      <path id="Path_1463" data-name="Path 1463" d="M168.832,275.312c2.461-2.864,6.714-1.987,8.765-1.034l.311.145.128.317c.847,2.087.346,4.509-1.411,6.821-1.978,2.588-5.192,4.6-7.037,4.388a3.146,3.146,0,0,1-2.486-1.856c-1-2.031-.549-5.159,1.144-7.967a6.051,6.051,0,0,1,.586-.813m7.709.406c-1.153-.45-5.013-1.678-6.807,1.306-1.586,2.631-1.681,5.06-1.071,6.3a1.431,1.431,0,0,0,1.125.9c.973.112,3.693-1.4,5.453-3.716.914-1.2,1.85-2.981,1.3-4.789" transform="translate(25.087 -69.455)" fill="#09161c"/>
      <path id="Path_1464" data-name="Path 1464" d="M195.353,258.471s-3.5-10.2-8.539-8.878-6.984,6.728-4.94,10.134,12.1,6.532,13.479-1.256" transform="translate(30.162 -77.818)" fill="#f0ec1e"/>
      <path id="Path_1465" data-name="Path 1465" d="M182.419,251.691a8.638,8.638,0,0,1,4.4-2.712c5.75-1.505,9.428,8.989,9.583,9.437l.072.212-.039.221a6.194,6.194,0,0,1-5.114,5.436c-3.872.714-8.535-1.5-9.966-3.886a7.237,7.237,0,0,1-.329-6.421,8.331,8.331,0,0,1,1.4-2.287m12.262,7.075c-.991-2.751-4.029-8.994-7.423-8.106a6.768,6.768,0,0,0-4.627,3.975,5.494,5.494,0,0,0,.212,4.871c1.112,1.854,5.1,3.636,8.16,3.071a4.4,4.4,0,0,0,3.678-3.811" transform="translate(29.937 -78.044)" fill="#09161c"/>
      <path id="Path_1466" data-name="Path 1466" d="M195.463,185.689s9.764.292,12.231,8.319c1.45,4.72-3.229,7.758-7.243,8.149a14.551,14.551,0,0,1-11.048-3.809c-1.2-1.237-1.827-4.235-1.189-5.614,1.763-3.818,2.2-7.262,7.25-7.046" transform="translate(32.573 -100.154)" fill="#f0ec1e"/>
      <path id="Path_1467" data-name="Path 1467" d="M190.462,186.993c1.076-1.253,2.63-2.058,5.257-1.947a18.067,18.067,0,0,1,5.475,1.208,12.069,12.069,0,0,1,7.552,7.724,6.064,6.064,0,0,1-.718,5.31,10.1,10.1,0,0,1-7.27,3.96A15.3,15.3,0,0,1,189,199.181c-1.447-1.493-2.144-4.877-1.355-6.584.278-.6.524-1.2.759-1.766a13.941,13.941,0,0,1,2.056-3.837m15.745,11.826a5.073,5.073,0,0,0,.375-.494,4.324,4.324,0,0,0,.5-3.836c-2.257-7.349-11.333-7.7-11.425-7.705h-.011c-3.63-.155-4.387,1.678-5.639,4.711-.243.591-.5,1.207-.786,1.832a5.553,5.553,0,0,0,1.025,4.644,13.648,13.648,0,0,0,10.339,3.549,8.788,8.788,0,0,0,5.618-2.7" transform="translate(32.348 -100.379)" fill="#09161c"/>
      <path id="Path_1468" data-name="Path 1468" d="M149.261,280.1s9.375-2.211,13.43,9.6c2.383,6.944-1.437,12.946-5.183,14.649-3.591,1.634-8.354.487-11.346-2.908-1.405-1.594,1.736-6.3,2.051-8.615.875-6.418-3.814-11.684,1.049-12.726" transform="translate(17.813 -67.155)" fill="#f0ec1e"/>
      <path id="Path_1469" data-name="Path 1469" d="M147.1,280.628a3.842,3.842,0,0,1,2.2-1.161h0c.478-.1,10.255-2,14.433,10.168a13.464,13.464,0,0,1-.317,9.919,11.365,11.365,0,0,1-5.328,5.8c-3.973,1.806-9.17.493-12.358-3.126-1.26-1.428-.209-3.93.806-6.35a14.953,14.953,0,0,0,1.036-2.957,18.318,18.318,0,0,0-.655-6.71c-.487-2.106-.909-3.925-.058-5.263a2.846,2.846,0,0,1,.24-.325m12.983,21.023a11.652,11.652,0,0,0,2.008-11.452c-3.737-10.887-12.059-9.117-12.412-9.036l-.015,0a1.971,1.971,0,0,0-1.337.718c-.462.724-.116,2.214.282,3.94a19.982,19.982,0,0,1,.686,7.335,15.332,15.332,0,0,1-1.157,3.4c-.614,1.464-1.643,3.917-1.1,4.53,2.693,3.057,7.041,4.189,10.335,2.691a8.123,8.123,0,0,0,2.714-2.125" transform="translate(17.588 -67.376)" fill="#09161c"/>
      <path id="Path_1470" data-name="Path 1470" d="M188.864,205.777s-5.148,2.8-2.766,5.918,5.436,4.193,7.432,2.607,1.572-8.277-4.666-8.525" transform="translate(31.701 -93.117)" fill="#f0ec1e"/>
      <path id="Path_1471" data-name="Path 1471" d="M186.046,207.345a10.215,10.215,0,0,1,2.629-2.1l.211-.113.239.009a6.389,6.389,0,0,1,6.225,4.4c.716,2.19.258,4.63-1.053,5.676a4.25,4.25,0,0,1-3.236.876,8.568,8.568,0,0,1-5.427-3.637,3.541,3.541,0,0,1-.73-2.954,4.954,4.954,0,0,1,1.144-2.151m3.254-.459c-.815.493-2.429,1.7-2.7,2.976a1.821,1.821,0,0,0,.412,1.534,7.006,7.006,0,0,0,4.261,2.968,2.516,2.516,0,0,0,1.941-.513c.659-.52,1.009-2.164.482-3.776a4.594,4.594,0,0,0-4.4-3.188" transform="translate(31.476 -93.345)" fill="#09161c"/>
      <path id="Path_1472" data-name="Path 1472" d="M162.995,220.8s-5.148,2.8-2.766,5.918,5.436,4.193,7.432,2.607,1.572-8.277-4.666-8.525" transform="translate(22.643 -87.856)" fill="#f0ec1e"/>
      <path id="Path_1473" data-name="Path 1473" d="M160.176,222.373a10.214,10.214,0,0,1,2.629-2.1l.211-.113.239.009a6.386,6.386,0,0,1,6.224,4.4c.717,2.19.258,4.631-1.053,5.676a4.239,4.239,0,0,1-3.236.876,8.557,8.557,0,0,1-5.426-3.637,3.544,3.544,0,0,1-.73-2.954,4.953,4.953,0,0,1,1.144-2.151m3.254-.459c-.817.494-2.43,1.7-2.7,2.976a1.816,1.816,0,0,0,.413,1.534,6.989,6.989,0,0,0,4.26,2.968,2.5,2.5,0,0,0,1.94-.513c.66-.516,1.009-2.164.483-3.775a4.6,4.6,0,0,0-4.4-3.189" transform="translate(22.418 -88.083)" fill="#09161c"/>
      <path id="Path_1474" data-name="Path 1474" d="M27.585,330.592s8-7.141,16.643-1.306c5.079,3.431,8.8,9.645-1.3,11.406-4.638.809-5.415,7.253-9.632,6.664a8.84,8.84,0,0,1-5.615-4.488c-1.774-5.006-4.289-8.646-.1-12.277" transform="translate(-24.377 -50.679)" fill="#f0ec1e"/>
      <path id="Path_1475" data-name="Path 1475" d="M25.252,332.638a7.808,7.808,0,0,1,1.989-2.482c.335-.292,8.742-7.416,17.694-1.369,3.032,2.047,6.034,5.333,5.371,8.421-.489,2.3-2.849,3.837-7.007,4.562-1.9.331-3.061,1.794-4.287,3.344-1.374,1.734-2.93,3.7-5.612,3.324-2.313-.321-5.557-2.92-6.314-5.057-.281-.8-.583-1.554-.871-2.284-1.162-2.941-2.275-5.757-.963-8.458m23.183,4.712a2.255,2.255,0,0,0,.173-.5c.39-1.819-1.476-4.478-4.643-6.617-7.986-5.394-15.5,1.166-15.578,1.234l-.009.008c-3.053,2.644-2.058,5.168-.547,8.988.3.749.6,1.528.892,2.342a8,8,0,0,0,4.916,3.918c1.616.225,2.579-.874,4.011-2.683,1.311-1.655,2.8-3.532,5.35-3.977,2.962-.516,4.82-1.446,5.434-2.708" transform="translate(-24.6 -50.9)" fill="#09161c"/>
      <path id="Path_1476" data-name="Path 1476" d="M47.631,370.238s10.467,2.09,8.629,13.158c-1.081,6.509-7.89,9.718-12.48,9.536-4.4-.175-8.588-3.043-9.884-6.975-.609-1.848.4-5.932,1.87-7.648,4.072-4.751,6.49-9.239,11.866-8.071" transform="translate(-21.43 -35.604)" fill="#f0ec1e"/>
      <path id="Path_1477" data-name="Path 1477" d="M34.322,379.558a7.507,7.507,0,0,1,1.007-1.59c.649-.756,1.256-1.507,1.839-2.228,3.131-3.873,5.837-7.22,10.872-6.127.458.1,11.222,2.58,9.3,14.151-1.16,6.991-8.511,10.454-13.371,10.259-4.8-.19-9.291-3.373-10.674-7.57-.552-1.676-.034-4.705,1.027-6.9m20.5,6.46a9.272,9.272,0,0,0,.807-2.54c1.675-10.085-7.55-12.085-7.943-12.164l-.014,0c-3.99-.867-6.154,1.813-9.151,5.521-.594.733-1.211,1.5-1.871,2.267-1.277,1.5-2.218,5.249-1.7,6.81,1.164,3.533,4.989,6.216,9.093,6.379,3.572.142,8.693-1.967,10.782-6.27" transform="translate(-21.655 -35.831)" fill="#09161c"/>
      <path id="Path_1478" data-name="Path 1478" d="M45.054,406.207s-6.215-1.111-7.582,3.562.425,8.4,2.846,8.051,7.879-7.419,4.736-11.612" transform="translate(-20.28 -22.986)" fill="#f0ec1e"/>
      <path id="Path_1479" data-name="Path 1479" d="M37.22,408.817c1.648-3.4,5.984-3.635,8.21-3.236l.336.059.205.275c1.351,1.8,1.485,4.273.375,6.956-1.249,3-3.845,5.772-5.681,6.036a3.145,3.145,0,0,1-2.877-1.16c-1.484-1.709-1.848-4.848-.928-8a5.983,5.983,0,0,1,.359-.936m7.557-1.574c-1.229-.14-5.279-.34-6.248,3-.863,2.949-.335,5.323.572,6.368a1.433,1.433,0,0,0,1.316.578c.971-.14,3.216-2.3,4.324-4.981.578-1.4,1.029-3.356.035-4.964" transform="translate(-20.504 -23.215)" fill="#09161c"/>
      <path id="Path_1480" data-name="Path 1480" d="M70.579,368.165s9.514-2.21,13.949,4.922c2.606,4.193-1.144,8.325-4.924,9.728a14.552,14.552,0,0,1-11.654-.863c-1.476-.888-2.847-3.629-2.583-5.125.73-4.141.274-7.582,5.211-8.662" transform="translate(-10.359 -36.378)" fill="#f0ec1e"/>
      <path id="Path_1481" data-name="Path 1481" d="M66.026,370.767c.721-1.485,2.018-2.661,4.586-3.223a18,18,0,0,1,5.6-.231,12.072,12.072,0,0,1,9.275,5.541,6.068,6.068,0,0,1,.659,5.317,10.057,10.057,0,0,1-6.017,5.685,15.309,15.309,0,0,1-12.406-.933c-1.779-1.073-3.317-4.168-2.989-6.02.115-.653.2-1.289.281-1.9a14.007,14.007,0,0,1,1.009-4.238m18.243,7.415a5.406,5.406,0,0,0,.238-.572,4.332,4.332,0,0,0-.491-3.838c-4.058-6.528-12.926-4.555-13.015-4.534l-.011,0c-3.549.776-3.811,2.741-4.249,5.995-.085.635-.174,1.293-.293,1.971a5.556,5.556,0,0,0,2.176,4.229,13.65,13.65,0,0,0,10.9.792,8.777,8.777,0,0,0,4.743-4.045" transform="translate(-10.584 -36.603)" fill="#09161c"/>
      <path id="Path_1482" data-name="Path 1482" d="M44.875,350.484s-3.927,2.589-1.553,4.227,4.006,2.1,5.483.424,1.318-6.116-3.93-4.651" transform="translate(-18.333 -42.557)" fill="#f0ec1e"/>
      <path id="Path_1483" data-name="Path 1483" d="M42.21,352.507a7.429,7.429,0,0,1,2.413-2.523l.246-.111c3.351-.937,4.758.366,5.3,1.226a4.329,4.329,0,0,1-.482,4.833c-2.066,2.349-4.407,1.253-6.629-.282a2.327,2.327,0,0,1-1.138-1.987,2.723,2.723,0,0,1,.293-1.156m3.259-1c-.767.536-1.81,1.535-1.815,2.172,0,.074,0,.27.386.539,2.544,1.757,3.456,1.569,4.338.566a2.6,2.6,0,0,0,.316-2.762c-.629-1-2.234-.774-3.225-.514" transform="translate(-18.558 -42.782)" fill="#09161c"/>
      <path id="Path_1484" data-name="Path 1484" d="M90.124,360.982S85.861,365,88.96,367.409s6.325,2.668,7.851.624-.593-8.4-6.687-7.052" transform="translate(-2.483 -38.845)" fill="#f0ec1e"/>
      <path id="Path_1485" data-name="Path 1485" d="M87.749,363.278a10.213,10.213,0,0,1,2-2.7l.174-.165.234-.051a6.389,6.389,0,0,1,7.142,2.664c1.252,1.935,1.43,4.411.429,5.757a4.244,4.244,0,0,1-2.905,1.673,8.566,8.566,0,0,1-6.174-2.132,3.547,3.547,0,0,1-1.461-2.669,4.942,4.942,0,0,1,.558-2.373M90.777,362c-.663.686-1.916,2.263-1.85,3.566a1.816,1.816,0,0,0,.79,1.377,7,7,0,0,0,4.877,1.784,2.5,2.5,0,0,0,1.746-.992c.5-.667.423-2.349-.5-3.774A4.6,4.6,0,0,0,90.777,362" transform="translate(-2.709 -39.07)" fill="#09161c"/>
      <path id="Path_1486" data-name="Path 1486" d="M141.893,412.989s11.071-.159,11.615,11.466c.32,6.836-5.885,11.572-10.581,12.387-4.5.78-9.371-1.216-11.542-4.921-1.019-1.742-.887-6.1.231-8.164,3.1-5.706,4.57-10.782,10.277-10.768" transform="translate(12.524 -20.571)" fill="#f0ec1e"/>
      <path id="Path_1487" data-name="Path 1487" d="M130.424,425.341a7.522,7.522,0,0,1,.651-1.773c.493-.909.945-1.8,1.38-2.661,2.328-4.6,4.338-8.575,9.663-8.561.479,0,11.912.167,12.48,12.294.347,7.324-6.34,12.424-11.3,13.284-4.9.851-10.13-1.4-12.44-5.338-.909-1.551-1.033-4.8-.433-7.245m22.173,2.14a9.682,9.682,0,0,0,.266-2.76c-.5-10.625-10.319-10.643-10.736-10.639h-.013c-4.254-.009-5.872,3.186-8.109,7.609-.441.874-.9,1.781-1.4,2.706-.973,1.8-1.111,5.83-.244,7.31,1.956,3.341,6.432,5.236,10.644,4.505,3.664-.636,8.411-3.9,9.6-8.731" transform="translate(12.3 -20.796)" fill="#09161c"/>
      <path id="Path_1488" data-name="Path 1488" d="M115.579,443.535s7.361-6.214,16.32,2.484c5.268,5.114,4.577,12.2,2.006,15.409-2.463,3.082-3.493,3.089-7.7,1.415-1.975-.787-5.039-5.275-5.805-7.485-2.126-6.119-8.689-8.693-4.824-11.823" transform="translate(6.813 -10.63)" fill="#f0ec1e"/>
      <path id="Path_1489" data-name="Path 1489" d="M113.821,445.11a3.83,3.83,0,0,1,1.437-2.031c.381-.308,8.241-6.425,17.472,2.536a13.452,13.452,0,0,1,4.2,8.99,11.353,11.353,0,0,1-2.125,7.586c-2.75,3.44-4.239,3.452-8.7,1.677-2.363-.941-5.548-5.823-6.306-8.006a18.3,18.3,0,0,0-3.62-5.687c-1.388-1.657-2.585-3.089-2.433-4.666a2.809,2.809,0,0,1,.068-.4m21.09,12.872a11.649,11.649,0,0,0-3.393-11.121c-8.3-8.057-14.878-2.676-15.154-2.442l-.013.011a1.977,1.977,0,0,0-.868,1.246c-.082.855.9,2.027,2.036,3.385a19.96,19.96,0,0,1,3.93,6.232c.771,2.222,3.752,6.344,5.3,6.962,4.015,1.6,4.58,1.5,6.7-1.15a8.1,8.1,0,0,0,1.459-3.123" transform="translate(6.588 -10.85)" fill="#09161c"/>
      <path id="Path_1490" data-name="Path 1490" d="M38.489,421.656s7.361-6.215,16.32,2.484c5.268,5.114,4.577,12.2,2.006,15.409-2.463,3.082-3.493,3.089-7.7,1.415-1.975-.787-5.039-5.275-5.805-7.485-2.126-6.119-8.689-8.693-4.824-11.823" transform="translate(-20.176 -18.29)" fill="#f0ec1e"/>
      <path id="Path_1491" data-name="Path 1491" d="M36.731,423.231a3.83,3.83,0,0,1,1.437-2.031c.381-.308,8.241-6.425,17.472,2.536a13.452,13.452,0,0,1,4.2,8.99,11.353,11.353,0,0,1-2.125,7.586c-2.75,3.44-4.239,3.452-8.7,1.677-2.363-.941-5.548-5.823-6.306-8.006A18.3,18.3,0,0,0,39.1,428.3c-1.388-1.657-2.585-3.089-2.433-4.666a2.806,2.806,0,0,1,.068-.4M57.821,436.1a11.649,11.649,0,0,0-3.393-11.121c-8.3-8.057-14.878-2.676-15.154-2.442l-.014.011a1.977,1.977,0,0,0-.868,1.246c-.084.855.9,2.027,2.036,3.385a19.96,19.96,0,0,1,3.93,6.232c.771,2.222,3.752,6.344,5.3,6.962,4.015,1.6,4.58,1.5,6.7-1.15a8.1,8.1,0,0,0,1.459-3.123" transform="translate(-20.402 -18.51)" fill="#09161c"/>
      <path id="Path_1492" data-name="Path 1492" d="M110.469,397.491s10.478,3.9,5.294,14.261c-3.05,6.092-11.2,7.968-16.011,6.968-4.612-.96-8.209-4.482-8.431-8.512-.105-1.894,2.157-5.658,4.216-7.052,5.7-3.859,9.578-7.759,14.932-5.665" transform="translate(-1.262 -26.202)" fill="#f0ec1e"/>
      <path id="Path_1493" data-name="Path 1493" d="M90.825,409.195a12.74,12.74,0,0,1,4.45-6.533c.91-.616,1.773-1.233,2.6-1.824,4.4-3.143,8.2-5.858,13.128-3.934.288.109,4.939,1.92,6.664,6.3,1.076,2.731.771,5.812-.9,9.162-3.39,6.771-12.128,8.435-16.965,7.428-5.045-1.049-8.881-4.967-9.121-9.316a4.44,4.44,0,0,1,.147-1.284m25.452-.437a7.991,7.991,0,0,0-.219-4.9c-1.451-3.7-5.627-5.309-5.669-5.325l-.012,0c-4.057-1.586-7.174.641-11.491,3.726-.841.6-1.715,1.225-2.638,1.848-1.947,1.318-3.917,4.817-3.836,6.285.2,3.575,3.454,6.818,7.74,7.71,4.481.932,12.206-.811,15.058-6.506a13.6,13.6,0,0,0,1.067-2.831" transform="translate(-1.488 -26.428)" fill="#09161c"/>
      <path id="Path_1494" data-name="Path 1494" d="M158.122,442.8s-7.739-7.508-11.633-4.053-3.184,9.159.18,11.272,13.747.35,11.453-7.219" transform="translate(17.129 -11.872)" fill="#f0ec1e"/>
      <path id="Path_1495" data-name="Path 1495" d="M143.442,442.728a8.643,8.643,0,0,1,2.695-4.409c4.447-3.944,12.475,3.751,12.815,4.079l.161.157.066.216a6.2,6.2,0,0,1-2.1,7.162c-3.128,2.388-8.291,2.522-10.646,1.044a7.237,7.237,0,0,1-3.2-5.577,8.294,8.294,0,0,1,.211-2.67m14.136.76c-2.129-2-7.662-6.2-10.288-3.871a6.77,6.77,0,0,0-2.328,5.639,5.5,5.5,0,0,0,2.394,4.247c1.832,1.15,6.19.937,8.666-.953a4.4,4.4,0,0,0,1.555-5.063" transform="translate(16.903 -12.096)" fill="#09161c"/>
      <path id="Path_1496" data-name="Path 1496" d="M159.6,398.117s-8.375-.022-8.637,5.6,3.251,9.53,6.262,8.643S165,402.285,159.6,398.117" transform="translate(19.615 -25.778)" fill="#f0ec1e"/>
      <path id="Path_1497" data-name="Path 1497" d="M150.483,402.761c1.021-4.165,6.412-5.294,9.344-5.286h.294l.234.181c2.3,1.777,3.229,4.6,2.6,7.935-.67,3.61-3.085,7.191-5.263,7.832a4.471,4.471,0,0,1-4.071-.945c-2.2-1.729-3.47-5.014-3.305-8.573a5.984,5.984,0,0,1,.163-1.143m9.044-3.54c-1.4.063-7.277.566-7.471,4.764-.138,2.961.9,5.758,2.641,7.125a2.792,2.792,0,0,0,2.507.647c1.195-.351,3.428-3.12,4.046-6.486a6.144,6.144,0,0,0-1.723-6.05" transform="translate(19.39 -26.003)" fill="#09161c"/>
      <path id="Path_1498" data-name="Path 1498" d="M125.119,378.2s8.839-4.158,14.672,1.885c3.428,3.552.63,8.38-2.772,10.544a14.56,14.56,0,0,1-11.576,1.6c-1.63-.56-3.545-2.951-3.6-4.469-.154-4.2-1.323-7.471,3.278-9.564" transform="translate(9.339 -33.238)" fill="#f0ec1e"/>
      <path id="Path_1499" data-name="Path 1499" d="M121.171,381.753c.393-1.6,1.415-3.024,3.809-4.115a18.08,18.08,0,0,1,5.429-1.4,12.069,12.069,0,0,1,10.23,3.471,6.061,6.061,0,0,1,1.762,5.06,10.093,10.093,0,0,1-4.69,6.821,15.306,15.306,0,0,1-12.325,1.692c-1.966-.676-4.118-3.378-4.187-5.259-.026-.663-.076-1.3-.124-1.917a14.06,14.06,0,0,1,.1-4.353m19.393,3.421a4.966,4.966,0,0,0,.111-.61,4.325,4.325,0,0,0-1.285-3.649c-5.34-5.531-13.593-1.74-13.675-1.7l-.011,0c-3.308,1.5-3.152,3.481-2.9,6.752.051.639.1,1.3.128,1.99a5.557,5.557,0,0,0,3.016,3.679,13.649,13.649,0,0,0,10.825-1.515,8.779,8.779,0,0,0,3.788-4.949" transform="translate(9.114 -33.464)" fill="#09161c"/>
      <path id="Path_1500" data-name="Path 1500" d="M87.811,440.965s8.839-4.158,14.672,1.885c3.428,3.552.631,8.38-2.772,10.544A14.56,14.56,0,0,1,88.135,455c-1.63-.56-3.545-2.951-3.6-4.469-.154-4.2-1.322-7.471,3.278-9.564" transform="translate(-3.723 -11.265)" fill="#f0ec1e"/>
      <path id="Path_1501" data-name="Path 1501" d="M83.864,444.516c.393-1.6,1.415-3.026,3.807-4.115A18.082,18.082,0,0,1,93.1,439a12.071,12.071,0,0,1,10.231,3.47,6.064,6.064,0,0,1,1.762,5.059,10.057,10.057,0,0,1-4.692,6.822,15.305,15.305,0,0,1-12.325,1.692c-1.966-.675-4.118-3.378-4.187-5.257-.024-.663-.074-1.3-.123-1.916a14.026,14.026,0,0,1,.1-4.354m19.393,3.42a5.246,5.246,0,0,0,.112-.61,4.327,4.327,0,0,0-1.287-3.648c-5.338-5.531-13.593-1.74-13.677-1.7l-.009,0c-3.308,1.5-3.151,3.481-2.9,6.753.05.639.1,1.3.127,1.989a5.556,5.556,0,0,0,3.016,3.678,13.657,13.657,0,0,0,10.826-1.513,8.785,8.785,0,0,0,3.787-4.951" transform="translate(-3.948 -11.49)" fill="#09161c"/>
      <path id="Path_1502" data-name="Path 1502" d="M80.171,391.157s-4.412,5.791-.694,7.328,7.374.724,8.9-2-1.473-8.863-8.2-5.329" transform="translate(-5.929 -28.589)" fill="#f0ec1e"/>
      <path id="Path_1503" data-name="Path 1503" d="M77.518,395.181a13.45,13.45,0,0,1,2.189-4.324l.117-.153.17-.089c4.628-2.432,7.292-.473,8.223.483a5.41,5.41,0,0,1,1.139,6.038c-1.74,3.115-5.846,4.092-9.985,2.379a3.093,3.093,0,0,1-1.906-2.072,4.566,4.566,0,0,1,.053-2.261m3.456-3.117c-.938,1.287-2.182,3.629-1.831,4.927a1.343,1.343,0,0,0,.892.919c3.3,1.365,6.509.7,7.8-1.621a3.646,3.646,0,0,0-.868-3.977c-1.381-1.418-3.506-1.5-6-.247" transform="translate(-6.154 -28.815)" fill="#09161c"/>
      <path id="Path_1504" data-name="Path 1504" d="M186.241,310.235s-.182,7.277,3.732,6.345,6.4-3.734,6.038-6.833-6.387-6.318-9.769.487" transform="translate(31.971 -57.955)" fill="#f0ec1e"/>
      <path id="Path_1505" data-name="Path 1505" d="M186.36,315.224a13.428,13.428,0,0,1-.761-4.786l.005-.193.086-.171c2.325-4.682,5.633-4.655,6.946-4.427a5.413,5.413,0,0,1,4.462,4.224c.414,3.544-2.34,6.742-6.7,7.778a3.087,3.087,0,0,1-2.758-.562,4.549,4.549,0,0,1-1.283-1.863m.973-4.551c-.007,1.593.359,4.219,1.4,5.066a1.339,1.339,0,0,0,1.261.221c3.474-.826,5.684-3.247,5.375-5.886a3.646,3.646,0,0,0-3.034-2.715c-1.95-.34-3.722.836-5.006,3.315" transform="translate(31.745 -58.18)" fill="#09161c"/>
      <path id="Path_1506" data-name="Path 1506" d="M146.935,382.624s-3.324,4.828.211,6.529,6.745,1.28,7.808-1.038-2.344-8.094-8.018-5.491" transform="translate(17.714 -31.433)" fill="#f0ec1e"/>
      <path id="Path_1507" data-name="Path 1507" d="M145.053,385.422a10.226,10.226,0,0,1,1.392-3.065l.135-.2.217-.1a6.39,6.39,0,0,1,7.542,1.1c1.63,1.628,2.338,4.006,1.63,5.538a4.252,4.252,0,0,1-2.49,2.247,8.573,8.573,0,0,1-6.486-.788,3.549,3.549,0,0,1-1.987-2.3,4.941,4.941,0,0,1,.047-2.436m2.693-1.882c-.5.81-1.4,2.617-1.061,3.875a1.813,1.813,0,0,0,1.063,1.18,7,7,0,0,0,5.141.72,2.511,2.511,0,0,0,1.5-1.337c.354-.768-.081-2.387-1.279-3.586a4.6,4.6,0,0,0-5.364-.852" transform="translate(17.488 -31.659)" fill="#09161c"/>
      <path id="Path_1508" data-name="Path 1508" d="M55.486,397.5s-3.324,4.828.211,6.529,6.745,1.28,7.808-1.038-2.344-8.094-8.018-5.491" transform="translate(-14.303 -26.227)" fill="#f0ec1e"/>
      <path id="Path_1509" data-name="Path 1509" d="M53.605,400.293A10.226,10.226,0,0,1,55,397.228l.135-.2.219-.1a6.388,6.388,0,0,1,7.54,1.1c1.63,1.628,2.338,4.006,1.63,5.538a4.248,4.248,0,0,1-2.49,2.247,8.573,8.573,0,0,1-6.486-.788,3.549,3.549,0,0,1-1.987-2.3,4.941,4.941,0,0,1,.047-2.436m2.693-1.882c-.5.81-1.4,2.617-1.061,3.875a1.816,1.816,0,0,0,1.063,1.18,7,7,0,0,0,5.143.72,2.512,2.512,0,0,0,1.5-1.337c.354-.768-.081-2.387-1.279-3.586a4.6,4.6,0,0,0-5.364-.852" transform="translate(-14.528 -26.453)" fill="#09161c"/>
      <path id="Path_1510" data-name="Path 1510" d="M128.729,398.431s-3.324,4.828.211,6.529,6.745,1.28,7.808-1.038-2.344-8.094-8.018-5.491" transform="translate(11.34 -25.899)" fill="#f0ec1e"/>
      <path id="Path_1511" data-name="Path 1511" d="M126.847,401.23a10.226,10.226,0,0,1,1.392-3.065l.135-.2.219-.1a6.388,6.388,0,0,1,7.54,1.1c1.63,1.63,2.326,4.011,1.63,5.538a4.248,4.248,0,0,1-2.49,2.247,8.572,8.572,0,0,1-6.486-.788,3.545,3.545,0,0,1-1.987-2.3,4.941,4.941,0,0,1,.047-2.436m2.693-1.882c-.5.809-1.4,2.614-1.061,3.875a1.817,1.817,0,0,0,1.063,1.18,7,7,0,0,0,5.141.72,2.511,2.511,0,0,0,1.5-1.337c.352-.76-.081-2.386-1.279-3.585a4.594,4.594,0,0,0-5.364-.853" transform="translate(11.114 -26.125)" fill="#09161c"/>
      <path id="Path_1512" data-name="Path 1512" d="M112.459,423.539s-3.324,4.828.211,6.529,6.745,1.28,7.808-1.038-2.344-8.094-8.018-5.491" transform="translate(5.644 -17.109)" fill="#f0ec1e"/>
      <path id="Path_1513" data-name="Path 1513" d="M110.577,426.336a10.231,10.231,0,0,1,1.392-3.063l.135-.2.219-.1a6.388,6.388,0,0,1,7.54,1.1c1.63,1.63,2.325,4.014,1.63,5.538a4.244,4.244,0,0,1-2.49,2.247,8.568,8.568,0,0,1-6.485-.789,3.547,3.547,0,0,1-1.989-2.3,4.946,4.946,0,0,1,.047-2.437m2.693-1.881c-.5.81-1.4,2.615-1.061,3.875a1.816,1.816,0,0,0,1.063,1.18,7,7,0,0,0,5.141.72,2.5,2.5,0,0,0,1.5-1.335c.354-.759-.081-2.386-1.279-3.586a4.594,4.594,0,0,0-5.364-.853" transform="translate(5.418 -17.334)" fill="#09161c"/>
      <path id="Path_1514" data-name="Path 1514" d="M145.066,363.038s-7.739-7.508-11.633-4.053-3.184,9.159.18,11.272,13.747.35,11.453-7.219" transform="translate(12.558 -39.797)" fill="#f0ec1e"/>
      <path id="Path_1515" data-name="Path 1515" d="M130.385,362.967a8.649,8.649,0,0,1,2.7-4.409c4.447-3.945,12.475,3.751,12.815,4.079l.161.157.066.216a6.2,6.2,0,0,1-2.1,7.162c-3.128,2.388-8.291,2.522-10.646,1.044a7.242,7.242,0,0,1-3.2-5.577,8.332,8.332,0,0,1,.211-2.671m14.137.76c-2.13-2-7.662-6.2-10.288-3.871a6.764,6.764,0,0,0-2.326,5.638,5.488,5.488,0,0,0,2.392,4.249c1.832,1.15,6.19.937,8.666-.953a4.4,4.4,0,0,0,1.555-5.063" transform="translate(12.332 -40.021)" fill="#09161c"/>
      <path id="Path_1516" data-name="Path 1516" d="M190.939,279.91a6.975,6.975,0,0,1,4.6-3.352,3.579,3.579,0,0,1,3.271.764,8.6,8.6,0,0,1,2.78,8.4c-.473,2.608-1.829,4.725-3.382,5.269a4.039,4.039,0,0,1-3.412-.328c-1.944-1.1-3.479-3.787-4.21-7.361a5.246,5.246,0,0,1,.351-3.4m8.256,7.647a8.342,8.342,0,0,0,.686-2.139,7.049,7.049,0,0,0-2.18-6.76,1.849,1.849,0,0,0-1.674-.432c-2.027.591-4.318,1.894-3.736,4.732.62,3.038,1.879,5.355,3.366,6.2a2.306,2.306,0,0,0,1.979.2,3.479,3.479,0,0,0,1.559-1.8" transform="translate(33.447 -68.381)" fill="#09161c"/>
      <path id="Path_1517" data-name="Path 1517" d="M143.336,331.768s.721,3.6,1.6,7.112c1.154,4.616,5.672,5.021,7.247,2.534s-1.732-10.844-8.847-9.647" transform="translate(16.95 -49.048)" fill="#f0ec1e"/>
      <path id="Path_1518" data-name="Path 1518" d="M142.574,331.284l.884-.149a8.349,8.349,0,0,1,8.587,3.873c1.643,2.473,2.139,5.521,1.138,7.094a4.272,4.272,0,0,1-4.327,1.856c-2.176-.348-3.857-2.086-4.5-4.643-.875-3.5-1.6-7.116-1.609-7.152Zm9.206,9.773c.458-.946.113-3.139-1.181-5.087a6.712,6.712,0,0,0-5.954-3.22c.274,1.295.8,3.749,1.4,6.144a4.086,4.086,0,0,0,3.086,3.35,2.509,2.509,0,0,0,2.583-1.071c.023-.036.045-.074.066-.116" transform="translate(16.683 -49.273)" fill="#09161c"/>
      <path id="Path_1519" data-name="Path 1519" d="M189.714,364.106a4.979,4.979,0,0,0-2.026,5.346c1.154,4.616,5.672,5.021,7.247,2.534s.784-7.351-5.221-7.881" transform="translate(32.42 -37.685)" fill="#f0ec1e"/>
      <path id="Path_1520" data-name="Path 1520" d="M187.451,365.942a5.886,5.886,0,0,1,2.024-2.34l.248-.157.29.026c2.922.257,5.094,1.538,6.116,3.6a5.852,5.852,0,0,1-.236,5.606,4.273,4.273,0,0,1-4.328,1.856c-2.175-.35-3.856-2.086-4.5-4.644a5.7,5.7,0,0,1,.382-3.952m2.731-.706a4.428,4.428,0,0,0,1.659,7.588,2.51,2.51,0,0,0,2.583-1.071,4.125,4.125,0,0,0,.148-3.907c-.506-1.023-1.678-2.287-4.391-2.61" transform="translate(32.195 -37.916)" fill="#09161c"/>
      <path id="Path_1521" data-name="Path 1521" d="M160.558,366.868s-3.366-10.8-7.9-8.237-5.035,8.287-2.19,11.059,10.743,5.06,10.089-2.822" transform="translate(18.829 -39.74)" fill="#f0ec1e"/>
      <path id="Path_1522" data-name="Path 1522" d="M148.893,361.846a8.642,8.642,0,0,1,3.563-3.747,3.558,3.558,0,0,1,3.154-.244c3.552,1.407,5.762,8.209,6,8.98l.036.186c.311,3.737-1.195,5.261-2.514,5.884-2.909,1.372-7.123-.493-9.048-2.368a7.236,7.236,0,0,1-1.959-6.125,8.323,8.323,0,0,1,.766-2.565m11.032,5.414c-.622-1.944-2.633-6.871-4.955-7.79a1.811,1.811,0,0,0-1.659.142,6.758,6.758,0,0,0-3.46,5.024,5.5,5.5,0,0,0,1.449,4.657c1.724,1.68,5.2,2.936,7.095,2.041,1.176-.555,1.692-1.924,1.531-4.073" transform="translate(18.603 -39.965)" fill="#09161c"/>
    </g>
  </g>
  <g id="Group_108" data-name="Group 108">
    <g id="Group_107" data-name="Group 107" clip-path="url(#clip-path)">
      <path id="Path_1524" data-name="Path 1524" d="M77.92,404.118H84.2a3.934,3.934,0,0,1,4.018,3.849,2.756,2.756,0,0,1-.609,2.059,2.7,2.7,0,0,1,.609,1.648v.927c0,1.728-1.924,3.315-4.018,3.315H77.92Zm5.769,4.242a.5.5,0,0,0,.514-.455.517.517,0,0,0-.533-.471H81.937v.926ZM83.67,412.6a.505.505,0,0,0,.533-.456.524.524,0,0,0-.514-.471H81.937v.927Z" transform="translate(27.28 141.484)" fill="#09161c"/>
      <rect id="Rectangle_72" data-name="Rectangle 72" width="4.018" height="10.998" transform="translate(117.042 546.404)" fill="#09161c"/>
      <path id="Path_1525" data-name="Path 1525" d="M102.239,407.791H98.526v7.918H94.508v-7.918H90.8v-3.08h11.444Z" transform="translate(31.788 141.692)" fill="#09161c"/>
      <path id="Path_1526" data-name="Path 1526" d="M110.7,404.712v7.9c0,1.619-1.943,3.1-4.018,3.1h-2.265c-2.076,0-4.018-1.477-4.018-3.1v-7.9h4.018v7.447a.484.484,0,0,0,.533.455h1.2a.484.484,0,0,0,.533-.455v-7.447Z" transform="translate(35.15 141.692)" fill="#09161c"/>
      <path id="Path_1527" data-name="Path 1527" d="M109.156,404.712h4.018l2.247,4.131v-4.131h4.018v11H115.42l-2.247-3.535v3.535h-4.018Z" transform="translate(38.216 141.692)" fill="#09161c"/>
      <rect id="Rectangle_73" data-name="Rectangle 73" width="4.018" height="10.998" transform="translate(159.195 546.404)" fill="#09161c"/>
      <path id="Path_1528" data-name="Path 1528" d="M161.524,172.016l2.745,8.1,6.162-4.331a12.274,12.274,0,0,0-8.907-3.77" transform="translate(56.551 60.223)"/>
    </g>
  </g>
</svg>
