<svg id="Group_116" data-name="Group 116" xmlns="http://www.w3.org/2000/svg" xmlns:xlink="http://www.w3.org/1999/xlink" width="282.264" height="483.064" viewBox="0 0 282.264 483.064">
  <defs>
    <clipPath id="clip-path">
      <rect id="Rectangle_75" data-name="Rectangle 75" width="282.263" height="483.064" fill="none"/>
    </clipPath>
    <clipPath id="clip-path-2">
      <path id="Path_1691" data-name="Path 1691" d="M105.9,158.66c-14.162,13.968-32.782,30.865-51.035,35.189-29.174,6.909,53.344,54.161,64.552,67.1,10.349,11.945-1.914,36.062-1.914,36.062s18.465-17.82,18.8-29.549c.13-4.542-2.928-9.675-7.825-14.717a63.439,63.439,0,0,0-6.887-5.615c-10.982-8.515-24.576-18.467-33.469-26.448-6.435-5.775-10.707-10.622-9.264-14.147,2.829-6.92,81.608-41.408,65.713-62.747l-18.669-5.15s-8.935,9.113-20,20.027M84.47,112.709a213.457,213.457,0,0,1,35.069-13.636c-5.474,10.2-17.5,18.37-31.767,28.057-4.824-4.729-9.678-11.328-3.3-14.421m15-43.72C82.944,96.531,79.787,104.428,73.406,114c-3.516,5.274,10.1,12.645,17.477,15-24.719,16.943-62.806,41.237-76.941,85.828C8.908,230.71,40.111,273.232,80,295.89s-14.521,90.472-14.521,90.472c49.786-24.572,55.489-55.132,48.508-75.951C95.8,256.158,22.62,258.857,36.759,213.4c4.111-13.218,13.06-28.9,25.8-43.21,8.91-10.008,19.385-19.786,32.6-25.723,29.988-13.474,45.291-43.705,47.336-49.876a88.535,88.535,0,0,1,26.625,1.073c-.454.146-.716.261-.716.261-4.943,20.8-.072,36.674,7.74,49.569-3.115.058-5.517,4.672-7.156,2.584,0,0-.117,14.476.943,27.188.879,10.552,7.794,20.306,7.884,24.091.754,31.534-24.339,82.842-32.869,88.4-11.235,7.318-29.361,31.595-16.6,51.382s38.614,48.508,50.423,56.484c0,0-51.841-69.3-30-86.483,19.467-15.319,42.444-73.081,43.721-79.782.641-3.37,11.1-29.844-15.269-82.455-1.328-2.65.723-1.436,2.767-.22,2.08,1.236,4.154,2.474,2.647-.369,10.169,14.912,19.715,28.98,24.055,39.162,5.34,12.528,3.411,40.914,1.356,59.561-1.209,10.968-4.387,16.872,2.2,32.773,8.923,21.537,28.089,58.4,10.324,100.9-25.211,60.315-109.251,70.7-144.087,42.923C5.645,365.141,93.725,327.165,84.47,327.8s-31.913,20.424-31.913,20.424c-55.847,95.42,80.421,99.888,80.421,99.888,94.143-8.3,130.869-76.115,106.27-139.141-13.936-35.706-12.892-57.337-10.3-68.329a102.439,102.439,0,0,0,1.8-38.435c-2.5-16.953-8.47-36.722-22.455-46.1a49.184,49.184,0,0,1-10.6-9.635c8.169.22,27.223-1.22,32.3-18.767,2.229-7.7-6.958-19.786-9.574-33.509-5.5-28.837-29.8-69.649-43.242-76.489a38.077,38.077,0,0,0-17.412-4.456c-29.765,0-50.6,39.574-60.3,55.734" transform="translate(-13.407 -13.255)" fill="none"/>
    </clipPath>
  </defs>
  <g id="Group_111" data-name="Group 111">
    <g id="Group_110" data-name="Group 110" clip-path="url(#clip-path)">
      <path id="Path_1529" data-name="Path 1529" d="M71.919,83.3s77.234-54.137,127.108,2.991-107.958,50.7-132.549,15.6C56.213,87.236,71.919,83.3,71.919,83.3" transform="translate(19.938 19.022)" fill="#f62a20"/>
      <path id="Path_1530" data-name="Path 1530" d="M70.876,99.753s76.662,18.507,107.638,13.96L180.8,119.1s-70.8,1.477-114-16.455Z" transform="translate(21.139 31.572)" fill="#f79410"/>
      <path id="Path_1531" data-name="Path 1531" d="M60.13,290.358l112.809-1.966,1.993,38.544S61.391,321.25,62.014,322.474s-1.884-32.116-1.884-32.116" transform="translate(19.031 91.276)" fill="#7ecb9e"/>
      <path id="Path_1532" data-name="Path 1532" d="M117.56,107.978s-39.353,45.4-70.947,54.976c-28.69,8.694,53.614,55.848,64.465,67.336s-1.916,36.063-1.916,36.063,25.851-22.021,21.383-32.872-67.336-47.869-60.315-57.124,81.894-41.89,66-63.229Z" transform="translate(12.842 34.175)" fill="#f79410"/>
      <path id="Path_1533" data-name="Path 1533" d="M104.169,165.4c34.786-23.646,22.708-83.7,8.135-101.058-3.8-4.531-12.262-7.03-20.847-8.4C79.385,54.013,66.792,86.62,66.792,91.492c0,47.489-1.077,122.709-1.077,122.709l18.852-.823c.116-7.565-1.532-39.037-1.335-39.294s10.148.387,10.148.387l11.588,37.466,23.089,1.44ZM85.141,148.735S83.66,90.417,83.557,79.8l12.8.951s1.435,21.8.827,37.811a216.147,216.147,0,0,1-3.809,30.573s-8.19.063-8.239-.4" transform="translate(20.799 17.68)" fill="#fff"/>
      <path id="Path_1534" data-name="Path 1534" d="M115.975,54.023l40.21,2.873-2.871,40.347-34.634-3.177s-3.057-35.287-2.7-40.043" transform="translate(36.697 17.098)" fill="#7ecb9e"/>
      <path id="Path_1535" data-name="Path 1535" d="M84.256,129.033s-30.19-16.825,1.177-34.6c88.911-50.393,110.44,24.285,112.661,29.291,4.957,11.165-10.662,13.462-17.33,17.7-1.294.823-.446,3.955-1.019,4.795,0,0,29.542,4.01,36.061-18.51,2.229-7.7-6.643-19.85-9.574-33.509-6.743-31.42-29.8-69.649-43.242-76.487C123.9-2.177,96.77,49.84,85.281,68.989,68.755,96.531,65.322,105.128,58.939,114.7c-5.725,8.588,19.252,15.607,25.316,14.33" transform="translate(18.386 4.196)" fill="#f79410"/>
      <path id="Path_1536" data-name="Path 1536" d="M121.18,63c-.881-6.664-13.347-11.644-18.076-13l.878-3.069c.775.222,19.027,5.554,20.361,15.651Z" transform="translate(32.632 14.853)"/>
      <path id="Path_1537" data-name="Path 1537" d="M131.568,63.456l-3.02-1.035c3.3-9.614,21.822-11.542,22.608-11.619l.312,3.177c-4.795.474-17.716,3.1-19.9,9.477" transform="translate(40.685 16.079)"/>
      <path id="Path_1538" data-name="Path 1538" d="M149.588,62.108s-11.521,46.2-54.462,67.444c-31.55,15.612-51.413,46.472-58.4,68.932-14.142,45.463,59.037,42.764,77.227,97.017,6.981,20.819,1.277,51.379-48.506,75.953,0,0,54.411-67.815,14.52-90.474S8.874,215.8,13.908,199.921c24.732-78.026,116.153-92.52,117.41-125.9.425-11.294-.965-9.725.829-11.294,5.632-4.926,17.44-.617,17.44-.617" transform="translate(4.233 19.105)" fill="#f79410"/>
      <path id="Path_1539" data-name="Path 1539" d="M188.373,72.016s-14.933,47.924,13.7,67.54c13.892,9.516,19.954,29.146,22.455,46.1a102.437,102.437,0,0,1-1.8,38.435c-2.588,10.993-3.632,32.624,10.3,68.329,24.6,63.026-12.128,130.844-106.27,139.141,0,0-136.268-4.467-80.421-99.887,0,0,10.053-17.712,31.913-20.425,9.206-1.141-78.825,37.339-7.978,93.825,34.836,27.774,118.876,17.392,144.087-42.923,17.765-42.5-1.4-79.364-10.324-100.9-6.59-15.9-3.41-21.805-2.2-32.774,2.054-18.646,3.982-47.032-1.357-59.56-8.3-19.467-39.546-54.976-28.061-103.29,0,0,10.073-1.181,15.953,6.39" transform="translate(10.414 20.749)" fill="#f79410"/>
      <path id="Path_1540" data-name="Path 1540" d="M129.783,111.649s21.211,47.942,21.418,56.562c.753,31.534-24.341,82.842-32.87,88.4C107.1,263.928,88.97,288.2,101.736,307.99s38.614,48.508,50.422,56.486c0,0-51.84-69.3-30-86.485,19.467-15.318,42.444-73.08,43.721-79.782.775-4.075,11.727-29.488-16.555-85.072,0,0-17.553-.639-19.543-1.488" transform="translate(30.814 35.337)" fill="#f79410"/>
      <path id="Path_1541" data-name="Path 1541" d="M132.616,62.834s-.309,7.438-5.121,9.549c0,0,1.38-8.7.357-10-.449-.571,4.764.449,4.764.449" transform="translate(40.352 19.69)" fill="#fff"/>
      <path id="Path_1542" data-name="Path 1542" d="M115.51,61.843s.034,6.981,5.939,9.093c0,0-2.073-8.574-.161-9.129s-5.778.036-5.778.036" transform="translate(36.559 19.487)" fill="#fff"/>
      <path id="Path_1543" data-name="Path 1543" d="M118.241,100.06s8.967-1.03,35.331-2.4l2.285,17.075s-18.422.35-20.418.794c0,0,.329,22.159,1.334,33.073,0,0,9.957.312,13.019.075,0,0,.764,16.147.083,17.513-.34.685-12.9,1.392-12.9,1.392l.271,11.256,16.876.724-2.834,20.593-31.45-1.44s-2.152-80.126-1.594-98.65" transform="translate(37.394 30.908)" fill="#fff"/>
      <path id="Path_1544" data-name="Path 1544" d="M126.111,200.653l1.159-14.975-27.737.835s3.951,90.532,5.083,123.378c0,0,20.19.858,23.451,1.169,0,0,.3-.993-.562-17.67,0,0-2.322-.166-7.432-.674l-.411-13.655,5.367-.616c.3-2.274.255-17.229-.274-17.229-2.414,0-6.435.367-6.435.367-.357.424-1.04-60.566-1.04-60.566Z" transform="translate(31.502 58.767)" fill="#fff"/>
      <path id="Path_1545" data-name="Path 1545" d="M124.694,185.626s9.383.486,20.248,0c0,0-2.07,51.6-3.332,105.183,0,0,12.413.9,12.162.662s.92,19.047.92,19.047c.387.777-28.636-.319-28.636-.319s-1.352-118.706-1.361-124.574" transform="translate(39.465 58.75)" fill="#fff"/>
      <path id="Path_1546" data-name="Path 1546" d="M97.731,279.5c17.742-7.155,7.777-72.347,5.637-82.385a14.155,14.155,0,0,0-14.017-11.54l-24.324-.2C65.294,201.138,66.28,310.6,66.28,310.6s37.254.342,37.62-.233c12.732-20.042-6.169-30.865-6.169-30.865M83.147,198.975c0-.025.009-.026.016,0h-.016c-.154,1.152,3.582,54.411,3.582,61.348l-6.65-.154s-1.79-55.938-2.561-61.025Zm7.388,101.848s-9.337.348-9.994-.488c0,0-.321-3.444-1.288-18.964,0,0,3.373-.474,4.8.9a21.879,21.879,0,0,1,6.422,12.39,32.759,32.759,0,0,1,.062,6.166" transform="translate(20.581 58.669)" fill="#fff"/>
      <path id="Path_1547" data-name="Path 1547" d="M139.5,159.7s-3.406,25.223-6.006,31.065,19.1-7.879,19.1-7.879l.319-21.383s-8.323-8.714-13.415-1.8" transform="translate(42.182 49.702)" fill="#f79410"/>
      <path id="Path_1548" data-name="Path 1548" d="M64.745,165.489s14.306,13.5,16.458,15.216-17,.122-17,.122Z" transform="translate(20.321 52.377)" fill="#f79410"/>
      <path id="Path_1549" data-name="Path 1549" d="M103.815,194.14s19.778,15.961,2.067,33.7-19.015,13.181-19.015,13.181" transform="translate(27.493 61.445)" fill="#f79410"/>
      <path id="Path_1550" data-name="Path 1550" d="M64.991,252.764s.436-.107,1.128-.213c2.142-.329,6.762-.886,8.692-.162,1.609.6-7.982,1.292-9.576,2.879s-.244-2.5-.244-2.5" transform="translate(20.401 79.769)" fill="#f79410"/>
    </g>
  </g>
  <g id="Group_113" data-name="Group 113" transform="translate(17.651 17.45)">
    <g id="Group_112" data-name="Group 112" clip-path="url(#clip-path-2)">
      <path id="Path_1551" data-name="Path 1551" d="M70.459,353.056s-9.672-3.981-8.232-14.043c.848-5.916,4.714-11.827,10.56-3.716,2.684,3.724,8.668,1.663,9.947,5.612a8.627,8.627,0,0,1-1.546,6.837c-3.637,3.688-5.76,7.445-10.729,5.311" transform="translate(1.998 87.416)" fill="#f0ec1e"/>
      <path id="Path_1552" data-name="Path 1552" d="M73.351,354.727a7.61,7.61,0,0,1-3.023-.689c-.4-.17-10.228-4.512-8.735-14.941.506-3.53,2.11-7.562,5.1-8.3,2.225-.55,4.579.866,6.985,4.2,1.1,1.527,2.877,1.922,4.759,2.338,2.105.467,4.491,1,5.305,3.508a9.337,9.337,0,0,1-1.748,7.694c-.578.585-1.115,1.172-1.632,1.735-2.084,2.272-4.081,4.447-7.012,4.447m-5.736-22.344a2.191,2.191,0,0,0-.517.062c-1.761.433-3.3,3.2-3.827,6.892-1.332,9.3,7.624,13.1,7.715,13.14l.012.005c3.619,1.551,5.408-.4,8.116-3.347.532-.579,1.083-1.181,1.676-1.781a7.8,7.8,0,0,0,1.343-5.98c-.49-1.515-1.863-1.891-4.061-2.379-2.01-.445-4.289-.95-5.768-3-1.713-2.378-3.32-3.612-4.688-3.612" transform="translate(1.794 87.211)" fill="#09161c"/>
      <path id="Path_1553" data-name="Path 1553" d="M119.323,346.871s2.636-5.987-.983-8.6-6.673-2.405-7.425.527,3.233,10.885,8.408,8.074" transform="translate(17.425 89.034)" fill="#f0ec1e"/>
      <path id="Path_1554" data-name="Path 1554" d="M117.344,348.508a5.484,5.484,0,0,1-3.391-1.251c-2.734-2.13-4.21-6.3-3.656-8.469a3.692,3.692,0,0,1,2.325-2.754c1.715-.62,3.992,0,6.417,1.752,4.129,2.981,1.382,9.358,1.264,9.629l-.117.265-.254.14a5.411,5.411,0,0,1-2.587.689M114.012,337.5a2.4,2.4,0,0,0-.814.132,2.081,2.081,0,0,0-1.26,1.581c-.363,1.422.785,4.945,3.056,6.714a3.515,3.515,0,0,0,3.864.54c.423-1.119,1.813-5.407-.811-7.3a7.518,7.518,0,0,0-4.035-1.665" transform="translate(17.221 88.83)" fill="#09161c"/>
      <path id="Path_1555" data-name="Path 1555" d="M153.649,326.045s-5.362-2.325-7.095,2.25-1.169,8.125,1.388,8.632,8.726-5.178,5.707-10.882" transform="translate(28.418 85.555)" fill="#f0ec1e"/>
      <path id="Path_1556" data-name="Path 1556" d="M148.476,338.008a2.616,2.616,0,0,1-.494-.046,3.469,3.469,0,0,1-2.412-1.779c-.993-1.79-.849-4.7.395-7.986a4.951,4.951,0,0,1,2.713-2.965,7.86,7.86,0,0,1,5.511.238l.274.118.138.262a8.04,8.04,0,0,1-.931,8.81c-1.5,2.018-3.6,3.347-5.195,3.347m2.439-11.5a4.038,4.038,0,0,0-1.584.294,3.275,3.275,0,0,0-1.781,2c-1.052,2.777-1.238,5.23-.5,6.563a1.769,1.769,0,0,0,1.259.939c.724.147,2.563-.719,4-2.65a6.572,6.572,0,0,0,.932-6.726,7.453,7.453,0,0,0-2.328-.42" transform="translate(28.215 85.352)" fill="#09161c"/>
      <path id="Path_1557" data-name="Path 1557" d="M33.832,316.944s-1.655-3.644,4.965-4.766c3.892-.66,7.5,1.007,8.628,2.492,1.085,1.424.623,3.2-1.206,4.211a10.414,10.414,0,0,1-4.734.585c-3.723-.56-6.855-.636-7.653-2.522" transform="translate(-7.001 81.307)" fill="#f0ec1e"/>
      <path id="Path_1558" data-name="Path 1558" d="M42.673,320.577a7.664,7.664,0,0,1-1.111-.07c-.594-.09-1.172-.167-1.727-.241-3.193-.424-5.715-.76-6.576-2.78a3.562,3.562,0,0,1,.157-2.978c.79-1.488,2.621-2.484,5.441-2.962,3.986-.677,8.011.933,9.445,2.815a3.405,3.405,0,0,1,.683,2.787,4.1,4.1,0,0,1-2.15,2.678,10.426,10.426,0,0,1-4.161.752m-7.858-3.76c.481,1.136,2.687,1.431,5.242,1.771.565.075,1.153.154,1.758.244a9.8,9.8,0,0,0,4.2-.487,2.448,2.448,0,0,0,1.315-1.544,1.717,1.717,0,0,0-.371-1.413c-.965-1.264-4.3-2.766-7.815-2.171-2.809.475-3.843,1.385-4.215,2.063a1.852,1.852,0,0,0-.113,1.527l-.777.341Z" transform="translate(-7.205 81.104)" fill="#09161c"/>
      <path id="Path_1559" data-name="Path 1559" d="M97.8,322.754s-2.624-10.073,7.87-13.172c6.169-1.822,11.883,2.784,13.678,6.889,1.721,3.935.986,8.828-1.912,11.639-1.361,1.32-5.373,2.176-7.5,1.617-5.9-1.55-10.868-1.76-12.133-6.974" transform="translate(13.209 80.402)" fill="#f0ec1e"/>
      <path id="Path_1560" data-name="Path 1560" d="M111.736,330.955a7.24,7.24,0,0,1-1.823-.207c-.94-.246-1.856-.459-2.738-.664-4.73-1.1-8.818-2.046-10-6.929-.108-.445-2.516-10.944,8.453-14.184,6.627-1.958,12.8,3.016,14.695,7.362,1.876,4.293,1,9.587-2.1,12.588-1.235,1.2-4.114,2.033-6.486,2.033m-3.06-20.731a9.093,9.093,0,0,0-2.571.373c-9.562,2.824-7.387,11.768-7.291,12.147l0,.013c.939,3.868,4.21,4.626,8.739,5.678.9.208,1.829.424,2.786.675,1.856.484,5.549-.288,6.7-1.4,2.6-2.526,3.328-7.023,1.725-10.693-1.4-3.2-5.428-6.789-10.091-6.789" transform="translate(13.01 80.2)" fill="#09161c"/>
      <path id="Path_1561" data-name="Path 1561" d="M45.836,297.279s1.261-10.829,12.278-8.323c6.477,1.473,10.146,8.757,10.316,13.545.161,4.591-2.339,8.814-6.106,9.961-1.769.538-5.86-.729-7.657-2.357-4.979-4.506-9.571-7.27-8.831-12.827" transform="translate(-3.169 73.885)" fill="#f0ec1e"/>
      <path id="Path_1562" data-name="Path 1562" d="M61.523,313.636a12.425,12.425,0,0,1-7.22-2.7c-.8-.717-1.578-1.392-2.332-2.039-4-3.437-7.451-6.4-6.772-11.521.036-.3.671-5.124,4.419-7.775,2.337-1.652,5.325-2.079,8.886-1.269,7.2,1.639,10.8,9.527,10.974,14.343.178,5.022-2.642,9.564-6.706,10.8a4.369,4.369,0,0,1-1.251.158m-6.322-24a7.787,7.787,0,0,0-4.593,1.345c-3.169,2.234-3.722,6.561-3.727,6.6v.012c-.561,4.21,2.274,6.646,6.2,10.019.764.657,1.559,1.34,2.363,2.07,1.7,1.538,5.471,2.591,6.842,2.174,3.34-1.016,5.656-4.853,5.506-9.121-.157-4.459-3.6-11.372-9.657-12.75a13.279,13.279,0,0,0-2.929-.353" transform="translate(-3.372 73.681)" fill="#09161c"/>
      <path id="Path_1563" data-name="Path 1563" d="M148.964,312.837s1.672,5.924,6.352,5.134,7.188-3.949,5.85-5.924-9.862-3.752-12.2.79" transform="translate(29.496 80.659)" fill="#f0ec1e"/>
      <path id="Path_1564" data-name="Path 1564" d="M154.7,319.094c-3.682,0-5.736-3.7-6.335-5.824l-.091-.32.154-.3c1.006-1.954,3.116-3.123,5.943-3.291,3.164-.18,6.7.916,7.715,2.414a3.072,3.072,0,0,1,.207,3.017c-.868,2.03-3.466,3.685-6.619,4.218a5.853,5.853,0,0,1-.973.083m-4.6-5.958c.4,1.139,1.95,4.775,5.291,4.2,2.954-.5,4.812-1.973,5.342-3.214a1.4,1.4,0,0,0-.053-1.4c-.536-.791-3.383-1.843-6.211-1.672-1.471.088-3.382.527-4.369,2.083" transform="translate(29.278 80.456)" fill="#09161c"/>
      <path id="Path_1565" data-name="Path 1565" d="M34.229,245.558s1.923,7.937,7.311,6.879,8.273-5.291,6.734-7.937-11.351-5.026-14.044,1.058" transform="translate(-6.817 59.059)" fill="#f0ec1e"/>
      <path id="Path_1566" data-name="Path 1566" d="M40.8,253.584c-4.183,0-6.5-4.845-7.176-7.624l-.068-.279.117-.262c1.148-2.6,3.6-4.126,6.912-4.308,3.574-.2,7.525,1.253,8.639,3.166a4.361,4.361,0,0,1,.049,4.075c-1.126,2.488-3.943,4.45-7.351,5.12a5.781,5.781,0,0,1-1.12.112m-5.453-7.745c.384,1.309,2.225,6.76,6.247,5.97,2.836-.557,5.245-2.189,6.135-4.155a2.722,2.722,0,0,0,.029-2.525c-.61-1.049-3.749-2.522-7.08-2.326a5.99,5.99,0,0,0-5.33,3.036" transform="translate(-7.032 58.855)" fill="#09161c"/>
      <path id="Path_1567" data-name="Path 1567" d="M23.2,285.71s-5.99-7.405-1.621-14.331c2.568-4.073,7.79-2.543,10.629.176a14.2,14.2,0,0,1,4.206,10.591c-.153,1.672-1.972,4.043-3.4,4.447-3.944,1.123-6.769,2.988-9.818-.883" transform="translate(-11.326 67.65)" fill="#f0ec1e"/>
      <path id="Path_1568" data-name="Path 1568" d="M27.521,289.091c-1.61,0-3.193-.639-4.78-2.651a17.609,17.609,0,0,1-2.587-4.817,11.768,11.768,0,0,1,.912-10.494,5.914,5.914,0,0,1,4.384-2.844A9.841,9.841,0,0,1,33,271.146a14.917,14.917,0,0,1,4.464,11.278c-.184,2.02-2.245,4.684-4.009,5.187-.623.176-1.216.373-1.786.561a13.622,13.622,0,0,1-4.146.919m-1.261-19.16a4.788,4.788,0,0,0-.6.037,4.213,4.213,0,0,0-3.157,2.064c-4,6.34,1.507,13.278,1.563,13.347l.007.009c2.193,2.783,4.028,2.177,7.067,1.176.592-.2,1.209-.4,1.855-.582a5.421,5.421,0,0,0,2.784-3.711,13.3,13.3,0,0,0-3.947-9.9,8.56,8.56,0,0,0-5.567-2.44" transform="translate(-11.529 67.447)" fill="#09161c"/>
      <path id="Path_1569" data-name="Path 1569" d="M85.6,301.787s-5.99-7.405-1.621-14.331c2.568-4.073,7.79-2.543,10.629.176a14.2,14.2,0,0,1,4.206,10.591c-.153,1.672-1.972,4.043-3.4,4.447-3.944,1.123-6.769,2.988-9.818-.883" transform="translate(8.424 72.738)" fill="#f0ec1e"/>
      <path id="Path_1570" data-name="Path 1570" d="M89.923,305.17c-1.61,0-3.194-.638-4.78-2.65a17.611,17.611,0,0,1-2.587-4.818,11.766,11.766,0,0,1,.911-10.5,5.919,5.919,0,0,1,4.383-2.842,9.809,9.809,0,0,1,7.55,2.859,14.925,14.925,0,0,1,4.463,11.28c-.183,2.018-2.243,4.684-4.007,5.186-.621.178-1.215.374-1.785.561a13.65,13.65,0,0,1-4.147.92m-1.263-19.16a5.042,5.042,0,0,0-.6.036,4.218,4.218,0,0,0-3.157,2.066c-4,6.339,1.507,13.278,1.564,13.347l.007.009c2.192,2.783,4.028,2.176,7.068,1.174.592-.195,1.209-.4,1.854-.582a5.417,5.417,0,0,0,2.783-3.71,13.306,13.306,0,0,0-3.947-9.9,8.562,8.562,0,0,0-5.567-2.438" transform="translate(8.221 72.535)" fill="#09161c"/>
      <path id="Path_1571" data-name="Path 1571" d="M17.245,297.674s6.507,2.834,7.1-1.044-1.027-7.151-3.959-7.961-8.053,3.453-3.144,9" transform="translate(-12.838 73.882)" fill="#f0ec1e"/>
      <path id="Path_1572" data-name="Path 1572" d="M21.713,299.722a13.124,13.124,0,0,1-4.6-1.069l-.171-.075-.125-.141c-3.377-3.819-2.138-6.8-1.451-7.9a5.276,5.276,0,0,1,5.454-2.482c3.353.926,5.233,4.587,4.571,8.9a3.013,3.013,0,0,1-1.521,2.285,4.443,4.443,0,0,1-2.154.477m-3.755-2.55c1.438.59,3.943,1.223,5.091.59a1.307,1.307,0,0,0,.664-1.058c.528-3.441-.849-6.326-3.347-7.016a3.559,3.559,0,0,0-3.566,1.746c-1.022,1.636-.61,3.669,1.159,5.739" transform="translate(-13.042 73.679)" fill="#09161c"/>
      <path id="Path_1573" data-name="Path 1573" d="M21.017,334.118s6.507,2.834,7.1-1.044-1.027-7.151-3.959-7.961-8.053,3.453-3.144,9" transform="translate(-11.645 85.416)" fill="#f0ec1e"/>
      <path id="Path_1574" data-name="Path 1574" d="M25.487,336.166a13.133,13.133,0,0,1-4.605-1.068l-.171-.075-.125-.141c-3.377-3.819-2.139-6.8-1.451-7.9A5.275,5.275,0,0,1,24.59,324.5c3.353.926,5.233,4.588,4.571,8.906a3.009,3.009,0,0,1-1.519,2.285,4.464,4.464,0,0,1-2.154.475m-3.756-2.549c1.438.59,3.944,1.226,5.092.589a1.3,1.3,0,0,0,.662-1.057c.528-3.441-.849-6.327-3.347-7.016a3.558,3.558,0,0,0-3.566,1.746c-1.022,1.636-.61,3.669,1.159,5.739" transform="translate(-11.848 85.213)" fill="#09161c"/>
      <path id="Path_1575" data-name="Path 1575" d="M55.372,331.025s3.685-2.48,2.029-4.363-2.912-2.478-4.423-.8-2.174,6.371,2.395,5.162" transform="translate(-1.241 85.373)" fill="#f0ec1e"/>
      <path id="Path_1576" data-name="Path 1576" d="M54.242,332.27a2.817,2.817,0,0,1-2.575-1.3c-.964-1.577-.307-4.152.885-5.475a3.18,3.18,0,0,1,2.4-1.265c1.3.008,2.395,1.052,3.294,2.073a2.432,2.432,0,0,1,.617,1.964c-.244,1.883-2.547,3.483-2.809,3.66l-.118.08-.138.036a6.072,6.072,0,0,1-1.551.222m.692-6.342a1.709,1.709,0,0,0-1.123.7c-.739.82-1.215,2.612-.7,3.458.374.613,1.324.542,2.106.354.75-.534,1.856-1.584,1.96-2.392a.753.753,0,0,0-.211-.628c-.885-1-1.548-1.494-2.03-1.5Z" transform="translate(-1.445 85.169)" fill="#09161c"/>
      <path id="Path_1577" data-name="Path 1577" d="M88.131,337.3s3.944,2.343,4.369-.437.14-4.41-1.963-4.991-5.926,1.448-2.407,5.428" transform="translate(9.79 87.555)" fill="#f0ec1e"/>
      <path id="Path_1578" data-name="Path 1578" d="M91.143,339.27a7.237,7.237,0,0,1-3.241-1.043l-.2-.167c-2.249-2.541-1.7-4.33-1.181-5.171a4.223,4.223,0,0,1,4.446-1.634c2.941.811,2.975,3.332,2.575,5.936a2.271,2.271,0,0,1-1.26,1.844,2.638,2.638,0,0,1-1.137.234m-2.263-2.434c.8.445,2.117.935,2.678.667.066-.032.238-.113.309-.569.457-2.979-.1-3.7-1.352-4.046a2.532,2.532,0,0,0-2.558.9c-.61.978.274,2.291.923,3.049" transform="translate(9.586 87.352)" fill="#09161c"/>
      <path id="Path_1579" data-name="Path 1579" d="M21.925,260.987s5.344,2.026,6.135-1.715-.354-6.684-2.8-7.154-7.121,4.1-3.339,8.869" transform="translate(-11.162 62.334)" fill="#f0ec1e"/>
      <path id="Path_1580" data-name="Path 1580" d="M25.057,262.589a9.942,9.942,0,0,1-3.225-.607l-.219-.083-.145-.183a6.231,6.231,0,0,1-.706-7.4c1.164-1.922,3.252-3.145,4.867-2.829a4.145,4.145,0,0,1,2.705,1.835,8.355,8.355,0,0,1,.76,6.326,3.454,3.454,0,0,1-1.721,2.417,4.819,4.819,0,0,1-2.317.521m-2.408-2.114c.885.288,2.8.716,3.915.105a1.773,1.773,0,0,0,.873-1.28,6.828,6.828,0,0,0-.513-5.037,2.451,2.451,0,0,0-1.613-1.11c-.811-.157-2.242.631-3.1,2.043a4.481,4.481,0,0,0,.437,5.278" transform="translate(-11.367 62.13)" fill="#09161c"/>
      <path id="Path_1581" data-name="Path 1581" d="M41.612,274.906s5.344,2.026,6.135-1.715-.354-6.684-2.8-7.154-7.121,4.1-3.339,8.869" transform="translate(-4.931 66.74)" fill="#f0ec1e"/>
      <path id="Path_1582" data-name="Path 1582" d="M44.744,276.508a9.942,9.942,0,0,1-3.225-.607l-.219-.083-.145-.183a6.231,6.231,0,0,1-.706-7.4c1.165-1.921,3.26-3.133,4.867-2.828a4.145,4.145,0,0,1,2.705,1.835,8.355,8.355,0,0,1,.76,6.326,3.452,3.452,0,0,1-1.721,2.417,4.823,4.823,0,0,1-2.317.521m-2.408-2.114c.883.29,2.8.716,3.915.105a1.773,1.773,0,0,0,.873-1.28,6.822,6.822,0,0,0-.513-5.037A2.451,2.451,0,0,0,45,267.072c-.8-.157-2.242.629-3.1,2.043a4.479,4.479,0,0,0,.437,5.278" transform="translate(-5.136 66.536)" fill="#09161c"/>
      <path id="Path_1583" data-name="Path 1583" d="M69.872,290.864s5.344,2.026,6.134-1.715-.353-6.684-2.8-7.154-7.12,4.1-3.337,8.869" transform="translate(4.013 71.79)" fill="#f0ec1e"/>
      <path id="Path_1584" data-name="Path 1584" d="M73,292.466a9.961,9.961,0,0,1-3.225-.607l-.217-.083-.145-.183a6.229,6.229,0,0,1-.7-7.4c1.165-1.921,3.261-3.132,4.867-2.828a4.142,4.142,0,0,1,2.705,1.837,8.355,8.355,0,0,1,.758,6.323,3.454,3.454,0,0,1-1.721,2.418,4.824,4.824,0,0,1-2.318.521m-2.407-2.114c.885.29,2.8.718,3.915.105a1.773,1.773,0,0,0,.873-1.28,6.829,6.829,0,0,0-.512-5.037,2.447,2.447,0,0,0-1.614-1.11c-.8-.159-2.241.629-3.1,2.043a4.481,4.481,0,0,0,.437,5.278" transform="translate(3.808 71.587)" fill="#09161c"/>
      <path id="Path_1585" data-name="Path 1585" d="M172.113,327.837s1.261-10.828,12.278-8.323c6.477,1.473,10.146,8.757,10.316,13.547.161,4.591-2.339,8.813-6.106,9.959-1.769.538-5.86-.729-7.657-2.357-4.979-4.505-9.571-7.27-8.831-12.827" transform="translate(36.797 83.556)" fill="#f0ec1e"/>
      <path id="Path_1586" data-name="Path 1586" d="M187.8,344.195a12.429,12.429,0,0,1-7.221-2.7c-.794-.718-1.577-1.393-2.332-2.041-4-3.436-7.45-6.4-6.772-11.519.037-.3.671-5.125,4.421-7.777,2.334-1.65,5.323-2.077,8.885-1.268,7.2,1.638,10.806,9.526,10.974,14.342.178,5.022-2.642,9.564-6.7,10.8a4.32,4.32,0,0,1-1.251.159m-6.323-24.005a7.781,7.781,0,0,0-4.592,1.347c-3.169,2.233-3.723,6.561-3.727,6.6l0,.012c-.56,4.21,2.274,6.646,6.2,10.017.764.657,1.559,1.34,2.364,2.07,1.7,1.539,5.47,2.595,6.842,2.175,3.34-1.018,5.656-4.854,5.506-9.122-.158-4.459-3.6-11.371-9.658-12.749a13.277,13.277,0,0,0-2.929-.354" transform="translate(36.594 83.353)" fill="#09161c"/>
      <path id="Path_1587" data-name="Path 1587" d="M193.18,247.481s-5.315,9.072-1.139,11.958,9.414.889,10.633-2.787-2.859-13.1-9.495-9.171" transform="translate(42.623 60.579)" fill="#f0ec1e"/>
      <path id="Path_1588" data-name="Path 1588" d="M196.564,261.869a8.426,8.426,0,0,1-4.8-1.531c-4.768-3.294.657-12.684.889-13.083l.111-.188.19-.112a6.043,6.043,0,0,1,7.271.328c2.988,2.409,4.313,7.267,3.46,9.84a7.056,7.056,0,0,1-4.539,4.326,8.12,8.12,0,0,1-2.578.421M194,248.3c-1.4,2.483-4.092,8.7-1.277,10.641a6.6,6.6,0,0,0,5.879.9,5.353,5.353,0,0,0,3.468-3.252c.665-2-.55-6.081-2.915-7.987a4.291,4.291,0,0,0-5.155-.3" transform="translate(42.422 60.377)" fill="#09161c"/>
      <path id="Path_1589" data-name="Path 1589" d="M175.349,265.7s-1.655-3.644,4.965-4.766c3.892-.66,7.5,1.007,8.628,2.492,1.085,1.424.623,3.2-1.206,4.211a10.414,10.414,0,0,1-4.734.585c-3.723-.56-6.855-.636-7.653-2.522" transform="translate(37.788 65.089)" fill="#f0ec1e"/>
      <path id="Path_1590" data-name="Path 1590" d="M184.191,269.336a7.669,7.669,0,0,1-1.111-.07c-.594-.09-1.172-.167-1.727-.241-3.193-.424-5.715-.76-6.576-2.78a3.562,3.562,0,0,1,.157-2.978c.79-1.488,2.621-2.484,5.441-2.962,3.986-.677,8.011.933,9.445,2.815a3.405,3.405,0,0,1,.683,2.787,4.1,4.1,0,0,1-2.15,2.678,10.425,10.425,0,0,1-4.161.752m-7.858-3.76c.481,1.136,2.687,1.431,5.242,1.771.565.075,1.153.154,1.758.244a9.8,9.8,0,0,0,4.2-.487,2.448,2.448,0,0,0,1.315-1.544,1.717,1.717,0,0,0-.371-1.413c-.965-1.264-4.3-2.766-7.815-2.171-2.809.477-3.843,1.385-4.215,2.063a1.852,1.852,0,0,0-.113,1.527l-.777.341Z" transform="translate(37.585 64.886)" fill="#09161c"/>
      <path id="Path_1591" data-name="Path 1591" d="M188.857,243.706s1.261-10.829,12.278-8.323c6.477,1.473,10.146,8.757,10.316,13.545.161,4.591-2.339,8.814-6.106,9.961-1.769.538-5.86-.729-7.657-2.357-4.979-4.506-9.571-7.27-8.831-12.827" transform="translate(42.097 56.929)" fill="#f0ec1e"/>
      <path id="Path_1592" data-name="Path 1592" d="M204.544,260.064a12.425,12.425,0,0,1-7.22-2.7c-.8-.717-1.578-1.392-2.332-2.039-4-3.437-7.451-6.4-6.772-11.521.036-.3.671-5.124,4.419-7.775,2.337-1.652,5.325-2.079,8.886-1.269,7.2,1.639,10.8,9.527,10.974,14.343.178,5.022-2.642,9.564-6.706,10.8a4.368,4.368,0,0,1-1.251.158m-6.322-24a7.787,7.787,0,0,0-4.593,1.345c-3.169,2.234-3.722,6.561-3.727,6.6v.012c-.561,4.21,2.274,6.646,6.2,10.019.764.657,1.559,1.34,2.363,2.068,1.7,1.539,5.471,2.592,6.842,2.175,3.34-1.016,5.656-4.853,5.506-9.121-.157-4.459-3.6-11.372-9.656-12.75a13.281,13.281,0,0,0-2.929-.353" transform="translate(41.893 56.725)" fill="#09161c"/>
      <path id="Path_1593" data-name="Path 1593" d="M177.25,191.986s1.923,7.937,7.311,6.879,8.273-5.291,6.734-7.937-11.351-5.026-14.044,1.058" transform="translate(38.448 42.104)" fill="#f0ec1e"/>
      <path id="Path_1594" data-name="Path 1594" d="M183.818,200.012c-4.183,0-6.5-4.845-7.176-7.624l-.068-.279.117-.262c1.148-2.6,3.6-4.126,6.912-4.308,3.574-.2,7.525,1.253,8.639,3.166a4.361,4.361,0,0,1,.049,4.075c-1.126,2.488-3.943,4.45-7.351,5.12a5.781,5.781,0,0,1-1.12.112m-5.453-7.745c.384,1.309,2.225,6.76,6.247,5.97,2.836-.557,5.245-2.189,6.135-4.155a2.722,2.722,0,0,0,.029-2.525c-.61-1.049-3.749-2.522-7.08-2.326a5.99,5.99,0,0,0-5.331,3.036" transform="translate(38.234 41.9)" fill="#09161c"/>
      <path id="Path_1595" data-name="Path 1595" d="M115.1,244.255s-1.833-11.895,6.289-15.419c4.776-2.073,9.084,3.42,10.388,8.276,1.251,4.656.6,10.411-1.681,13.686-1.07,1.54-4.169,2.5-5.8,1.814-4.509-1.9-8.322-2.2-9.2-8.357" transform="translate(18.722 54.834)" fill="#f0ec1e"/>
      <path id="Path_1596" data-name="Path 1596" d="M125.711,253.887a4.123,4.123,0,0,1-1.534-.291c-.714-.3-1.41-.56-2.079-.808-3.661-1.367-6.822-2.545-7.63-8.206-.088-.586-1.8-12.59,6.79-16.321a6.06,6.06,0,0,1,5.182.137c3.194,1.539,5.5,5.478,6.363,8.7,1.345,5.011.6,10.928-1.8,14.391a6.806,6.806,0,0,1-5.287,2.4m-1.955-24.449a4.4,4.4,0,0,0-1.823.378c-7.436,3.228-5.807,14.4-5.789,14.512v.011c.666,4.668,3.006,5.541,6.547,6.862.689.258,1.406.525,2.142.835,1.264.533,3.942-.319,4.774-1.517,2.11-3.033,2.766-8.493,1.559-12.983-.9-3.368-3.15-6.5-5.461-7.611a4.612,4.612,0,0,0-1.948-.486" transform="translate(18.516 54.631)" fill="#09161c"/>
      <path id="Path_1597" data-name="Path 1597" d="M166.221,232.137s-5.99-7.405-1.621-14.331c2.568-4.073,7.79-2.543,10.629.176a14.19,14.19,0,0,1,4.206,10.591c-.153,1.672-1.972,4.043-3.4,4.447-3.944,1.123-6.769,2.988-9.818-.883" transform="translate(33.94 50.694)" fill="#f0ec1e"/>
      <path id="Path_1598" data-name="Path 1598" d="M170.542,235.52c-1.61,0-3.193-.639-4.78-2.651a17.608,17.608,0,0,1-2.587-4.817,11.768,11.768,0,0,1,.912-10.494,5.914,5.914,0,0,1,4.384-2.844,9.841,9.841,0,0,1,7.547,2.861,14.917,14.917,0,0,1,4.464,11.278c-.184,2.02-2.245,4.684-4.009,5.187-.623.176-1.216.373-1.786.561a13.623,13.623,0,0,1-4.146.919m-1.261-19.16a4.794,4.794,0,0,0-.6.037,4.213,4.213,0,0,0-3.157,2.064c-4,6.34,1.507,13.278,1.563,13.347l.007.009c2.193,2.783,4.028,2.177,7.067,1.176.592-.2,1.209-.4,1.855-.582A5.421,5.421,0,0,0,178.8,228.7a13.3,13.3,0,0,0-3.947-9.9,8.56,8.56,0,0,0-5.567-2.439" transform="translate(33.737 50.491)" fill="#09161c"/>
      <path id="Path_1599" data-name="Path 1599" d="M160.265,244.1s6.507,2.836,7.1-1.044-1.027-7.15-3.959-7.96-8.053,3.453-3.144,9" transform="translate(32.427 56.926)" fill="#f0ec1e"/>
      <path id="Path_1600" data-name="Path 1600" d="M164.734,246.15a13.124,13.124,0,0,1-4.6-1.069l-.171-.075-.125-.141c-3.377-3.819-2.139-6.8-1.451-7.9a5.276,5.276,0,0,1,5.454-2.482c3.353.926,5.233,4.587,4.57,8.9a3.008,3.008,0,0,1-1.519,2.285,4.447,4.447,0,0,1-2.154.477m-3.755-2.55c1.438.59,3.943,1.223,5.091.59a1.307,1.307,0,0,0,.664-1.058c.527-3.441-.849-6.326-3.347-7.016a3.559,3.559,0,0,0-3.566,1.746c-1.022,1.636-.61,3.669,1.159,5.739" transform="translate(32.224 56.723)" fill="#09161c"/>
      <path id="Path_1601" data-name="Path 1601" d="M164.038,280.546s6.507,2.834,7.1-1.044-1.027-7.151-3.959-7.961-8.053,3.453-3.144,9" transform="translate(33.621 68.461)" fill="#f0ec1e"/>
      <path id="Path_1602" data-name="Path 1602" d="M168.508,282.593a13.134,13.134,0,0,1-4.605-1.068l-.171-.075-.125-.141c-3.377-3.819-2.139-6.8-1.451-7.9a5.275,5.275,0,0,1,5.454-2.483c3.353.925,5.233,4.588,4.571,8.906a3.009,3.009,0,0,1-1.519,2.285,4.465,4.465,0,0,1-2.154.475m-3.756-2.549c1.438.59,3.944,1.226,5.092.589a1.3,1.3,0,0,0,.662-1.057c.527-3.441-.849-6.327-3.347-7.016a3.558,3.558,0,0,0-3.566,1.746c-1.022,1.636-.61,3.669,1.159,5.739" transform="translate(33.418 68.257)" fill="#09161c"/>
      <path id="Path_1603" data-name="Path 1603" d="M187.2,289.587s3.685-2.479,2.029-4.362-2.912-2.479-4.423-.8-2.174,6.372,2.395,5.162" transform="translate(40.481 72.258)" fill="#f0ec1e"/>
      <path id="Path_1604" data-name="Path 1604" d="M186.066,290.832a2.817,2.817,0,0,1-2.575-1.3c-.964-1.577-.307-4.152.885-5.475a3.181,3.181,0,0,1,2.4-1.265c1.3.008,2.395,1.052,3.294,2.073a2.432,2.432,0,0,1,.617,1.964c-.244,1.883-2.547,3.483-2.809,3.66l-.118.08-.138.036a6.07,6.07,0,0,1-1.551.222m.692-6.342a1.708,1.708,0,0,0-1.123.7c-.739.82-1.215,2.612-.7,3.458.374.613,1.324.542,2.106.354.75-.534,1.856-1.584,1.96-2.392a.749.749,0,0,0-.211-.628c-.885-1-1.548-1.494-2.03-1.5Z" transform="translate(40.277 72.054)" fill="#09161c"/>
      <path id="Path_1605" data-name="Path 1605" d="M164.946,207.414s5.344,2.026,6.135-1.715-.354-6.684-2.8-7.154-7.121,4.1-3.339,8.869" transform="translate(34.103 45.378)" fill="#f0ec1e"/>
      <path id="Path_1606" data-name="Path 1606" d="M168.078,209.017a9.963,9.963,0,0,1-3.227-.607l-.217-.083-.145-.183a6.231,6.231,0,0,1-.706-7.4c1.164-1.922,3.252-3.145,4.867-2.829a4.145,4.145,0,0,1,2.705,1.835,8.355,8.355,0,0,1,.76,6.326,3.455,3.455,0,0,1-1.721,2.417,4.819,4.819,0,0,1-2.317.521M165.67,206.9c.885.288,2.8.716,3.915.105a1.773,1.773,0,0,0,.873-1.28,6.828,6.828,0,0,0-.513-5.037,2.451,2.451,0,0,0-1.613-1.11c-.811-.157-2.242.631-3.1,2.043a4.481,4.481,0,0,0,.437,5.278" transform="translate(33.899 45.175)" fill="#09161c"/>
      <path id="Path_1607" data-name="Path 1607" d="M184.633,221.334s5.344,2.026,6.135-1.715-.354-6.684-2.8-7.154-7.121,4.1-3.339,8.869" transform="translate(40.334 49.784)" fill="#f0ec1e"/>
      <path id="Path_1608" data-name="Path 1608" d="M187.765,222.936a9.943,9.943,0,0,1-3.225-.607l-.219-.083-.145-.183a6.231,6.231,0,0,1-.706-7.4c1.165-1.921,3.26-3.133,4.867-2.828a4.145,4.145,0,0,1,2.705,1.835A8.355,8.355,0,0,1,191.8,220a3.452,3.452,0,0,1-1.721,2.417,4.823,4.823,0,0,1-2.317.521m-2.408-2.114c.883.29,2.8.716,3.915.105a1.773,1.773,0,0,0,.873-1.28,6.828,6.828,0,0,0-.513-5.037,2.451,2.451,0,0,0-1.613-1.11c-.8-.157-2.242.629-3.1,2.043a4.479,4.479,0,0,0,.437,5.278" transform="translate(40.13 49.581)" fill="#09161c"/>
      <path id="Path_1609" data-name="Path 1609" d="M146.395,215.483s-5.315,9.072-1.139,11.958,9.414.889,10.633-2.787-2.859-13.1-9.495-9.171" transform="translate(27.816 50.452)" fill="#f0ec1e"/>
      <path id="Path_1610" data-name="Path 1610" d="M149.779,229.871a8.426,8.426,0,0,1-4.8-1.531c-4.768-3.294.657-12.684.889-13.083l.111-.188.19-.112a6.043,6.043,0,0,1,7.271.328c2.988,2.409,4.313,7.267,3.46,9.839a7.056,7.056,0,0,1-4.539,4.326,8.121,8.121,0,0,1-2.578.421m-2.562-13.565c-1.4,2.483-4.092,8.7-1.277,10.641a6.6,6.6,0,0,0,5.879.9,5.353,5.353,0,0,0,3.468-3.252c.665-2-.55-6.081-2.915-7.987a4.291,4.291,0,0,0-5.155-.3" transform="translate(27.615 50.25)" fill="#09161c"/>
      <path id="Path_1611" data-name="Path 1611" d="M170.13,306.435s6.8,1.922,8.664-4.14.166-11.111-2.541-10.828-9.285,9.206-6.123,14.969" transform="translate(35.929 74.795)" fill="#f0ec1e"/>
      <path id="Path_1612" data-name="Path 1612" d="M172.68,307.8a9.687,9.687,0,0,1-2.579-.344l-.341-.095-.171-.312c-1.484-2.7-1.191-6.436.8-10.244,1.473-2.812,4-5.769,5.977-5.976a3.065,3.065,0,0,1,2.723,1.226c1.744,2.122,2.033,6.422.715,10.7a6.954,6.954,0,0,1-7.125,5.047m-1.771-1.892c1.314.272,5.885.864,7.276-3.655,1.328-4.313.721-7.752-.4-9.122a1.409,1.409,0,0,0-1.239-.616c-.879.092-3.075,2.068-4.65,5.076-.789,1.5-2.413,5.252-.983,8.316" transform="translate(35.727 74.591)" fill="#09161c"/>
      <path id="Path_1613" data-name="Path 1613" d="M122.76,22s-1.07,5.8-12.355,5.255c-6.635-.319-9.8-1.761-10.8-6.447-.961-4.491.762-9.088,4.269-10.874,1.648-.841,5.9-.307,7.952.981C117.512,14.48,122.516,16.4,122.76,22" transform="translate(13.789 -14.435)" fill="#f0ec1e"/>
      <path id="Path_1614" data-name="Path 1614" d="M104.894,9a12.429,12.429,0,0,1,7.58,1.4c.908.569,1.8,1.1,2.655,1.6,4.537,2.686,8.456,5,8.68,10.163l-.013.19c-.05.267-1.345,6.514-13.229,5.949-6.28-.3-10.408-1.6-11.59-7.116-1.053-4.913.929-9.879,4.713-11.809a4.4,4.4,0,0,1,1.2-.375m17.217,13.118c-.238-4.16-3.435-6.052-7.845-8.663-.868-.513-1.771-1.047-2.691-1.625-1.942-1.216-5.84-1.6-7.117-.944-3.111,1.585-4.72,5.766-3.826,9.942.858,4,3.385,5.46,10.015,5.777,9.692.466,11.274-3.806,11.464-4.488" transform="translate(13.586 -14.639)" fill="#09161c"/>
      <path id="Path_1615" data-name="Path 1615" d="M92.5,65.1s.165,10.953-9.472,10.37c-5.666-.342-8.248-9.029-9.139-12.881-.854-3.693.585-7.438,3.565-8.86,1.4-.667,5.03-.178,6.794.9,4.882,2.994,8,5.874,8.252,10.467" transform="translate(5.659 -0.54)" fill="#f0ec1e"/>
      <path id="Path_1616" data-name="Path 1616" d="M78.252,52.885A11.344,11.344,0,0,1,84.9,54.12c5,3.065,8.383,6.132,8.655,11.144V65.3c0,.23.046,5.685-3.357,8.935a8.941,8.941,0,0,1-7.013,2.293c-5.986-.362-8.78-8.636-9.913-13.536-.953-4.119.74-8.247,4.026-9.814a3.757,3.757,0,0,1,.956-.29M91.859,65.337c-.24-4.279-3.181-6.91-7.848-9.771-1.614-.99-4.943-1.361-5.987-.861-2.574,1.227-3.88,4.551-3.1,7.9.827,3.574,3.3,11.92,8.365,12.226a7.31,7.31,0,0,0,5.74-1.826c2.8-2.673,2.833-7.379,2.833-7.671" transform="translate(5.455 -0.744)" fill="#09161c"/>
      <path id="Path_1617" data-name="Path 1617" d="M90.808,41.616s4.592-11.124,13.365-9.934c5.158.7,9.983,4.818,2.145,11.791-3.6,3.2-2.424,9.884-6.069,11.506-1.713.764-4.861-.021-5.9-1.449-2.875-3.956-5.978-6.193-3.541-11.913" transform="translate(10.811 -7.451)" fill="#f0ec1e"/>
      <path id="Path_1618" data-name="Path 1618" d="M95.032,55.273a4.134,4.134,0,0,1-1.162-1.044c-.454-.625-.915-1.207-1.359-1.767-2.424-3.063-4.518-5.71-2.279-10.972.224-.54,4.974-11.7,14.26-10.445,2.729.37,5.948,1.761,6.8,4.558.544,1.781.255,4.737-4.2,8.7-1.539,1.368-2.125,3.551-2.691,5.662-.654,2.447-1.334,4.978-3.6,5.986a6.811,6.811,0,0,1-5.768-.683m12.8-21.342a9.04,9.04,0,0,0-3.562-1.207C96.249,31.637,91.84,42.037,91.8,42.143l0,.008c-1.847,4.338-.3,6.3,2.048,9.26.455.577.931,1.177,1.4,1.822.8,1.111,3.537,1.769,4.871,1.176,1.525-.679,2.046-2.624,2.65-4.876s1.281-4.784,3.2-6.49c3-2.669,4.283-5.069,3.711-6.943a4.082,4.082,0,0,0-1.844-2.167" transform="translate(10.606 -7.656)" fill="#09161c"/>
      <path id="Path_1619" data-name="Path 1619" d="M148.556,21.857s7.138-6.318,16.356,2.679c5.42,5.29,4.961,12.55,2.5,15.827-2.355,3.142-7.074,4.268-11.321,2.517-1.995-.824-5.232-4.387-6.069-6.66-2.318-6.3-5.223-11.182-1.469-14.363" transform="translate(28.795 -11.215)" fill="#f0ec1e"/>
      <path id="Path_1620" data-name="Path 1620" d="M146.506,23.709a5.8,5.8,0,0,1,1.706-2.3c.374-.316,8.017-6.531,17.495,2.72a14.5,14.5,0,0,1,4.459,9.2A11.518,11.518,0,0,1,168.3,41.07c-2.613,3.485-7.794,4.658-12.32,2.791-2.2-.906-5.621-4.649-6.543-7.151-.37-1-.754-1.972-1.124-2.9-1.535-3.86-2.908-7.314-1.8-10.1m21.325,14.722a12.369,12.369,0,0,0-3.307-13.091c-8.512-8.308-14.936-2.883-15.2-2.649l-.012.011c-2.558,2.167-1.506,5.238.577,10.478.374.945.765,1.926,1.14,2.945.752,2.042,3.839,5.444,5.6,6.169,3.822,1.577,8.162.635,10.319-2.241a7.037,7.037,0,0,0,.889-1.622" transform="translate(28.591 -11.413)" fill="#09161c"/>
      <path id="Path_1621" data-name="Path 1621" d="M176.283,59.891s8.855-1.108,10.047,11.6c.7,7.47-3.959,13.189-7.666,14.479-3.553,1.236-4.284.645-6.263-3.236-.931-1.823-.445-7.475.316-9.83,2.106-6.518-1.006-12.544,3.565-13.01" transform="translate(36.752 1.497)" fill="#f0ec1e"/>
      <path id="Path_1622" data-name="Path 1622" d="M175.985,59.309c.13-.022.266-.042.407-.057a9.147,9.147,0,0,1,6.38,2.009c2.607,2.092,4.156,5.575,4.605,10.352.774,8.256-4.454,14.044-8.232,15.357-4.042,1.407-5.187.486-7.3-3.651-1.1-2.164-.478-8.172.266-10.475a22.153,22.153,0,0,0,.808-7.075c0-3.038,0-5.915,3.063-6.46m.889,26.562a11.947,11.947,0,0,0,1.714-.5c3.4-1.182,7.762-6.564,7.1-13.6-.4-4.3-1.742-7.393-3.977-9.188a7.457,7.457,0,0,0-5.121-1.648l-.02,0c-1.788.186-1.958,1.33-1.955,4.83a23.857,23.857,0,0,1-.891,7.6c-.773,2.393-1.1,7.737-.366,9.185,1.442,2.829,1.977,3.593,3.515,3.32" transform="translate(36.549 1.294)" fill="#09161c"/>
      <path id="Path_1623" data-name="Path 1623" d="M138.343,23.126s-5.682-.839-5.972,3.552,1.266,7.371,3.8,7.243,6.646-6.477,2.171-10.8" transform="translate(24.233 -10.151)" fill="#f0ec1e"/>
      <path id="Path_1624" data-name="Path 1624" d="M135.875,22.555a9.572,9.572,0,0,1,2.794-.062l.27.039.2.188a7.121,7.121,0,0,1,1.726,7.932c-.893,2.38-2.816,4.236-4.443,4.319a3.666,3.666,0,0,1-2.863-1.139c-1.364-1.385-2.029-3.939-1.825-7.006a4.263,4.263,0,0,1,1.559-3.178,5.691,5.691,0,0,1,2.587-1.094m2.283,1.586a5.822,5.822,0,0,0-3.809.829,2.6,2.6,0,0,0-.931,1.967c-.168,2.549.333,4.681,1.343,5.708a1.969,1.969,0,0,0,1.571.635c.839-.034,2.25-1.377,2.942-3.223a5.458,5.458,0,0,0-1.116-5.916" transform="translate(24.03 -10.355)" fill="#09161c"/>
      <path id="Path_1625" data-name="Path 1625" d="M168.475,60.128s-5.682-.839-5.972,3.552,1.266,7.371,3.8,7.243,6.646-6.477,2.171-10.8" transform="translate(33.77 1.56)" fill="#f0ec1e"/>
      <path id="Path_1626" data-name="Path 1626" d="M166.007,59.558a9.545,9.545,0,0,1,2.794-.063l.27.039.2.188a7.121,7.121,0,0,1,1.726,7.932c-.893,2.38-2.824,4.233-4.443,4.319a3.666,3.666,0,0,1-2.863-1.139c-1.364-1.385-2.029-3.939-1.825-7.006a4.256,4.256,0,0,1,1.559-3.177,5.676,5.676,0,0,1,2.587-1.094m2.283,1.585a5.832,5.832,0,0,0-3.809.831,2.6,2.6,0,0,0-.931,1.966c-.169,2.549.333,4.681,1.343,5.708a1.969,1.969,0,0,0,1.571.635c.853-.047,2.25-1.377,2.942-3.223a5.461,5.461,0,0,0-1.116-5.916" transform="translate(33.566 1.357)" fill="#09161c"/>
      <path id="Path_1627" data-name="Path 1627" d="M154.727,44.662s-5.743-.629-6.19,4.3,1.031,8.173,3.61,7.892,6.976-7.6,2.58-12.188" transform="translate(29.336 -3.323)" fill="#f0ec1e"/>
      <path id="Path_1628" data-name="Path 1628" d="M152.694,44.133a9.026,9.026,0,0,1,2.329-.109l.307.034.213.222a8.062,8.062,0,0,1,1.49,8.638c-.985,2.7-2.907,4.784-4.591,4.98a3.339,3.339,0,0,1-2.778-.976c-1.448-1.422-2.091-4.279-1.768-7.837a5.144,5.144,0,0,1,1.839-3.677,6.434,6.434,0,0,1,2.958-1.276m1.843,1.559a5.942,5.942,0,0,0-3.735,1.033,3.473,3.473,0,0,0-1.218,2.513c-.274,3.007.2,5.428,1.268,6.476a1.649,1.649,0,0,0,1.407.5c.736-.072,2.32-1.509,3.181-3.874a6.517,6.517,0,0,0-.9-6.647" transform="translate(29.132 -3.527)" fill="#09161c"/>
      <path id="Path_1629" data-name="Path 1629" d="M127.209,40.23s-5.682-.839-5.972,3.552,1.266,7.371,3.8,7.243,6.646-6.477,2.171-10.8" transform="translate(20.709 -4.738)" fill="#f0ec1e"/>
      <path id="Path_1630" data-name="Path 1630" d="M124.742,39.68a5.236,5.236,0,0,1,2.795-.063,2.9,2.9,0,0,1,.887.667,7.106,7.106,0,0,1,1.3,7.492c-.893,2.38-2.819,4.236-4.443,4.319a3.661,3.661,0,0,1-2.863-1.139c-1.364-1.384-2.029-3.939-1.825-7.006a4.26,4.26,0,0,1,1.559-3.177,5.69,5.69,0,0,1,2.587-1.094m3.809,4.988a3.367,3.367,0,0,0-4.92-2.852,2.857,2.857,0,0,0-.415.279,2.6,2.6,0,0,0-.929,1.967c-.169,2.547.333,4.681,1.342,5.707a1.969,1.969,0,0,0,1.571.635c.837-.037,2.25-1.376,2.944-3.223a6.287,6.287,0,0,0,.408-2.513" transform="translate(20.506 -4.962)" fill="#09161c"/>
      <path id="Path_1631" data-name="Path 1631" d="M72.11,38.4s-6.816-6.68-12.424-.741S52.68,49.327,56.316,51.6,73.137,48.844,72.11,38.4" transform="translate(-0.463 -6.309)" fill="#f0ec1e"/>
      <path id="Path_1632" data-name="Path 1632" d="M63.845,34.673a7.619,7.619,0,0,1,1.181-.115c4.236-.082,7.734,3.3,7.882,3.441l.22.216.03.307c.477,4.854-1.938,9.308-6.627,12.217-3.806,2.36-8.3,3.124-10.46,1.777a4.968,4.968,0,0,1-2.357-3.7c-.407-3.158,1.619-7.362,5.56-11.534a8.239,8.239,0,0,1,4.571-2.609M71.5,39.008c-.777-.679-3.47-2.817-6.447-2.755a6.338,6.338,0,0,0-4.545,2.193c-3.537,3.744-5.448,7.54-5.112,10.154a3.289,3.289,0,0,0,1.575,2.48c1.4.873,5.212.363,8.668-1.78C67.551,48.112,71.9,44.76,71.5,39.008" transform="translate(-0.667 -6.513)" fill="#09161c"/>
      <path id="Path_1633" data-name="Path 1633" d="M108.2,84.338s9.5,4.375,7.649,14.37c-1.089,5.876-5.195,11.623-10.7,3.281-2.529-3.832-8.591-2.017-9.709-6.016A8.621,8.621,0,0,1,97.26,89.2c3.785-3.536,6.059-7.2,10.937-4.867" transform="translate(12.508 9.01)" fill="#f0ec1e"/>
      <path id="Path_1634" data-name="Path 1634" d="M105.774,82.966a7.61,7.61,0,0,1,2.992.811c.391.187,10.036,4.928,8.115,15.287-.649,3.506-2.418,7.468-5.436,8.081-2.245.458-4.539-1.053-6.806-4.488-1.037-1.571-2.8-2.037-4.659-2.53-2.085-.553-4.447-1.178-5.158-3.723a9.34,9.34,0,0,1,2.063-7.616c.6-.56,1.161-1.126,1.7-1.667,2.175-2.184,4.26-4.276,7.187-4.155m4.816,22.56a2.192,2.192,0,0,0,.519-.041c1.779-.361,3.428-3.065,4.107-6.729,1.713-9.239-7.08-13.4-7.17-13.445l-.012-.005c-3.552-1.7-5.42.174-8.247,3.011-.554.557-1.131,1.135-1.747,1.71a7.809,7.809,0,0,0-1.588,5.92c.428,1.534,1.784,1.966,3.96,2.542,1.991.527,4.247,1.126,5.64,3.235,1.614,2.446,3.17,3.745,4.537,3.8" transform="translate(12.304 8.807)" fill="#09161c"/>
      <path id="Path_1635" data-name="Path 1635" d="M53.582,100.434s-2.879,5.874.631,8.634,6.569,2.676,7.44-.221-2.784-11.009-8.07-8.412" transform="translate(-1.044 14.177)" fill="#f0ec1e"/>
      <path id="Path_1636" data-name="Path 1636" d="M56.027,99.293a5.487,5.487,0,0,1,3.337,1.389c2.645,2.241,3.948,6.469,3.3,8.611a3.689,3.689,0,0,1-2.434,2.658c-1.74.55-3.989-.165-6.339-2.014-4-3.146-1-9.408-.869-9.672l.128-.259.259-.128a5.391,5.391,0,0,1,2.613-.585m2.878,11.14a2.4,2.4,0,0,0,.819-.1,2.082,2.082,0,0,0,1.323-1.53c.421-1.4-.581-4.971-2.778-6.831a3.513,3.513,0,0,0-3.839-.7c-.469,1.1-2.033,5.328.512,7.33a7.526,7.526,0,0,0,3.963,1.827" transform="translate(-1.249 13.975)" fill="#09161c"/>
      <path id="Path_1637" data-name="Path 1637" d="M33,214.106s5.262,2.543,7.181-1.956,1.5-8.071-1.033-8.682S30.221,208.282,33,214.106" transform="translate(-7.423 46.932)" fill="#f0ec1e"/>
      <path id="Path_1638" data-name="Path 1638" d="M39.064,202.78a2.477,2.477,0,0,1,.491.067,3.463,3.463,0,0,1,2.337,1.876c.918,1.829.656,4.731-.723,7.962a4.941,4.941,0,0,1-2.832,2.85,7.85,7.85,0,0,1-5.5-.463l-.269-.129-.128-.269a8.038,8.038,0,0,1,1.291-8.763c1.584-1.956,3.734-3.2,5.328-3.132m-2.909,11.4a4.028,4.028,0,0,0,1.594-.229,3.266,3.266,0,0,0,1.862-1.926c1.165-2.73,1.451-5.175.766-6.536a1.767,1.767,0,0,0-1.218-.99c-.719-.178-2.591.613-4.106,2.484a6.574,6.574,0,0,0-1.207,6.683,7.464,7.464,0,0,0,2.309.515" transform="translate(-7.626 46.728)" fill="#09161c"/>
      <path id="Path_1639" data-name="Path 1639" d="M119.612,190.223s2.291,10.55-8.717,13.316c-6.471,1.626-12.2-3.391-13.882-7.721-1.617-4.152-.648-9.193,2.475-11.983,1.468-1.31,5.661-2.026,7.846-1.355,6.052,1.856,11.189,2.285,12.278,7.742" transform="translate(12.809 40.224)" fill="#f0ec1e"/>
      <path id="Path_1640" data-name="Path 1640" d="M105.964,181.594a7.292,7.292,0,0,1,1.821.279c.964.3,1.9.556,2.809.8,4.847,1.336,9.032,2.491,10.049,7.583.092.458,2.139,11.418-9.341,14.3-6.934,1.746-13.1-3.661-14.879-8.235-1.759-4.518-.621-9.953,2.7-12.921,1.307-1.169,4.385-1.914,6.839-1.813M108.2,203.2a9.414,9.414,0,0,0,2.69-.279c10.059-2.528,8.179-11.917,8.094-12.316l0-.013c-.811-4.068-4.179-5-8.838-6.28-.92-.254-1.876-.517-2.857-.819-1.908-.583-5.787.063-7.034,1.178-2.816,2.515-3.763,7.159-2.251,11.043,1.316,3.379,5.353,7.287,10.2,7.486" transform="translate(12.607 40.021)" fill="#09161c"/>
      <path id="Path_1641" data-name="Path 1641" d="M140.574,130.755s1.5,3.709-5.155,4.558c-3.915.5-7.449-1.314-8.519-2.844-1.026-1.468-.491-3.218,1.377-4.159a10.412,10.412,0,0,1,4.754-.39c3.7.712,6.823.918,7.544,2.834" transform="translate(22.35 23)" fill="#f0ec1e"/>
      <path id="Path_1642" data-name="Path 1642" d="M132.286,127.176a7.488,7.488,0,0,1,1.108.115c.588.115,1.162.215,1.715.311,3.171.556,5.678.994,6.456,3.049a3.561,3.561,0,0,1-.279,2.969c-.85,1.453-2.721,2.375-5.558,2.737-4.01.512-7.965-1.261-9.321-3.2a3.413,3.413,0,0,1-.569-2.813,4.1,4.1,0,0,1,2.259-2.587,10.4,10.4,0,0,1,4.188-.581m7.7,4.079c-.433-1.156-2.626-1.539-5.166-1.984-.561-.1-1.145-.2-1.746-.316a9.823,9.823,0,0,0-4.211.315,2.451,2.451,0,0,0-1.378,1.489,1.721,1.721,0,0,0,.315,1.427c.911,1.3,4.184,2.941,7.717,2.489,2.827-.361,3.9-1.227,4.3-1.888a1.854,1.854,0,0,0,.176-1.522l.789-.308Z" transform="translate(22.146 22.798)" fill="#09161c"/>
      <path id="Path_1643" data-name="Path 1643" d="M77.25,127.822s2.208,10.171-8.4,12.837c-6.239,1.568-11.759-3.268-13.385-7.443-1.557-4-.624-8.863,2.387-11.551,1.415-1.264,5.458-1.954,7.565-1.307,5.833,1.79,10.786,2.2,11.837,7.465" transform="translate(-0.333 20.565)" fill="#f0ec1e"/>
      <path id="Path_1644" data-name="Path 1644" d="M64.051,119.472a7.232,7.232,0,0,1,1.813.28c.929.286,1.837.536,2.708.775,4.683,1.291,8.727,2.407,9.71,7.334.09.448,2.066,11.038-9.027,13.825-6.7,1.685-12.661-3.539-14.38-7.958-1.7-4.367-.6-9.62,2.611-12.491,1.284-1.147,4.194-1.863,6.565-1.765m2.206,20.839a9.091,9.091,0,0,0,2.584-.267c9.668-2.429,7.863-11.455,7.782-11.838l0-.013c-.779-3.9-4.018-4.8-8.5-6.031-.886-.245-1.809-.5-2.754-.79-1.835-.56-5.557.061-6.752,1.13-2.705,2.416-3.614,6.88-2.162,10.612,1.265,3.249,5.145,7.006,9.8,7.2" transform="translate(-0.535 20.36)" fill="#09161c"/>
      <path id="Path_1645" data-name="Path 1645" d="M81.166,167.343s7.361,5.835.777,16.078c-3.871,6.023-10.772,6.729-14.341,4.893-3.42-1.76-3.626-2.742-2.838-7.084.371-2.041,4.069-5.835,6.034-6.995,5.438-3.212,6.631-9.983,10.369-6.893" transform="translate(2.726 35.264)" fill="#f0ec1e"/>
      <path id="Path_1646" data-name="Path 1646" d="M79.688,165.912a3.741,3.741,0,0,1,2.217.982c.369.3,7.734,6.635.951,17.188a13.111,13.111,0,0,1-7.781,5.754,11.07,11.07,0,0,1-7.661-.566c-3.819-1.964-4.119-3.385-3.283-7.989.444-2.439,4.5-6.426,6.435-7.572a17.809,17.809,0,0,0,4.737-4.558c1.315-1.647,2.453-3.067,3.99-3.227a2.831,2.831,0,0,1,.395-.013m-8.231,22.644a11.361,11.361,0,0,0,9.974-5.39c6.1-9.489-.315-14.737-.591-14.955l-.014-.012a1.924,1.924,0,0,0-1.359-.588c-.832.086-1.763,1.251-2.841,2.6a19.467,19.467,0,0,1-5.2,4.961c-1.975,1.166-5.338,4.81-5.629,6.415-.753,4.146-.552,4.666,2.391,6.18a7.937,7.937,0,0,0,3.268.791" transform="translate(2.525 35.06)" fill="#09161c"/>
      <path id="Path_1647" data-name="Path 1647" d="M128.078,156.209s-1.7,10.768-12.608,7.813c-6.411-1.738-9.78-9.167-9.753-13.958.028-4.593,2.7-8.711,6.509-9.7,1.79-.466,5.826.969,7.554,2.669,4.789,4.708,9.266,7.657,8.3,13.178" transform="translate(15.808 26.946)" fill="#f0ec1e"/>
      <path id="Path_1648" data-name="Path 1648" d="M113.472,139.637a12.434,12.434,0,0,1,7.1,2.992c.765.75,1.519,1.456,2.246,2.134,3.853,3.6,7.183,6.7,6.294,11.788-.047.3-.881,5.092-4.735,7.587-2.4,1.556-5.406,1.859-8.93.9-7.126-1.933-10.406-9.962-10.377-14.782.028-5.024,3.032-9.447,7.142-10.516a4.344,4.344,0,0,1,1.256-.108m5.333,24.243a7.789,7.789,0,0,0,4.645-1.156c3.257-2.1,3.988-6.4,3.994-6.447l0-.012c.732-4.184-2-6.734-5.781-10.263-.736-.687-1.5-1.4-2.276-2.164-1.636-1.606-5.361-2.815-6.747-2.453-3.379.878-5.851,4.617-5.876,8.886-.025,4.463,3.132,11.51,9.126,13.136a13.254,13.254,0,0,0,2.912.473" transform="translate(15.605 26.743)" fill="#09161c"/>
      <path id="Path_1649" data-name="Path 1649" d="M193.69,106.724s-1.7,10.768-12.608,7.813c-6.411-1.738-9.78-9.167-9.751-13.958.026-4.593,2.7-8.711,6.507-9.7,1.79-.466,5.826.969,7.554,2.669,4.789,4.708,9.266,7.657,8.3,13.178" transform="translate(36.575 11.284)" fill="#f0ec1e"/>
      <path id="Path_1650" data-name="Path 1650" d="M179.086,90.152a12.427,12.427,0,0,1,7.1,2.994c.764.749,1.519,1.455,2.246,2.133,3.853,3.6,7.181,6.7,6.294,11.789-.049.3-.882,5.092-4.735,7.587-2.4,1.553-5.4,1.859-8.931.9-7.126-1.931-10.4-9.961-10.377-14.78.028-5.024,3.032-9.447,7.142-10.518a4.4,4.4,0,0,1,1.257-.108m5.333,24.245a7.786,7.786,0,0,0,4.643-1.157c3.258-2.1,3.989-6.4,4-6.446v-.013c.732-4.184-2-6.733-5.781-10.263-.736-.687-1.5-1.4-2.276-2.164-1.635-1.607-5.359-2.817-6.747-2.453-3.379.879-5.851,4.617-5.874,8.888-.026,4.463,3.132,11.509,9.126,13.135a13.259,13.259,0,0,0,2.912.474" transform="translate(36.371 11.081)" fill="#09161c"/>
      <path id="Path_1651" data-name="Path 1651" d="M66.947,208.364s-1.427-5.989-6.136-5.391-7.345,3.652-6.089,5.679,9.7,4.155,12.225-.288" transform="translate(-0.43 46.777)" fill="#f0ec1e"/>
      <path id="Path_1652" data-name="Path 1652" d="M61.884,202.292c3.678.151,5.581,3.935,6.091,6.08l.078.324-.166.291c-1.085,1.909-3.241,2.991-6.07,3.044-3.177.054-6.659-1.189-7.612-2.728a3.072,3.072,0,0,1-.083-3.024c.951-1.992,3.614-3.54,6.787-3.943a5.879,5.879,0,0,1,.976-.043m4.351,6.143c-.353-1.153-1.747-4.85-5.115-4.418-2.973.378-4.888,1.775-5.469,2.992a1.4,1.4,0,0,0-.005,1.4c.5.812,3.3,1.98,6.139,1.925,1.472-.026,3.4-.387,4.45-1.9" transform="translate(-0.634 46.573)" fill="#09161c"/>
      <path id="Path_1653" data-name="Path 1653" d="M41.431,140.678s-1.427-5.989-6.136-5.391-7.345,3.652-6.089,5.679,9.7,4.155,12.225-.288" transform="translate(-8.506 25.355)" fill="#f0ec1e"/>
      <path id="Path_1654" data-name="Path 1654" d="M36.369,134.606c3.678.151,5.579,3.935,6.09,6.08l.078.324-.166.291c-1.085,1.91-3.241,2.991-6.072,3.044-3.169.051-6.658-1.189-7.609-2.728a3.066,3.066,0,0,1-.084-3.023c.951-1.993,3.615-3.541,6.787-3.944a5.9,5.9,0,0,1,.977-.043m4.35,6.143c-.353-1.153-1.752-4.851-5.113-4.418-2.973.378-4.889,1.775-5.47,2.992a1.4,1.4,0,0,0-.005,1.4c.5.812,3.306,1.98,6.138,1.925,1.473-.026,3.4-.387,4.451-1.9" transform="translate(-8.71 25.151)" fill="#09161c"/>
      <path id="Path_1655" data-name="Path 1655" d="M91.35,212.31s5.682-8.846,1.629-11.9-9.37-1.274-10.74,2.349,2.321,13.206,9.111,9.553" transform="translate(8.288 45.485)" fill="#f0ec1e"/>
      <path id="Path_1656" data-name="Path 1656" d="M88.955,198.212a8.429,8.429,0,0,1,4.734,1.725c4.629,3.489-1.176,12.648-1.424,13.036l-.118.184-.192.1a6.043,6.043,0,0,1-7.253-.625c-2.886-2.53-4.011-7.438-3.053-9.974a7.059,7.059,0,0,1,4.712-4.135,8.079,8.079,0,0,1,2.595-.315m2,13.657c1.5-2.422,4.444-8.52,1.713-10.581a6.6,6.6,0,0,0-5.839-1.135,5.356,5.356,0,0,0-3.6,3.108c-.745,1.972.3,6.1,2.584,8.1a4.291,4.291,0,0,0,5.14.509" transform="translate(8.085 45.281)" fill="#09161c"/>
      <path id="Path_1657" data-name="Path 1657" d="M186.783,157.455s1.528,11.937-6.683,15.254c-4.826,1.95-8.993-3.652-10.171-8.539-1.132-4.687-.332-10.423,2.029-13.639,1.108-1.511,4.233-2.392,5.841-1.665,4.46,2.009,8.262,2.413,8.984,8.589" transform="translate(35.971 29.584)" fill="#f0ec1e"/>
      <path id="Path_1658" data-name="Path 1658" d="M176.827,147.968a4.155,4.155,0,0,1,1.527.329c.706.319,1.394.6,2.056.862,3.626,1.459,6.755,2.719,7.418,8.4.074.587,1.481,12.632-7.205,16.142a6.06,6.06,0,0,1-5.176-.269c-3.153-1.621-5.354-5.616-6.137-8.857-1.218-5.042-.325-10.939,2.171-14.339a6.81,6.81,0,0,1,5.346-2.266m1.331,24.491a4.367,4.367,0,0,0,1.831-.332c7.517-3.036,6.173-14.247,6.159-14.359v-.011c-.546-4.683-2.862-5.615-6.368-7.026-.683-.275-1.393-.561-2.121-.889-1.251-.566-3.948.217-4.81,1.394-2.187,2.978-2.982,8.419-1.89,12.939.819,3.39,2.984,6.576,5.266,7.749a4.609,4.609,0,0,0,1.935.534" transform="translate(35.764 29.38)" fill="#09161c"/>
      <path id="Path_1659" data-name="Path 1659" d="M24.6,169.516s7.361,5.835.777,16.078c-3.871,6.023-10.772,6.729-14.341,4.893-3.42-1.76-5.424-6.1-4.637-10.437.371-2.041,5.868-2.482,7.832-3.641,5.438-3.212,6.631-9.983,10.369-6.893" transform="translate(-15.678 35.952)" fill="#f0ec1e"/>
      <path id="Path_1660" data-name="Path 1660" d="M23.128,168.084a3.748,3.748,0,0,1,2.22.982h0c.367.3,7.733,6.635.949,17.188a13.125,13.125,0,0,1-7.779,5.756,11.084,11.084,0,0,1-7.661-.566C7.07,189.5,4.934,184.728,5.774,180.1c.33-1.827,2.879-2.537,5.345-3.223a14.537,14.537,0,0,0,2.887-1,17.833,17.833,0,0,0,4.737-4.559c1.316-1.647,2.454-3.067,3.992-3.227a2.819,2.819,0,0,1,.394-.013M14.9,190.728a11.362,11.362,0,0,0,9.974-5.39c6.069-9.442-.317-14.737-.592-14.958l-.012-.009a1.928,1.928,0,0,0-1.359-.588c-.832.086-1.764,1.251-2.842,2.6a19.467,19.467,0,0,1-5.2,4.961,14.994,14.994,0,0,1-3.3,1.168c-1.493.416-3.99,1.111-4.132,1.894-.711,3.91,1.052,7.919,4.19,9.533a7.925,7.925,0,0,0,3.266.791" transform="translate(-15.881 35.748)" fill="#09161c"/>
      <path id="Path_1661" data-name="Path 1661" d="M65.85,151.954s5.682,7.645,1.032,14.387c-2.734,3.964-7.888,2.221-10.614-.613A14.185,14.185,0,0,1,52.5,154.973c.22-1.664,2.135-3.957,3.576-4.3,3.986-.96,6.885-2.707,9.774,1.286" transform="translate(-1.06 29.85)" fill="#f0ec1e"/>
      <path id="Path_1662" data-name="Path 1662" d="M62.069,148.812c1.607.066,3.164.769,4.667,2.845a17.568,17.568,0,0,1,2.387,4.918,11.764,11.764,0,0,1-1.34,10.449,5.916,5.916,0,0,1-4.5,2.661,9.809,9.809,0,0,1-7.426-3.166,14.928,14.928,0,0,1-4-11.454c.266-2.009,2.434-4.588,4.218-5.017.628-.151,1.23-.323,1.806-.487a13.677,13.677,0,0,1,4.181-.749m.475,19.2a5.111,5.111,0,0,0,.6-.011,4.221,4.221,0,0,0,3.24-1.934c4.255-6.17-.962-13.328-1.015-13.4l-.007-.008c-2.076-2.873-3.935-2.341-7.014-1.464-.6.171-1.223.348-1.876.5a5.424,5.424,0,0,0-2.933,3.593,13.31,13.31,0,0,0,3.537,10.055,8.566,8.566,0,0,0,5.463,2.665" transform="translate(-1.264 29.647)" fill="#09161c"/>
      <path id="Path_1663" data-name="Path 1663" d="M153.515,153.556s-6.386-3.1-7.139.752.733,7.188,3.63,8.116,8.187-3.119,3.51-8.868" transform="translate(28.615 30.777)" fill="#f0ec1e"/>
      <path id="Path_1664" data-name="Path 1664" d="M149.531,151.74A13.066,13.066,0,0,1,154.087,153l.17.082.117.146c3.218,3.953,1.859,6.879,1.127,7.953a5.277,5.277,0,0,1-5.552,2.255c-3.312-1.062-5.041-4.8-4.2-9.085a3.012,3.012,0,0,1,1.611-2.221,4.451,4.451,0,0,1,2.171-.387m3.648,2.7c-1.411-.648-3.889-1.384-5.063-.8a1.307,1.307,0,0,0-.706,1.029c-.667,3.418.59,6.356,3.057,7.147a3.556,3.556,0,0,0,3.634-1.6c1.089-1.594.76-3.643-.922-5.782" transform="translate(28.411 30.574)" fill="#09161c"/>
      <path id="Path_1665" data-name="Path 1665" d="M151.24,116.987s-6.386-3.1-7.139.752.733,7.188,3.63,8.116,8.187-3.119,3.51-8.868" transform="translate(27.895 19.203)" fill="#f0ec1e"/>
      <path id="Path_1666" data-name="Path 1666" d="M147.257,115.173a13.075,13.075,0,0,1,4.556,1.256l.17.082.117.146c3.218,3.953,1.859,6.879,1.127,7.953a5.277,5.277,0,0,1-5.552,2.256c-3.312-1.062-5.041-4.8-4.2-9.086a3.007,3.007,0,0,1,1.613-2.221,4.448,4.448,0,0,1,2.171-.386m3.648,2.7c-1.411-.648-3.89-1.386-5.063-.8a1.3,1.3,0,0,0-.706,1.03c-.667,3.418.588,6.357,3.056,7.147a3.555,3.555,0,0,0,3.635-1.6c1.089-1.594.76-3.643-.922-5.782" transform="translate(27.692 19)" fill="#09161c"/>
      <path id="Path_1667" data-name="Path 1667" d="M146.863,81.5s-6.386-3.1-7.139.752.733,7.188,3.63,8.116,8.187-3.12,3.51-8.868" transform="translate(26.51 7.97)" fill="#f0ec1e"/>
      <path id="Path_1668" data-name="Path 1668" d="M142.88,79.682a13.075,13.075,0,0,1,4.556,1.256l.17.082.117.146c3.218,3.953,1.859,6.879,1.127,7.953a5.277,5.277,0,0,1-5.552,2.256c-3.312-1.062-5.041-4.8-4.2-9.086a3.007,3.007,0,0,1,1.613-2.221,4.448,4.448,0,0,1,2.171-.386m3.648,2.7c-1.411-.648-3.89-1.386-5.063-.8a1.3,1.3,0,0,0-.706,1.029c-.667,3.418.588,6.357,3.056,7.147a3.555,3.555,0,0,0,3.635-1.6c1.089-1.594.76-3.643-.922-5.782" transform="translate(26.306 7.767)" fill="#09161c"/>
      <path id="Path_1669" data-name="Path 1669" d="M86.34,121.2s-3.844-2.5-4.384.258-.32,4.4,1.758,5.066,5.98-1.2,2.626-5.324" transform="translate(8.209 20.581)" fill="#f0ec1e"/>
      <path id="Path_1670" data-name="Path 1670" d="M83.811,119.523a7.23,7.23,0,0,1,3.194,1.174l.195.175c2.143,2.632,1.526,4.4.968,5.215a4.219,4.219,0,0,1-4.509,1.451c-2.9-.931-2.836-3.451-2.329-6.036a2.272,2.272,0,0,1,1.334-1.79,2.654,2.654,0,0,1,1.148-.188m2.16,2.525c-.778-.478-2.077-1.02-2.649-.777-.066.029-.242.1-.332.556-.579,2.958-.055,3.7,1.185,4.1a2.533,2.533,0,0,0,2.592-.794c.65-.952-.179-2.3-.8-3.083" transform="translate(8.004 20.378)" fill="#09161c"/>
      <path id="Path_1671" data-name="Path 1671" d="M147,189.844s-5.257-2.245-6.2,1.463.079,6.693,2.5,7.262,7.284-3.8,3.7-8.724" transform="translate(26.802 42.422)" fill="#f0ec1e"/>
      <path id="Path_1672" data-name="Path 1672" d="M144.338,188.53a9.978,9.978,0,0,1,3.2.739l.215.092.137.188a6.232,6.232,0,0,1,.4,7.421c-1.241,1.872-3.378,3.008-4.979,2.628a4.142,4.142,0,0,1-2.628-1.946,8.353,8.353,0,0,1-.5-6.351A3.454,3.454,0,0,1,142,188.957a4.832,4.832,0,0,1,2.338-.427m2.318,2.212c-.872-.325-2.771-.829-3.907-.266a1.768,1.768,0,0,0-.924,1.243,6.828,6.828,0,0,0,.305,5.054,2.449,2.449,0,0,0,1.567,1.174c.8.191,2.266-.537,3.181-1.914a4.483,4.483,0,0,0-.221-5.291" transform="translate(26.597 42.218)" fill="#09161c"/>
      <path id="Path_1673" data-name="Path 1673" d="M127.9,175.129s-5.257-2.245-6.2,1.463.079,6.693,2.5,7.262,7.284-3.8,3.7-8.724" transform="translate(20.757 37.765)" fill="#f0ec1e"/>
      <path id="Path_1674" data-name="Path 1674" d="M125.239,173.815a9.979,9.979,0,0,1,3.2.739l.215.092.137.188a6.23,6.23,0,0,1,.4,7.421c-1.243,1.873-3.386,3-4.979,2.628a4.142,4.142,0,0,1-2.628-1.946,8.353,8.353,0,0,1-.5-6.351,3.451,3.451,0,0,1,1.817-2.345,4.835,4.835,0,0,1,2.338-.427m2.318,2.212c-.87-.325-2.769-.831-3.907-.266a1.769,1.769,0,0,0-.924,1.243,6.828,6.828,0,0,0,.305,5.054,2.449,2.449,0,0,0,1.567,1.174c.8.191,2.266-.537,3.181-1.913a4.483,4.483,0,0,0-.221-5.292" transform="translate(20.552 37.56)" fill="#09161c"/>
      <path id="Path_1675" data-name="Path 1675" d="M100.067,164.154s-5.257-2.245-6.2,1.463.079,6.693,2.5,7.262,7.284-3.8,3.7-8.724" transform="translate(11.948 34.291)" fill="#f0ec1e"/>
      <path id="Path_1676" data-name="Path 1676" d="M97.407,162.84a9.979,9.979,0,0,1,3.2.739l.215.092.137.188a6.227,6.227,0,0,1,.4,7.421c-1.243,1.873-3.386,3-4.979,2.628a4.144,4.144,0,0,1-2.628-1.947,8.356,8.356,0,0,1-.5-6.349,3.462,3.462,0,0,1,1.818-2.345,4.835,4.835,0,0,1,2.338-.427m2.318,2.212c-.872-.325-2.77-.832-3.907-.266a1.774,1.774,0,0,0-.924,1.243,6.821,6.821,0,0,0,.305,5.054,2.44,2.44,0,0,0,1.565,1.174c.794.192,2.266-.537,3.181-1.914a4.48,4.48,0,0,0-.22-5.291" transform="translate(11.743 34.087)" fill="#09161c"/>
      <path id="Path_1677" data-name="Path 1677" d="M166.945,183.718s5.682-8.846,1.628-11.9-9.37-1.274-10.74,2.349,2.321,13.206,9.111,9.553" transform="translate(32.213 36.436)" fill="#f0ec1e"/>
      <path id="Path_1678" data-name="Path 1678" d="M164.55,169.619a8.432,8.432,0,0,1,4.735,1.726c4.63,3.487-1.176,12.648-1.424,13.036l-.118.184-.192.1a6.045,6.045,0,0,1-7.253-.625c-2.886-2.53-4.011-7.438-3.053-9.974a7.06,7.06,0,0,1,4.712-4.136,8.112,8.112,0,0,1,2.594-.315m2,13.659c1.5-2.424,4.444-8.52,1.713-10.581a6.6,6.6,0,0,0-5.839-1.135,5.354,5.354,0,0,0-3.6,3.107c-.745,1.973.3,6.1,2.584,8.1a4.292,4.292,0,0,0,5.14.51" transform="translate(32.011 36.232)" fill="#09161c"/>
      <path id="Path_1679" data-name="Path 1679" d="M24.893,25.1s8.422,4.16,4.135,15.557c-2.521,6.7-9.121,8.84-12.994,7.795-3.714-1-4.122-1.921-4.263-6.331-.066-2.072,2.754-6.557,4.43-8.1,4.643-4.284,4.389-11.153,8.692-8.917" transform="translate(-13.926 -9.646)" fill="#f0ec1e"/>
      <path id="Path_1680" data-name="Path 1680" d="M23.112,24.056a3.741,3.741,0,0,1,2.374.494c.424.22,8.955,4.864,4.538,16.606a13.112,13.112,0,0,1-6.4,7.259,11.067,11.067,0,0,1-7.608,1.056c-4.148-1.119-4.738-2.446-4.887-7.121-.079-2.479,3.045-7.228,4.7-8.756a17.828,17.828,0,0,0,3.674-5.45c.941-1.885,1.754-3.514,3.224-3.993a2.806,2.806,0,0,1,.383-.095M19.818,47.921a11.356,11.356,0,0,0,8.62-7.362c3.971-10.558-3.4-14.343-3.718-14.5l-.016-.008a1.93,1.93,0,0,0-1.452-.291c-.8.259-1.461,1.593-2.233,3.137a19.446,19.446,0,0,1-4.04,5.941c-1.686,1.555-4.21,5.824-4.157,7.454.134,4.211.44,4.678,3.635,5.54a7.887,7.887,0,0,0,3.361.087" transform="translate(-14.129 -9.849)" fill="#09161c"/>
      <path id="Path_1681" data-name="Path 1681" d="M41.352,63.354s3.7-9.842-.907-11.979-9.427.723-10.007,4.551,5.041,12.425,10.914,7.428" transform="translate(-8.03 -1.421)" fill="#f0ec1e"/>
      <path id="Path_1682" data-name="Path 1682" d="M36.014,50.118A8.425,8.425,0,0,1,41,50.811c5.258,2.439,1.506,12.613,1.344,13.045l-.078.205-.166.141a6.041,6.041,0,0,1-7.222.911C31.53,63.246,29.4,58.684,29.8,56a7.057,7.057,0,0,1,3.74-5.032,8.11,8.11,0,0,1,2.47-.853m4.825,12.933c.964-2.684,2.557-9.264-.546-10.7a6.6,6.6,0,0,0-5.947.116,5.357,5.357,0,0,0-2.866,3.794c-.315,2.085,1.575,5.9,4.227,7.375a4.289,4.289,0,0,0,5.132-.581" transform="translate(-8.234 -1.625)" fill="#09161c"/>
      <path id="Path_1683" data-name="Path 1683" d="M23.788,2.313s7.159,6.282,4.028,13.85c-1.84,4.448-7.245,3.827-10.506,1.629a14.193,14.193,0,0,1-5.941-9.724c-.133-1.675,1.257-4.319,2.592-4.959,3.7-1.776,6.164-4.093,9.826-.8" transform="translate(-14.055 -17.246)" fill="#f0ec1e"/>
      <path id="Path_1684" data-name="Path 1684" d="M19.393.083c1.586-.274,3.256.087,5.161,1.8A17.625,17.625,0,0,1,27.92,6.193a11.77,11.77,0,0,1,.883,10.5,5.917,5.917,0,0,1-3.838,3.544A9.8,9.8,0,0,1,17.04,18.7a14.93,14.93,0,0,1-6.313-10.36c-.161-2.02,1.417-5,3.07-5.79.583-.28,1.135-.574,1.664-.856A13.661,13.661,0,0,1,19.393.083m4.495,18.668a5.205,5.205,0,0,0,.59-.137,4.226,4.226,0,0,0,2.761-2.571C30.1,9.117,23.5,3.212,23.432,3.154l-.008-.008c-2.633-2.371-4.339-1.461-7.166.042-.55.292-1.122.6-1.727.887A5.419,5.419,0,0,0,12.417,8.2a13.311,13.311,0,0,0,5.57,9.088,8.562,8.562,0,0,0,5.9,1.459" transform="translate(-14.259 -17.45)" fill="#09161c"/>
      <path id="Path_1685" data-name="Path 1685" d="M39.833,14.282s-5.611-1.09-5.754,2.732,1.482,6.527,3.968,6.575,6.323-5.248,1.786-9.306" transform="translate(-6.868 -12.976)" fill="#f0ec1e"/>
      <path id="Path_1686" data-name="Path 1686" d="M36.917,13.6a9.933,9.933,0,0,1,3.281.051l.229.045.174.155a6.23,6.23,0,0,1,1.95,7.172c-.823,2.092-2.683,3.639-4.317,3.612a4.133,4.133,0,0,1-2.978-1.351,8.36,8.36,0,0,1-1.821-6.1,3.458,3.458,0,0,1,1.285-2.675,4.828,4.828,0,0,1,2.2-.907m2.73,1.675c-.92-.136-2.882-.232-3.877.562a1.767,1.767,0,0,0-.641,1.407,6.824,6.824,0,0,0,1.359,4.879,2.446,2.446,0,0,0,1.777.819c.818.022,2.1-1,2.708-2.538a4.482,4.482,0,0,0-1.326-5.129" transform="translate(-7.072 -13.181)" fill="#09161c"/>
      <path id="Path_1687" data-name="Path 1687" d="M191.9,125.97s-6.712-2.2-8.826,3.781-.621,11.1,2.095,10.924,9.654-8.818,6.731-14.705" transform="translate(39.975 22.294)" fill="#f0ec1e"/>
      <path id="Path_1688" data-name="Path 1688" d="M189.806,124.925a9.7,9.7,0,0,1,2.563.449l.336.109.159.319c1.37,2.762.926,6.48-1.222,10.2-1.588,2.75-4.233,5.6-6.216,5.725a3.067,3.067,0,0,1-2.67-1.336c-1.656-2.192-1.768-6.5-.276-10.716a6.954,6.954,0,0,1,7.326-4.751m1.692,1.963c-1.3-.326-5.844-1.1-7.42,3.353-1.5,4.255-1.04,7.715.03,9.13a1.4,1.4,0,0,0,1.212.667c.882-.057,3.157-1.941,4.854-4.882.849-1.472,2.626-5.148,1.323-8.269" transform="translate(39.772 22.086)" fill="#09161c"/>
      <path id="Path_1689" data-name="Path 1689" d="M188.7,16.135a4.854,4.854,0,0,0-5.569.271c-3.677,2.829-2.28,7.026.557,7.465s6.877-2.162,5.012-7.736" transform="translate(39.607 -12.585)" fill="#f0ec1e"/>
      <path id="Path_1690" data-name="Path 1690" d="M186.5,14.739a5.747,5.747,0,0,1,2.881.9l.236.159.091.271c.907,2.712.608,5.151-.84,6.871a5.711,5.711,0,0,1-5.105,1.971,4.168,4.168,0,0,1-3.345-3.145,5.615,5.615,0,0,1,2.4-5.828,5.56,5.56,0,0,1,3.682-1.2M188.2,16.9a3.953,3.953,0,0,0-4.343.375,3.984,3.984,0,0,0-1.793,4.064,2.445,2.445,0,0,0,1.963,1.892,4.018,4.018,0,0,0,3.549-1.389c.719-.852,1.392-2.391.624-4.942" transform="translate(39.403 -12.787)" fill="#09161c"/>
    </g>
  </g>
  <g id="Group_115" data-name="Group 115">
    <g id="Group_114" data-name="Group 114" clip-path="url(#clip-path)">
      <path id="Path_1692" data-name="Path 1692" d="M117.63,247.168s-14.408,10.1-14.969,16.841-1.31-25.448-1.31-25.448l15.758-16.8.316,15.47Z" transform="translate(32.078 70.187)" fill="#f79410"/>
      <path id="Path_1693" data-name="Path 1693" d="M78.68,311.71v-1.685h.669a.5.5,0,0,0,.52-.475v-11.6h3.918v10.51c0,1.685-1.894,3.232-3.918,3.232Z" transform="translate(24.902 94.302)" fill="#09161c"/>
      <path id="Path_1694" data-name="Path 1694" d="M86.665,298.536h3.917l3.547,10.723H90.211l-.445-1.348H87.5l-.445,1.348H83.137Zm2.395,7.246-.427-1.3-.428,1.3Z" transform="translate(26.313 94.486)" fill="#09161c"/>
      <path id="Path_1695" data-name="Path 1695" d="M92.049,298.535h3.918l2.191,4.029v-4.029h3.918V309.26H98.158l-2.191-3.448v3.448H92.049Z" transform="translate(29.133 94.486)" fill="#09161c"/>
      <path id="Path_1696" data-name="Path 1696" d="M100.807,298.535h6.127c2.023,0,3.918,1.44,3.918,3v4.7c0,1.578-1.894,3.019-3.918,3.019h-6.127Zm5.607,3h-1.689v4.718h1.689a.481.481,0,0,0,.52-.444v-3.861c0-.229-.279-.413-.52-.413" transform="translate(31.905 94.486)" fill="#09161c"/>
      <path id="Path_1697" data-name="Path 1697" d="M112.26,298.536h3.918l3.547,10.723h-3.919l-.445-1.348h-2.266l-.445,1.348h-3.918Zm2.395,7.246-.427-1.3-.428,1.3Z" transform="translate(34.413 94.486)" fill="#09161c"/>
      <path id="Path_1698" data-name="Path 1698" d="M117.644,298.535h3.918v7.705h4.2v3.019h-8.114Z" transform="translate(37.234 94.486)" fill="#09161c"/>
      <rect id="Rectangle_76" data-name="Rectangle 76" width="3.918" height="10.724" transform="translate(164.495 393.021)" fill="#09161c"/>
      <path id="Path_1699" data-name="Path 1699" d="M107.942,50.966l1.739,7.7,7.471-3.573s-3.857-4.254-9.21-4.123" transform="translate(34.163 16.13)"/>
      <path id="Path_1700" data-name="Path 1700" d="M143.53,53.522l-3.294,7.646-6.367-3.685s4.308-4.092,9.66-3.961" transform="translate(42.369 16.939)"/>
    </g>
  </g>
</svg>
