<svg id="Group_123" data-name="Group 123" xmlns="http://www.w3.org/2000/svg" xmlns:xlink="http://www.w3.org/1999/xlink" width="254.169" height="489.253" viewBox="0 0 254.169 489.253">
  <defs>
    <clipPath id="clip-path">
      <rect id="Rectangle_78" data-name="Rectangle 78" width="254.169" height="489.253" fill="none"/>
    </clipPath>
    <clipPath id="clip-path-2">
      <path id="Path_1762" data-name="Path 1762" d="M250.1,309.611c2.2,1.332,2.793.923,2.8.123v-.043a6.57,6.57,0,0,0-.689-2.2Zm-121.212,87.83c9.773-22.022,18.9-55.173,20.249-54.115q3.595,2.81,7.6,5.463,2.777,1.832,5.719,3.648c.529.326,4.088,30.589,7.791,60.867-18.265-5.381-42.792-12.631-41.357-15.864m-87.7-232.594c37.051-44.391,63.46-130.5,97-128.1,14.68,1.048,29.526,9.8,14.449,52.346-8.951,25.258-32.6,33.961-46.812,40.278-22.534,10.014-36.241,16.56-53.615,48.111a89.345,89.345,0,0,0-10.946,34.544c-17.935-7.894-22.986-19.724-.074-47.175M133.844,9.735C63.56,19.791,74.745,106.825,14.1,170.964c-25.929,27.422-2.75,48.427,26.844,62.56,1.053,19.8,4.8,36.14.78,41.221-10.982,13.887-4.695,36.163,12.2,44.521a22.469,22.469,0,0,0,3.156,1.285c9.979,3.175,22.466-10.4,22.466-10.4,13.416-10.383,6.232-35.129,0-37.849-13.617-5.945-21.509-17.772-23.466-32.28a349.73,349.73,0,0,0,50.2,14.852s.211,37.4,32.677,71.781c2.117,2.241-29.587,81.044-16.31,87.142,2.688,1.234,29.594,5.66,48.5,6.969,5.435,44.089,10.669,82.924,6.616,22.278-.252-3.779-.467-12.315-.7-21.968,6.339.206,11.022-.133,12.311-1.36.49-.464-4.806-2.15-12.449-4.428-.293-12.249-.626-25.107-1.1-31.777-.209-2.957-1.433-26.964-1.433-26.964l4.545,1.407c8.875,2.747,23.479-.921,30.274-7.254L250.1,309.611c-3.824-2.313-12.507-9.867-31.465-29.729-7.724-19.177-42.177-57.234-47.9-53.812-16.839-4.456-40.1,6.226-45.743,8.424a12.744,12.744,0,0,1-9.256-.055c-20.383-7.943-41.609-12.188-58.317-16.9-5.2-34.091,29.163-57.743,70.474-76.3C216.829,101.28,189.129,9.321,139.653,9.318a40.97,40.97,0,0,0-5.809.417" transform="translate(-2.87 -9.318)" fill="none"/>
    </clipPath>
  </defs>
  <g id="Group_118" data-name="Group 118">
    <g id="Group_117" data-name="Group 117" clip-path="url(#clip-path)">
      <path id="Path_1701" data-name="Path 1701" d="M133.537,376.642a2.067,2.067,0,0,0-.851-.815c6.483-20.42-1.216-122.867-1.216-122.867s-12.7-11.877-14.423-9.407c-.482.692.8,2.135,2.363,5.734,6.287,14.442,8.144,107.678,9.114,126.6,0,0-29.946,3.874-28.809,5.886l30.938-1.843C132.815,379.52,134.643,378.528,133.537,376.642Z" transform="translate(44.052 107.48)" fill="#7ecb9e"/>
      <path id="Path_1702" data-name="Path 1702" d="M33.653,286.071l123.556-2.153,2.183,42.216s-124.358-6.228-123.676-4.888-2.063-35.175-2.063-35.175" transform="translate(14.872 125.467)" fill="#ef67aa"/>
      <path id="Path_1703" data-name="Path 1703" d="M74.37,283.99c19.433-7.837,8.517-79.239,6.174-90.234a15.5,15.5,0,0,0-15.352-12.64L38.551,180.9c.291,17.27,1.371,137.156,1.371,137.156s40.8.375,41.2-.255c13.945-21.952-6.757-33.806-6.757-33.806M58.4,195.8c0-.027.01-.029.017,0H58.4c-.169,1.262,3.923,59.594,3.923,67.192l-7.283-.169s-1.961-61.267-2.8-66.838Zm8.092,111.551s-10.226.381-10.946-.535c0,0-.352-3.772-1.41-20.771,0,0,3.694-.519,5.254.982a23.963,23.963,0,0,1,7.034,13.57,35.88,35.88,0,0,1,.068,6.754" transform="translate(17.036 79.94)" fill="#fff"/>
      <path id="Path_1704" data-name="Path 1704" d="M52.148,177.229c17.62-28.413,31.08-38.1,53.613-48.111,14.214-6.318,37.862-15.02,46.812-40.278,15.077-42.544.232-51.3-14.448-52.346-33.536-2.4-59.945,83.713-97,128.1-45.054,53.979,18.007,47.554,74.548,69.591,2.978,1.161,6.68,1.947,9.257.055,73-53.62,69.153,53.243,126.715,72.43,0,0-44.519,72.3-82.619,47.136-53.13-35.1-62.8-99.189-62.8-99.189s-143.954-29.158-92.189-83.906C74.685,106.575,63.5,19.541,133.782,9.485c52.982-7.58,85.742,88.9-6.176,131.37-77.174,35.654-90.939,112.5-48.114,131.194,6.231,2.719,13.416,27.466,0,37.849,0,0-12.487,13.578-22.466,10.4a22.377,22.377,0,0,1-3.156-1.282c-16.9-8.36-23.186-30.635-12.2-44.522,7.628-9.645-12.723-59.845,10.483-97.267" transform="translate(1.242 4.005)" fill="#7ecb9e"/>
      <path id="Path_1705" data-name="Path 1705" d="M48.475,213.367l-2.275-.9v0a3.729,3.729,0,0,0-.337-2.8c-1.048-2.236-4.262-5.546-13.628-8.62L33,198.719c8.184,2.686,13.258,6.019,15.08,9.906a6.11,6.11,0,0,1,.4,4.742" transform="translate(14.246 87.817)"/>
      <path id="Path_1706" data-name="Path 1706" d="M46.954,212.549c-.492-4.575,1.6-8.967,6.063-12.7a29.264,29.264,0,0,1,6.765-4.212l.943,2.258c-.123.052-12.318,5.28-11.339,14.393Z" transform="translate(20.718 86.455)"/>
      <path id="Path_1707" data-name="Path 1707" d="M91.773,95.814s9.821-1.128,38.7-2.633l2.5,18.7s-20.177.384-22.363.869c0,0,.36,24.27,1.461,36.224,0,0,10.905.342,14.259.082,0,0,.836,17.685.091,19.182-.372.75-14.132,1.524-14.132,1.524l.3,12.328,18.484.793-3.1,22.554-34.446-1.577S91.162,116.1,91.773,95.814" transform="translate(40.511 41.178)" fill="#fff"/>
      <path id="Path_1708" data-name="Path 1708" d="M102.165,197.606l1.269-16.4-30.38.914s4.327,99.156,5.567,135.132c0,0,22.113.94,25.685,1.28,0,0,.326-1.087-.616-19.353,0,0-2.544-.182-8.14-.738l-.45-14.956,5.879-.675c.326-2.49.28-18.87-.3-18.87-2.644,0-7.048.4-7.048.4-.391.464-1.139-66.335-1.139-66.335Z" transform="translate(32.284 80.076)" fill="#fff"/>
      <path id="Path_1709" data-name="Path 1709" d="M81.355,171.89c38.1-25.9,24.872-91.67,8.91-110.686C80.24,49.262,40.713,50.212,40.713,50.212c0,12.755-1.475,175.125-1.475,175.125l20.648-.9c.127-8.285-1.678-42.756-1.462-43.037s11.114.424,11.114.424L82.23,222.859l25.288,1.577Zm-20.84-18.256s-1.622-63.874-1.735-75.5L72.8,79.172s1.572,23.875.906,41.413a236.739,236.739,0,0,1-4.171,33.486s-8.97.069-9.023-.437" transform="translate(17.34 22.182)" fill="#fff"/>
      <path id="Path_1710" data-name="Path 1710" d="M111.18,242.952s-5.671-27.242-8.292-9.495c-1.2,8.144-13.358,45.524-21.049,69.268-8.039,24.817,77.486,20.392,77.718,22.69.084.822,16.97,19.932,19.11,19.316,2.163-.621-10.455-20.981-17.816-22.973-27.479-7.433-72.286-11.765-66.079-23.228,13.169-24.321,16.409-55.579,16.409-55.579" transform="translate(35.93 100.514)" fill="#7ecb9e"/>
      <path id="Path_1711" data-name="Path 1711" d="M98.217,181.152s10.277.532,22.177,0c0,0-2.267,56.517-3.649,115.2,0,0,13.6.988,13.32.725s1.008,20.862,1.008,20.862c.424.851-31.365-.349-31.365-.349s-1.481-130.014-1.491-136.441" transform="translate(43.404 80.054)" fill="#fff"/>
      <path id="Path_1712" data-name="Path 1712" d="M77.354,229.209C73.582,224.315,68.773,218.36,65.987,216c0,0-7.042-10.16-21.839-3.84,0,0-7.945,4.816-7.436,16.08a2.64,2.64,0,0,0,1.278,2.151c3.879,2.311,16.475,10.062,23.105,17.022.655.688,14,10.1,15.617,34.73,0,0,13.352-6.826,10.806-28.3a50.1,50.1,0,0,0-10.164-24.634" transform="translate(16.213 92.842)" fill="#ef67aa"/>
      <path id="Path_1713" data-name="Path 1713" d="M72.041,99.967s.833,27.673-1.365,30.971-35,7.949-27.081,74.029l-10.468-1.321L33.1,148.575s19.946-41.7,38.942-48.608" transform="translate(14.627 44.177)" fill="#7ecb9e"/>
    </g>
  </g>
  <g id="Group_120" data-name="Group 120" transform="translate(4.138 13.436)">
    <g id="Group_119" data-name="Group 119" clip-path="url(#clip-path-2)">
      <path id="Path_1714" data-name="Path 1714" d="M144.587,212.63s-6.327-.02-6.245,5.394,2.069,8.783,4.845,8.18,6.718-9.088,1.4-13.574" transform="translate(56.997 80.528)" fill="#f0ec1e"/>
      <path id="Path_1715" data-name="Path 1715" d="M138.73,214.753a5.355,5.355,0,0,1,.546-.646,8.647,8.647,0,0,1,5.6-2.121h.337l.258.218c2.584,2.18,3.54,5.547,2.623,9.238-.76,3.055-2.62,5.56-4.424,5.951a3.652,3.652,0,0,1-3.136-.738c-1.74-1.38-2.773-4.418-2.833-8.333a5.817,5.817,0,0,1,1.031-3.57m5.808-.894a6.5,6.5,0,0,0-3.948,1.557,3.812,3.812,0,0,0-1.035,2.878c.05,3.308.846,5.89,2.131,6.908a1.8,1.8,0,0,0,1.589.378c.812-.173,2.352-1.911,3.016-4.584a7.139,7.139,0,0,0-1.753-7.137" transform="translate(56.713 80.244)" fill="#09161c"/>
      <path id="Path_1716" data-name="Path 1716" d="M116.583,291.272s-6.327-.02-6.245,5.394,2.069,8.783,4.845,8.18,6.718-9.088,1.4-13.574" transform="translate(44.622 115.281)" fill="#f0ec1e"/>
      <path id="Path_1717" data-name="Path 1717" d="M110.726,293.4a5.357,5.357,0,0,1,.546-.646,8.647,8.647,0,0,1,5.6-2.121h.337l.258.218c2.584,2.18,3.54,5.547,2.623,9.238-.76,3.055-2.62,5.56-4.424,5.951a3.652,3.652,0,0,1-3.136-.738c-1.74-1.38-2.773-4.418-2.833-8.333a5.817,5.817,0,0,1,1.031-3.57m5.808-.894a6.5,6.5,0,0,0-3.948,1.557,3.812,3.812,0,0,0-1.035,2.878c.05,3.308.846,5.89,2.131,6.908a1.8,1.8,0,0,0,1.589.378c.812-.173,2.352-1.911,3.016-4.584a7.139,7.139,0,0,0-1.753-7.137" transform="translate(44.337 114.997)" fill="#09161c"/>
      <path id="Path_1718" data-name="Path 1718" d="M153.559,266.757s4.316-8.768,16.66-2.212c7.257,3.854,9.684,11.561,8.633,15.73-1.008,4-1.988,4.308-6.731,3.784-2.229-.248-7.109-4.094-8.8-6.207-4.7-5.851-12.082-6.631-9.757-11.094" transform="translate(63.527 102.395)" fill="#f0ec1e"/>
      <path id="Path_1719" data-name="Path 1719" d="M152.828,267.026c.058-.133.121-.267.193-.405a10.017,10.017,0,0,1,5.678-4.629c3.484-1.126,7.6-.446,12.243,2.019,8.02,4.261,10.17,12.529,9.1,16.777-1.145,4.545-2.678,5.038-7.732,4.479-2.644-.294-7.766-4.481-9.424-6.549a24.3,24.3,0,0,0-5.988-5c-2.781-1.827-5.414-3.557-4.066-6.693M177.667,282.2a13.2,13.2,0,0,0,.574-1.87c.966-3.824-1.335-11.054-8.168-14.683-4.18-2.221-7.814-2.858-10.8-1.893a8.15,8.15,0,0,0-4.59,3.7l-.012.019c-.906,1.748.039,2.591,3.243,4.7a26.162,26.162,0,0,1,6.417,5.388c1.725,2.148,6.414,5.67,8.183,5.864,3.458.385,4.48.353,5.155-1.217" transform="translate(63.238 102.109)" fill="#09161c"/>
      <path id="Path_1720" data-name="Path 1720" d="M97.956,269.85s-6.339-2.3-8.627,2.369-1.08,8.918,1.531,8.99,9.641-6.375,7.1-11.359" transform="translate(34.803 105.565)" fill="#f0ec1e"/>
      <path id="Path_1721" data-name="Path 1721" d="M89.326,271.177c2.355-3.275,6.96-2.737,9.228-1.913l.343.125.167.326c1.094,2.143.787,4.767-.869,7.388-1.862,2.93-5.1,5.375-7.077,5.321a3.367,3.367,0,0,1-2.817-1.743c-1.252-2.071-1.061-5.439.479-8.584a6.2,6.2,0,0,1,.546-.92m8.241-.283c-1.269-.372-5.5-1.318-7.122,2.02-1.443,2.946-1.321,5.541-.557,6.806a1.536,1.536,0,0,0,1.28.848c1.047.029,3.8-1.833,5.458-4.456.862-1.365,1.691-3.345.94-5.218" transform="translate(34.52 105.279)" fill="#09161c"/>
      <path id="Path_1722" data-name="Path 1722" d="M132.2,240.062s10.415-.6,13.785,7.716c1.981,4.888-2.717,8.555-6.95,9.344a15.545,15.545,0,0,1-12.108-3.027c-1.391-1.2-2.337-4.337-1.787-5.864,1.521-4.225,1.667-7.929,7.06-8.168" transform="translate(51.091 92.647)" fill="#f0ec1e"/>
      <path id="Path_1723" data-name="Path 1723" d="M127.019,241.98c1.03-1.432,2.608-2.434,5.413-2.559a19.3,19.3,0,0,1,5.938.777,12.89,12.89,0,0,1,8.754,7.517,6.477,6.477,0,0,1-.273,5.716,10.745,10.745,0,0,1-7.367,4.89,16.345,16.345,0,0,1-12.886-3.239c-1.678-1.452-2.732-4.988-2.052-6.879.239-.665.444-1.319.642-1.947a14.992,14.992,0,0,1,1.831-4.275M144.87,253.1a5.583,5.583,0,0,0,.355-.559,4.624,4.624,0,0,0,.18-4.128c-3.084-7.609-12.775-7.143-12.872-7.139h-.013c-3.876.172-4.509,2.192-5.561,5.537-.2.652-.417,1.328-.666,2.02a5.93,5.93,0,0,0,1.521,4.846,14.577,14.577,0,0,0,11.331,2.816,9.384,9.384,0,0,0,5.726-3.394" transform="translate(50.808 92.362)" fill="#09161c"/>
      <path id="Path_1724" data-name="Path 1724" d="M163.33,239.929s-5.218,3.459-2.394,6.553,6.171,3.957,8.148,2.084.9-8.953-5.755-8.637" transform="translate(66.611 92.588)" fill="#f0ec1e"/>
      <path id="Path_1725" data-name="Path 1725" d="M160.5,241.921a10.924,10.924,0,0,1,2.6-2.482l.213-.141.254-.012a6.824,6.824,0,0,1,7.032,4.1c.965,2.265.7,4.9-.594,6.137a4.526,4.526,0,0,1-3.363,1.233c-2.027-.074-4.2-1.269-6.111-3.365a3.793,3.793,0,0,1-1.051-3.076,5.289,5.289,0,0,1,1.018-2.4m3.419-.79c-.823.6-2.428,2.033-2.6,3.416a1.94,1.94,0,0,0,.581,1.593,7.47,7.47,0,0,0,4.807,2.763,2.678,2.678,0,0,0,2.019-.725c.653-.611.871-2.4.163-4.062a4.906,4.906,0,0,0-4.975-2.985" transform="translate(66.327 92.303)" fill="#09161c"/>
      <path id="Path_1726" data-name="Path 1726" d="M123.465,256.547s-5.218,3.459-2.394,6.553,6.171,3.957,8.148,2.084.9-8.953-5.755-8.637" transform="translate(48.994 99.931)" fill="#f0ec1e"/>
      <path id="Path_1727" data-name="Path 1727" d="M120.636,258.539a10.924,10.924,0,0,1,2.6-2.482l.213-.141.254-.012a6.824,6.824,0,0,1,7.032,4.1c.965,2.265.7,4.9-.594,6.137a4.525,4.525,0,0,1-3.363,1.233c-2.027-.074-4.2-1.269-6.111-3.365a3.792,3.792,0,0,1-1.051-3.076,5.288,5.288,0,0,1,1.018-2.4m3.419-.79c-.823.6-2.428,2.033-2.6,3.416a1.94,1.94,0,0,0,.581,1.593,7.47,7.47,0,0,0,4.807,2.763,2.678,2.678,0,0,0,2.019-.725c.653-.611.871-2.4.163-4.062a4.906,4.906,0,0,0-4.975-2.985" transform="translate(48.71 99.647)" fill="#09161c"/>
      <path id="Path_1728" data-name="Path 1728" d="M48.306,117.284s-10.091-6.49-3.717-14.927c3.748-4.962,13.237-2.05,17.29-.528,3.886,1.459,6.431,5.042,5.921,8.623-.239,1.683-2.888,4.7-4.943,5.649-5.69,2.64-10.21,3.74-14.55,1.182" transform="translate(14.634 30.573)" fill="#f0ec1e"/>
      <path id="Path_1729" data-name="Path 1729" d="M68.688,111.917a12.423,12.423,0,0,1-5.156,5.312c-5.825,2.7-10.676,3.929-15.411,1.139l-.032-.019c-.212-.137-5.213-3.4-6.115-8.478a9.8,9.8,0,0,1,2.16-7.789c3.958-5.237,13.2-2.771,18.357-.835,4.337,1.628,7.075,5.675,6.513,9.622a4.192,4.192,0,0,1-.316,1.048M49.081,116.78c4.047,2.373,8.232,1.288,13.671-1.236,1.88-.871,4.233-3.686,4.415-4.939.441-3.091-1.8-6.3-5.328-7.622-3.762-1.413-12.873-4.218-16.224.218a8.018,8.018,0,0,0-1.817,6.333c.735,4.16,5.014,7.067,5.283,7.246" transform="translate(14.349 30.287)" fill="#09161c"/>
      <path id="Path_1730" data-name="Path 1730" d="M134.123,187.331s-10.091-6.49-3.717-14.927c3.748-4.962,13.237-2.05,17.29-.528,3.886,1.459,6.431,5.042,5.921,8.623-.239,1.683-2.887,4.7-4.943,5.649-5.69,2.64-10.21,3.74-14.55,1.182" transform="translate(52.557 61.527)" fill="#f0ec1e"/>
      <path id="Path_1731" data-name="Path 1731" d="M154.505,181.964a12.423,12.423,0,0,1-5.156,5.312c-5.825,2.7-10.676,3.929-15.411,1.139l-.032-.019c-.212-.137-5.213-3.4-6.115-8.478a9.8,9.8,0,0,1,2.16-7.789c3.958-5.237,13.2-2.771,18.357-.835,4.337,1.628,7.075,5.675,6.513,9.622a4.193,4.193,0,0,1-.316,1.048M134.9,186.827c4.047,2.373,8.232,1.288,13.671-1.236,1.88-.871,4.233-3.686,4.415-4.939.441-3.091-1.8-6.3-5.328-7.622-3.762-1.413-12.873-4.218-16.224.218a8.018,8.018,0,0,0-1.817,6.333c.735,4.16,5.014,7.067,5.283,7.246" transform="translate(52.273 61.242)" fill="#09161c"/>
      <path id="Path_1732" data-name="Path 1732" d="M24.068,129.917s-8.229,7.971-17.7,2.122c-5.57-3.439-9.814-9.907.887-12.229,4.914-1.066,5.462-7.975,9.987-7.534,2.127.208,5.427,2.643,6.189,4.543,2.112,5.266,4.957,9.039.64,13.1" transform="translate(-3.853 36.172)" fill="#f0ec1e"/>
      <path id="Path_1733" data-name="Path 1733" d="M27,128.143a8.355,8.355,0,0,1-2.014,2.734c-.345.326-9,8.3-18.824,2.236-3.322-2.05-6.669-5.426-6.1-8.751.422-2.469,2.871-4.219,7.277-5.175,2.014-.437,3.187-2.049,4.428-3.755,1.39-1.911,2.965-4.076,5.846-3.8,2.482.244,6.059,2.875,6.96,5.122.335.835.689,1.632,1.028,2.4,1.37,3.086,2.679,6.043,1.4,8.985M2.056,124.13a2.383,2.383,0,0,0-.164.546c-.336,1.958,1.774,4.714,5.246,6.856,8.757,5.407,16.491-1.924,16.569-2l.01-.01c3.142-2.954,1.968-5.6.19-9.613-.349-.787-.712-1.6-1.055-2.461-.643-1.6-3.631-3.791-5.417-3.965-1.736-.169-2.714,1.044-4.164,3.038-1.327,1.824-2.83,3.892-5.536,4.479-3.138.681-5.08,1.756-5.678,3.129" transform="translate(-4.138 35.887)" fill="#09161c"/>
      <path id="Path_1734" data-name="Path 1734" d="M136.761,209.557s-8.229,7.971-17.7,2.122c-5.57-3.439-9.814-9.907.887-12.229,4.914-1.066,5.462-7.975,9.987-7.534,2.127.208,5.427,2.643,6.189,4.543,2.112,5.266,4.957,9.039.64,13.1" transform="translate(45.947 71.366)" fill="#f0ec1e"/>
      <path id="Path_1735" data-name="Path 1735" d="M139.694,207.782a8.355,8.355,0,0,1-2.014,2.734c-.345.326-9,8.3-18.824,2.236-3.322-2.05-6.669-5.426-6.1-8.751.422-2.469,2.871-4.219,7.277-5.175,2.014-.437,3.187-2.049,4.428-3.755,1.39-1.911,2.965-4.076,5.846-3.8,2.482.244,6.059,2.875,6.96,5.122.335.835.689,1.632,1.028,2.4,1.37,3.086,2.679,6.043,1.4,8.985m-24.945-4.013a2.383,2.383,0,0,0-.164.546c-.336,1.958,1.774,4.714,5.246,6.856,8.757,5.407,16.491-1.923,16.569-2l.01-.01c3.142-2.954,1.968-5.6.19-9.613-.349-.787-.712-1.6-1.055-2.461-.643-1.6-3.631-3.791-5.417-3.965-1.736-.169-2.714,1.044-4.164,3.038-1.327,1.824-2.83,3.892-5.536,4.479-3.138.681-5.08,1.756-5.678,3.129" transform="translate(45.663 71.081)" fill="#09161c"/>
      <path id="Path_1736" data-name="Path 1736" d="M127.174,16.5s-5.364-3.355-8.151,1.288-2.878,8.552-.2,9.505,10.5-4.176,8.35-10.793" transform="translate(47.509 -6.661)" fill="#f0ec1e"/>
      <path id="Path_1737" data-name="Path 1737" d="M128.039,22.414a10.508,10.508,0,0,1-2.345,3.316c-2.258,2.2-5.159,3.342-6.9,2.725a3.658,3.658,0,0,1-2.275-2.284c-.75-2.092-.026-5.215,1.99-8.572a5.643,5.643,0,0,1,3.566-2.751A8.641,8.641,0,0,1,127.948,16l.286.179.105.32a8.223,8.223,0,0,1-.3,5.913M118.987,20.7c-.859,1.973-1.129,3.7-.72,4.846a1.807,1.807,0,0,0,1.149,1.162c.783.278,3.008-.382,4.983-2.306a7.14,7.14,0,0,0,2.275-6.986,6.5,6.5,0,0,0-4.174-.76,3.8,3.8,0,0,0-2.4,1.9,18.692,18.692,0,0,0-1.115,2.144" transform="translate(47.226 -6.945)" fill="#09161c"/>
      <path id="Path_1738" data-name="Path 1738" d="M81.368,26.991s9.149,6.255,13.987-5.361c2.845-6.83-.531-15.1-4.13-18.518-3.449-3.277-4.395-3.133-7.6-.529-1.505,1.224-2.572,6.986-2.42,9.713.422,7.551-4.592,11.57.16,14.7" transform="translate(30.909 -13.153)" fill="#f0ec1e"/>
      <path id="Path_1739" data-name="Path 1739" d="M96.352,22.6c-1.637,3.758-3.91,6.089-6.764,6.936-4.275,1.267-8.2-1.321-8.454-1.491-3.394-2.238-2.565-5.1-1.687-8.119a20.759,20.759,0,0,0,1.116-7.3c-.157-2.767.877-8.951,2.76-10.484,3.484-2.832,4.975-3.08,8.823.577,3.609,3.429,7.486,12.013,4.347,19.548-.046.112-.094.222-.141.332m-14.18,3.906c.055.037,3.442,2.28,6.9,1.246,2.369-.708,4.294-2.829,5.707-6.2,2.682-6.44-.549-14.3-3.912-17.49-3.11-2.953-3.527-2.8-6.375-.482-1.041.846-2.242,6.024-2.079,8.94a22.577,22.577,0,0,1-1.185,7.918c-.943,3.252-1.24,4.629.93,6.056Z" transform="translate(30.628 -13.436)" fill="#09161c"/>
      <path id="Path_1740" data-name="Path 1740" d="M47.793,143.441a2.891,2.891,0,0,0,2.418-1.239c1.117-1.719,2.718-5.2-.483-7.674-4.409-3.412-8.584-3.908-10.155-1.184-1.452,2.519,1.766,10.207,8.22,10.1" transform="translate(13.198 44.717)" fill="#f0ec1e"/>
      <path id="Path_1741" data-name="Path 1741" d="M52.175,141.333a11.485,11.485,0,0,1-.9,1.661,3.827,3.827,0,0,1-3.181,1.66,9.182,9.182,0,0,1-8.105-4.868c-1.438-2.44-1.8-5.1-.936-6.62a4.32,4.32,0,0,1,2.995-2.112c2.343-.46,5.453.642,8.533,3.027,2.307,1.785,2.852,4.369,1.6,7.253M48.06,142.8a1.977,1.977,0,0,0,1.657-.816c1.224-1.885,2.177-4.538-.274-6.434-2.617-2.026-5.249-3.025-7.039-2.672a2.468,2.468,0,0,0-1.743,1.217c-.477.786-.234,2.781.926,4.751A7.529,7.529,0,0,0,48.06,142.8" transform="translate(12.914 44.433)" fill="#09161c"/>
      <path id="Path_1742" data-name="Path 1742" d="M69.532,177.819s-.927-3.805-2.019-7.52c-1.433-4.875-6.272-5.11-7.844-2.386s2.323,11.495,9.863,9.906" transform="translate(22.079 59.997)" fill="#f0ec1e"/>
      <path id="Path_1743" data-name="Path 1743" d="M70.941,178.814l-.936.2a8.916,8.916,0,0,1-9.335-3.758c-1.862-2.567-2.507-5.792-1.524-7.52a4.564,4.564,0,0,1,4.538-2.17c2.337.277,4.206,2.058,5,4.758,1.086,3.693,2.02,7.524,2.029,7.563ZM60.69,168.787c-.448,1.03.016,3.354,1.482,5.375a7.165,7.165,0,0,0,6.493,3.177c-.345-1.368-1.018-3.965-1.762-6.494-.578-1.965-1.864-3.253-3.439-3.44a2.683,2.683,0,0,0-2.711,1.256c-.023.04-.043.082-.063.127" transform="translate(21.797 59.713)" fill="#09161c"/>
      <path id="Path_1744" data-name="Path 1744" d="M23.69,146.438s2.722-.029,1.631-3.743c-1.433-4.875-6.272-5.11-7.844-2.386s-1.327,7.719,6.213,6.13" transform="translate(3.242 47.798)" fill="#f0ec1e"/>
      <path id="Path_1745" data-name="Path 1745" d="M26.519,145.966a2.784,2.784,0,0,1-.314.548,2.925,2.925,0,0,1-2.112,1.13c-4.373.9-6.342-.35-7.224-1.566-1.286-1.774-.881-4.267.088-5.951a4.564,4.564,0,0,1,4.538-2.17c2.336.278,4.206,2.058,5,4.758a4.763,4.763,0,0,1,.026,3.25m-2.567-.173a1.088,1.088,0,0,0,.769-.4,2.7,2.7,0,0,0-.007-2.159c-.578-1.965-1.864-3.252-3.44-3.439a2.676,2.676,0,0,0-2.709,1.256c-.655,1.125-.989,2.838-.195,3.932s2.719,1.393,5.412.825Z" transform="translate(2.958 47.514)" fill="#09161c"/>
      <path id="Path_1746" data-name="Path 1746" d="M120.588,229.42s2.722-.029,1.631-3.743c-1.433-4.875-6.272-5.11-7.844-2.386s-1.327,7.719,6.213,6.13" transform="translate(46.063 84.469)" fill="#f0ec1e"/>
      <path id="Path_1747" data-name="Path 1747" d="M123.418,228.948a2.784,2.784,0,0,1-.314.548,2.926,2.926,0,0,1-2.112,1.13c-4.373.9-6.342-.35-7.224-1.566-1.286-1.774-.881-4.267.088-5.951a4.564,4.564,0,0,1,4.538-2.17c2.336.278,4.206,2.058,5,4.758a4.763,4.763,0,0,1,.026,3.25m-2.567-.173a1.088,1.088,0,0,0,.769-.4,2.7,2.7,0,0,0-.007-2.159c-.578-1.965-1.864-3.251-3.44-3.439a2.676,2.676,0,0,0-2.709,1.256c-.655,1.125-.989,2.838-.195,3.932s2.719,1.393,5.412.825Z" transform="translate(45.779 84.185)" fill="#09161c"/>
      <path id="Path_1748" data-name="Path 1748" d="M41.926,167.559a5.317,5.317,0,0,0,1.928-5.8c-1.433-4.875-6.272-5.109-7.844-2.385s-.515,7.879,5.916,8.18" transform="translate(11.49 56.226)" fill="#f0ec1e"/>
      <path id="Path_1749" data-name="Path 1749" d="M44.794,166.021a6.281,6.281,0,0,1-2.058,2.585l-.258.179-.311-.016c-3.129-.147-5.5-1.417-6.683-3.577a6.244,6.244,0,0,1,.007-5.994,4.567,4.567,0,0,1,4.536-2.17c2.337.278,4.208,2.058,5,4.758a6.092,6.092,0,0,1-.235,4.235m-2.882.874a4.333,4.333,0,0,0,1.337-4.585c-.578-1.965-1.864-3.251-3.44-3.439a2.677,2.677,0,0,0-2.709,1.256,4.387,4.387,0,0,0,.013,4.174c.585,1.071,1.892,2.368,4.8,2.594" transform="translate(11.206 55.941)" fill="#09161c"/>
      <path id="Path_1750" data-name="Path 1750" d="M40.86,184.464s4.065,11.375,8.79,8.444,5.011-9.064,1.853-11.9-11.685-4.93-10.643,3.452" transform="translate(13.88 65.453)" fill="#f0ec1e"/>
      <path id="Path_1751" data-name="Path 1751" d="M54.06,189.831a9.234,9.234,0,0,1-3.637,4.153,3.8,3.8,0,0,1-3.355.4c-3.85-1.345-6.507-8.506-6.8-9.319l-.048-.2c-.495-3.974,1.045-5.665,2.424-6.388,3.044-1.592,7.625.215,9.76,2.13a7.732,7.732,0,0,1,2.358,6.451,8.861,8.861,0,0,1-.705,2.773m-12.007-5.3c.748,2.048,3.11,7.217,5.629,8.095a1.926,1.926,0,0,0,1.763-.222,7.219,7.219,0,0,0,3.471-5.514,5.862,5.862,0,0,0-1.749-4.9c-1.912-1.716-5.675-2.905-7.661-1.869-1.227.643-1.717,2.128-1.453,4.414" transform="translate(13.595 65.166)" fill="#09161c"/>
      <path id="Path_1752" data-name="Path 1752" d="M77.123,45.534s2.722-.029,1.631-3.743c-1.433-4.875-6.272-5.11-7.844-2.386s-1.327,7.719,6.213,6.13" transform="translate(26.855 3.207)" fill="#f0ec1e"/>
      <path id="Path_1753" data-name="Path 1753" d="M79.954,45.064a2.779,2.779,0,0,1-.316.546,2.92,2.92,0,0,1-2.111,1.13c-4.375.9-6.344-.35-7.225-1.566-1.288-1.774-.877-4.267.088-5.949a4.565,4.565,0,0,1,4.538-2.172c2.336.278,4.206,2.058,5,4.76a4.781,4.781,0,0,1,.026,3.25m-2.568-.173a1.1,1.1,0,0,0,.769-.4,2.706,2.706,0,0,0-.007-2.159c-.578-1.967-1.864-3.253-3.44-3.44A2.678,2.678,0,0,0,72,40.152c-.655,1.125-.989,2.838-.195,3.934s2.719,1.391,5.413.825Z" transform="translate(26.571 2.923)" fill="#09161c"/>
      <path id="Path_1754" data-name="Path 1754" d="M35.975,98.687s3.527-.037,2.111-4.849c-1.857-6.317-8.127-6.621-10.161-3.091s-1.72,10,8.05,7.941" transform="translate(7.758 25.668)" fill="#f0ec1e"/>
      <path id="Path_1755" data-name="Path 1755" d="M39.308,97.885a3.306,3.306,0,0,1-.378.655,3.5,3.5,0,0,1-2.554,1.355c-5.536,1.148-8-.407-9.1-1.918-1.6-2.2-1.089-5.3.13-7.41a5.642,5.642,0,0,1,5.609-2.678c2.916.347,5.251,2.58,6.248,5.971a5.932,5.932,0,0,1,.045,4.024m-3.066.159a1.7,1.7,0,0,0,1.207-.621c.43-.6.441-1.648.033-3.038-.78-2.656-2.532-4.395-4.688-4.652a3.74,3.74,0,0,0-3.779,1.762c-.891,1.533-1.338,3.877-.236,5.393,1.116,1.54,3.637,1.947,7.289,1.177Z" transform="translate(7.472 25.385)" fill="#09161c"/>
      <path id="Path_1756" data-name="Path 1756" d="M120.815,63.213s-11.8.718-12.958-11.658c-.679-7.277,5.707-12.638,10.676-13.739,4.764-1.057,10.059.833,12.556,4.679,1.174,1.808,1.249,6.467.157,8.721-3.019,6.239-4.342,11.729-10.431,12" transform="translate(43.503 3.148)" fill="#f0ec1e"/>
      <path id="Path_1757" data-name="Path 1757" d="M132.972,49.982a7.987,7.987,0,0,1-.606,1.922c-.482.993-.92,1.968-1.34,2.907-2.258,5.024-4.2,9.362-9.889,9.613-.508.022-12.718.41-13.922-12.5-.73-7.8,6.151-13.567,11.4-14.731,5.185-1.149,10.876.988,13.537,5.081,1.044,1.611,1.34,5.067.82,7.707m-23.76-1.188a10.253,10.253,0,0,0-.149,2.959C110.12,63.063,120.6,62.6,121.043,62.571h.014c4.539-.2,6.106-3.69,8.274-8.519.431-.953.875-1.945,1.364-2.956.953-1.97.9-6.275-.1-7.809-2.251-3.468-7.119-5.269-11.577-4.281-3.876.859-8.778,4.577-9.8,9.789" transform="translate(43.219 2.864)" fill="#09161c"/>
      <path id="Path_1758" data-name="Path 1758" d="M148.137,52.217s3.106-5.471-1.263-7.505-8.029-1.624-8.9,1.014,3.983,9.351,10.164,6.491" transform="translate(56.789 5.755)" fill="#f0ec1e"/>
      <path id="Path_1759" data-name="Path 1759" d="M150.27,50.078a10.52,10.52,0,0,1-1.043,2.88l-.147.26-.27.124a7.8,7.8,0,0,1-8.783-1.376c-2.078-1.854-3.213-4.554-2.653-6.249a4.02,4.02,0,0,1,2.3-2.473c1.954-.844,4.826-.512,7.877.91a4.677,4.677,0,0,1,2.629,2.852,6.224,6.224,0,0,1,.092,3.073m-2.523,1.7c.337-.7,1.164-2.652.66-4.218a2.85,2.85,0,0,0-1.641-1.729c-2.535-1.181-4.913-1.513-6.359-.89a2.158,2.158,0,0,0-1.27,1.354c-.3.869.516,2.842,2.125,4.281a5.981,5.981,0,0,0,6.484,1.2" transform="translate(56.507 5.472)" fill="#09161c"/>
      <path id="Path_1760" data-name="Path 1760" d="M112.859,82.6s2.916-5.616-1.936-8.023-8.754-2.183-9.489.562,5,10.134,11.426,7.46" transform="translate(40.659 18.786)" fill="#f0ec1e"/>
      <path id="Path_1761" data-name="Path 1761" d="M114.776,80.888a9.918,9.918,0,0,1-.809,2.421l-.157.3-.311.13c-3.119,1.3-6.549.606-9.41-1.9-2.372-2.076-3.736-4.862-3.269-6.66a3.661,3.661,0,0,1,2.094-2.451c2.026-.914,5.2-.441,8.706,1.3a5.651,5.651,0,0,1,3.027,3.335,7.03,7.03,0,0,1,.13,3.525m-2.32,1.265a6.508,6.508,0,0,0,.424-4.223,3.808,3.808,0,0,0-2.085-2.238c-2.963-1.471-5.622-1.945-7.117-1.27a1.812,1.812,0,0,0-1.066,1.24c-.218.78.621,2.966,2.7,4.783a7.14,7.14,0,0,0,7.146,1.709" transform="translate(40.375 18.503)" fill="#09161c"/>
    </g>
  </g>
  <g id="Group_122" data-name="Group 122">
    <g id="Group_121" data-name="Group 121" clip-path="url(#clip-path)">
      <path id="Path_1763" data-name="Path 1763" d="M89.5,49.548l44.04,3.146L130.4,96.885,92.461,93.405S89.113,54.756,89.5,49.548" transform="translate(39.538 21.896)" fill="#ef67aa"/>
      <path id="Path_1764" data-name="Path 1764" d="M51.163,295.057h4.291v4.513h2.4v-4.513h4.291v12.584H57.853v-4.529h-2.4v4.529H51.163Z" transform="translate(22.61 130.39)" fill="#09161c"/>
      <path id="Path_1765" data-name="Path 1765" d="M63.22,295.639h4.291l3.883,11.744H67.1l-.487-1.477H64.135l-.487,1.477H59.356Zm2.623,7.936-.467-1.426-.469,1.426Z" transform="translate(26.23 130.647)" fill="#09161c"/>
      <path id="Path_1766" data-name="Path 1766" d="M68.268,295.639H72.56L74.939,300l2.4-4.344v-.017h4.291v11.746H77.338v-3.759l-2.379,3.759-2.4-3.776v3.776H68.268Z" transform="translate(30.169 130.647)" fill="#09161c"/>
      <path id="Path_1767" data-name="Path 1767" d="M78.662,295.639h6.711c2.216,0,4.291,1.577,4.291,3.289v5.15c0,1.729-2.075,3.306-4.291,3.306H78.662Zm6.141,3.289H82.952V304.1H84.8a.527.527,0,0,0,.57-.486v-4.229c0-.251-.306-.453-.57-.453" transform="translate(34.762 130.647)" fill="#09161c"/>
      <path id="Path_1768" data-name="Path 1768" d="M90.451,295.639h4.29l3.885,11.744H94.334l-.487-1.477H91.366l-.487,1.477H86.587Zm2.623,7.936-.467-1.426-.469,1.426Z" transform="translate(38.264 130.647)" fill="#09161c"/>
      <path id="Path_1769" data-name="Path 1769" d="M95.5,295.639h4.291l2.4,4.412v-4.412h4.291v11.746H102.19l-2.4-3.776v3.776H95.5Z" transform="translate(42.203 130.647)" fill="#09161c"/>
      <rect id="Rectangle_79" data-name="Rectangle 79" width="4.291" height="11.746" transform="translate(150.33 426.286)" fill="#09161c"/>
      <path id="Path_1770" data-name="Path 1770" d="M54.9,232.929c-3.342-5.416-12.276-8.81-12.366-8.845l.49-1.309c.385.144,9.47,3.595,13.065,9.42Z" transform="translate(18.799 98.447)"/>
      <path id="Path_1771" data-name="Path 1771" d="M36.71,202.372l1.8,7.466,3.84-4.581s-.89-4.347-5.635-2.885" transform="translate(16.223 89.298)"/>
      <path id="Path_1772" data-name="Path 1772" d="M53.815,199.568l.326,7.815-4.923-2.97a6.155,6.155,0,0,1,4.6-4.845" transform="translate(21.75 88.192)"/>
    </g>
  </g>
</svg>
