<?xml version="1.0" encoding="UTF-8"?><svg id="Layer_1" xmlns="http://www.w3.org/2000/svg" xmlns:xlink="http://www.w3.org/1999/xlink" viewBox="0 0 417.29 213.52"><defs><style>.cls-1,.cls-2{fill:none;}.cls-2{stroke:#000;stroke-miterlimit:10;stroke-width:3px;}.cls-3{clip-path:url(#clippath);}.cls-4{fill:#f62a20;}.cls-5,.cls-6{fill:#f2f91c;}.cls-7{fill:#ef67aa;}.cls-8{fill:#e2f273;}.cls-9{fill:#dfeb7d;}.cls-10{fill:#09161c;}.cls-11{fill:#603d78;}.cls-12{clip-path:url(#clippath-1);}.cls-13{fill:#854ca0;opacity:.74;}.cls-13,.cls-6{isolation:isolate;}.cls-6{opacity:.92;}</style><clipPath id="clippath"><rect class="cls-1" width="417.29" height="213.52"/></clipPath><clipPath id="clippath-1"><rect class="cls-1" x="-6.97" y="51.41" width="424.26" height="173.79"/></clipPath></defs><g class="cls-3"><g><path id="Path_2509" class="cls-13" d="M512.94,153.21c-151.48-135.81-86.82,56.06-272.36,28.65C55.04,154.45,16.58,23.6-89.85,43.85c-106.44,20.26-161.34,192.72-84.81,234.23,76.53,41.51,300.44,16.05,300.44,16.05,0,0,538.65-5.1,387.17-140.92Z"/><g id="Group_314"><g class="cls-12"><g id="Group_140"><path id="Path_1936" class="cls-10" d="M271.11,175.52c.18-.63,.83-1.01,1.46-.84,.63,.16,1.01,.79,.86,1.42,0,0,0,0,0,.01-.18,.63-.83,1.01-1.46,.84-.63-.16-1.01-.79-.86-1.42,0,0,0,0,0-.01"/><path id="Path_1937" class="cls-6" d="M245.75,146.63s11.85-5.2,17.45-10.2c0,0,6.85,4.19,9.25,10.47,1.44,3.77,1.05,7.68-1.98,11.49-.46,.58-4.3,1.72-4.3,1.72l5.36,5.98,12.54,21.97,5.18-4.18,1.14,3.9-12.87,8.39-2.11-3.8,6.04-2.83c-.98-1.64-13.83-23.28-15.86-26.04-1.61,.85-3.43,1.25-5.25,1.15-6.29-.23-11.65-4.61-13.14-10.72-.5-2.02-1.01-4.47-1.44-7.31"/><path id="Path_1938" class="cls-7" d="M268.47,158.52s-1.83-5.4-4.18-8.26c-2.8-3.41,.89,9.85,.89,9.85l3.07,6.08s-9.73,26.91-15.11,35.62,10.77,8.48,10.77,8.48c0,0,9.95-45.67,11.07-51.18s1.64-15.17-6.72-18.19c0,0,9.2,12.46,.21,17.59"/><path id="Path_1939" class="cls-6" d="M28.93,64.31s-11.06,6.68-18.42,8.4c0,0,2.46,19.43,15.57,18.6,.7-.04,1.4-.12,2.09-.24l13.41,26.14-6.43,1.85,3.22,4.66,15.88-6.28-2.2-4.36-7.35,3.88c-.83-1.73-11.59-23.83-12.76-27.04,6.68-3.22,5.1-11.23,5.1-11.23-1.04-5.56-3.89-10.62-8.11-14.38"/><path id="Path_1940" class="cls-6" d="M97.21,111.64s-12.74,2.46-20.25,1.55c0,0-3.13,7.3-1.41,13.79,1.03,3.89,4.66,7.59,9.38,8.98,.67,.2,1.35,.37,2.04,.49l3.26,30.73-6.69-.47,1.36,3.83,15.44-.44-.51-4.3-6.59,1.11c-.16-1.9-2.38-26.85-2.34-30.25,1.81-.21,3.53-.92,4.96-2.04,5-3.76,6.82-10.42,4.44-16.2-.78-1.94-1.8-4.22-3.11-6.79"/><path id="Path_1941" class="cls-8" d="M209.05,137.18s9.93,8.22,16.95,10.99c0,0-.86,7.88-5.57,12.74-2.82,2.91-7.82,4.42-12.64,3.39-.69-.14-1.36-.32-2.03-.54l-18.01,25.33,6.08,2.77-3.08,2.7-13.28-7.72,2.56-3.52,5.22,4.11c1.08-1.58,15.33-22.36,16.97-25.35-1.47-1.05-2.63-2.48-3.34-4.14-2.5-5.73-.81-12.43,4.11-16.29,1.64-1.32,3.66-2.83,6.07-4.46"/><path id="Path_1942" class="cls-5" d="M148.53,125.47s-9.91,1.92-15.76,1.21c0,0-3.59,14.83,6.2,17.73,.52,.16,1.05,.28,1.59,.38l2.54,22.64-5.2-.37,1.06,4.26,13.32-.34-.4-3.77-6.43,.87c-.13-1.48-1.85-20.47-1.82-23.12,5.77-.57,6.83-6.82,6.83-6.82,.79-4.31,.11-8.77-1.92-12.65"/><path id="Path_1944" class="cls-7" d="M20.37,132.27s3.74-15.18,3.87-15.8c.66-3.11,2.38-13.21-.64-22.69-.17-.53-.67-1.48-.36-1.96,1.76-2.73,5.62,8.22,5.62,8.22,0,0,7.8-10.91,8.78-7.55,.85,2.89-3.55,6.99-4.38,8.43-.09,.17,.27-.02,.27-.02,0,0,3.44-6.94,6.1-5.52,2.32,1.24-3.32,6.95-3.32,6.95,0,0,.03,.41,.36,.25s2.1-4.93,4.2-4.1c2.14,.85,.52,4.85-.52,7.2-.34,.77-.45,1.62-.33,2.46,0,0,7.56-5.19,7.73-2.01,.11,1.95-12.01,8.29-14.52,11.51-1.64,2.12-4.65,15.48-4.65,15.48l-8.21-.86Z"/><path id="Path_1945" class="cls-7" d="M68.05,182.51s6.09-12.2,4.46-23.54c-1.69-11.45,6.02-22.17,17.42-24.22,1.2-.2,1.32,.12,1.3,.44s-8.71,6.36-8.53,6.78c.11,.26,8.84-6.23,11.26-6.6,.05,0,.09,0,.13,.01,.33,.1,.53,.45,.43,.78-.03,.11-.09,.21-.18,.29-2.35,2.43-7.95,6.53-8.74,7.57,0,0,10.89-8.75,11.31-7.13,.96,1.59-10.23,10.37-10.23,10.37,0,0,8.51-6.81,9.77-5.47s-10.21,11.58-10.21,11.58c0,0,9.48-4.71,10.13-3.45,.25,.48-1.22,2.75-3.74,4.93-4.06,3.51-8.34,4.23-8.03,6.17,0,0-4.57,18.52-3.48,22.5"/><path id="Path_1946" class="cls-2" d="M72.46,167.71s-8.87-1.01-.81,4.42c4.38,2.95,13.12,1.14,13.4-.22,.45-2.18-2.26-2.82-2.26-2.82"/><path id="Path_1947" class="cls-11" d="M59.22,222.03l4.86-41.02,21.3,2.22s2.52,39.52,0,38.8h-26.16Z"/><path id="Path_1948" class="cls-6" d="M310.3,113.39s12.74,2.46,20.25,1.55c0,0,3.13,7.3,1.41,13.79-1.03,3.89-4.66,7.59-9.38,8.98-.67,.2-1.35,.37-2.04,.49l-3.26,30.73,6.69-.48-1.36,3.83-15.44-.44,.51-4.3,6.59,1.11c.16-1.9,2.38-26.85,2.34-30.25-1.81-.21-3.53-.92-4.97-2.04-5-3.76-6.82-10.42-4.44-16.2,.78-1.94,1.8-4.22,3.11-6.79"/><path id="Path_1950" class="cls-7" d="M395.61,138.93s-4.31-12.99-4.45-13.61c-.66-3.11-2.11-8.16-2.68-12.13-1.16-8.05,1.99-10.55,1.26-10.77-4.25-1.25-4.25,4.49-4.25,4.49,0,0-6.25-14.09-7.19-10.72-.51,1.84,3.58,9.95,4.41,11.4,.09,.17-.27-.02-.27-.02,0,0-2.82-6.85-4.98-5.52-1.16,.72,3.32,8.04,3.32,8.04,0,0-.03,.41-.36,.25s-2.72-5.65-4.2-4.65c-1.07,.72,1.68,3.89,2.72,6.24h0s-4.16-7.46-2.96-2.84c1.32,3.08,3.03,5.99,5.08,8.65,5.72,6.52,6.34,22.04,6.34,22.04l8.21-.87Z"/><path id="Path_1951" class="cls-7" d="M341.44,187.43s-7.85-14.11-10.57-26.82c-1.33-6.22-5.16-12.48-2.51-23.67-.54-.68-1.53-.79-2.21-.25-.18,.15-.33,.33-.44,.55-.87,1.7-1.43,7.3-1.52,7.51-.11,.26-1.02-4.57-10.64-7.62-.04,0-.09,0-.13,.01-.33,.1-.53,.45-.43,.78,.03,.11,.09,.21,.18,.29,2.35,2.43,7.95,6.53,8.74,7.58,0,0-10.98-8.69-11.83-7.74-1.25,1.39,10.76,10.98,10.76,10.98,0,0-8.51-6.81-9.77-5.48s10.21,11.58,10.21,11.58c0,0-9.48-4.71-10.13-3.45-.25,.48,1.22,2.75,3.74,4.93,4.06,3.51,8.34,4.23,8.03,6.17,0,0,4.38,21.21,3.28,25.2"/><path id="Path_1952" class="cls-11" d="M350.29,222.04l-8.56-39.17-18.43,4.57s-4.62,28.84-4.33,34.6h31.32Z"/><path id="Path_1953" class="cls-7" d="M147.74,150.47s-.5-1.07-1.89-3.5c-1.59-2.77-4.01-8.12-1.31-8.45,1.82-.22,3.91,4.77,9.14,11.86,3.16,4.24,4.99,9.31,5.27,14.59,.1,2.11,.06,4.23-.13,6.33-.1,1.12-6.78,35.67-6.97,36.89l-14.84,4.87s10.3-35.15,10.98-37.77c1.64-6.28,1.69-15.13-8.68-21.03-10.35-5.89-5.97-6.11-5.97-6.11l7.59,3.27s-11.18-7.35-10-9.04,11.57,6.01,11.57,6.01c0,0-11.23-8.22-10.35-9.92,2.61-1.78,10.35,6.63,10.35,6.63,0,0-7.77-9.83-3.19-10.72,.54,.32,1.55,2.67,2.67,4.98,1.73,3.56,3.72,8.19,4.29,9l1.48,2.09Z"/><path id="Path_1954" class="cls-6" d="M151.07,122.18s-14.4,1.76-20.24,1.05c0,0-1.64,18.27,8.15,21.17,.52,.16,1.05,.28,1.59,.38l2.54,22.64-5.2-.37,1.06,4.26,13.32-.34-.4-3.77-6.43,.87c-.13-1.48-1.85-20.47-1.82-23.12,.4,.06,.8,.01,1.17-.14-.19-.1-2.37-4.48-1.34-5.84,1.32-1.75,7-.84,7-.84,0,0,4.02-9.26,.6-15.94"/><path id="Path_1955" class="cls-7" d="M206.88,202.98s-5.8-19.45,1.58-40.02c.16-.49-.1-1.02-.59-1.18-.24-.08-.51-.06-.74,.07-2.34,1.17-3.86,3.63-4.62,8.91,0,0-.53-11.64,.49-16.11,.24-.93-.13-1.91-.91-2.46-.29-.07-.59-.09-.89-.06-.76,.24-1.16,12.23-2.17,12.72,.05-3.94,.47-7.86,1.26-11.72,.17-.9-.03-1.83-.56-2.58-.87-1.31-2.52,5.21-3.19,12.97,0,0-.75-1.39,1.7-13.48,.06-.29-1.01-1.13-1.25-.96-1,.72-2.53,3.55-3.45,14.76-.5-2.52-.59-5.1-.27-7.65,.17-.94,.09-1.9-.24-2.8-.13-.24-.43-.34-.67-.21-.07,.04-.14,.09-.18,.16-.66,1-1.72,3.74-1.29,10.79,.3,4.95,4.18,10.63,5.3,15.07,.75,2.98-.96,11.38-1.25,14.44l-1.05,10.98s12.84-.27,13.01-1.63"/><path id="Path_1956" class="cls-7" d="M202.89,153.16l1.05,1.61-.87-.65-.18-.96Z"/><path id="Path_1957" class="cls-7" d="M200.03,151.09l.58,1.17-.36-.26-.22-.92Z"/><path id="Path_1958" class="cls-6" d="M209.05,137.18l16.95,10.99s-.86,7.88-5.57,12.74c-2.8,3.19-7.14,4.58-11.28,3.61-.73-.15,2.16-7.48,1.53-7.68l-5.11,4.26-3.15,7.34-14.68,20.65,6.08,2.77-3.08,2.7-13.28-7.72,2.56-3.52,5.22,4.11c1.08-1.58,15.33-22.36,16.97-25.35-1.47-1.05-2.63-2.48-3.34-4.14-2.5-5.73-.81-12.43,4.11-16.29,1.64-1.32,3.66-2.83,6.07-4.46"/><path id="Path_1959" class="cls-9" d="M315.64,152.21l3.22,1.61-1,9.36-2.96-1.05,.74-9.92Z"/><path id="Path_1960" class="cls-6" d="M385.94,70.43s12.73,6.68,20.09,8.4c0,0-3.57,19.43-16.69,18.6-.7-.04-1.4-.12-2.09-.24l-13.4,26.13,6.43,1.85-3.23,4.66-15.88-6.28,2.2-4.36,7.35,3.88c.83-1.72,11.59-23.83,12.76-27.03-6.68-3.22-5.1-11.23-5.1-11.23,.67-5.56,3.35-10.67,7.55-14.38"/><path id="Path_1961" class="cls-7" d="M380.08,103.32s1.9,2.63,1.2,4.54-2.55-1.43-2.55-1.43l1.35-3.11Z"/><path id="Path_1962" class="cls-7" d="M378.29,106.9s2.24,2.55,1.79,3.42c-.38,.75-2.08-.58-2.59-1.04-.08-.08-.14-.16-.2-.26l.99-2.13Z"/><path id="Path_1963" class="cls-7" d="M377.29,109.2c.52,.72,.93,1.52,1.24,2.35-.01,.48-.48,1.25-1.93-1.01l.69-1.35Z"/><path id="Path_1964" class="cls-10" d="M263.29,172.59c-.01-.85,.67-1.55,1.52-1.56,.85-.01,1.55,.67,1.56,1.52,.01,.85-.67,1.55-1.52,1.56,0,0-.02,0-.03,0-.84,0-1.53-.67-1.54-1.51h0"/><path id="Path_1965" class="cls-10" d="M265.39,175.62c-.02-.85,.66-1.55,1.51-1.57,.85-.02,1.55,.66,1.57,1.51,.02,.85-.66,1.55-1.51,1.57,0,0-.02,0-.03,0-.84,0-1.53-.67-1.54-1.51h0"/><path id="Path_1966" class="cls-10" d="M268.26,177.13c-.02-.85,.66-1.55,1.51-1.57,.85-.02,1.55,.66,1.57,1.51,.02,.85-.66,1.55-1.51,1.57,0,0-.02,0-.03,0-.84,0-1.53-.67-1.54-1.51h0"/><path id="Path_1943" class="cls-11" d="M1.25,222.04s10.1-87.32,14.2-92.05l20,2.32s-18.5,81.87-13.03,89.73H1.25Z"/><path id="Path_2014" class="cls-4" d="M73.95,106.28c-2.2-.92-4.54-1.5-6.92-1.72-4.72-.6,4.02-9.83,7.26-1.23,3.24,8.6-.34,2.95-.34,2.95Z"/><path id="Path_2015" class="cls-4" d="M383.26,67.12s2.15-9.62-1.73-10.26c-3.88-.64-4.23,3.62-.76,5.96s2.49,4.31,2.49,4.31Z"/><path id="Path_2016" class="cls-4" d="M259.18,136.1c-1.56,2.11,4.78-2.45,3.81-5.1s-3.14-2.94-4.04-1.37c-.9,1.58,1.79,4.35,.23,6.46Z"/><path id="Path_2017" class="cls-4" d="M212.66,136.43c.27,2.04,1.1-3.7-.62-4.93s-2.87-.44-2.55,.96c.33,1.4,2.9,1.93,3.17,3.97Z"/><path id="Path_2018" class="cls-4" d="M216.81,133.12c-1.56,1.94,1.09-4.75,3.74-4.71s3.44,1.76,2.21,2.98c-1.23,1.22-4.4-.21-5.95,1.73Z"/><path id="Path_1949" class="cls-11" d="M416.53,220.78l-15.7-84.13-22.45,4.72s20.79,72.22,14.75,79.4h23.4Z"/><path id="Path_2256" class="cls-11" d="M131.28,230.52l3.74-30.15,22.4,1.11s2.52,29.58,0,29.04h-26.14Z"/><path id="Path_2257" class="cls-11" d="M188.1,227.48l.7-27.04,25.45-2s2.52,29.58,0,29.04h-26.15Z"/><path id="Path_2258" class="cls-11" d="M245.8,227.48l3.25-26.05,20.25-2.46s5.17,29.05,2.65,28.51h-26.15Z"/></g></g></g></g></g></svg>