<?xml version="1.0" encoding="UTF-8"?><svg id="Layer_1" xmlns="http://www.w3.org/2000/svg" xmlns:xlink="http://www.w3.org/1999/xlink" viewBox="0 0 489.99 1200.87"><defs><style>.cls-1{fill:none;}.cls-2{clip-path:url(#clippath);}.cls-3{fill:#f0ec1e;}.cls-4{fill:#f2960f;}.cls-5{fill:#f0271d;}.cls-6{fill:#80cb9d;}.cls-7{fill:#9971ba;}.cls-8{fill:#09161c;}.cls-9{clip-path:url(#clippath-1);}.cls-10{clip-path:url(#clippath-2);}</style><clipPath id="clippath"><rect class="cls-1" x="0" width="536.45" height="1131.8"/></clipPath><clipPath id="clippath-1"><rect class="cls-1" x="-392.72" y="-118.69" width="474.75" height="1212.38" transform="translate(-421.45 50.49) rotate(-49.01)"/></clipPath><clipPath id="clippath-2"><path class="cls-1" d="M-385.08,587.55l15.96,17.01c81.44-82.16-18.27-105.42,.04-150.79,2.13-5.01,5.09-9.64,8.73-13.68-68.66,36.88,37.83,102.1-24.73,147.46m-22.51-203.76c-36.76,33.25-36.87,86.26-82.09,113.23,15.18,12.88,28.99,27.3,41.22,43.02,8.96,11.38,14.67,19.93,18.12,22.98l.17,.15c3.05,2.59,4.25,.63,4.32-7.9,2.02-228.69,171.98-154.16,101.37-94.16-.84,8.18,11.75,2.77,17.57-3.99,19.53-25.96,11.42-51.05-7.68-67.65-24.59-21.37-67.41-28.67-92.98-5.68M93.49,677.23c-17.76-11.15-51.24-12.97-71.59,25.43-43.99,82.98-124.57-12.75-185.85,80.09,33.9,31.23,13.03-35.93,86-28.51,25.7,1.7,53.09,9.29,75.14,1.43,11.58-4.13,20.86-13.31,26.1-24.58,19.69-42.29,65.15-56.47,78.96-5.56,12.9,36.95-7.26,76.53-63.16,79.94-34.64,1.89-58.77-22.28-95.52-19.63-30.8,2.22-47.02,23.36-67.73,31.52l26.7,19.42c35.63-64.96,139.86,13.71,190.4-27.77,39.7-32.59,35.15-102.38,5.83-127.86-1.66-1.44-3.42-2.76-5.28-3.93m-318.3-156.32c-5.68,5.84-8.81,13.69-8.7,21.83,.85,47.96,2.44,118.71-51.85,134.27,0,0,16.36,14.17,16.35,14.17,3.09-1.51,6.03-3.01,8.82-4.51,74.47-40.05,43.14-78.64,42.91-127.5-.09-18.67,17.09-33.76,35.16-30.7,55.08,9.34,132.3,105.36,170.85,8-68.67,61.01-152.63-78.19-213.55-15.57m-152.14-196.79c156.51-2.9,130.56,235.1,35.45,301.65l28.36,24.64c86.16-100.14,114.99-281.02-11.81-342.83-33.26-16.21-43.23-8.36-65.01-12.12-60.64-15.06-2.99-80.13,34-72.22-95.9-20.51-130.76,95.57-21,100.88M52.13,544.46c-36.31,23.4-28.3,98.7-77.1,94.83-8.24-.7-16.16-3.55-22.96-8.27-19.39-13.27-36.81-31.98-57.12-42.57-28.87-15.06-65.9,4.55-71.99,38.03-7.3,40.1-6.85,88.72-54.25,96.66,61.89,70.7,72.83-36.86,83.05-89.18,2.2-11.24,11.66-20.17,22.89-21.22,18.53-1.74,36.29,14.68,54.15,31.19,37.42,34.59,75.29,69.58,121.75-61.22,2.84-8.01,11.14-18.16,18.59-22.27,19.7-10.87,46.96-5.66,83.81,37.8,9.44-2.41,3.18-13.03-10.14-24.6-24.13-20.97-71.45-45.07-90.67-29.18m248.49,57.57c-20.16,11.63-28.49,37.31-17.24,56.89,18.05,31.41,43.32,66.49-17.63,45.08-51.09-21.5-100.18-22.59-112.06,35.75-7.16,53.4,83.08,75.21,112.57,100.63,8.62,7.43,8.1,21.26-1.08,29.18-73.37,63.32-215.72-70.11-311.51,11.81,0,0,44.21,42.02,44.21,42.01,73.83-83.64,220.01,58.49,290.45-22.28l.18-.21c4.37-5.1,8.21-10.63,11.46-16.51,4.78-8.23,7.25-17.6,7.16-27.12-.84-32.43-32.43-44.93-64.17-57.56-25.09-9.99-50.27-20.06-60.46-40.12-9.57-18.85,2.05-43.04,23.36-47.75,.12-.03,.24-.05,.36-.08,25.76-5.79,53.45,9.34,76,21.24,12.16,6.26,26.85,4.9,37.65-3.49,41.72-31.91-66.09-92.62-11.6-123.63,3-1.72,6.3-2.83,9.73-3.28,.71-.04,1.4-.21,2.04-.52-.25-.46-.58-.86-.97-1.2-3.38-2.94-12.08-2.52-18.45,1.15M-576.73,57.06c-124.77,143.56,134.54,250.69,29.09,392.87,17.21,16.9,41.88,42.84,53.95,35.91,36.2-20.78,44.6-118.13-.94-180C-643.12,104.03-438.13-73.25-393.59,21.57c6.05,12.88,6.02,28.07,.94,42.07-5.29,14.6-28.61,34.44-16.96,40.18,17.44,8.6,28.26-12.56,29.33-16.47,16.8-61.26,11.09-95.86-7.06-111.64-38.96-33.87-135.28,19.06-189.41,81.34"/></clipPath></defs><g class="cls-2"><g><path id="Path_2220" class="cls-7" d="M-423.7,504.95c3.6-10.88,74.38-102.55,146.5-98.59s44.2,181.71-72.5,198.26,73.63,76.9,21.43,110.91c-85.43,47.75-42.96,110.29-38.59,116.69,31.56,52.89,90.86,52.49,357.57,56.59,359.45,5.53,279.63-190.1,399.33-173.28s87.06,327.04-126.7,291.35-109.5,136.53-238.5,124.31c-168.94-16.01-437.8-159.49-437.8-159.49,0,0-22.27-431.86-10.75-466.73Z"/><path id="Path_2219" class="cls-7" d="M-162.61,249.99C-154.91,226.7-3.4,30.48,150.96,38.95S245.56,427.89-4.22,463.31s157.59,164.6,45.87,237.39c-182.86,102.21-91.95,236.07-82.6,249.77C26.6,1063.68-187.27,324.62-162.61,249.99Z"/><g id="Group_306"><g id="Group_300"><g class="cls-9"><g id="Group_299"><path id="Path_2312" class="cls-5" d="M300,884.35c-64.55,115.02-223.88-49.62-302.03,38.92,0,0-44.21-42.01-44.21-42.01,95.75-81.88,238.11,51.55,311.45-11.74,9.17-7.91,9.69-21.74,1.07-29.17-29.49-25.42-119.72-47.24-112.57-100.63,11.87-58.32,60.95-57.22,112.03-35.71,60.95,21.42,35.68-13.65,17.62-45.06-11.25-19.57-2.93-45.24,17.23-56.87,7.13-4.11,17.18-4.14,19.42,.05-.64,.3-1.33,.48-2.04,.52-3.43,.44-6.73,1.55-9.73,3.27-54.47,30.98,53.33,91.71,11.62,123.6-10.8,8.38-25.48,9.74-37.64,3.48-22.55-11.9-50.23-27.03-75.99-21.25l-.36,.08c-21.31,4.71-32.92,28.89-23.35,47.74,23.08,45.45,123.1,39.64,124.62,97.68,.1,9.51-2.37,18.88-7.14,27.11"/><path id="Path_2313" class="cls-6" d="M93.5,677.2c33.94,21.29,41.44,97.32-.52,131.76-50.52,41.46-154.75-37.21-190.35,27.72l-26.7-19.42c20.7-8.15,36.91-29.29,67.71-31.5,36.74-2.64,60.87,21.53,95.51,19.65,55.88-3.4,76.04-42.97,63.13-79.91-13.81-50.91-59.26-36.74-78.94,5.54-5.24,11.26-14.52,20.44-26.1,24.57-22.05,7.86-49.42,.26-75.12-1.44-72.96-7.44-52.08,59.71-85.98,28.48,61.24-92.8,141.84,2.92,185.8-80.03,20.34-38.39,53.82-36.56,71.58-25.41"/><path id="Path_2314" class="cls-4" d="M52.13,544.46c29.81-24.65,108.19,43.29,100.8,53.79s-64.1-48.68-83.8-37.81c-7.45,4.1-15.74,14.25-18.59,22.26-68.58,193.18-118.5,24.61-175.85,29.98-11.23,1.05-20.68,9.98-22.88,21.21-10.21,52.3-21.12,159.83-83.01,89.13,47.39-7.92,46.93-56.54,54.22-96.62,6.09-33.46,43.1-53.06,71.97-38,20.31,10.6,37.73,29.31,57.12,42.57,6.8,4.72,14.71,7.57,22.96,8.27,48.79,3.87,40.76-71.41,77.06-94.79"/></g></g></g><g id="Group_302"><g class="cls-10"><g id="Group_301"><path id="Path_2334" class="cls-3" d="M10.45,736.17s1.18,7.9,7.35,7.25,9.92-4.58,8.52-7.28-12.11-5.73-15.87,.03"/><path id="Path_2335" class="cls-8" d="M17.85,744.52c4.16-.44,7.78-2.39,9.23-4.98,.76-1.19,.85-2.7,.23-3.97-1.06-2.05-5.45-3.77-9.55-3.8-3.67-.01-6.59,1.35-8.21,3.82l-.25,.38,.06,.43c.42,2.83,2.47,7.84,7.22,8.15,.42,.03,.85,.02,1.27-.03m-.24-10.52c3.67,.01,7.18,1.62,7.74,2.7,.27,.6,.21,1.3-.16,1.84-.89,1.58-3.53,3.36-7.42,3.77-4.4,.47-5.81-4.42-6.13-5.94,1.53-1.96,4.07-2.37,5.98-2.37"/><path id="Path_2336" class="cls-3" d="M216.75,810.79s1.18,7.9,7.35,7.25,9.92-4.58,8.52-7.28-12.11-5.73-15.87,.03"/><path id="Path_2337" class="cls-8" d="M224.14,819.15c4.16-.44,7.78-2.39,9.23-4.98,.76-1.19,.85-2.7,.23-3.97-1.06-2.05-5.44-3.77-9.55-3.8-3.67-.01-6.59,1.35-8.21,3.82l-.25,.38,.06,.43c.42,2.83,2.47,7.84,7.22,8.15,.42,.03,.85,.02,1.27-.03m-.24-10.52c3.67,.01,7.18,1.62,7.74,2.7,.27,.6,.21,1.3-.16,1.84-.89,1.58-3.53,3.36-7.42,3.77-4.4,.47-5.81-4.42-6.13-5.94,1.53-1.96,4.07-2.37,5.98-2.37"/><path id="Path_2340" class="cls-3" d="M249.66,906.04s.63,12.33,6.87,11.09,10.29-7.54,9.08-11.71-11.76-8.53-15.95,.62"/><path id="Path_2341" class="cls-8" d="M256.5,918.86c4.35-.96,7.95-4,9.63-8.14,.85-1.96,1.03-4.15,.51-6.23-.92-3.17-5.2-5.71-9.33-5.6-3.69,.11-6.71,2.35-8.52,6.28l-.27,.6,.03,.67c.23,4.42,1.92,12.2,6.67,12.5,.43,.02,.86,0,1.27-.09m.51-16.47c3.69-.12,7.09,2.28,7.58,3.95,.23,.97,.13,1.99-.29,2.89-1.42,3.19-4.3,5.49-7.72,6.17-4.46,.9-5.52-6.71-5.74-9.09,1.15-2.37,3.54-3.89,6.17-3.93"/><path id="Path_2372" class="cls-3" d="M267.84,876.22s-5.33,5.57-1.35,8.32,8.07,2.76,9.97,0-.92-10.66-8.62-8.31"/><path id="Path_2373" class="cls-8" d="M263.93,882.21c.08,1.33,.79,2.53,1.91,3.26,2.69,1.87,5.49,2.61,7.87,2.09,1.49-.3,2.8-1.18,3.65-2.43,1.24-1.82,.96-4.96-.66-7.3-1.98-2.86-5.3-3.83-9.11-2.67l-.3,.09-.22,.23c-1.01,1.08-1.85,2.31-2.49,3.65-.47,.96-.69,2.02-.66,3.08m10.94-3.03c1.19,1.72,1.33,3.86,.71,4.76-.51,.75-1.3,1.27-2.19,1.44-1.77,.38-4.03-.27-6.22-1.78-.59-.36-.98-.98-1.03-1.68-.11-1.65,1.44-3.8,2.27-4.74,3.72-1.01,5.64,.79,6.46,1.99"/><path id="Path_2374" class="cls-3" d="M16.91,629.44c-.32,1.33,.03,2.74,.95,3.76,1.42,1.57,3.91,3.45,6.43,1.21,3.84-3.43,5.07-7.46,2.96-9.8-1.89-2.11-8.93-1.19-10.34,4.83"/><path id="Path_2375" class="cls-8" d="M21.28,636.53c1.37,.13,2.72-.35,3.71-1.31,2.6-2.33,4.15-4.94,4.36-7.37,.17-1.45-.29-2.91-1.26-4.01-1.39-1.53-4.5-1.81-7.24-.61-1.17,.5-2.22,1.25-3.07,2.2-2.56,2.77-2.38,7.1,.4,9.65,.09,.08,.18,.16,.27,.24l.04,.04c.81,.63,1.77,1.04,2.78,1.18m.33-11.27c2.02-.88,4.12-.64,4.81,.13,.58,.66,.85,1.53,.74,2.4-.15,1.8-1.46,3.92-3.57,5.8-.5,.51-1.21,.78-1.92,.72-.28-.03-.55-.11-.81-.22-2.28-.96-3.34-3.59-2.38-5.86,.21-.49,.5-.94,.86-1.32,.62-.71,1.4-1.28,2.27-1.65"/><path id="Path_2376" class="cls-3" d="M280.92,722.22c-.27,1.13,.03,2.32,.81,3.19,1.2,1.33,3.32,2.93,5.45,1.02,3.25-2.91,4.29-6.32,2.51-8.3-1.6-1.79-7.56-1.01-8.76,4.09"/><path id="Path_2377" class="cls-8" d="M284.63,728.23c1.16,.11,2.31-.3,3.15-1.11,2.2-1.97,3.52-4.19,3.7-6.25,.14-1.23-.25-2.47-1.07-3.4-1.17-1.3-3.81-1.53-6.14-.52-.99,.42-1.88,1.06-2.6,1.86-2.17,2.35-2.02,6.01,.33,8.18,.08,.07,.15,.14,.23,.2l.04,.03c.68,.53,1.5,.88,2.36,1m.28-9.55c1.71-.74,3.49-.54,4.07,.11,.49,.56,.72,1.3,.63,2.04-.38,1.95-1.45,3.7-3.02,4.92-.43,.44-1.02,.66-1.63,.61-.24-.03-.47-.09-.68-.19-1.93-.81-2.83-3.04-2.02-4.97,.18-.41,.42-.8,.73-1.12,.53-.6,1.19-1.08,1.93-1.4"/><path id="Path_2378" class="cls-3" d="M108.01,700.62c-1.17-.73-2.62-.83-3.88-.29-2.06,.84-4.87,2.59-3.89,5.65,1.5,4.68,4.68,7.09,7.74,5.85,2.76-1.11,4.95-8,.03-11.22"/><path id="Path_2379" class="cls-8" d="M99.59,702.49c-.7,1.18-.85,2.6-.4,3.89,1.02,3.17,2.76,5.44,4.91,6.4,1.34,.61,2.88,.64,4.24,.08,2.01-.82,3.61-3.65,3.7-6.6,.05-1.23-.19-2.45-.7-3.57-1.64-3.21-5.57-4.48-8.78-2.84-.21,.11-.42,.23-.62,.36l-.05,.03c-.93,.56-1.71,1.32-2.29,2.24m10.24,3.84c-.07,2.17-1.19,4.07-2.2,4.47-.82,.34-1.74,.32-2.54-.06-1.59-.71-2.98-2.59-3.81-5.16-.25-.67-.19-1.41,.17-2.03,.15-.25,.34-.48,.55-.69,2.34-2.28,5.93-1.95,7.28,.83,.39,.83,.58,1.74,.54,2.65"/><path id="Path_2380" class="cls-3" d="M212.59,699.76c-.32,1.33,.03,2.74,.95,3.77,1.42,1.57,3.91,3.45,6.43,1.21,3.84-3.43,5.07-7.46,2.97-9.8-1.89-2.11-8.93-1.19-10.34,4.82"/><path id="Path_2381" class="cls-8" d="M216.96,706.85c1.37,.13,2.72-.35,3.71-1.31,2.6-2.32,4.15-4.94,4.36-7.37,.17-1.45-.29-2.91-1.26-4.01-1.39-1.53-4.5-1.81-7.24-.61-1.17,.5-2.22,1.25-3.07,2.2-2.56,2.77-2.38,7.1,.4,9.65,.09,.08,.18,.16,.27,.24l.04,.04c.81,.63,1.77,1.04,2.78,1.18m.33-11.27c2.02-.88,4.12-.64,4.81,.13,.58,.66,.85,1.53,.74,2.41-.15,1.8-1.46,3.92-3.57,5.8-.5,.51-1.21,.78-1.92,.72-.28-.03-.55-.11-.81-.22-2.28-.96-3.34-3.59-2.38-5.86,.21-.49,.5-.94,.86-1.33,.62-.71,1.4-1.28,2.27-1.65"/><path id="Path_2382" class="cls-3" d="M35.88,574.93s-5.33,5.57-1.35,8.32,8.07,2.76,9.97,0-.92-10.66-8.62-8.31"/><path id="Path_2383" class="cls-8" d="M31.96,580.92c.08,1.33,.79,2.53,1.91,3.26,2.69,1.87,5.49,2.61,7.87,2.09,1.49-.31,2.8-1.18,3.65-2.43,1.24-1.82,.96-4.96-.66-7.3-1.98-2.86-5.3-3.83-9.11-2.67l-.3,.09-.22,.23c-1.01,1.08-1.85,2.31-2.49,3.65-.47,.96-.69,2.02-.66,3.08m10.94-3.03c1.19,1.72,1.33,3.86,.71,4.76-.51,.75-1.3,1.27-2.19,1.44-1.77,.38-4.03-.27-6.22-1.78-.59-.36-.98-.98-1.03-1.68-.11-1.65,1.44-3.8,2.28-4.74,3.72-1.01,5.64,.79,6.46,1.99"/><path id="Path_2384" class="cls-3" d="M166.99,729.66s-5.33,5.57-1.35,8.32c3.98,2.75,8.07,2.76,9.97,0s-.92-10.66-8.62-8.31"/><path id="Path_2385" class="cls-8" d="M163.07,735.65c.08,1.33,.79,2.53,1.9,3.26,2.69,1.87,5.49,2.61,7.87,2.09,1.49-.3,2.8-1.18,3.65-2.43,1.24-1.82,.97-4.96-.66-7.3-1.98-2.86-5.3-3.83-9.11-2.67l-.3,.09-.22,.23c-1.01,1.08-1.85,2.31-2.49,3.65-.46,.96-.69,2.02-.66,3.08m10.94-3.03c1.19,1.72,1.33,3.86,.7,4.76-.51,.75-1.3,1.27-2.19,1.44-1.77,.38-4.03-.27-6.22-1.78-.59-.36-.98-.98-1.03-1.68-.11-1.65,1.45-3.79,2.28-4.74,3.72-1.01,5.64,.79,6.46,1.99"/><path id="Path_2388" class="cls-3" d="M132.55,881.3s-5.33,5.57-1.35,8.32,8.07,2.76,9.97,0-.92-10.66-8.62-8.31"/><path id="Path_2389" class="cls-8" d="M128.64,887.29c.08,1.33,.79,2.53,1.9,3.26,2.69,1.87,5.49,2.61,7.87,2.09,1.49-.31,2.8-1.18,3.65-2.43,1.24-1.82,.97-4.96-.66-7.3-1.98-2.86-5.3-3.83-9.11-2.67l-.3,.09-.22,.23c-1.01,1.08-1.85,2.31-2.49,3.65-.46,.96-.69,2.02-.66,3.08m10.94-3.03c1.19,1.72,1.33,3.86,.7,4.76-.51,.75-1.3,1.27-2.19,1.44-1.77,.38-4.03-.27-6.22-1.78-.59-.36-.98-.98-1.03-1.68-.11-1.65,1.45-3.79,2.28-4.74,3.72-1.01,5.64,.79,6.46,1.99"/><path id="Path_2392" class="cls-3" d="M25.38,879.12s-5.33,5.57-1.35,8.32,8.07,2.76,9.97,0-.92-10.66-8.62-8.31"/><path id="Path_2393" class="cls-8" d="M21.46,885.11c.08,1.33,.79,2.53,1.91,3.26,2.69,1.87,5.49,2.61,7.87,2.09,1.49-.3,2.8-1.18,3.65-2.43,1.24-1.82,.96-4.96-.66-7.3-1.98-2.86-5.3-3.83-9.11-2.67l-.3,.09-.22,.23c-1.01,1.08-1.85,2.31-2.49,3.65-.47,.96-.69,2.02-.66,3.08m10.94-3.03c1.19,1.72,1.33,3.86,.71,4.76-.51,.75-1.3,1.27-2.19,1.44-1.77,.38-4.03-.27-6.22-1.78-.59-.36-.98-.98-1.03-1.68-.11-1.65,1.44-3.8,2.27-4.74,3.72-1.01,5.64,.79,6.46,1.99"/><path id="Path_2394" class="cls-3" d="M60.17,809s-3.48,3.63-.88,5.43,5.27,1.8,6.51,0-.6-6.96-5.63-5.43"/><path id="Path_2395" class="cls-8" d="M57.61,812.92c.05,.87,.52,1.65,1.24,2.13,1.45,1.14,3.31,1.64,5.14,1.37,.97-.2,1.83-.77,2.38-1.59,.79-1.54,.62-3.39-.43-4.77-1.29-1.87-3.46-2.5-5.95-1.74l-.19,.06-.14,.15c-.66,.71-1.21,1.51-1.62,2.39-.3,.63-.45,1.32-.43,2.01m7.14-1.98c.7,.88,.88,2.07,.46,3.11-.33,.49-.85,.83-1.43,.94-1.45,.17-2.92-.25-4.06-1.16-.39-.24-.64-.64-.67-1.1-.07-1.08,.95-2.48,1.49-3.09,1.54-.59,3.28-.05,4.22,1.3"/><path id="Path_2406" class="cls-3" d="M274.65,823.21s-5.33,5.57-1.35,8.32c3.98,2.75,8.07,2.76,9.97,0s-.92-10.66-8.62-8.32"/><path id="Path_2407" class="cls-8" d="M270.73,829.2c.08,1.33,.79,2.53,1.91,3.26,2.69,1.87,5.49,2.61,7.87,2.09,1.49-.31,2.8-1.18,3.65-2.43,1.24-1.82,.96-4.96-.66-7.3-1.98-2.86-5.3-3.83-9.11-2.67l-.3,.09-.22,.23c-1.01,1.08-1.85,2.31-2.49,3.65-.47,.96-.69,2.02-.66,3.08m10.94-3.03c1.19,1.72,1.33,3.86,.71,4.76-.51,.75-1.3,1.27-2.19,1.44-1.77,.38-4.03-.27-6.22-1.78-.59-.36-.98-.98-1.03-1.68-.11-1.65,1.44-3.8,2.27-4.74,3.72-1.01,5.64,.79,6.46,1.99"/><path id="Path_2408" class="cls-3" d="M281.83,646.08s-5.33,5.57-1.35,8.32c3.98,2.75,8.07,2.76,9.97,0s-.92-10.66-8.62-8.31"/><path id="Path_2409" class="cls-8" d="M277.92,652.07c.08,1.33,.79,2.53,1.91,3.26,2.69,1.87,5.49,2.61,7.87,2.09,1.49-.3,2.8-1.18,3.65-2.43,1.24-1.82,.97-4.96-.66-7.3-1.98-2.86-5.3-3.83-9.11-2.67l-.3,.09-.22,.23c-1.01,1.08-1.85,2.31-2.49,3.65-.47,.96-.69,2.02-.66,3.08m10.94-3.03c1.19,1.72,1.33,3.86,.71,4.76-.51,.75-1.3,1.27-2.19,1.44-1.77,.38-4.03-.27-6.22-1.78-.59-.36-.98-.98-1.03-1.68-.11-1.65,1.44-3.8,2.28-4.74,3.72-1.01,5.64,.79,6.46,1.99"/><path id="Path_2438" class="cls-3" d="M63.12,883.62s13.6-1.01,16.97,11.65c1.98,7.44,.34,16.65-10.77,10.56-5.1-2.79-11.22,3.14-14.76-.74-1.66-1.82-2.51-6.6-1.61-8.93,2.49-6.46,3.13-12.12,10.16-12.53"/><path id="Path_2439" class="cls-8" d="M53.01,892.81c-.33,.96-.68,1.97-1.08,3-1.06,2.76-.14,7.93,1.8,10.06,2.25,2.47,5.38,1.69,8.14,1,2.46-.61,4.79-1.2,6.88-.05,4.57,2.51,8.11,2.78,10.5,.83,3.21-2.62,3.09-8.29,1.91-12.73-3.49-13.12-17.47-12.44-18.03-12.4-1.37,.05-2.72,.38-3.97,.97-3.51,1.72-4.8,5.44-6.14,9.34m16.89,12.03c-2.81-1.54-5.79-.79-8.43-.14-2.88,.72-4.71,1.09-6.07-.4-1.4-1.53-2.18-5.84-1.42-7.81,.4-1.05,.76-2.08,1.11-3.07,1.75-5.05,2.91-8.39,8.03-8.69h.02c.13-.01,12.78-.81,15.9,10.89,1.24,4.64,.8,8.79-1.09,10.33-.18,.15-.38,.27-.59,.37-1.64,.8-4.19,.3-7.45-1.48"/><path id="Path_2440" class="cls-3" d="M172.91,690.89s13.6-1.01,16.97,11.65c1.98,7.44,.34,16.65-10.77,10.56-5.1-2.79-11.22,3.14-14.76-.74-1.66-1.82-2.51-6.6-1.61-8.93,2.49-6.46,3.13-12.12,10.16-12.53"/><path id="Path_2441" class="cls-8" d="M162.8,700.09c-.34,.97-.68,1.97-1.08,3-1.06,2.76-.13,7.93,1.8,10.06,2.25,2.47,5.38,1.69,8.14,1,2.46-.61,4.79-1.2,6.88-.05,4.58,2.51,8.11,2.78,10.5,.83,3.2-2.62,3.09-8.29,1.91-12.73-3.49-13.12-17.47-12.44-18.03-12.4-1.37,.05-2.72,.38-3.97,.97-3.51,1.72-4.8,5.44-6.14,9.34m16.89,12.03c-2.81-1.54-5.79-.79-8.43-.13-2.88,.72-4.71,1.08-6.07-.4-1.4-1.53-2.18-5.84-1.42-7.81,.4-1.05,.76-2.08,1.1-3.07,1.75-5.05,2.91-8.39,8.03-8.69h.02c.13-.01,12.78-.81,15.9,10.89,1.24,4.64,.8,8.79-1.09,10.33-.18,.15-.38,.27-.59,.37-1.64,.8-4.19,.3-7.45-1.49"/><path id="Path_2442" class="cls-3" d="M51.48,533.27s11.45-8.14,21.1,.33c5.68,4.98,9.1,13.34-3.9,14.38-5.97,.48-8.23,8.59-13.39,7.34-2.43-.59-5.7-4.01-6.14-6.39-1.23-6.59-3.65-11.53,2.32-15.65"/><path id="Path_2443" class="cls-8" d="M47.44,546.18c.22,.96,.44,1.97,.64,3.01,.52,2.81,4.07,6.51,6.9,7.2,3.28,.79,5.63-1.52,7.69-3.57,1.84-1.83,3.59-3.55,6.04-3.75,5.35-.43,8.61-2.11,9.68-4.98,1.44-3.85-1.66-8.4-5.05-11.37-10.01-8.78-21.96-.7-22.44-.37-1.17,.77-2.19,1.77-2.98,2.92-2.18,3.29-1.35,7.01-.48,10.89m21.23,.68c-3.29,.26-5.52,2.48-7.49,4.43-2.16,2.13-3.58,3.42-5.56,2.94-2.04-.49-5-3.57-5.38-5.58-.2-1.07-.43-2.1-.65-3.09-1.13-5.05-1.87-8.39,2.47-11.38h.01c.11-.09,10.83-7.55,19.76,.28,3.54,3.1,5.35,6.71,4.5,8.98-.08,.22-.19,.43-.32,.62-1.02,1.53-3.53,2.5-7.34,2.8"/><path id="Path_2444" class="cls-3" d="M330.3,726.34s-6.55,12.43-19.34,9.91c-7.52-1.48-14.6-6.92-3.27-14.08,5.2-3.29,3.41-11.26,8.7-12.69,2.49-.67,7.08,.65,8.61,2.46,4.24,5,8.79,8.02,5.31,14.4"/><path id="Path_2445" class="cls-8" d="M327.86,713.44c-.65-.71-1.34-1.46-2.01-2.25-1.81-2.13-6.79-3.56-9.69-2.78-3.37,.91-4.4,4.01-5.3,6.74-.81,2.44-1.58,4.74-3.71,6.09-4.66,2.94-6.83,5.95-6.45,8.89,.52,3.97,5.49,6.32,9.98,7.21,13.26,2.61,20.3-10,20.58-10.51,.7-1.21,1.15-2.54,1.33-3.92,.42-3.84-2.1-6.59-4.73-9.47m-19.63,9.67c2.86-1.81,3.85-4.76,4.71-7.37,.95-2.85,1.63-4.63,3.66-5.18,2.09-.57,6.24,.61,7.53,2.14,.69,.81,1.39,1.58,2.06,2.31,3.42,3.73,5.68,6.2,3.15,10.85h-.01c-.06,.13-6.27,11.63-18.1,9.3-4.69-.92-8.05-3.11-8.35-5.45-.03-.23-.03-.45,0-.68,.2-1.79,2.03-3.82,5.35-5.92"/><path id="Path_2446" class="cls-3" d="M43.61,666.16s11.45-8.14,21.1,.32c5.68,4.98,9.1,13.34-3.89,14.38-5.97,.48-8.23,8.59-13.39,7.34-2.43-.59-5.7-4.01-6.14-6.39-1.23-6.59-3.65-11.53,2.32-15.65"/><path id="Path_2447" class="cls-8" d="M39.56,679.08c.21,.96,.44,1.97,.63,3.01,.52,2.81,4.07,6.51,6.9,7.2,3.28,.79,5.63-1.52,7.69-3.57,1.84-1.83,3.59-3.55,6.04-3.75,5.35-.43,8.61-2.11,9.68-4.98,1.44-3.85-1.66-8.4-5.05-11.37-10.01-8.78-21.96-.7-22.44-.37-1.17,.77-2.19,1.77-2.98,2.92-2.18,3.29-1.35,7.01-.48,10.89m21.23,.68c-3.29,.26-5.52,2.48-7.49,4.43-2.16,2.13-3.58,3.42-5.56,2.94-2.04-.49-5-3.57-5.38-5.58-.2-1.07-.43-2.1-.65-3.09-1.13-5.05-1.87-8.39,2.47-11.38h.01c.11-.09,10.83-7.55,19.76,.28,3.54,3.1,5.35,6.71,4.5,8.98-.08,.22-.19,.43-.32,.62-1.02,1.53-3.53,2.5-7.34,2.8"/><path id="Path_2458" class="cls-3" d="M221.04,944.32s-13.61,4.34-17.69-9.68c-2.4-8.24,3.87-16.37,9.43-19.12,5.33-2.64,11.92-2.02,15.68,1.7,1.77,1.75,2.88,7.13,2.11,10.08-2.15,8.14-2.48,14.9-9.53,17.03"/><path id="Path_2459" class="cls-8" d="M229.25,916.4c-4-3.96-11.11-4.75-16.91-1.87-5.87,2.91-12.62,11.65-10.05,20.49,4.25,14.63,18.41,10.55,19,10.37,6.57-1.98,7.89-7.6,9.41-14.1,.28-1.21,.58-2.48,.92-3.77,.19-.79,.29-1.6,.28-2.41,.02-3.22-1.08-7.14-2.66-8.7m-16.04,.11c4.98-2.47,11.06-1.83,14.45,1.53,1.5,1.48,2.52,6.46,1.84,9.03-.35,1.32-.65,2.6-.94,3.83-1.47,6.25-2.52,10.77-7.77,12.35h-.02c-.51,.17-12.64,3.83-16.36-8.99-.33-1.13-.49-2.3-.48-3.48,.05-6.35,4.95-12.13,9.28-14.28"/><path id="Path_2460" class="cls-3" d="M-.9,651.26s6.96,9.44-3.12,17.79c-5.93,4.91-13.99,2.77-17.62-.73-3.53-3.46-4.6-8.73-2.7-13.29,.93-2.06,4.92-4.9,7.46-5.33,7.02-1.2,12.47-3.37,15.98,1.57"/><path id="Path_2461" class="cls-8" d="M-25.19,654.67c-2.06,4.92-.92,10.6,2.88,14.35,3.82,3.69,12.51,6.01,18.86,.74,10.52-8.71,3.63-18.69,3.33-19.1-3.27-4.6-8.06-3.64-13.62-2.53-1.04,.21-2.12,.42-3.23,.61-.69,.13-1.35,.35-1.99,.64-2.56,1.14-5.39,3.45-6.22,5.28m4.23,12.93c-3.26-3.18-4.25-8.03-2.52-12.23,.79-1.75,4.49-4.36,6.7-4.74,1.14-.19,2.23-.41,3.29-.62,5.34-1.07,9.2-1.84,11.81,1.84h0c.26,.37,6.29,8.85-2.92,16.48-.8,.67-1.69,1.22-2.64,1.64-4.65,1.9-9.98,.98-13.73-2.36"/><path id="Path_2462" class="cls-3" d="M107.72,797.93s6.96,9.44-3.12,17.79c-5.93,4.91-13.99,2.77-17.62-.73-3.53-3.46-4.6-8.73-2.7-13.29,.93-2.06,4.92-4.9,7.46-5.33,7.02-1.2,12.47-3.37,15.98,1.57"/><path id="Path_2463" class="cls-8" d="M83.43,801.35c-2.06,4.92-.92,10.6,2.87,14.35,3.82,3.69,12.51,6.01,18.86,.74,10.52-8.71,3.62-18.68,3.33-19.1-3.27-4.6-8.07-3.64-13.62-2.53-1.04,.21-2.12,.42-3.23,.61-.69,.13-1.35,.35-1.99,.64-2.56,1.14-5.39,3.45-6.22,5.28m4.23,12.93c-3.26-3.18-4.25-8.03-2.52-12.23,.79-1.75,4.49-4.36,6.7-4.74,1.14-.19,2.23-.41,3.29-.62,5.34-1.07,9.2-1.84,11.81,1.84h.01c.26,.37,6.29,8.85-2.92,16.48-.8,.67-1.69,1.22-2.64,1.64-4.65,1.9-9.98,.98-13.73-2.36"/><path id="Path_2468" class="cls-3" d="M188.29,883.69s-.76,11.71-17.28,11.17c-9.71-.32-15.87-7.33-16.61-12.37-.71-4.83,.23-5.68,5.67-7.62,2.56-.91,9.66,.65,12.48,2.03,7.81,3.82,16.27,.76,15.74,6.79"/><path id="Path_2469" class="cls-8" d="M181.92,878.12c-3.05-.24-6.04-.99-8.84-2.22-2.76-1.35-10.28-3.15-13.31-2.07-5.8,2.07-7.26,3.4-6.46,8.9,.75,5.14,6.86,12.9,17.59,13.25,6.21,.2,11.04-1.24,14.35-4.29,2.29-2.08,3.75-4.91,4.13-7.97,.02-.19,.02-.37,.03-.54,.06-4.08-3.62-4.56-7.5-5.06m-21.54-2.2c2.03-.72,8.77,.59,11.64,1.99,3,1.33,6.21,2.14,9.49,2.41,4.47,.57,5.89,.98,5.69,3.34v.03c-.33,2.46-1.52,4.73-3.36,6.4-2.84,2.61-7.12,3.85-12.71,3.66-9.15-.3-14.95-6.86-15.62-11.49-.13-.76-.21-1.54-.22-2.31,.03-2.05,1.14-2.62,5.1-4.03"/><path id="Path_2470" class="cls-3" d="M-8.57,868.73s11.59-1.35,11.94,15.33c.2,9.81-6.38,17.26-11.31,18.91-4.73,1.58-5.62,.8-7.82-4.32-1.03-2.4,.13-9.82,1.34-12.9,3.35-8.53-.12-16.47,5.85-17.03"/><path id="Path_2471" class="cls-8" d="M-13.73,876.14c-.08,3.16-.66,6.29-1.72,9.27-1.18,3.02-2.56,10.89-1.33,13.74,2.35,5.45,3.74,6.67,9.12,4.88,5.02-1.68,12.35-9.22,12.13-20.06-.13-6.27-1.81-10.86-5-13.64-2.23-1.93-5.14-2.9-8.08-2.7-.19,.02-.36,.04-.53,.07-4.03,.68-4.3,4.46-4.58,8.44m-1.02,22.03c-.82-1.91,.11-8.91,1.34-12.05,1.14-3.2,1.77-6.56,1.87-9.96,.33-4.59,.66-6.09,2.99-6.31h.03c2.37-.13,4.69,.66,6.49,2.22,2.73,2.38,4.17,6.45,4.29,12.1,.19,9.24-5.97,16.25-10.49,17.76-.74,.27-1.5,.48-2.27,.63-2.02,.34-2.64-.67-4.25-4.4"/><path id="Path_2472" class="cls-3" d="M299.3,849.3s11.59-1.35,11.94,15.33c.21,9.81-6.38,17.26-11.31,18.91-4.73,1.58-5.62,.8-7.82-4.32-1.03-2.4,.13-9.82,1.34-12.9,3.35-8.53-.12-16.47,5.85-17.03"/><path id="Path_2473" class="cls-8" d="M294.14,856.71c-.08,3.16-.66,6.29-1.72,9.27-1.18,3.01-2.56,10.89-1.33,13.74,2.35,5.45,3.74,6.67,9.12,4.88,5.02-1.68,12.35-9.22,12.13-20.06-.13-6.27-1.81-10.86-5-13.64-2.23-1.93-5.14-2.9-8.09-2.71-.19,.02-.36,.04-.53,.07-4.03,.68-4.3,4.46-4.58,8.44m-1.02,22.03c-.82-1.91,.11-8.91,1.34-12.05,1.14-3.2,1.77-6.56,1.87-9.96,.33-4.59,.66-6.09,2.99-6.32h.03c2.37-.13,4.7,.66,6.49,2.22,2.73,2.38,4.17,6.45,4.29,12.1,.19,9.24-5.97,16.25-10.49,17.76-.74,.27-1.5,.48-2.27,.63-2.02,.34-2.64-.67-4.25-4.4"/></g></g></g></g></g></g></svg>