<?xml version="1.0" encoding="UTF-8"?><svg id="Layer_1" xmlns="http://www.w3.org/2000/svg" xmlns:xlink="http://www.w3.org/1999/xlink" viewBox="0 0 790.04 431.37"><defs><style>.cls-1{fill:none;}.cls-2{clip-path:url(#clippath);}.cls-3{fill:#f62a20;}</style><clipPath id="clippath"><rect class="cls-1" x="17.28" y="48.83" width="755.47" height="333.7"/></clipPath></defs><g id="Group_274"><g class="cls-2"><g id="Group_142"><path id="Path_1967" class="cls-3" d="M448.32,313.5s.02,0,.02-.03c-.03,0-.04,.02-.02,.03"/><path id="Path_1968" class="cls-3" d="M506.55,278.02c.19-.37-63.39,1.7-63.23,2.09,0,0,3.72,18.92,3.44,19.97,.72-.2,17.19-.17,18.81,.02-.12,2.95-7.3,75.64-7.3,75.64,1.19,0,25.26,.94,26.45,1.04,0,0-2.11-14.89-2.92-58.93-.06-3.26-.68-14.26-.61-17.2,1.63-.06,22.64,1.39,23.35,1.64-.22-1.07,2.02-24.27,2.02-24.27"/><path id="Path_1969" class="cls-3" d="M504.55,315.47s0-.02-.02-.03c0,.03,.01,.03,.02,.03"/><path id="Path_1970" class="cls-3" d="M597.24,128.03h33.44l81.51,196.08-1.7-150.47,62.27,3.9-31.81,203.25-29.27-1.78-62.36-97.97,28.82,101.5-49.54-8.29-31.36-246.21Z"/><path id="Path_1971" class="cls-3" d="M344.9,148.37l24.17-2.62,41.2,58.29,8.44-88.31,48.62-6.75-27.72,130.45-21.52-1.87-41.73-32.87,1.48,37.08-26.91-4.42-6.03-88.98Z"/><path id="Path_1972" class="cls-3" d="M129.73,290.05l57.04-38.28,7.75,31.59s-29.99,18.17-32.4,18.58c1.37,5.67,2.38,11.42,3.04,17.22,0,0,18.94-5.64,22.65-5.85,0,0,.17,16.46-.65,17.72-.41,.63-21.23,.6-21.23,.6l3.31,10.93,23.03,.87-3.48,19.08-38.06-1.4s-21.71-53.89-20.99-71.06"/><path id="Path_1973" class="cls-3" d="M480.21,113.15s25.09-2.89,58.55-4.17l2.85,52.02s-44.4,2.03-46.94,2.46l-2.98,20.47s25.62-3.04,29.51-3.26c0,0-.6,20.22-1.46,21.55-.43,.66-28.85,4.69-28.85,4.69l-2.23,18.07,104.06-11.21-1.12,38.01-122.35-7.36s10.22-113.27,10.98-131.27"/><path id="Path_1974" class="cls-3" d="M95.22,300.1c70.42-36.49,46.25-129.46,16.86-156.38-18.46-16.9-91.42-15.67-91.42-15.67-.05,18.02-3.38,247.46-3.38,247.46l38.11-1.21c.26-11.71-2.94-60.42-2.54-60.82s20.51,.63,20.51,.63l23.27,58.02,46.67,2.3-48.09-74.33Zm-35.77-33.22s-5.38-74.86-5.54-91.3l25.88,1.52s2.81,25.71,1.52,50.48c-.65,13.43-2.39,26.79-5.2,39.94,0,0-16.56,.07-16.65-.64"/><path id="Path_1975" class="cls-3" d="M542.22,315.54l-.68,54.83-19.31,1.75s-1.2-56.53-1.79-56.18,21.78-.41,21.78-.41"/><path id="Path_1976" class="cls-3" d="M517.93,277.97l30.53,2.24-6.01,24.64-20.46,.88s-4.33-24.16-4.06-27.77"/><path id="Path_1977" class="cls-3" d="M332.12,171.87v69.9l-34.13-.26s18.21-67.55,17.51-67.13,16.62-2.51,16.62-2.51"/><path id="Path_1978" class="cls-3" d="M313.47,146.12l24.7-5.44-4.47,24.04h-18.1s-2.36-15.55-2.13-18.6"/><path id="Path_1979" class="cls-3" d="M326.93,277.93s8.59,.38,18.53,.03c0,0,1.25,34.97,0,75.64,0,0,24.33,.18,24.1,0s1.62,19.19,1.62,19.19c.35,.59-43.25-.31-43.25-.31,0,0-8.76-90.1-8.75-94.55"/><path id="Path_1980" class="cls-3" d="M338.16,62.7l-69.53,173.66-19.25,5.41-27.85-41.85-33.21,36.03s-40.88-135.52-42.08-139.13,43.39,2.41,43.39,2.41l9.32,97.69,21.85-36.55,29.26,38.93,41.71-150.46,46.4,13.86Z"/><path id="Path_1981" class="cls-3" d="M363.84,283.12l30.43,1.81s-8.43,69.31,12.92,66.17c16.8-2.47,5.93-61.03,5.93-61.03l25.91-5.14s-.36,91.27-31,90.24c-48.36-1.62-44.19-92.05-44.19-92.05"/><path id="Path_1982" class="cls-3" d="M616.74,337.12c2.16-36.12-17.29-58.04-34.25-59.15-23.25-1.52-28.81,39.63-28.65,53.33,.16,13.31,3.1,39.11,29.37,37.85,10.32-.49,32.21-12.08,33.53-32.04m-19.07-9.24c-1.48,12.03-9.77,13.02-14.45,13.13s-9.78-2.58-11.27-9.41c-2.31-10.63,4.49-18.89,11.27-19.33s16.84,5.35,14.45,15.61"/><path id="Path_1983" class="cls-3" d="M319.08,343.25c1.23-18.68-7.61-37.02-23.48-38.06-21.76-1.43-26.97,19.79-26.82,32.62,.15,12.46,2.9,36.61,27.5,35.43,9.66-.46,21.57-11.31,22.8-29.99m-15.02-2.43c-.59,5.5-5.42,10.23-10.05,10.23-5.17,0-10.79-6.46-10.09-12.97,1.08-10.14,6.04-12.36,10.28-12.66,5.32-.37,10.91,5.6,9.87,15.4"/><path id="Path_1984" class="cls-3" d="M255.45,283.55l-22.77,50.95-21.01-49.73-20.92,11.25,43.66,79.98,49.64-92.87-28.59,.42Z"/></g></g></g></svg>