<?xml version="1.0" encoding="UTF-8"?><svg id="Layer_1" xmlns="http://www.w3.org/2000/svg" xmlns:xlink="http://www.w3.org/1999/xlink" viewBox="0 0 273.73 273.73"><defs><style>.cls-1{fill:none;}.cls-2{clip-path:url(#clippath);}.cls-3{fill:#f62a20;}.cls-4{fill:#f2f91c;}.cls-5{fill:#ef67aa;}.cls-6{fill:#09161c;}</style><clipPath id="clippath"><rect class="cls-1" x="34.99" y="35.33" width="203.75" height="203.07"/></clipPath></defs><g class="cls-2"><g id="Group_41"><path id="Path_830" class="cls-6" d="M127.73,99.54s51.49-23.5,63.15-47.51l-13.88-13.31s-41.06,46.65-52.38,47.1"/><path id="Path_824" class="cls-5" d="M185.93,47.99s12.4-1.38,13.16-3.92c.32-1.1-3.25,.07-3.25,.07,0,0,6.39-2.79,4.84-3.67s-5.91,1.72-5.91,1.72c0,0,6.48-3.86,4.61-4.26s-5.79,2.62-5.79,2.62c0,0-.16,.07-.1-.11s4.75-3.2,3.88-4.61-6.98,3.58-6.98,3.58c0,0,2.01-3.53,.43-4.07s-8.57,10.54-8.57,10.54l3.68,2.11Z"/><path id="Path_825" class="cls-5" d="M169.9,211.82l2.29,8.32-5.61,1.64-1.92-7.68,5.24-2.28Z"/><path id="Path_826" class="cls-6" d="M165.35,221.15s5.68,.61,7.62-2.14c1.11-1.57,8.98-1.48,13.96-.56,2,.35,3.34,2.26,2.99,4.27-.17,.95-.7,1.8-1.49,2.36-4.58,3.31-12.17,6.79-23.09,5.59,0,0-5.19-4.25,.01-9.52"/><path id="Path_827" class="cls-3" d="M65.34,222.44l-29.76-16.34,58.6-43.86,2.14-58.52,26.32-26.53,17.11,56.91,40.22,75.39-24,12.94-13.99-48.34-20.81-9.75-14.19,14.52-41.66,43.57Z"/><path id="Path_828" class="cls-4" d="M178.72,137.54l59.54,3.32,.48-27.55-60.97,7.6-5.27-21.38-134.15,9.97-3.35,45.12,138.94,7.6,4.79-24.7Z"/><path id="Path_829" class="cls-6" d="M122.65,77.2s-6.8,4.54-15.32-1.08c0,0-32.78,16.89-26.33,48.36s45.03,28.15,45.03,28.15l1.69-8.7s-28.91,1.54-35.36-16.89,11.58-29.94,11.58-29.94c0,0,19.52-2.84,18.71-19.9"/><path id="Path_831" class="cls-5" d="M122.65,77.2s-5.98,4.82-15.32-1.08c-1.14-.72,1.91-12.61,1.91-12.61,0,0-8.91-1.77-1.61-5.39,0,0,9.77,0,13.98-7.99l4.41,4.74,4.03,1.95-2.34,2.23,.58,8.5-5.66-.35c-1.94,1.38-2.49,4.02-1.26,6.05l1.26,3.95Z"/><path id="Path_832" class="cls-5" d="M52.88,215.59l-5.29,6.85-4.72-3.42,5-6.17,5,2.75Z"/><path id="Path_833" class="cls-6" d="M42.63,217.66s2.95,4.84,6.33,4.71c1.93-.07,6.63,6.19,8.91,10.66,.92,1.82,.19,4.05-1.64,4.97-.86,.43-1.85,.51-2.76,.23-5.43-1.6-12.83-5.48-18.48-14.81,0,0,.26-6.67,7.64-5.77"/><path id="Path_834" class="cls-5" d="M126.32,151.14s6.5,5.43,8.82,4.12c1-.56-2.38-2.19-2.38-2.19,0,0,6.55,2.4,6.05,.7s-5.46-2.84-5.46-2.84c0,0,7.37,1.69,6.3,.12s-6-2.1-6-2.1c0,0-.16-.06,0-.15s5.66,.98,6.02-.64-7.53-2.24-7.53-2.24c0,0,3.92-1.15,3.16-2.64s-8.06,2.74-8.06,2.74l-.94,5.1Z"/><path id="Path_835" class="cls-6" d="M127.72,60.7s.24,1.24-2.11,1.07c-1.45-.1-5.87-.25-7.1-1.02l-5-3.14s-3.13-2.21-3.04,.17,3.58,6.49,3.58,6.49c0,0,12.31,6.85,14.77,5.77s-.61-12.93-1.11-9.35"/><path id="Path_836" class="cls-3" d="M123.91,52.58s8.68-4.14,8.82-7.9-22.45,10.43-22.45,10.43c0,0-2.51,7.46,13.63-2.53"/><path id="Path_837" class="cls-3" d="M123.99,47.55s-5.95-9.2-13.69-8.82-10.69,15.24-7.17,19.38,19.78-6.85,20.86-10.56"/></g></g></svg>