<?xml version="1.0" encoding="UTF-8"?><svg id="Layer_1" xmlns="http://www.w3.org/2000/svg" xmlns:xlink="http://www.w3.org/1999/xlink" viewBox="0 0 1341.17 888.09"><defs><style>.cls-1{fill:none;}.cls-2{clip-path:url(#clippath);}.cls-3{fill:#f62a20;}.cls-4{fill:#ef67aa;}.cls-5{fill:#fff;}.cls-6,.cls-7{fill:#2e6722;}.cls-8{clip-path:url(#clippath-1);}.cls-9{fill:#854ca0;isolation:isolate;opacity:.74;}.cls-7,.cls-10,.cls-11,.cls-12,.cls-13{fill-rule:evenodd;}.cls-10{fill:#6c8f3c;}.cls-11{fill:#355e2d;}.cls-12{fill:#c6e950;}.cls-13{fill:#d2e262;}</style><clipPath id="clippath"><rect class="cls-1" x="26.33" y="-144.32" width="1284.01" height="1032.42"/></clipPath><clipPath id="clippath-1"><rect class="cls-1" x="305.93" y="-22.47" width="701.86" height="1038.95"/></clipPath></defs><g class="cls-2"><g><path id="Path_1991" class="cls-9" d="M167.39,848.09c359.95,527.04,531.8,148.75,625.68,274.52,93.88,125.76,591.4,511.64,701.37,207.33,109.97-304.3-84.75-425.14-321.74-496.07-236.99-70.93-58.07-90.93-324.37-478.4C582.03-32-192.56,321.05,167.39,848.09Z"/><g id="Group_294"><path id="Path_2293" class="cls-4" d="M613.57,83.69c20.81-38.13,88.56,64.56,88.56,64.56,0,0,52.45,50.19,20.21,152.51l284.61,587.89-131.32,127.83s-130.84-297.76-256.75-715.72c0,0-26.12-178.94-5.31-217.07Z"/><g id="Group_293"><g id="Group_292"><g id="Group_304"><path id="Path_2261" class="cls-12" d="M1041.71,807.82l-89.97-108.35-103.53,93.16c-16.83,18.51-17.06,46.7-.54,65.48l25.87,29.41h127.92c43.84-29.22,61.73-55.04,40.24-79.71"/><path id="Path_2262" class="cls-7" d="M160.2,893.53h148.04c27.23-40.89,16.16-96.11-24.73-123.33-38.94-25.93-91.3-17.27-119.82,19.82l23.45,24.56-33.83-7.32c-12.8,28.01-10.19,60.65,6.88,86.28"/><path id="Path_2263" class="cls-12" d="M237.24,893.53h4.02l-1.08-18.69,34.82-28.16c.87-.68,1.03-1.94,.35-2.82s-1.94-1.03-2.82-.35c-.02,.01-.03,.03-.05,.04l-32.59,26.35-3.68-63.71c-.06-1.11-1.01-1.95-2.12-1.89s-1.95,1.01-1.89,2.12h0l2.62,45.41-31.75-24.12c-.88-.67-2.14-.5-2.8,.38-.67,.88-.5,2.14,.38,2.8l34.47,26.2,.98,16.9v.05h0s1.13,19.49,1.13,19.49Z"/><path id="Path_2264" class="cls-7" d="M332.39,695.13c-14.52-42.36-18.28-72.63-11.27-90.8-96.04-112.78-184.47-149.72-265.29-110.82l88.99,64.88,61.21,6.37-40.98,8.37,167.34,121.99Z"/><path id="Path_2265" class="cls-13" d="M320.14,619.05c.3-.99,.63-1.94,.98-2.86-2.15-2.53-4.3-5-6.44-7.45-20.78-18.58-40.18-34.87-58.18-48.86-33.61-26.11-62.45-44.26-86.51-54.44-1.02-.43-2.19,.05-2.62,1.07-.43,1.02,.05,2.19,1.07,2.62,23.7,10.03,52.23,28.01,85.6,53.93,20.28,15.75,42.32,34.41,66.11,55.99"/><path id="Path_2266" class="cls-7" d="M755.08,893.53h48.15c11.99-105.45,44.09-197.66,96.3-276.62,29.01-40.27,47.76-73.21,64.63-97.46,29.74-41.94,41.24-61.6,2.64-57.14-39.69,4.58-81.01,45.26-104.5,75.09-62.71,79.63-98.45,198.35-107.21,356.14"/><path id="Path_2267" class="cls-12" d="M777.15,893.52h4.02c4.13-74.4,17.47-141.57,40.02-201.52,22.53-59.93,54.26-112.64,95.19-158.14,.76-.81,.73-2.08-.07-2.84-.81-.76-2.08-.73-2.84,.07-.02,.02-.05,.05-.07,.07-41.26,45.87-73.25,99.01-95.97,159.42-22.7,60.36-36.12,127.97-40.28,202.83v.11Z"/><path id="Path_2268" class="cls-7" d="M644.57,473.29c29.11-101.36,36.02-180.66,119.15-331.33,2.47-4.49,5.61-6.69,2.53-10.79-3.07-4.1-8.04-6.31-13.15-5.86-28.83,5.78-70.04,60.84-104.09,113.73-35.36,56.31-49.34,128.67-67.56,203.84,22.69,6.27,44.07,16.57,63.11,30.41"/><path id="Path_2269" class="cls-12" d="M587.43,443.11c10.53-40.07,24.28-79.23,41.09-117.1,16.59-37.25,36.23-73.05,58.74-107.05,.6-.93,.32-2.17-.61-2.77-.91-.58-2.12-.34-2.73,.55-22.64,34.18-42.39,70.18-59.06,107.64-16.89,38.03-30.7,77.36-41.28,117.61"/><path id="Path_2270" class="cls-10" d="M700.47,635.59l42.4-40.96c10.89-5.52,19.36-3.29,25.41,6.69l-67.81,34.27Z"/><path id="Path_2271" class="cls-7" d="M744.46,434.54c26.62-26.08,63.03-63.21,109.23-111.38,4.39-3.6,10.66-20.37,6.22-23.89-24.54-19.41-131.28,26.13-131.28,26.13-48.37,12.79-87.31,98.05-102.24,134.22,23.09,16.33,60.9,50.78,79.88,78.05,8.06-18.77,16.47-37.1,25.25-54.98,12.99-22.48,13.95-34.7,2.88-36.65l-45.28,.72,55.34-12.21"/><path id="Path_2272" class="cls-12" d="M657.45,439.1c-4.96,11.02-9.72,22.08-14.3,33.17l.46,.33c.06-.09,.12-.19,.17-.29,19.18-40.08,45.21-73.57,78.08-100.45,32.89-26.89,72.64-47.17,119.26-60.84,1.06-.31,1.67-1.43,1.36-2.49-.31-1.06-1.43-1.67-2.49-1.36-47.15,13.82-87.38,34.35-120.68,61.57-24.33,19.9-45.23,43.67-61.86,70.35"/><path id="Path_2273" class="cls-13" d="M444.8,200.78c31.21,61.5,27.1,112.07-12.32,151.7-35.11-57.79-31.01-108.36,12.32-151.7"/><path id="Path_2274" class="cls-13" d="M332.69,324.96c26.23,50.91,58.28,79.06,96.16,84.45,4.36-59.6-27.7-87.75-96.16-84.45"/><path id="Path_2275" class="cls-13" d="M512.92,372.39c-20.9,53.4-49.49,78.67-85.74,75.82,8.12-50.01,36.7-75.28,85.74-75.82"/><path id="Path_2276" class="cls-13" d="M369.77,443.97c7.52,39.79,26.22,59.63,56.09,59.52,.23-41.11-18.47-60.95-56.09-59.52"/><path id="Path_2277" class="cls-13" d="M454.36,505.4c2.48,29.55-7.1,44.43-28.74,44.65,.02-23.83,9.6-38.71,28.74-44.65"/><path id="Path_2278" class="cls-6" d="M438.49,270.4c.13-1.1,1.13-1.89,2.23-1.76,1.1,.13,1.89,1.13,1.76,2.23h0c-5.84,48.77-9.96,100.01-12.35,153.73-.25,5.43-.47,10.89-.67,16.37,5.91-8.05,12.8-15.34,20.51-21.69,10.93-9.26,24.68-18.57,41.27-27.94,.96-.54,2.19-.2,2.73,.76s.2,2.19-.76,2.73c-16.33,9.22-29.88,18.39-40.65,27.51-10.49,8.89-18.29,17.7-23.39,26.42-1.08,31.33-1.6,63.49-1.56,96.47l12.76-16.02c.51-.6,1.42-.68,2.02-.17,.58,.49,.68,1.34,.22,1.95l-15,18.83c.05,14.38,.2,28.91,.46,43.6,0,1.11-.9,2.01-2.01,2.01-1.08,0-1.97-.86-2.01-1.94-.53-30.51-.61-60.34-.23-89.49-4.77-8.46-10.28-16.49-16.45-24-6.62-8.05-13.88-15.56-21.7-22.45-.83-.73-.91-2-.17-2.83,.73-.83,2-.91,2.83-.17,7.99,7.03,15.4,14.69,22.16,22.91,4.9,5.98,9.39,12.27,13.45,18.85,.39-24.44,1.11-48.4,2.16-71.87,.22-4.98,.46-9.93,.71-14.87-1.51-7.77-6.18-16.14-13.99-25.11-8.03-9.22-19.32-19.02-33.89-29.39-.9-.64-1.11-1.9-.47-2.8,.64-.9,1.9-1.11,2.8-.47,14.85,10.57,26.38,20.57,34.59,30.02,4.6,5.11,8.48,10.83,11.53,17,2.48-44.6,6.18-87.4,11.09-128.4"/><path id="Path_2279" class="cls-13" d="M807.35,435.15c-.91-8.44,5.2-16.02,13.64-16.92,7.62-.82,14.68,4.1,16.55,11.53,4.22,13.14,3.81,31.43-1.24,54.86-18.98-19.5-28.63-35.98-28.95-49.47"/><path id="Path_2280" class="cls-13" d="M891.22,473.02c5.57,3.91,13.25,2.57,17.16-3,2.47-3.52,2.93-8.07,1.21-12.01-6.09-13.96-38.75-7.47-49.27-2.6,12.84,5.56,23.14,11.43,30.9,17.6"/><path id="Path_2281" class="cls-13" d="M864.01,494.18c7.14,.73,12.34,7.11,11.61,14.25-.65,6.41-5.9,11.37-12.34,11.67-11.61,1.24-26.67-2.24-45.21-10.44,19.4-12.37,34.71-17.53,45.93-15.48"/><path id="Path_2282" class="cls-13" d="M774.46,482.41c-.9-8.44,5.22-16.01,13.66-16.91,7.61-.81,14.66,4.1,16.53,11.52,4.22,13.14,3.81,31.42-1.24,54.85-18.98-19.49-28.62-35.98-28.94-49.47"/><path id="Path_2283" class="cls-13" d="M824.25,543.9c5.5,.5,9.55,5.37,9.05,10.87-.46,5.01-4.57,8.9-9.6,9.08-8.93,.95-20.53-1.73-34.79-8.04,14.93-9.52,26.72-13.49,35.35-11.91"/><path id="Path_2284" class="cls-6" d="M763.91,607.55c-.56,1.15-1.96,1.63-3.11,1.07s-1.63-1.96-1.07-3.11c21.99-44.73,45.97-84.28,71.91-118.64,25.98-34.4,53.96-63.63,83.95-87.69,.98-.83,2.45-.7,3.28,.28,.83,.98,.7,2.45-.28,3.28-.02,.02-.05,.04-.08,.06-29.67,23.81-57.38,52.77-83.15,86.88-25.79,34.15-49.61,73.44-71.46,117.86"/><path id="Path_2285" class="cls-13" d="M928.66,369c4.68-4.65,12.24-4.63,16.89,.04,4.65,4.68,4.63,12.24-.04,16.89-.05,.05-.09,.09-.14,.14-5.88,7.99-15.58,13.44-29.11,16.36-1.69-13.98,2.44-25.12,12.4-33.43"/><path id="Path_2286" class="cls-13" d="M934.48,429.37c6.13-.08,11.04-5.12,10.96-11.26-.05-4-2.25-7.65-5.75-9.58-17.15-4.76-32.85-.2-47.1,13.66,15.83,8.22,29.79,10.61,41.89,7.18"/><path id="Path_2287" class="cls-13" d="M867.65,387.68c-2.2-7.69,2.25-15.71,9.94-17.91,7.69-2.2,15.71,2.25,17.91,9.94,.59,2.06,.72,4.23,.36,6.35,1.18,15.5-5.08,32.6-18.78,51.3-3.48-21.44-6.62-38-9.43-49.69"/><path id="Path_2288" class="cls-13" d="M745.68,531.34c1.95-4.69,6.56-7.71,11.64-7.62,19.35,.34,20.76,41.04,19.34,54-7.72-9.68-14.39-17.79-20.2-24.31-5.59-6.27-14.76-12.5-10.78-22.07"/><path id="Path_2289" class="cls-12" d="M736.4,893.53H389.29c-27.41-22.1-43.46-51.31-48.15-87.61-19.64-102.05-29.46-153.07-29.46-153.07-8.39-34.12-.25-62.38,24.44-84.79,102.53-79.53,153.79-119.3,153.79-119.3,51.88-31.29,106.02-26.5,162.41,14.37,45.04,46.95,67.56,70.42,67.55,70.42,9.19,12.48,10.62,26.62,4.31,42.4l-23.71,59.64,42.4-40.96c14.73-7.46,25.03-.75,30.9,20.12,9.59,127.44,14.38,191.16,14.37,191.16-2.39,36.76-19.64,65.97-51.74,87.61"/><path id="Path_2290" class="cls-11" d="M555.02,893.53h-8.08l4.86-102.1-107.4-71.33c-1.87-1.21-2.4-3.71-1.19-5.59,1.21-1.87,3.71-2.4,5.59-1.19,.02,.01,.04,.03,.06,.04l103.39,68.67,6.21-130.48-68.2-79.33c-1.45-1.7-1.25-4.24,.45-5.69,1.7-1.45,4.24-1.25,5.69,.45l62.62,72.84,4.99-104.72c.09-2.23,1.96-3.96,4.19-3.87,2.23,.09,3.96,1.96,3.87,4.19,0,.02,0,.04,0,.06l-5.47,114.77v.21s-2.74,57.4-2.74,57.4l89.54-59.86c1.89-1.18,4.38-.61,5.56,1.28,1.13,1.81,.66,4.18-1.07,5.42l-94.51,63.19-3.42,71.49v.31s-2.67,55.69-2.67,55.69l101.14-52.8c1.97-1.03,4.41-.27,5.44,1.71,1.03,1.97,.27,4.41-1.71,5.44h0l-105.31,54.99-1.85,38.84Z"/><path id="Path_2291" class="cls-7" d="M952.72,887.53h-4.04l-3.42-23.38-42.94-23.65c-.97-.53-1.33-1.75-.8-2.72s1.75-1.33,2.72-.8h0l40.29,22.18-4.7-32.1-31.07-28.16c-.82-.74-.88-2.01-.14-2.83,.74-.82,2.01-.88,2.83-.14l27.47,24.89-6.01-41.08c-.18-1.1,.57-2.13,1.66-2.3,1.1-.18,2.13,.57,2.3,1.66,0,.02,0,.04,0,.06l8.75,59.82,27.62-32.45c.72-.84,1.98-.94,2.83-.23s.94,1.98,.23,2.83h0l-29.9,35.12,2.68,18.33v.05s1.72,11.65,1.72,11.65l23.9-27.52c.72-.84,1.99-.93,2.83-.2s.93,1.99,.2,2.83l-26.16,30.13,1.12,7.71c.02,.1,.02,.19,.02,.29"/><path id="Path_2292" class="cls-13" d="M807.11,575.03c5.5,.5,9.55,5.37,9.05,10.87-.46,5.01-4.57,8.9-9.6,9.08-8.93,.96-20.53-1.72-34.8-8.04,14.93-9.52,26.72-13.49,35.36-11.91"/></g></g></g><g id="Group_276"><g class="cls-8"><g id="Group_275"><path id="Path_2248" d="M742.79,99.8l-104.53,241.07,5.69,67.77c4.07,48.4-5.07,97-26.44,140.62l-119.6,228.83-187.8-101.37,98.24-220.82c21.26-47.79,56.03-88.34,100.02-116.64l60.65-39.03,103.17-239.38"/><path id="Path_2249" class="cls-5" d="M532.46,481.74s6.26,2.08,24.16,9.35l-3.55,12.63s-12.33-5.51-13.78-5.82c0,0-6.35,15.57-8.91,23.5,0,0,6.52,3.32,8.62,4.11,0,0-4.28,11.5-5.13,12.25-.43,.37-8.98-3.05-8.98-3.05l-3.15,7.94,10.98,5.76-7.98,13.49-20.44-10.82s22.3-56.59,28.15-69.35"/><path id="Path_2250" class="cls-5" d="M495.73,572l5.21-10.09-18.66-8.07s-24.19,64.41-33.16,87.69c0,0,13.14,6.9,15.22,8.13,0,0,.49-.6,4.86-12.51,0,0-1.49-.84-4.73-2.79l3.77-9.66,3.74,1.25c.87-1.5,5.27-11.95,4.92-12.11-1.6-.76-4.38-1.75-4.38-1.75-.36,.19,17.24-42.59,17.24-42.59l5.97,2.49Z"/><path id="Path_2251" class="cls-5" d="M504.52,563.55s6.08,3.27,13.44,6.32c0,0-16.66,35.37-33.36,72.36,0,0,7.97,4.5,7.87,4.26s-5.03,13.58-5.03,13.58c.02,.66-18.91-9.16-18.91-9.16,0,0,34.26-83.26,35.99-87.36"/><path id="Path_2252" class="cls-5" d="M446.33,614.7c13.89,.54,26.58-48.07,28.14-55.74,.52-2.37,.29-4.84-.67-7.06-1.04-2.35-2.89-4.25-5.21-5.36l-16.08-7.73c-4.49,11.08-36.26,87.78-36.26,87.78,0,0,24.63,11.86,25.03,11.57,14.39-10.01,5.05-23.46,5.05-23.46m14.17-60.75h0s0,0,0,0c-.44,.76-13.74,39.1-15.79,43.93l-4.36-2.19s15.38-39.59,16.37-43.39l3.79,1.64Zm-25.26,73.39s-6.3-2.67-6.49-3.46c0,0,.8-2.5,4.76-13.64,0,0,2.38,.72,2.92,2.12,1.3,3.4,1.5,7.13,.59,10.65-.46,1.49-1.06,2.94-1.78,4.32"/><path id="Path_2253" class="cls-5" d="M496.67,508.54c30.08-5.65,39.85-51.32,35.32-67.98-2.85-10.47-27.05-21.12-27.05-21.12-3.45,8.12-48.24,111.17-48.24,111.17l12.75,5.3c2.32-5.24,10.54-27.72,10.75-27.84s6.62,3.44,6.62,3.44l-3.4,29.76,14.89,8.21-1.64-40.94Zm-7.69-17.57s16.28-41.15,19.36-48.6l8.21,4.66s-5.51,15.65-10.65,26.65c-3.39,6.98-7.26,13.71-11.58,20.15,0,0-5.45-2.51-5.35-2.85"/><path id="Path_2254" class="cls-3" d="M548.21,439.05l25.83,14.55-13.85,27.26-22.04-13.02s8.42-25.58,10.06-28.79"/><path id="Path_2255" class="cls-4" d="M658.8,188.63c11.39,32.37-35.68,63.24-45.47,63.27-4.19,1.03-8.43,1.84-12.7,2.42-3.67,.49-7.37,.64-11.07,.44-3.83-.19-7.59-1.09-11.08-2.67-8.49-3.97-14.6-13.45-13.51-33.09,2.4-43.17-6.08-134.11,54.03-134"/></g></g></g></g><path id="Path_2294" class="cls-3" d="M646.86,115.4l10.21-23.09,15.13-31.48,73.2,38.73-49.06,113.34s-27.76,5.55-11.38-32.93,4.85-45.92,0-37.1-33.18,31.33-28.75,0-9.35-27.47-9.35-27.47Z"/></g></g></svg>