<?xml version="1.0" encoding="UTF-8"?><svg id="Layer_1" xmlns="http://www.w3.org/2000/svg" xmlns:xlink="http://www.w3.org/1999/xlink" viewBox="0 0 1539.07 796.3"><defs><style>.cls-1,.cls-2{fill:none;}.cls-3{clip-path:url(#clippath);}.cls-4{fill:#f62a20;}.cls-5,.cls-6{fill:#f2f91c;}.cls-7{fill:#ef67aa;}.cls-8{fill:#e2f273;}.cls-9{fill:#dfeb7d;}.cls-10{fill:#09161c;}.cls-11{fill:#603d78;}.cls-2{stroke:#000;stroke-miterlimit:10;stroke-width:5px;}.cls-12{clip-path:url(#clippath-1);}.cls-13{fill:#854ca0;opacity:.74;}.cls-13,.cls-6{isolation:isolate;}.cls-6{opacity:.92;}</style><clipPath id="clippath"><rect class="cls-1" x="-134.61" width="1673.68" height="796.3"/></clipPath><clipPath id="clippath-1"><rect class="cls-1" x="26.09" y="348.27" width="1308.65" height="536.05"/></clipPath></defs><g class="cls-3"><g><path id="Path_2311" class="cls-13" d="M1573.71,19.15c-320.5,171.49-17.34,270.06-176.59,564.9-159.26,294.85-631.47,80.16-662.42,271.26s454.18,587.96,570.59,484.77,257.01-455.76,257.01-455.76c0,0,331.92-1036.66,11.42-865.17Z"/><g id="Group_277"><g class="cls-12"><g id="Group_140"><path id="Path_1936" class="cls-10" d="M883.83,731.07c.54-1.95,2.55-3.1,4.51-2.59,1.94,.48,3.12,2.45,2.64,4.39,0,.01,0,.03-.01,.04-.54,1.95-2.55,3.1-4.51,2.59-1.94-.48-3.12-2.44-2.64-4.38,0-.02,0-.03,.01-.05"/><path id="Path_1937" class="cls-6" d="M805.61,641.97s36.56-16.05,53.82-31.47c0,0,21.11,12.92,28.53,32.28,4.45,11.62,3.25,23.69-6.11,35.45-1.41,1.78-13.28,5.32-13.28,5.32l16.53,18.43,38.67,67.77,15.99-12.88,3.51,12.04-39.69,25.88-6.5-11.72,18.62-8.72c-3.02-5.07-42.65-71.82-48.92-80.32-4.98,2.63-10.58,3.85-16.2,3.55-19.39-.72-35.94-14.22-40.53-33.07-1.54-6.25-3.11-13.77-4.45-22.55"/><path id="Path_1938" class="cls-7" d="M875.7,678.65s-5.64-16.65-12.9-25.47c-8.65-10.5,2.75,30.38,2.75,30.38l9.48,18.77s-30.02,83.01-46.6,109.86,33.21,26.17,33.21,26.17c0,0,30.68-140.88,34.14-157.86s5.05-46.8-20.72-56.1c0,0,28.39,38.45,.65,54.26"/><path id="Path_1939" class="cls-6" d="M136.82,388.03s-34.11,20.6-56.81,25.92c0,0,7.59,59.94,48.03,57.38,2.16-.13,4.31-.38,6.44-.74l41.35,80.6-19.84,5.71,9.94,14.38,48.98-19.37-6.79-13.46-22.66,11.96c-2.56-5.31-35.74-73.5-39.35-83.38,20.62-9.94,15.73-34.63,15.73-34.63,0,0-2.92-24.19-25.01-44.36"/><path id="Path_1940" class="cls-6" d="M347.46,534.04s-39.29,7.6-62.45,4.78c0,0-9.66,22.52-4.35,42.54,3.18,12.01,14.39,23.4,28.94,27.71,2.07,.62,4.17,1.13,6.3,1.52l10.07,94.78-20.62-1.47,4.2,11.82,47.62-1.35-1.57-13.25-20.33,3.43c-.51-5.85-7.33-82.83-7.2-93.32,5.58-.66,10.88-2.83,15.32-6.28,15.58-11.5,20.88-32.18,13.69-49.98-2.41-5.97-5.55-13.01-9.6-20.94"/><path id="Path_1941" class="cls-8" d="M692.42,612.81s30.62,25.35,52.27,33.91c0,0-2.66,24.3-17.18,39.28-8.71,8.99-24.13,13.62-38.98,10.47-2.11-.45-4.21-1-6.26-1.67l-55.56,78.12,18.76,8.53-9.51,8.34-40.99-23.84,7.91-10.85,16.09,12.67c3.33-4.88,47.28-68.96,52.34-78.21-4.55-3.23-8.11-7.65-10.3-12.78-7.95-17.48-2.39-38.09,12.68-50.24,5.06-4.08,11.28-8.74,18.73-13.75"/><path id="Path_1942" class="cls-5" d="M505.75,576.69s-30.58,5.91-48.6,3.72c0,0-11.07,45.73,19.14,54.67,1.61,.48,3.25,.88,4.9,1.19l7.83,69.82-16.05-1.14,3.27,13.15,41.08-1.05-1.22-11.63-19.84,2.67c-.4-4.56-5.71-63.15-5.61-71.32,17.79-1.74,21.06-21.05,21.06-21.05,0,0,4.57-18.42-5.96-39.03"/><path id="Path_1944" class="cls-7" d="M110.45,597.67s11.54-46.82,11.94-48.74c2.03-9.59,7.33-40.74-1.98-69.98-.53-1.65-2.06-4.57-1.11-6.04,5.42-8.41,17.33,25.37,17.33,25.37,0,0,24.05-33.64,27.09-23.29,2.61,8.9-10.95,21.55-13.51,26.01-.29,.51,.83-.05,.83-.05,0,0,10.61-21.41,18.8-17.02,7.15,3.83-10.23,21.43-10.23,21.43,0,0,.1,1.28,1.1,.78s6.48-15.21,12.96-12.65c6.59,2.61,1.59,14.97-1.6,22.21-1.05,2.38-1.4,5.01-1.01,7.58,0,0,23.32-15.99,23.85-6.19,.33,6.01-37.06,25.57-44.78,35.51-5.07,6.52-14.36,47.74-14.36,47.74l-25.31-2.67Z"/><path id="Path_1945" class="cls-7" d="M257.49,752.65s18.77-37.64,13.74-72.6c-4.53-31.5,14.2-66.86,53.73-74.7,3.69-.61,4.07,.37,4.01,1.35s-26.87,19.61-26.31,20.92c.33,.79,27.27-19.23,34.74-20.35,.14-.01,.28,0,.41,.04,1.03,.3,1.63,1.38,1.33,2.41-.1,.34-.29,.65-.55,.89-7.24,7.49-24.51,20.14-26.97,23.37,0,0,33.6-26.99,34.88-22,2.97,4.9-31.57,31.98-31.57,31.98,0,0,26.26-21,30.15-16.89s-31.49,35.71-31.49,35.71c0,0,29.24-14.52,31.25-10.65,.77,1.48-3.76,8.49-11.53,15.22-12.52,10.84-25.71,13.05-24.77,19.03,0,0-14.1,57.11-10.72,69.42"/><path id="Path_1946" class="cls-2" d="M271.09,707s-27.36-3.12-2.51,13.62c13.51,9.1,40.46,3.53,41.32-.69,1.37-6.72-6.96-8.7-6.96-8.7"/><path id="Path_1947" class="cls-11" d="M230.26,842.72l14.96-94.7,65.69,5.12s7.78,91.23,0,89.58h-80.65Z"/><path id="Path_1948" class="cls-6" d="M1004.73,539.44s39.29,7.6,62.45,4.78c0,0,9.66,22.52,4.35,42.54-3.18,12.01-14.39,23.4-28.94,27.71-2.07,.62-4.17,1.13-6.3,1.52l-10.07,94.78,20.62-1.47-4.2,11.82-47.62-1.35,1.57-13.25,20.33,3.43c.51-5.85,7.33-82.83,7.21-93.32-5.58-.66-10.87-2.83-15.31-6.28-15.58-11.5-20.88-32.18-13.69-49.98,2.41-5.97,5.55-13.01,9.6-20.94"/><path id="Path_1950" class="cls-7" d="M1267.85,618.22s-13.31-40.07-13.71-41.99c-2.03-9.58-6.5-25.16-8.26-37.41-3.57-24.82,6.15-32.54,3.88-33.21-13.09-3.85-13.1,13.84-13.1,13.84,0,0-19.27-43.46-22.17-33.07-1.58,5.67,11.05,30.7,13.61,35.15,.29,.51-.83-.05-.83-.05,0,0-8.69-21.14-15.36-17.02-3.58,2.21,10.23,24.81,10.23,24.81,0,0-.1,1.28-1.1,.78s-8.39-17.43-12.96-14.34c-3.29,2.23,5.19,12.01,8.39,19.26h0s-12.85-23.03-9.13-8.76c.93,3.58,10.25,20.52,15.65,26.69,17.64,20.12,19.55,67.97,19.55,67.97l25.3-2.67Z"/><path id="Path_1951" class="cls-7" d="M1100.76,767.83s-24.2-43.51-32.59-82.71c-4.11-19.19-15.9-38.48-7.75-73.02,.16-.68-5.46-4.33-8.15,.91-2.7,5.24-4.4,22.5-4.68,23.16-.34,.79-3.16-14.08-32.81-23.5-.14-.02-.28,0-.41,.04-1.03,.3-1.63,1.38-1.33,2.41,.1,.34,.29,.65,.55,.89,7.24,7.49,24.51,20.14,26.97,23.37,0,0-33.88-26.8-36.5-23.89-3.87,4.29,33.19,33.87,33.19,33.87,0,0-26.26-21-30.14-16.89s31.49,35.71,31.49,35.71c0,0-29.24-14.52-31.25-10.65-.77,1.49,3.76,8.5,11.53,15.22,12.53,10.84,25.71,13.05,24.77,19.03,0,0,13.49,65.42,10.11,77.73"/><path id="Path_1952" class="cls-11" d="M1128.06,843.82l-26.41-90.05-56.85,10.5s-14.26,66.31-13.36,79.55h96.62Z"/><path id="Path_1953" class="cls-7" d="M503.31,653.81s-1.53-3.29-5.83-10.79c-4.91-8.56-12.37-25.05-4.05-26.06,5.6-.68,12.07,14.73,28.2,36.59,9.74,13.07,15.39,28.73,16.26,45.01,.3,6.51,.17,13.04-.4,19.53-.3,3.46-20.92,110.04-21.51,113.78l-45.78,15.02s31.76-108.41,33.87-116.49c5.05-19.36,5.21-46.66-26.78-64.86-31.91-18.15-18.42-18.85-18.42-18.85l23.4,10.1s-34.47-22.68-30.84-27.88,35.7,18.55,35.7,18.55c0,0-34.62-25.35-31.94-30.59,8.05-5.49,31.94,20.44,31.94,20.44,0,0-23.98-30.31-9.83-33.07,1.65,.98,4.77,8.23,8.24,15.35,5.35,10.99,11.46,25.26,13.24,27.77l4.55,6.43Z"/><path id="Path_1954" class="cls-6" d="M513.57,566.55s-44.4,5.43-62.43,3.24c0,0-5.06,56.36,25.14,65.29,1.61,.48,3.25,.88,4.9,1.19l7.83,69.82-16.05-1.14,3.27,13.15,41.08-1.04-1.22-11.63-19.84,2.67c-.4-4.56-5.71-63.15-5.61-71.32,1.22,.19,2.47,.04,3.61-.43-.6-.31-7.31-13.82-4.14-18.02,4.08-5.4,21.59-2.6,21.59-2.6,0,0,12.39-28.55,1.86-49.17"/><path id="Path_1955" class="cls-7" d="M685.72,815.77s-17.88-60,4.86-123.46c.5-1.51-.31-3.13-1.82-3.64-.76-.25-1.58-.18-2.28,.2-7.23,3.61-11.9,11.21-14.24,27.5,0,0-1.65-35.9,1.52-49.7,.73-2.87-.39-5.9-2.82-7.59-.9-.21-1.83-.27-2.76-.18-2.34,.74-3.59,37.73-6.68,39.24,0,0,.1-19.81,3.87-36.15,.53-2.78-.09-5.65-1.72-7.96-2.68-4.03-7.78,16.07-9.83,40,0,0-2.31-4.3,5.23-41.57,.18-.89-3.1-3.49-3.85-2.95-3.09,2.23-7.8,10.94-10.65,45.53,0,0-2.25-8.41-.85-23.58,.21-2.32,.64-5.76-.74-8.63-.38-.75-1.29-1.06-2.05-.68-.24,.12-.45,.31-.6,.53-2.02,3.08-5.29,11.53-3.98,33.27,.92,15.26,12.91,32.78,16.34,46.48,2.3,9.2-2.95,35.09-3.85,44.53l-3.23,33.86s39.6-.83,40.14-5.04"/><path id="Path_1956" class="cls-7" d="M673.41,662.11l3.23,4.97-2.69-2.02-.54-2.95Z"/><path id="Path_1957" class="cls-7" d="M664.6,655.73l1.79,3.62-1.1-.79-.69-2.83Z"/><path id="Path_1958" class="cls-6" d="M692.42,612.81l52.27,33.91s-2.66,24.3-17.18,39.28c-8.71,8.99-19.92,14.3-34.78,11.14-2.24-.48,6.66-23.07,4.72-23.7l-15.75,13.15-9.7,22.64-45.3,63.69,18.76,8.53-9.51,8.34-40.99-23.84,7.91-10.85,16.09,12.67c3.33-4.88,47.28-68.96,52.34-78.21-4.55-3.23-8.11-7.65-10.3-12.78-7.95-17.48-2.39-38.09,12.68-50.24,5.06-4.08,11.28-8.74,18.73-13.75"/><path id="Path_1959" class="cls-9" d="M1021.19,659.17l9.94,4.97-3.09,28.88-9.14-3.25,2.3-30.6Z"/><path id="Path_1960" class="cls-6" d="M1238.04,406.9s39.27,20.6,61.97,25.91c0,0-11.03,59.94-51.47,57.38-2.16-.13-4.31-.38-6.45-.74l-41.35,80.6,19.84,5.71-9.94,14.38-48.97-19.37,6.78-13.46,22.66,11.96c2.56-5.31,35.74-73.5,39.35-83.38-20.62-9.94-15.73-34.63-15.73-34.63,0,0,1.2-24.19,23.29-44.36"/><path id="Path_1961" class="cls-7" d="M1219.96,508.36s5.85,8.11,3.71,14.01-7.85-4.41-7.85-4.41l4.14-9.6Z"/><path id="Path_1962" class="cls-7" d="M1214.42,519.42s6.92,7.85,5.53,10.56c-1.18,2.3-6.41-1.8-7.98-3.19-.23-.24-.44-.5-.61-.79l3.05-6.57Z"/><path id="Path_1963" class="cls-7" d="M1211.37,526.51s3.86,5.77,3.82,7.26-1.49,3.85-5.95-3.11l2.13-4.15Z"/><path id="Path_1964" class="cls-10" d="M859.72,722.03c-.05-2.63,2.04-4.79,4.67-4.84,2.63-.05,4.79,2.04,4.84,4.67,.05,2.63-2.04,4.79-4.67,4.84-.03,0-.06,0-.09,0-2.6,.02-4.73-2.07-4.76-4.67"/><path id="Path_1965" class="cls-10" d="M866.19,731.37c-.05-2.63,2.04-4.79,4.67-4.84,2.63-.05,4.79,2.04,4.84,4.67,.05,2.63-2.04,4.79-4.67,4.84-.03,0-.06,0-.09,0-2.6,.02-4.73-2.07-4.76-4.67"/><path id="Path_1966" class="cls-10" d="M875.06,736.04c-.05-2.63,2.04-4.79,4.67-4.84,2.63-.05,4.79,2.04,4.84,4.67,.05,2.63-2.04,4.79-4.67,4.84-.03,0-.06,0-.09,0-2.6,.02-4.73-2.07-4.76-4.67"/><path id="Path_1943" class="cls-11" d="M51.45,846.9s31.15-243.1,43.81-256.24l61.68,6.45s-57.08,227.9-40.2,249.8H51.45Z"/><path id="Path_2014" class="cls-4" d="M275.7,517.51s-6.78-3.43-21.34-5.3,12.4-30.31,22.4-3.79c10,26.52-1.07,9.09-1.07,9.09Z"/><path id="Path_2015" class="cls-4" d="M1229.76,396.71s6.62-29.68-5.34-31.66c-11.95-1.98-13.06,11.16-2.34,18.38s7.67,13.29,7.67,13.29Z"/><path id="Path_2016" class="cls-4" d="M847.04,609.49c-4.81,6.52,14.76-7.54,11.74-15.72-3.02-8.18-9.7-9.08-12.46-4.21-2.76,4.87,5.52,13.41,.72,19.93Z"/><path id="Path_2017" class="cls-4" d="M703.55,610.51c.82,6.28,3.38-11.41-1.91-15.21-5.29-3.79-8.87-1.35-7.86,2.96,1,4.31,8.95,5.96,9.77,12.24Z"/><path id="Path_2018" class="cls-4" d="M716.34,600.28c-4.81,5.98,3.37-14.64,11.56-14.54,8.18,.1,10.6,5.44,6.81,9.2-3.79,3.77-13.56-.64-18.37,5.34Z"/><path id="Path_1949" class="cls-11" d="M1332.39,846.9l-48.41-235.7-69.23,13.23s64.14,202.33,45.49,222.47h72.15Z"/></g></g></g></g></g></svg>