<svg xmlns="http://www.w3.org/2000/svg" xmlns:xlink="http://www.w3.org/1999/xlink" width="1731.983" height="722.301" viewBox="0 0 1731.983 722.301">
  <defs>
    <clipPath id="clip-path">
      <rect id="Rectangle_87" data-name="Rectangle 87" width="1731.983" height="722.301" transform="translate(-17.567 -42.583)" fill="none"/>
    </clipPath>
  </defs>
  <g id="Group_141" data-name="Group 141" transform="translate(17.567 42.583)">
    <g id="Group_140" data-name="Group 140" clip-path="url(#clip-path)">
      <path id="Path_1936" data-name="Path 1936" d="M491.068,209.926a4.886,4.886,0,1,1,3.483,5.969,4.888,4.888,0,0,1-3.483-5.969" transform="translate(626.579 263.293)" fill="#09161c"/>
      <path id="Path_1937" data-name="Path 1937" d="M445.5,178.92s48.387-21.63,71.234-42.407c0,0,27.945,17.412,37.763,43.5,5.891,15.655,4.3,31.922-8.086,47.772-1.871,2.395-17.576,7.161-17.576,7.161l21.88,24.837L601.9,351.1l21.157-17.355,4.648,16.217-52.527,34.872-8.6-15.787,24.644-11.746c-4-6.831-56.445-96.769-64.74-108.221-6.611,3.745-14.029,5-21.437,4.778-25.787-.772-47.585-19.486-53.645-44.562-2.035-8.416-4.111-18.562-5.9-30.38" transform="translate(568.62 174.241)" fill="#e2f273" opacity="0.922"/>
      <path id="Path_1938" data-name="Path 1938" d="M523.844,217.853s-7.467-22.438-17.08-34.323c-11.453-14.154,3.64,40.936,3.64,40.936l12.543,25.286S483.213,361.6,461.274,397.78s43.957,35.259,43.957,35.259,40.606-189.824,45.182-212.707,6.679-63.058-27.428-75.6c0,0,37.576,51.808.86,73.117" transform="translate(583.047 184.737)" fill="#ef67aa"/>
      <path id="Path_1939" data-name="Path 1939" d="M91.791,0S46.643,27.765,16.6,34.92c0,0,10.039,80.763,63.57,77.317a81,81,0,0,0,8.53-.99l54.722,108.608-26.263,7.687,13.16,19.381,64.815-26.105-8.98-18.14-30,16.117c-3.387-7.157-47.3-99.045-52.081-112.355,27.285-13.394,20.815-46.666,20.815-46.666S121.033,27.182,91.791,0" transform="translate(37.19 11)" fill="#d2e262" opacity="0.922"/>
      <path id="Path_1940" data-name="Path 1940" d="M238.037,66.475s-52,10.239-82.653,6.444c0,0-12.782,30.344-5.755,57.319,4.216,16.185,19.042,31.535,38.3,37.337a80.141,80.141,0,0,0,8.336,2.053l13.321,127.714L182.3,295.367l5.559,15.93,63.021-1.812L248.8,291.626l-26.907,4.619c-.672-7.888-9.706-111.606-9.536-125.747,7.56-.753,14.346-4.006,20.269-8.461,20.617-15.5,27.631-43.365,18.12-67.344-3.194-8.049-7.35-17.535-12.709-28.218" transform="translate(169.724 141.264)" fill="#e2f273" opacity="0.922"/>
      <path id="Path_1941" data-name="Path 1941" d="M451.572,140.522s40.531,34.152,69.179,45.687c0,0-3.522,32.737-22.739,52.928-11.53,12.115-31.935,18.359-51.6,14.1A81.182,81.182,0,0,1,438.128,251L364.594,356.261l24.833,11.5L376.846,379,322.6,346.88l10.469-14.617,21.3,17.077c4.409-6.574,62.571-92.926,69.272-105.38-6.249-4.323-10.608-10.455-13.631-17.221-10.524-23.551-3.16-51.323,16.779-67.69,6.692-5.5,14.926-11.778,24.79-18.527" transform="translate(412.751 173.358)" fill="#e2f273"/>
      <path id="Path_1942" data-name="Path 1942" d="M308.7,116.5s-40.472,7.967-64.326,5.017c0,0-14.644,61.621,25.329,73.668a62.905,62.905,0,0,0,6.49,1.6l10.367,94.08-21.241-1.537,4.325,17.712L324,305.634l-1.614-15.671-26.256,3.594c-.523-6.139-7.555-85.091-7.423-96.095,23.54-2.347,27.87-28.368,27.87-28.368s6.048-24.817-7.883-52.591" transform="translate(308.565 148.703)" fill="#e2f273"/>
      <path id="Path_1944" data-name="Path 1944" d="M34.3,219.369S49.571,156.281,50.11,153.7c2.684-12.916,9.7-54.892-2.625-94.3-.694-2.224-2.727-6.162-1.473-8.145,7.173-11.336,22.937,34.182,22.937,34.182s31.826-45.327,35.848-31.38C108.258,66.05,90.309,83.1,86.917,89.1c-.385.685,1.093-.068,1.093-.068s14.043-28.848,24.885-22.937c9.465,5.161-13.538,28.88-13.538,28.88s.139,1.721,1.455,1.052,8.58-20.5,17.146-17.043c8.728,3.522,2.11,20.166-2.122,29.93a18.753,18.753,0,0,0-1.343,10.21s30.863-21.548,31.566-8.345c.432,8.1-49.042,34.453-59.261,47.854-6.708,8.8-19,64.33-19,64.33Z" transform="translate(59.783 74.104)" fill="#ef67aa"/>
      <path id="Path_1945" data-name="Path 1945" d="M134.979,306.144s24.849-50.713,18.186-97.829c-6.192-43.8,20.84-90.279,76.418-98.833,1.862-.287-35.561,26.417-34.824,28.193.442,1.065,36.094-25.912,45.976-27.414a1.507,1.507,0,0,1,.549.048c1.967.435,2.411,2.987,1.024,4.448-9.579,10.089-32.441,27.132-35.7,31.485,0,0,44.833-36.115,48.307-32.188,5.12,5.787-43.927,45.634-43.927,45.634s34.753-28.3,39.9-22.755-41.676,48.116-41.676,48.116,38.7-19.568,41.359-14.343c1.018,2-4.974,11.446-15.259,20.506-16.577,14.605-34.032,17.585-32.789,25.639,0,0-18.662,76.955-14.184,93.534" transform="translate(153.717 196.153)" fill="#ef67aa"/>
      <path id="Path_1946" data-name="Path 1946" d="M152.488,169.024s-36.206-4.2-3.317,18.357c17.885,12.267,53.549,4.755,54.69-.924,1.817-9.051-9.21-11.721-9.21-11.721" transform="translate(154.212 271.761)" fill="none" stroke="#000" stroke-miterlimit="10" stroke-width="5"/>
      <path id="Path_1947" data-name="Path 1947" d="M119.145,321.023s8.343-113.013,25.1-128.107l81.638,7.4s15.2,92.337-20.321,120.7Z" transform="translate(133.507 302.65)" fill="#09161c"/>
      <path id="Path_1948" data-name="Path 1948" d="M570.737,83.47s52,10.239,82.653,6.444c0,0,12.782,30.344,5.755,57.319-4.216,16.185-19.042,31.535-38.3,37.337a80.151,80.151,0,0,1-8.336,2.053L599.185,314.337l27.294-1.976-5.559,15.93L557.9,326.48l2.076-17.858,26.907,4.619c.672-7.888,9.707-111.606,9.536-125.747-7.56-.754-14.346-4.006-20.269-8.461-20.617-15.5-27.631-43.365-18.12-67.344,3.194-8.049,7.35-17.535,12.709-28.218" transform="translate(706.919 131.539)" fill="#e2f273" opacity="0.922"/>
      <path id="Path_1949" data-name="Path 1949" d="M826.838,431.167s-41.225-279.14-57.984-294.235l-81.638,7.405s75.542,261.692,53.206,286.83Z" transform="translate(877.145 174.776)" fill="#09161c"/>
      <path id="Path_1950" data-name="Path 1950" d="M759.655,241.9s-17.61-53.986-18.147-56.575c-2.686-12.914-8.6-33.907-10.931-50.406-4.726-33.444,8.143-43.852,5.133-44.753-17.323-5.188-17.335,18.653-17.335,18.653s-25.507-58.553-29.347-44.553c-2.1,7.637,14.621,41.364,18.013,47.365.385.685-1.093-.068-1.093-.068s-11.5-28.482-20.333-22.937c-4.739,2.975,13.538,33.433,13.538,33.433s-.139,1.721-1.455,1.052-11.109-23.481-17.146-19.32c-4.352,3,6.87,16.183,11.1,25.946h0s-17-31.027-12.088-11.8c1.234,4.819,13.56,27.653,20.717,35.967,23.351,27.116,25.878,91.592,25.878,91.592Z" transform="translate(866.242 79.264)" fill="#ef67aa"/>
      <path id="Path_1951" data-name="Path 1951" d="M689.069,337.734s-32.029-58.633-43.13-111.453c-5.434-25.862-21.045-51.854-10.253-98.394.214-.917-7.223-5.83-10.792,1.227s-5.83,30.324-6.2,31.211c-.444,1.068-4.179-18.974-43.42-31.66a1.091,1.091,0,0,0-.549.05c-1.967.435-2.411,2.987-1.024,4.448,9.579,10.089,32.438,27.132,35.7,31.484,0,0-44.833-36.117-48.309-32.188-5.117,5.787,43.927,45.634,43.927,45.634s-34.753-28.3-39.9-22.755S606.8,203.456,606.8,203.456s-38.7-19.568-41.359-14.346c-1.018,2,4.974,11.448,15.259,20.508,16.577,14.605,34.032,17.585,32.789,25.639,0,0,17.86,88.155,13.383,104.734" transform="translate(715.687 185.018)" fill="#ef67aa"/>
      <path id="Path_1952" data-name="Path 1952" d="M710.574,328.447s8.987-100.14-44.171-115.578a39.27,39.27,0,0,1-53.19,4.371l-.171-.134S547.178,300.079,582.7,328.447Z" transform="translate(730.318 296.7)" fill="#09161c"/>
      <path id="Path_1953" data-name="Path 1953" d="M308.449,190.505s-2.024-4.432-7.717-14.532c-6.5-11.534-16.369-33.756-5.359-35.113,7.414-.915,15.971,19.841,37.321,49.3A112.6,112.6,0,0,1,354.209,250.8a199.343,199.343,0,0,1-.533,26.319c-.4,4.669-27.687,148.269-28.464,153.314L264.62,450.679S306.653,304.6,309.444,293.716c6.688-26.085,6.893-62.876-35.445-87.4-42.236-24.462-24.385-25.393-24.385-25.393l30.968,13.608s-45.618-30.558-40.815-37.565,47.242,24.99,47.242,24.99-45.823-34.152-42.27-41.211c2.7-5.354,26.743,17.521,43.281,27.492a47.416,47.416,0,0,1,14.407,13.6Z" transform="translate(305.58 178.622)" fill="#ef67aa"/>
      <path id="Path_1954" data-name="Path 1954" d="M322.268,110.5s-58.765,7.312-82.619,4.362c0,0-6.7,75.938,33.274,87.982a62.854,62.854,0,0,0,6.488,1.6l10.369,94.08-21.243-1.537,4.327,17.712,54.362-1.409-1.614-15.671-26.256,3.594c-.524-6.139-7.558-85.089-7.423-96.095-4.127-4.325-13.745-16.9-9.615-21.1,8.263-8.4,37.485-7.271,37.485-7.271s16.4-38.475,2.465-66.249" transform="translate(305.344 141.043)" fill="#e2f273" opacity="0.922"/>
      <path id="Path_1955" data-name="Path 1955" d="M412.239,386.329s-23.667-80.845,6.438-166.353a3.83,3.83,0,0,0-5.427-4.628c-9.57,4.867-15.748,15.106-18.848,37.05,0,0-2.181-48.38,2.005-66.966a9.666,9.666,0,0,0-3.731-10.23,11.1,11.1,0,0,0-3.649-.246c-3.1.993-4.746,50.836-8.846,52.88,0,0,.139-26.688,5.122-48.717a14.244,14.244,0,0,0-2.279-10.731c-3.547-5.434-10.3,21.651-13.016,53.9,0,0-3.059-5.791,6.92-56.008.239-1.2-4.109-4.705-5.1-3.979-4.1,3.009-10.323,14.742-14.1,61.353,0,0-2.973-11.329-1.125-31.778.282-3.121.847-7.762-.974-11.632a2,2,0,0,0-3.5-.2c-2.679,4.152-7,15.536-5.27,44.831,1.216,20.556,17.082,44.168,21.621,62.634,3.048,12.4-3.9,47.283-5.095,60l-4.27,45.619s52.409-1.118,53.119-6.793" transform="translate(443.218 201.026)" fill="#ef67aa"/>
      <path id="Path_1956" data-name="Path 1956" d="M368.2,169.7l4.282,6.7-3.56-2.723Z" transform="translate(470.957 210.598)" fill="#ef67aa"/>
      <path id="Path_1957" data-name="Path 1957" d="M363.077,165.928l2.372,4.874-1.459-1.059Z" transform="translate(464.422 205.786)" fill="#ef67aa"/>
      <path id="Path_1958" data-name="Path 1958" d="M451.572,140.522l69.179,45.687s-3.522,32.737-22.739,52.928c-11.53,12.115-26.369,19.269-46.031,15.013-2.971-.642,8.812-31.088,6.251-31.935l-20.845,17.719-12.843,30.508-59.951,85.819,24.833,11.5L376.846,379,322.6,346.88l10.469-14.617,21.3,17.077c4.409-6.574,62.571-92.926,69.272-105.38-6.249-4.323-10.608-10.455-13.631-17.221-10.524-23.551-3.16-51.323,16.779-67.69,6.692-5.5,14.926-11.778,24.79-18.527" transform="translate(412.751 173.358)" fill="#e2f273" opacity="0.922"/>
      <path id="Path_1959" data-name="Path 1959" d="M572.531,153.115l13.153,6.7-4.094,38.918-12.1-4.384Z" transform="translate(726.918 223.227)" fill="#dfeb7d"/>
      <path id="Path_1960" data-name="Path 1960" d="M753.59,16s51.976,27.765,82.02,34.92c0,0-14.591,80.763-68.125,77.317a81.006,81.006,0,0,1-8.53-.99L704.233,235.85l26.263,7.687-13.16,19.381-64.815-26.105,8.98-18.14,30,16.117c3.387-7.157,47.3-99.045,52.081-112.355-27.285-13.394-20.815-46.666-20.815-46.666S724.347,43.178,753.59,16" transform="translate(832.86 20.417)" fill="#e2f273" opacity="0.922"/>
      <path id="Path_1961" data-name="Path 1961" d="M689.478,76.055s7.74,10.927,4.908,18.883S683.994,89,683.994,89Z" transform="translate(873.031 97.075)" fill="#ef67aa"/>
      <path id="Path_1962" data-name="Path 1962" d="M685.451,82.6s9.162,10.583,7.325,14.225c-1.562,3.1-8.477-2.431-10.565-4.3a5.832,5.832,0,0,1-.8-1.065Z" transform="translate(869.731 105.433)" fill="#ef67aa"/>
      <path id="Path_1963" data-name="Path 1963" d="M682.989,86.8s5.115,7.778,5.058,9.777-1.971,5.186-7.876-4.186Z" transform="translate(868.152 110.793)" fill="#ef67aa"/>
      <path id="Path_1964" data-name="Path 1964" d="M476.961,206.061a6.294,6.294,0,1,1,6.294,6.294,6.294,6.294,0,0,1-6.294-6.294" transform="translate(608.78 254.977)" fill="#09161c"/>
      <path id="Path_1965" data-name="Path 1965" d="M480.721,211.591a6.294,6.294,0,1,1,6.294,6.294,6.294,6.294,0,0,1-6.294-6.294" transform="translate(613.579 262.035)" fill="#09161c"/>
      <path id="Path_1966" data-name="Path 1966" d="M485.88,214.355a6.294,6.294,0,1,1,6.294,6.294,6.294,6.294,0,0,1-6.294-6.294" transform="translate(620.164 265.563)" fill="#09161c"/>
      <path id="Path_1943" data-name="Path 1943" d="M0,414.172s41.225-279.14,57.984-294.235l81.638,7.405S64.08,389.034,86.416,414.172Z" transform="translate(16 164.084)" fill="#09161c"/>
      <path id="Path_2014" data-name="Path 2014" d="M5859.15-667.279s-5.156-8.681-20.167-21.024,35.563-25.934,27.853,11.382S5859.15-667.279,5859.15-667.279Z" transform="matrix(0.848, -0.53, 0.53, 0.848, -4302.446, 3856.223)" fill="#09161c"/>
      <path id="Path_2015" data-name="Path 2015" d="M5867.922-694.309s-36.893,17.727-29.252,31.832,22.489,4.347,21.406-12.812S5867.922-694.309,5867.922-694.309Z" transform="matrix(-0.616, 0.788, -0.788, -0.616, 4641.023, -5028.758)" fill="#09161c"/>
      <path id="Path_2016" data-name="Path 2016" d="M6594.418-492.314c-3.153,10.378,15.159-15.969,7.8-25.085s-16.12-7.391-17.441,0S6597.572-502.692,6594.418-492.314Z" transform="translate(-5326.464 -1372.035) rotate(19)" fill="#09161c"/>
      <path id="Path_2017" data-name="Path 2017" d="M6590.907-498.616c-2.016,8.288,9.687-12.753,4.985-20.033s-10.3-5.9-11.146,0S6592.922-506.9,6590.907-498.616Z" transform="translate(-5095.401 3138.234) rotate(-21)" fill="#09161c"/>
      <path id="Path_2018" data-name="Path 2018" d="M6593.094-493.8c2.774,9.884-13.326-15.208-6.858-23.891s14.172-7.039,15.334,0S6590.321-503.688,6593.094-493.8Z" transform="matrix(0.588, 0.809, -0.809, 0.588, -3378.846, -4746.694)" fill="#09161c"/>
    </g>
  </g>
</svg>
