<svg xmlns="http://www.w3.org/2000/svg" xmlns:xlink="http://www.w3.org/1999/xlink" width="122" height="92.964" viewBox="0 0 122 92.964">
  <defs>
    <clipPath id="clip-path">
      <rect id="Rectangle_59" data-name="Rectangle 59" width="122" height="92.964" fill="none"/>
    </clipPath>
  </defs>
  <g id="Group_244" data-name="Group 244" transform="translate(-240.349 -176.102)">
    <g id="Group_88" data-name="Group 88" transform="translate(240.349 176.102)">
      <g id="Group_87" data-name="Group 87" clip-path="url(#clip-path)">
        <path id="Path_958" data-name="Path 958" d="M.729,530.188l31.578-.55.2,10.79s-31.426-1.592-31.252-1.249-.527-8.99-.527-8.99" transform="translate(-0.616 -447.463)" fill="#e2f273"/>
        <path id="Path_959" data-name="Path 959" d="M241.508,544.118l1.236,2.691,1.219-2.7,3.048-.01,1.236,2.682,1.219-2.69,3.048-.01-2.725,6.054-3.063.01-1.236-2.7-1.219,2.707-3.048.01-2.764-6.037Z" transform="translate(-201.462 -459.667)" fill="#fcfbf9"/>
        <rect id="Rectangle_57" data-name="Rectangle 57" width="3.048" height="6.046" transform="matrix(1, -0.003, 0.003, 1, 51.63, 84.414)" fill="#fcfbf9"/>
        <path id="Path_960" data-name="Path 960" d="M359.863,543.932l3.048-.01.014,4.344,3.265-.01.005,1.7-6.313.02Z" transform="translate(-304.029 -459.531)" fill="#fcfbf9"/>
        <path id="Path_961" data-name="Path 961" d="M408.088,543.749l4.767-.015c1.574-.005,3.05.8,3.053,1.683l.009,2.652c0,.89-1.468,1.706-3.043,1.711l-4.767.015Zm4.368,1.679-1.315,0,.008,2.66,1.315,0c.217,0,.4-.1.4-.252l-.007-2.177c0-.129-.218-.233-.405-.232" transform="translate(-344.772 -459.372)" fill="#fcfbf9"/>
        <path id="Path_962" data-name="Path 962" d="M507.215,543.271l1.236,2.691,1.219-2.7,3.048-.01,1.236,2.682,1.219-2.69,3.048-.01L515.5,549.29l-3.063.01-1.236-2.7-1.219,2.707-3.048.01-2.764-6.037Z" transform="translate(-425.944 -458.951)" fill="#fcfbf9"/>
        <rect id="Rectangle_58" data-name="Rectangle 58" width="3.048" height="6.046" transform="translate(92.855 84.283) rotate(-0.184)" fill="#fcfbf9"/>
        <path id="Path_963" data-name="Path 963" d="M625.568,543l3.048-.01,1.712,2.266-.007-2.271,3.048-.01.019,6.046-3.048.01-1.711-1.938.006,1.943-3.048.01Z" transform="translate(-528.51 -458.733)" fill="#fcfbf9"/>
        <path id="Path_964" data-name="Path 964" d="M684.575,544.526v.466l4.146-.013.005,1.7-4.146.013v.224c0,.156.188.25.405.249l3.741-.012.005,1.7-4.146.013c-.8,0-3.053,0-3.053,0s0-1.251,0-1.692l-.014-4.344,7.194-.023.005,1.7Z" transform="translate(-575.782 -458.592)" fill="#fcfbf9"/>
        <path id="Path_965" data-name="Path 965" d="M735.463,544.828l0-.484c0-.881,1.468-1.7,3.043-1.7l4.767-.015.005,1.693-4.363.014c-.188,0-.4.105-.4.234,0,.147.174.241.391.249l1.329,0c1.575-.005,3.051.8,3.053,1.683l0,.483c0,.881-1.468,1.7-3.043,1.7l-4.767.015L735.47,547l4.362-.014c.217,0,.4-.1.4-.252,0-.13-.217-.224-.405-.232l-1.314,0c-1.575.005-3.051-.8-3.053-1.683" transform="translate(-621.352 -458.437)" fill="#fcfbf9"/>
        <path id="Path_966" data-name="Path 966" d="M207.233,0l19.549,1.4-1.4,19.615-16.838-1.544S207.062,2.312,207.233,0" transform="translate(-175.069)" fill="#e2f273"/>
        <path id="Path_967" data-name="Path 967" d="M216.353,181.168s4.359-.5,17.177-1.169l1.111,8.3s-8.956.171-9.926.386c0,0,.16,10.774.648,16.08,0,0,4.841.151,6.329.036,0,0,.371,7.85.041,8.515-.165.333-6.273.676-6.273.676l.132,5.473,8.2.352-1.378,10.012-15.29-.7s-1.047-38.955-.775-47.961" transform="translate(-182.748 -152.072)" fill="#fcfbf9"/>
        <path id="Path_968" data-name="Path 968" d="M555.907,21l.7-9.073-16.805.506s2.393,54.851,3.079,74.752c0,0,12.233.52,14.209.708,0,0,.18-.6-.34-10.706,0,0-1.407-.1-4.5-.409L552,68.506l3.252-.374c.181-1.377.155-10.438-.166-10.438-1.463,0-3.9.222-3.9.222-.216.257-.63-36.695-.63-36.695Z" transform="translate(-456.052 -10.076)" fill="#fcfbf9"/>
        <path id="Path_969" data-name="Path 969" d="M669.162,11.665s5.685.294,12.267,0c0,0-1.254,31.264-2.018,63.728,0,0,7.521.546,7.369.4s.558,11.54.558,11.54c.234.471-17.351-.193-17.351-.193s-.819-71.921-.825-75.476" transform="translate(-565.34 -9.855)" fill="#fcfbf9"/>
        <path id="Path_970" data-name="Path 970" d="M18.7,56.688C35.607,45.192,29.735,16,22.65,7.556c-4.45-5.3-22-4.879-22-4.879C.655,8.339,0,80.413,0,80.413l9.166-.4c.056-3.678-.745-18.979-.649-19.1s4.933.188,4.933.188l5.634,18.215,11.225.7Zm-9.251-8.1s-.72-28.353-.77-33.515l6.225.462s.7,10.6.4,18.382A105.085,105.085,0,0,1,13.45,48.778s-3.981.031-4.005-.194" transform="translate(0 -2.255)" fill="#fcfbf9"/>
        <path id="Path_971" data-name="Path 971" d="M382.234,67.373c10.75-4.335,4.712-43.833,3.416-49.916a8.577,8.577,0,0,0-8.492-6.992l-14.737-.123c.161,9.553.758,75.872.758,75.872s22.572.208,22.793-.141c7.714-12.144-3.738-18.7-3.738-18.7M373.4,18.585c0-.015,0-.016.009,0H373.4c-.094.7,2.17,32.966,2.17,37.169l-4.029-.093s-1.085-33.892-1.552-36.974Zm4.476,61.707s-5.657.211-6.055-.3c0,0-.2-2.086-.78-11.49,0,0,2.043-.287,2.906.543a13.259,13.259,0,0,1,3.891,7.507,19.855,19.855,0,0,1,.037,3.736" transform="translate(-306.19 -8.737)" fill="#fcfbf9"/>
      </g>
    </g>
  </g>
</svg>
