<svg xmlns="http://www.w3.org/2000/svg" xmlns:xlink="http://www.w3.org/1999/xlink" width="676" height="676" viewBox="0 0 676 676">
  <defs>
    <clipPath id="clip-path">
      <rect id="Rectangle_40" data-name="Rectangle 40" width="401.062" height="403.181" fill="none"/>
    </clipPath>
    <clipPath id="clip-path-2">
      <rect id="Rectangle_41" data-name="Rectangle 41" width="676" height="676" transform="translate(-0.429 -0.429)" fill="none"/>
    </clipPath>
  </defs>
  <g id="Group_68" data-name="Group 68" transform="translate(-1221.546 -268.509)">
    <g id="Group_43" data-name="Group 43" transform="translate(1339.203 404.634)">
      <g id="Group_41" data-name="Group 41" clip-path="url(#clip-path)">
        <path id="Path_824" data-name="Path 824" d="M124.294,25.142s-24.416-2.735-25.9-7.778c-.639-2.175,6.392.132,6.392.132s-12.583-5.535-9.534-7.283,11.638,3.415,11.638,3.415S94.136,5.961,97.823,5.177s11.393,5.207,11.393,5.207.316.141.2-.21-9.35-6.349-7.644-9.152,13.738,7.107,13.738,7.107-3.951-7.01-.839-8.091,16.865,20.925,16.865,20.925Z" transform="translate(-20.348 0)" fill="#ef67aa"/>
        <path id="Path_825" data-name="Path 825" d="M171.309,446.207l-4.5,16.516,11.035,3.265,3.771-15.257Z" transform="translate(-35.812 -95.795)" fill="#ef67aa"/>
        <path id="Path_826" data-name="Path 826" d="M170.706,467.966s-11.17,1.2-15-4.241c-2.187-3.109-17.68-2.932-27.47-1.106a7.333,7.333,0,0,0-2.958,13.152c9.012,6.577,23.958,13.49,45.449,11.1,0,0,10.211-8.438-.022-18.907" transform="translate(-26.244 -99.036)" fill="#09161c"/>
        <path id="Path_827" data-name="Path 827" d="M372.928,394.222l58.57-32.439L316.16,274.709l-4.139-114.837L260.13,105.851,226.448,218.837,147.273,368.523l47.241,25.7,27.53-95.984L263,278.884l27.934,28.834Z" transform="translate(-31.618 -22.725)" fill="#09161c"/>
        <path id="Path_828" data-name="Path 828" d="M118.134,237.8.943,244.4,0,189.7l120.02,15.09,10.374-42.439,264.066,19.8,6.6,89.594-273.5,15.09Z" transform="translate(0 -34.855)" fill="#e2f273"/>
        <path id="Path_829" data-name="Path 829" d="M288.252,105.262s13.384,9.022,30.151-2.155c0,0,64.526,33.533,51.824,96.026s-88.636,55.888-88.636,55.888l-3.326-17.274s56.9,3.049,69.607-33.534-22.8-59.445-22.8-59.445-38.424-5.635-36.822-39.507" transform="translate(-59.74 -22.136)" fill="#09161c"/>
        <path id="Path_830" data-name="Path 830" d="M244.26,129.34S142.9,82.678,119.954,35.014L147.267,8.592s80.824,92.622,103.107,93.5" transform="translate(-25.753 -1.845)" fill="#09161c"/>
        <path id="Path_831" data-name="Path 831" d="M286.994,91.153s11.762,9.574,30.151-2.155c2.239-1.428-3.763-25.028-3.763-25.028s17.54-3.51,3.16-10.709c0,0-19.239,0-27.527-15.873L280.332,46.8,272.4,50.679l4.605,4.431-1.151,16.873,11.139-.691a9.073,9.073,0,0,1,2.478,12.021Z" transform="translate(-58.481 -8.027)" fill="#ef67aa"/>
        <path id="Path_832" data-name="Path 832" d="M465.867,454.258l10.406,13.591,9.287-6.8L475.714,448.8Z" transform="translate(-100.016 -96.353)" fill="#ef67aa"/>
        <path id="Path_833" data-name="Path 833" d="M483.118,460.92s-5.817,9.612-12.466,9.356c-3.8-.145-13.052,12.282-17.535,21.173a7.333,7.333,0,0,0,8.665,10.328c10.694-3.18,25.253-10.874,36.384-29.412,0,0-.518-13.236-15.048-11.446" transform="translate(-97.104 -98.918)" fill="#09161c"/>
        <path id="Path_834" data-name="Path 834" d="M274.544,288.361s-12.789,10.782-17.358,8.186c-1.971-1.12,4.688-4.349,4.688-4.349s-12.893,4.768-11.916,1.392,10.74-5.635,10.74-5.635-14.5,3.357-12.4.229,11.809-4.176,11.809-4.176.324-.118,0-.291-11.136,1.935-11.858-1.266,14.817-4.439,14.817-4.439-7.713-2.294-6.228-5.233,15.859,5.451,15.859,5.451Z" transform="translate(-53.262 -58.428)" fill="#ef67aa"/>
        <path id="Path_835" data-name="Path 835" d="M277.161,61.969s-.47,2.461,4.161,2.128c2.856-.206,11.546-.5,13.965-2.028l9.833-6.235s6.155-4.385,5.975.343-7.036,12.884-7.036,12.884-24.231,13.593-29.077,11.465,1.207-25.671,2.18-18.557" transform="translate(-58.636 -11.589)" fill="#09161c"/>
        <path id="Path_836" data-name="Path 836" d="M283.067,38.98S265.978,30.769,265.7,23.292s44.2,20.719,44.2,20.719,4.932,14.811-26.832-5.031" transform="translate(-57.043 -4.73)" fill="#f62a20"/>
        <path id="Path_837" data-name="Path 837" d="M287.62,26.108S299.332,7.847,314.562,8.586s21.044,30.269,14.122,38.487-38.931-13.6-41.063-20.965" transform="translate(-61.748 -1.839)" fill="#f62a20"/>
      </g>
    </g>
    <g id="Group_52" data-name="Group 52" transform="translate(1221.975 268.938)">
      <text id="_1" data-name="1" transform="matrix(0.539, -0.842, 0.842, 0.539, 62.8, 175.739)" font-size="26" font-family="Helvetica"><tspan x="0" y="0">1</tspan></text>
      <text id="_0" data-name="0" transform="translate(82.616 157.552) rotate(-51.666)" font-size="32" font-family="Helvetica"><tspan x="0" y="0">0</tspan></text>
      <text id="_0-2" data-name="0" transform="matrix(0.707, -0.707, 0.707, 0.707, 105.233, 129.139)" font-size="32" font-family="Helvetica"><tspan x="0" y="0">0</tspan></text>
      <text id="_" data-name="%" transform="translate(132.773 105.445) rotate(-37.284)" font-size="36" font-family="Helvetica"><tspan x="0" y="0">%</tspan></text>
      <text id="_2" data-name=" " transform="matrix(0.853, -0.522, 0.522, 0.853, 156.877, 54.364)" font-size="6" font-family="Helvetica"><tspan x="0" y="0"> </tspan></text>
      <text id="G" transform="translate(183.777 69.142) rotate(-26.577)" font-size="36" font-family="Helvetica"><tspan x="0" y="0">G</tspan></text>
      <g id="Group_45" data-name="Group 45" transform="translate(0 0)">
        <g id="Group_44" data-name="Group 44" transform="translate(0 0)" clip-path="url(#clip-path-2)">
          <text id="R" transform="translate(216.737 49.509) rotate(-19.691)" font-size="32" font-family="Helvetica"><tspan x="0" y="0">R</tspan></text>
          <text id="A" transform="matrix(0.975, -0.221, 0.221, 0.975, 249.976, 40.624)" font-size="36" font-family="Helvetica"><tspan x="0" y="0">A</tspan></text>
          <text id="P" transform="matrix(0.995, -0.103, 0.103, 0.995, 288.055, 23.004)" font-size="27" font-family="Helvetica"><tspan x="0" y="0">P</tspan></text>
          <text id="E" transform="matrix(1, 0.016, -0.016, 1, 324.612, 19.331)" font-size="27" font-family="Helvetica"><tspan x="0" y="0">E</tspan></text>
          <text id="_3" data-name=" " transform="matrix(0.997, 0.081, -0.081, 0.997, 358.368, 2.086)" font-size="6" font-family="Helvetica"><tspan x="0" y="0"> </tspan></text>
          <text id="J" transform="translate(374.39 7.356) rotate(8.113)" font-size="12" font-family="Helvetica"><tspan x="0" y="0">J</tspan></text>
          <text id="U" transform="matrix(0.971, 0.241, -0.241, 0.971, 394.791, 30.21)" font-size="33" font-family="Helvetica"><tspan x="0" y="0">U</tspan></text>
          <text id="I" transform="translate(438.077 26.113) rotate(19.415)" font-size="16" font-family="Helvetica"><tspan x="0" y="0">I</tspan></text>
        </g>
      </g>
      <text id="C" transform="matrix(0.909, 0.417, -0.417, 0.909, 449.588, 51.047)" font-size="39" font-family="Helvetica"><tspan x="0" y="0">C</tspan></text>
      <text id="E-2" data-name="E" transform="matrix(0.856, 0.517, -0.517, 0.856, 488.776, 57.221)" font-size="27" font-family="Helvetica"><tspan x="0" y="0">E</tspan></text>
      <text id="_4" data-name=" " transform="matrix(0.814, 0.581, -0.581, 0.814, 527.023, 59.782)" font-size="6" font-family="Helvetica"><tspan x="0" y="0"> </tspan></text>
      <text id="_1-2" data-name="1" transform="translate(529.914 82.635) rotate(39.222)" font-size="26" font-family="Helvetica"><tspan x="0" y="0">1</tspan></text>
      <text id="_0-3" data-name="0" transform="matrix(0.708, 0.706, -0.706, 0.708, 545.696, 104.391)" font-size="32" font-family="Helvetica"><tspan x="0" y="0">0</tspan></text>
      <text id="_0-4" data-name="0" transform="translate(571.376 130.148) rotate(51.538)" font-size="32" font-family="Helvetica"><tspan x="0" y="0">0</tspan></text>
      <text id="_5" data-name="%" transform="matrix(0.51, 0.86, -0.86, 0.51, 591.773, 160.223)" font-size="36" font-family="Helvetica"><tspan x="0" y="0">%</tspan></text>
      <text id="_6" data-name=" " transform="translate(639.752 190.059) rotate(65.146)" font-size="6" font-family="Helvetica"><tspan x="0" y="0"> </tspan></text>
      <g id="Group_47" data-name="Group 47" transform="translate(0 0)">
        <g id="Group_46" data-name="Group 46" transform="translate(0 0)" clip-path="url(#clip-path-2)">
          <text id="G-2" data-name="G" transform="translate(621.969 215.066) rotate(70.066)" font-size="36" font-family="Helvetica"><tspan x="0" y="0">G</tspan></text>
          <text id="R-2" data-name="R" transform="translate(637.645 250.041) rotate(76.957)" font-size="32" font-family="Helvetica"><tspan x="0" y="0">R</tspan></text>
          <text id="A-2" data-name="A" transform="matrix(0.107, 0.994, -0.994, 0.107, 642.622, 284.108)" font-size="36" font-family="Helvetica"><tspan x="0" y="0">A</tspan></text>
          <text id="P-2" data-name="P" transform="matrix(-0.016, 1, -1, -0.016, 655.822, 324.025)" font-size="27" font-family="Helvetica"><tspan x="0" y="0">P</tspan></text>
          <text id="E-3" data-name="E" transform="translate(655.118 360.309) rotate(96.85)" font-size="27" font-family="Helvetica"><tspan x="0" y="0">E</tspan></text>
          <text id="_7" data-name=" " transform="translate(668.512 396.22) rotate(101.228)" font-size="6" font-family="Helvetica"><tspan x="0" y="0"> </tspan></text>
          <text id="J-2" data-name="J" transform="matrix(-0.255, 0.967, -0.967, -0.255, 661.435, 411.532)" font-size="12" font-family="Helvetica"><tspan x="0" y="0">J</tspan></text>
          <text id="U-2" data-name="U" transform="translate(636.378 429.137) rotate(110.585)" font-size="33" font-family="Helvetica"><tspan x="0" y="0">U</tspan></text>
        </g>
      </g>
      <text id="I-2" data-name="I" transform="translate(635.411 472.672) rotate(116.065)" font-size="16" font-family="Helvetica"><tspan x="0" y="0">I</tspan></text>
      <text id="C-2" data-name="C" transform="translate(609.316 481.207) rotate(121.294)" font-size="39" font-family="Helvetica"><tspan x="0" y="0">C</tspan></text>
      <text id="E-4" data-name="E" transform="translate(598.681 519.391) rotate(127.723)" font-size="27" font-family="Helvetica"><tspan x="0" y="0">E</tspan></text>
      <text id="_8" data-name=" " transform="matrix(-0.67, 0.742, -0.742, -0.67, 591.75, 557.093)" font-size="6" font-family="Helvetica"><tspan x="0" y="0"> </tspan></text>
      <text id="_1-3" data-name="1" transform="translate(568.719 557.343) rotate(135.79)" font-size="26" font-family="Helvetica"><tspan x="0" y="0">1</tspan></text>
      <text id="_0-5" data-name="0" transform="matrix(-0.782, 0.623, -0.623, -0.782, 545.299, 570.535)" font-size="32" font-family="Helvetica"><tspan x="0" y="0">0</tspan></text>
      <text id="_0-6" data-name="0" transform="matrix(-0.849, 0.528, -0.528, -0.849, 516.789, 593.09)" font-size="32" font-family="Helvetica"><tspan x="0" y="0">0</tspan></text>
      <text id="_9" data-name="%" transform="matrix(-0.913, 0.408, -0.408, -0.913, 484.563, 609.909)" font-size="36" font-family="Helvetica"><tspan x="0" y="0">%</tspan></text>
      <g id="Group_49" data-name="Group 49" transform="translate(0 0)">
        <g id="Group_48" data-name="Group 48" transform="translate(0 0)" clip-path="url(#clip-path-2)">
          <text id="_10" data-name=" " transform="translate(449.383 654.126) rotate(161.791)" font-size="6" font-family="Helvetica"><tspan x="0" y="0"> </tspan></text>
          <text id="G-3" data-name="G" transform="translate(426.578 633.574) rotate(166.722)" font-size="36" font-family="Helvetica"><tspan x="0" y="0">G</tspan></text>
          <text id="R-3" data-name="R" transform="translate(390.039 645.087) rotate(173.58)" font-size="32" font-family="Helvetica"><tspan x="0" y="0">R</tspan></text>
          <text id="A-3" data-name="A" transform="translate(355.546 646.279) rotate(-179.071)" font-size="36" font-family="Helvetica"><tspan x="0" y="0">A</tspan></text>
          <text id="P-3" data-name="P" transform="translate(314.543 654.604) rotate(-172.823)" font-size="27" font-family="Helvetica"><tspan x="0" y="0">P</tspan></text>
          <text id="E-5" data-name="E" transform="translate(278.467 649.831) rotate(-166.521)" font-size="27" font-family="Helvetica"><tspan x="0" y="0">E</tspan></text>
          <text id="_11" data-name=" " transform="translate(241.202 658.973) rotate(-162.113)" font-size="6" font-family="Helvetica"><tspan x="0" y="0"> </tspan></text>
        </g>
      </g>
      <text id="J-3" data-name="J" transform="translate(226.868 650.187) rotate(-158.601)" font-size="12" font-family="Helvetica"><tspan x="0" y="0">J</tspan></text>
      <text id="U-3" data-name="U" transform="translate(212.251 623.246) rotate(-152.77)" font-size="33" font-family="Helvetica"><tspan x="0" y="0">U</tspan></text>
      <text id="I-3" data-name="I" transform="matrix(-0.842, -0.54, 0.54, -0.842, 169.182, 617.283)" font-size="16" font-family="Helvetica"><tspan x="0" y="0">I</tspan></text>
      <text id="C-3" data-name="C" transform="translate(163.692 590.365) rotate(-142.116)" font-size="39" font-family="Helvetica"><tspan x="0" y="0">C</tspan></text>
      <text id="E-6" data-name="E" transform="matrix(-0.716, -0.698, 0.698, -0.716, 126.972, 575.416)" font-size="27" font-family="Helvetica"><tspan x="0" y="0">E</tspan></text>
      <text id="_12" data-name=" " transform="matrix(-0.661, -0.751, 0.751, -0.661, 90.325, 564.231)" font-size="6" font-family="Helvetica"><tspan x="0" y="0"> </tspan></text>
      <text id="_1-4" data-name="1" transform="translate(92.698 541.308) rotate(-127.638)" font-size="26" font-family="Helvetica"><tspan x="0" y="0">1</tspan></text>
      <text id="_0-7" data-name="0" transform="translate(82.254 516.509) rotate(-121.942)" font-size="32" font-family="Helvetica"><tspan x="0" y="0">0</tspan></text>
      <text id="_0-8" data-name="0" transform="translate(63.137 485.624) rotate(-115.258)" font-size="32" font-family="Helvetica"><tspan x="0" y="0">0</tspan></text>
      <g id="Group_51" data-name="Group 51" transform="translate(0 0)">
        <g id="Group_50" data-name="Group 50" transform="translate(0 0)" clip-path="url(#clip-path-2)">
          <text id="_13" data-name="%" transform="matrix(-0.299, -0.954, 0.954, -0.299, 50.156, 451.7)" font-size="36" font-family="Helvetica"><tspan x="0" y="0">%</tspan></text>
          <text id="_14" data-name=" " transform="matrix(-0.2, -0.98, 0.98, -0.2, 10.295, 411.586)" font-size="6" font-family="Helvetica"><tspan x="0" y="0"> </tspan></text>
          <text id="G-4" data-name="G" transform="matrix(-0.116, -0.993, 0.993, -0.116, 33.365, 391.364)" font-size="36" font-family="Helvetica"><tspan x="0" y="0">G</tspan></text>
          <text id="R-4" data-name="R" transform="matrix(0.016, -1, 1, 0.016, 25.902, 353.539)" font-size="32" font-family="Helvetica"><tspan x="0" y="0">R</tspan></text>
          <text id="A-4" data-name="A" transform="translate(29.042 319.442) rotate(-83.066)" font-size="36" font-family="Helvetica"><tspan x="0" y="0">A</tspan></text>
          <text id="P-4" data-name="P" transform="matrix(0.239, -0.971, 0.971, 0.239, 25.279, 277.634)" font-size="27" font-family="Helvetica"><tspan x="0" y="0">P</tspan></text>
          <text id="E-7" data-name="E" transform="translate(34.191 242.332) rotate(-69.868)" font-size="27" font-family="Helvetica"><tspan x="0" y="0">E</tspan></text>
        </g>
      </g>
      <text id="_15" data-name=" " transform="translate(29.151 204.901) rotate(-65.584)" font-size="6" font-family="Helvetica"><tspan x="0" y="0"> </tspan></text>
    </g>
  </g>
</svg>
