<?xml version="1.0" encoding="UTF-8"?><svg id="Layer_1" xmlns="http://www.w3.org/2000/svg" xmlns:xlink="http://www.w3.org/1999/xlink" viewBox="0 0 753.35 708.66"><defs><style>.cls-1{fill:none;}.cls-2{clip-path:url(#clippath);}.cls-3,.cls-4{fill:#2e6722;}.cls-5{clip-path:url(#clippath-1);}.cls-6{clip-path:url(#clippath-2);}.cls-7{fill:#854ca0;isolation:isolate;opacity:.74;}.cls-4,.cls-8,.cls-9{fill-rule:evenodd;}.cls-8{fill:#d2e262;}.cls-9{fill:#d6e950;}</style><clipPath id="clippath"><rect class="cls-1" x="-19.3" y="13.86" width="834.33" height="694.8"/></clipPath><clipPath id="clippath-1"><rect class="cls-1" x="208.83" y="288.09" width="457.13" height="510.93"/></clipPath><clipPath id="clippath-2"><rect class="cls-1" x="121.25" y="84.94" width="517.07" height="714.08"/></clipPath></defs><g class="cls-2"><g><path id="Path_2499" class="cls-7" d="M609.28,150.3c-59.79-136.62-216.53-169.69-266.52,19.06-49.99,188.75,18.46,204.26-228.74,258.72-247.2,54.46,23.33,365.33,335.58,331.55s219.47-472.71,159.69-609.33Z"/><g id="Group_305"><g id="Group_297"><g class="cls-5"><g id="Group_295"><path id="Path_2300" class="cls-8" d="M270.72,306.07c1.96-5.56-.47-11.54-6.1-15.06-5.93-3.54-13.23-3.88-19.46-.91-6.1,2.97-9.34,8.69-8.18,14.4-1.41,15.09,6.07,31.74,22.46,49.95,4.17-20.88,7.93-37,11.28-48.38"/><path id="Path_2301" class="cls-8" d="M370.49,409.33c1.96-5.56-.46-11.54-6.1-15.06-5.93-3.54-13.23-3.88-19.46-.91-6.1,2.97-8.49,8.61-8.18,14.4,.84,15.84,6.07,31.74,22.46,49.95,4.16-20.88,7.93-37,11.28-48.38"/><path id="Path_2295" class="cls-8" d="M342.85,352.28c1.02-7.81-5.55-14.94-15.06-16.33s-18.7,3.46-21.05,11.08c-5.05,12.8-4.56,30.6,1.48,53.41,22.7-18.98,34.25-35.04,34.63-48.17"/><path id="Path_2296" class="cls-8" d="M242.52,389.16c-5.58,3.09-12.4,2.89-17.8-.52-5.12-3.4-6.83-9.16-4.19-14.09,7.29-13.59,46.35-7.27,58.94-2.53-15.36,5.42-27.68,11.13-36.96,17.14"/><path id="Path_2297" class="cls-8" d="M327,472.48c-4.54,2.52-10.1,2.35-14.49-.43-4.17-2.77-5.56-7.46-3.41-11.47,5.93-11.07,37.74-5.92,47.99-2.06-12.5,4.41-22.53,9.06-30.09,13.95"/><path id="Path_2298" class="cls-8" d="M275.08,409.76c-8.12,.65-14.24,6.3-14.02,12.94s6.73,12.01,14.89,12.29c13.88,1.21,31.91-2.18,54.08-10.17-23.21-12.04-41.52-17.07-54.94-15.07"/><path id="Path_2299" class="cls-3" d="M394.82,520.15c37.49,61.65,30.96,279.42,32.34,278.87s17.21-208.99-27.34-280.86c-36.25-58.48-54.99-82.07-86.03-115.51-31.08-33.5-64.56-61.96-100.43-85.39-1.23-.78-2.84-.64-3.92,.34-.79,.77-.82,2.03-.05,2.83,.14,.14,.3,.26,.47,.36,35.49,23.19,68.65,51.38,99.46,84.59,30.86,33.25,59.35,71.51,85.48,114.76"/><path id="Path_2302" class="cls-8" d="M364.75,513.58c.65-4.99-3.55-9.55-9.62-10.43s-11.95,2.21-13.45,7.08c-3.23,8.18-2.91,19.55,.95,34.13,14.51-12.13,21.88-22.39,22.13-30.77"/><path id="Path_2303" class="cls-8" d="M300.65,537.14c-3.57,1.97-7.93,1.85-11.37-.33-3.27-2.17-4.37-5.85-2.68-9,4.66-8.68,29.62-4.64,37.66-1.62-9.81,3.46-17.69,7.11-23.62,10.95"/><path id="Path_2304" class="cls-8" d="M354.63,590.38c-2.9,1.61-6.45,1.5-9.26-.27-2.66-1.77-3.56-4.76-2.18-7.33,3.79-7.07,24.11-3.78,30.67-1.32-6.73,2.23-13.18,5.22-19.23,8.92"/><path id="Path_2305" class="cls-8" d="M321.45,550.3c-5.19,.42-9.1,4.03-8.96,8.27s4.3,7.67,9.51,7.85c8.87,.77,20.39-1.4,34.55-6.5-14.83-7.7-26.53-10.91-35.11-9.63"/><path id="Path_2306" class="cls-3" d="M397.96,620.84c27.16,38.9,19.78,178.54,20.66,178.19s11-133.54-17.47-179.46c-23.16-37.37-35.14-52.43-54.97-73.81-19.08-20.74-40.63-39.06-64.16-54.56-.79-.5-1.81-.41-2.5,.22-.51,.49-.52,1.3-.03,1.81,.09,.09,.19,.17,.3,.23,23.31,15.35,44.66,33.5,63.56,54.05,19.72,21.25,37.92,45.69,54.62,73.33"/><path id="Path_2307" class="cls-8" d="M331.58,493.39c1.25-3.55-.3-7.37-3.9-9.62-3.79-2.26-8.45-2.48-12.43-.58-3.9,1.9-5.97,5.55-5.23,9.2-.9,9.64,3.88,20.28,14.35,31.92,2.66-13.34,5.06-23.64,7.21-30.91"/><path id="Path_2308" class="cls-8" d="M384.66,548.95c1.25-3.55-.3-7.37-3.9-9.62-3.79-2.26-8.45-2.48-12.43-.58-3.5,1.66-5.59,5.34-5.23,9.2,.53,10.12,3.88,20.28,14.35,31.92,2.66-13.34,5.06-23.64,7.21-30.91"/><path id="Path_2309" class="cls-4" d="M419.07,799.02c38.41,0,17.21,0,17.21,0,14.34-102.68,71.87-192.46,134.33-269.35,34.7-39.22,60.47-70.85,77.31-94.9,10.63-15.18,38.42-51.38-7.76-47.05-47.48,4.46-86,35.48-114.1,64.52-75.03,77.54-96.52,193.13-107,346.77"/><path id="Path_2310" class="cls-9" d="M424.21,799.02h4.81c4.95-72.44,20.91-137.85,47.88-196.22,10.9-23.63,23.75-46.32,38.42-67.82,21.65-31.61,46.98-60.53,75.45-86.16,.73-.61,.82-1.69,.22-2.42-.11-.13-.24-.25-.39-.34-1.03-.72-2.42-.66-3.39,.14-49.36,44.67-87.63,96.41-114.8,155.22-27.15,58.77-43.22,124.6-48.19,197.49v.11Z"/></g></g></g><g id="Group_296"><g class="cls-6"><g id="Group_295-2"><path id="Path_2300-2" class="cls-8" d="M568.32,110.07c-2.22-7.77,.52-16.1,6.9-21.05,6.37-4.93,15.12-5.43,22.01-1.27,6.91,4.18,10.58,12.15,9.26,20.12,1.6,21.09-6.87,44.36-25.41,69.82-4.71-29.18-8.96-51.72-12.76-67.61"/><path id="Path_2301-2" class="cls-8" d="M455.47,254.38c-2.22-7.77,.52-16.1,6.9-21.05,6.37-4.93,15.12-5.43,22.01-1.27,6.9,4.16,9.6,12.04,9.26,20.12-.95,22.14-6.87,44.36-25.41,69.82-4.71-29.18-8.96-51.72-12.76-67.61"/><path id="Path_2295-2" class="cls-8" d="M486.73,174.66c-1.29-11.41,6.92-21.71,18.33-23,10.38-1.17,20.01,5.53,22.52,15.67,5.71,17.89,5.15,42.77-1.68,74.65-25.68-26.53-38.74-48.97-39.17-67.32"/><path id="Path_2296-2" class="cls-8" d="M600.21,226.2c6.11,4.33,14.35,4.03,20.13-.73,5.79-4.77,7.73-12.8,4.74-19.69-8.25-19-52.43-10.16-66.68-3.53,17.37,7.57,31.31,15.55,41.81,23.95"/><path id="Path_2297-2" class="cls-8" d="M504.66,342.64c4.97,3.52,11.69,3.28,16.39-.59,4.72-3.89,6.29-10.43,3.86-16.03-6.71-15.47-42.69-8.27-54.28-2.88,14.14,6.16,25.49,12.66,34.04,19.5"/><path id="Path_2298-2" class="cls-8" d="M563.39,254.99c9.72,1.01,16.78,9.71,15.76,19.43-.91,8.69-8.02,15.42-16.74,15.84-15.7,1.69-36.09-3.05-61.17-14.21,26.25-16.83,46.96-23.85,62.15-21.06"/><path id="Path_2299-2" class="cls-3" d="M427.94,409.27c-42.4,86.16-35.02,390.52-36.58,389.76s-19.47-292.08,30.93-392.53c41.01-81.73,62.2-114.69,97.31-161.44,35.16-46.81,73.02-86.59,113.59-119.33,1.35-1.09,3.32-.89,4.41,.46,0,0,.01,.01,.02,.02,1.09,1.37,.87,3.35-.48,4.46-40.14,32.4-77.65,71.81-112.51,118.23-34.9,46.48-67.13,99.94-96.69,160.39"/><path id="Path_2302-2" class="cls-8" d="M461.95,400.08c-.82-7.29,4.42-13.87,11.71-14.69,6.63-.75,12.78,3.53,14.39,10.01,3.65,11.43,3.29,27.33-1.07,47.7-16.41-16.95-24.75-31.29-25.03-43.01"/><path id="Path_2303-2" class="cls-8" d="M534.46,433.01c3.9,2.76,9.17,2.57,12.86-.47,3.7-3.05,4.94-8.18,3.03-12.58-5.27-12.14-33.5-6.49-42.6-2.26,11.1,4.84,20,9.94,26.71,15.3"/><path id="Path_2304-2" class="cls-8" d="M473.41,507.42c3.18,2.25,7.47,2.1,10.47-.38,3.02-2.48,4.02-6.66,2.47-10.24-4.29-9.88-27.28-5.29-34.69-1.84,9.04,3.94,16.29,8.09,21.75,12.46"/><path id="Path_2305-2" class="cls-8" d="M510.94,451.41c6.21,.65,10.72,6.21,10.07,12.42-.58,5.55-5.12,9.85-10.7,10.12-10.03,1.08-23.06-1.95-39.08-9.08,16.77-10.75,30.01-15.24,39.71-13.46"/><path id="Path_2306-2" class="cls-3" d="M424.39,549.99c-30.73,54.37-22.38,249.52-23.37,249.03s-12.44-186.63,19.76-250.81c26.2-52.22,39.75-73.28,62.18-103.15,22.47-29.91,46.66-55.33,72.58-76.25,.86-.7,2.12-.57,2.81,.29,0,0,.01,.01,.02,.02,.69,.87,.56,2.14-.3,2.85-25.65,20.7-49.61,45.88-71.89,75.54-22.3,29.7-42.9,63.86-61.78,102.48"/><path id="Path_2307-2" class="cls-8" d="M499.48,371.87c-1.42-4.96,.33-10.29,4.41-13.45,4.07-3.15,9.66-3.47,14.06-.81,4.41,2.67,6.76,7.77,5.91,12.86,1.02,13.47-4.39,28.34-16.23,44.61-3.01-18.64-5.73-33.04-8.15-43.2"/><path id="Path_2308-2" class="cls-8" d="M439.44,449.52c-1.42-4.96,.33-10.29,4.41-13.45,4.07-3.15,9.66-3.47,14.06-.81,4.41,2.66,6.14,7.69,5.91,12.86-.6,14.14-4.39,28.34-16.23,44.61-3.01-18.64-5.73-33.04-8.15-43.2"/><path id="Path_2309-2" class="cls-4" d="M400.51,799.02c-43.44,0-19.47,0-19.47,0-16.22-143.5-81.3-268.98-151.95-376.44-39.25-54.81-68.4-99.02-87.45-132.63-12.02-21.22-43.46-71.81,8.78-65.76,53.71,6.24,97.28,49.59,129.06,90.17,84.86,108.37,109.17,269.92,121.03,484.65"/><path id="Path_2310-2" class="cls-9" d="M394.7,799.02h-5.44c-5.6-101.25-23.65-192.66-54.16-274.24-12.14-32.62-26.67-64.3-43.46-94.78-23.82-43.23-52.45-83.62-85.35-120.42-1-1.13-.91-2.85,.2-3.87,1.11-1,2.82-.92,3.83,.19,0,0,0,0,.01,.01,55.83,62.42,99.12,134.74,129.86,216.94,30.71,82.14,48.88,174.14,54.51,276.01v.16Z"/></g></g></g></g></g></g></svg>